<?xml version="1.0" encoding="UTF-8" standalone="no"?>
<!DOCTYPE svg PUBLIC "-//W3C//DTD SVG 1.1//EN"
 "http://www.w3.org/Graphics/SVG/1.1/DTD/svg11.dtd">
<!-- Generated by graphviz version 2.42.4 (0)
 -->
<!-- Title: assert.hpp Pages: 1 -->
<svg width="230pt" height="93pt"
 viewBox="0.00 0.00 230.00 93.00" xmlns="http://www.w3.org/2000/svg" xmlns:xlink="http://www.w3.org/1999/xlink">
<g id="graph0" class="graph" transform="scale(1 1) rotate(0) translate(4 89)">
<title>assert.hpp</title>
<!-- Node1 -->
<g id="Node000001" class="node">
<title>Node1</title>
<g id="a_Node000001"><a xlink:title="assert even during release">
<polygon fill="#999999" stroke="#666666" points="140.5,-85 72.5,-85 72.5,-66 140.5,-66 140.5,-85"/>
<text text-anchor="middle" x="106.5" y="-73" font-family="Helvetica,sans-Serif" font-size="10.00">assert.hpp</text>
</a>
</g>
</g>
<!-- Node2 -->
<g id="Node000002" class="node">
<title>Node2</title>
<g id="a_Node000002"><a xlink:title=" ">
<polygon fill="#e0e0e0" stroke="#999999" points="93,-24.5 0,-24.5 0,-5.5 93,-5.5 93,-24.5"/>
<text text-anchor="middle" x="46.5" y="-12.5" font-family="Helvetica,sans-Serif" font-size="10.00">spdlog/spdlog.h</text>
</a>
</g>
</g>
<!-- Node1&#45;&gt;Node2 -->
<g id="edge1_Node000001_Node000002" class="edge">
<title>Node1&#45;&gt;Node2</title>
<g id="a_edge1_Node000001_Node000002"><a xlink:title=" ">
<path fill="none" stroke="#63b8ff" d="M97.65,-65.87C88.52,-56.97 74.08,-42.89 62.86,-31.95"/>
<polygon fill="#63b8ff" stroke="#63b8ff" points="64.99,-29.14 55.39,-24.67 60.11,-34.15 64.99,-29.14"/>
</a>
</g>
</g>
<!-- Node3 -->
<g id="Node000003" class="node">
<title>Node3</title>
<g id="a_Node000003"><a xlink:title=" ">
<polygon fill="#e0e0e0" stroke="#999999" points="222,-30 111,-30 111,0 222,0 222,-30"/>
<text text-anchor="start" x="119" y="-18" font-family="Helvetica,sans-Serif" font-size="10.00">spdlog/fmt/bundled</text>
<text text-anchor="middle" x="166.5" y="-7" font-family="Helvetica,sans-Serif" font-size="10.00">/core.h</text>
</a>
</g>
</g>
<!-- Node1&#45;&gt;Node3 -->
<g id="edge2_Node000001_Node000003" class="edge">
<title>Node1&#45;&gt;Node3</title>
<g id="a_edge2_Node000001_Node000003"><a xlink:title=" ">
<path fill="none" stroke="#63b8ff" d="M115.35,-65.87C123.04,-58.37 134.5,-47.2 144.63,-37.33"/>
<polygon fill="#63b8ff" stroke="#63b8ff" points="147.31,-39.6 152.02,-30.11 142.42,-34.59 147.31,-39.6"/>
</a>
</g>
</g>
</g>
</svg>
