<?xml version="1.0" encoding="UTF-8" standalone="no"?>
<!DOCTYPE svg PUBLIC "-//W3C//DTD SVG 1.1//EN"
 "http://www.w3.org/Graphics/SVG/1.1/DTD/svg11.dtd">
<!-- Generated by graphviz version 2.42.4 (0)
 -->
<!-- Title: attributes.hpp Pages: 1 -->
<svg width="1079pt" height="82pt"
 viewBox="0.00 0.00 1078.50 82.00" xmlns="http://www.w3.org/2000/svg" xmlns:xlink="http://www.w3.org/1999/xlink">
<g id="graph0" class="graph" transform="scale(1 1) rotate(0) translate(4 78)">
<title>attributes.hpp</title>
<!-- Node1 -->
<g id="Node000001" class="node">
<title>Node1</title>
<g id="a_Node000001"><a xlink:title="an opinionated subset of clang/gcc attributes">
<polygon fill="#999999" stroke="#666666" points="560,-74 475,-74 475,-55 560,-55 560,-74"/>
<text text-anchor="middle" x="517.5" y="-62" font-family="Helvetica,sans-Serif" font-size="10.00">attributes.hpp</text>
</a>
</g>
</g>
<!-- Node2 -->
<g id="Node000002" class="node">
<title>Node2</title>
<g id="a_Node000002"><a xlink:href="cpuid_8cppm.html" target="_top" xlink:title=" ">
<polygon fill="white" stroke="#666666" points="73,-19 0,-19 0,0 73,0 73,-19"/>
<text text-anchor="middle" x="36.5" y="-7" font-family="Helvetica,sans-Serif" font-size="10.00">cpuid.cppm</text>
</a>
</g>
</g>
<!-- Node1&#45;&gt;Node2 -->
<g id="edge1_Node000001_Node000002" class="edge">
<title>Node1&#45;&gt;Node2</title>
<g id="a_edge1_Node000001_Node000002"><a xlink:title=" ">
<path fill="none" stroke="#63b8ff" d="M464.88,-59.58C382.75,-53.14 219.24,-39 81.5,-19 78.82,-18.61 76.07,-18.18 73.29,-17.71"/>
<polygon fill="#63b8ff" stroke="#63b8ff" points="464.72,-63.08 474.96,-60.37 465.26,-56.1 464.72,-63.08"/>
</a>
</g>
</g>
<!-- Node3 -->
<g id="Node000003" class="node">
<title>Node3</title>
<g id="a_Node000003"><a xlink:href="fp16_8hpp.html" target="_top" xlink:title=" ">
<polygon fill="white" stroke="#666666" points="150,-19 91,-19 91,0 150,0 150,-19"/>
<text text-anchor="middle" x="120.5" y="-7" font-family="Helvetica,sans-Serif" font-size="10.00">fp16.hpp</text>
</a>
</g>
</g>
<!-- Node1&#45;&gt;Node3 -->
<g id="edge2_Node000001_Node000003" class="edge">
<title>Node1&#45;&gt;Node3</title>
<g id="a_edge2_Node000001_Node000003"><a xlink:title=" ">
<path fill="none" stroke="#63b8ff" d="M464.56,-58.44C394.49,-51.4 267.26,-37.4 159.5,-19 156.49,-18.49 153.37,-17.9 150.26,-17.28"/>
<polygon fill="#63b8ff" stroke="#63b8ff" points="464.58,-61.96 474.88,-59.47 465.28,-54.99 464.58,-61.96"/>
</a>
</g>
</g>
<!-- Node4 -->
<g id="Node000004" class="node">
<title>Node4</title>
<g id="a_Node000004"><a xlink:href="memory_8cppm.html" target="_top" xlink:title=" ">
<polygon fill="white" stroke="#666666" points="254.5,-19 168.5,-19 168.5,0 254.5,0 254.5,-19"/>
<text text-anchor="middle" x="211.5" y="-7" font-family="Helvetica,sans-Serif" font-size="10.00">memory.cppm</text>
</a>
</g>
</g>
<!-- Node1&#45;&gt;Node4 -->
<g id="edge3_Node000001_Node000004" class="edge">
<title>Node1&#45;&gt;Node4</title>
<g id="a_edge3_Node000001_Node000004"><a xlink:title=" ">
<path fill="none" stroke="#63b8ff" d="M465.02,-54.41C405.61,-44.12 309.93,-27.55 254.67,-17.98"/>
<polygon fill="#63b8ff" stroke="#63b8ff" points="464.5,-57.87 474.95,-56.13 465.7,-50.98 464.5,-57.87"/>
</a>
</g>
</g>
<!-- Node5 -->
<g id="Node000005" class="node">
<title>Node5</title>
<g id="a_Node000005"><a xlink:href="numerics_8cppm.html" target="_top" xlink:title=" ">
<polygon fill="white" stroke="#666666" points="364.5,-19 272.5,-19 272.5,0 364.5,0 364.5,-19"/>
<text text-anchor="middle" x="318.5" y="-7" font-family="Helvetica,sans-Serif" font-size="10.00">numerics.cppm</text>
</a>
</g>
</g>
<!-- Node1&#45;&gt;Node5 -->
<g id="edge4_Node000001_Node000005" class="edge">
<title>Node1&#45;&gt;Node5</title>
<g id="a_edge4_Node000001_Node000005"><a xlink:title=" ">
<path fill="none" stroke="#63b8ff" d="M475.49,-52.31C438.25,-42.39 384.66,-28.12 350.72,-19.08"/>
<polygon fill="#63b8ff" stroke="#63b8ff" points="474.96,-55.79 485.53,-54.98 476.76,-49.03 474.96,-55.79"/>
</a>
</g>
</g>
<!-- Node6 -->
<g id="Node000006" class="node">
<title>Node6</title>
<g id="a_Node000006"><a xlink:href="prelude_8hpp.html" target="_top" xlink:title=" ">
<polygon fill="white" stroke="#666666" points="456.5,-19 382.5,-19 382.5,0 456.5,0 456.5,-19"/>
<text text-anchor="middle" x="419.5" y="-7" font-family="Helvetica,sans-Serif" font-size="10.00">prelude.hpp</text>
</a>
</g>
</g>
<!-- Node1&#45;&gt;Node6 -->
<g id="edge5_Node000001_Node000006" class="edge">
<title>Node1&#45;&gt;Node6</title>
<g id="a_edge5_Node000001_Node000006"><a xlink:title=" ">
<path fill="none" stroke="#63b8ff" d="M492.47,-49.97C474.56,-40.28 450.97,-27.52 435.53,-19.17"/>
<polygon fill="#63b8ff" stroke="#63b8ff" points="491.29,-53.31 501.75,-54.98 494.62,-47.15 491.29,-53.31"/>
</a>
</g>
</g>
<!-- Node7 -->
<g id="Node000007" class="node">
<title>Node7</title>
<g id="a_Node000007"><a xlink:href="profiling_8cppm.html" target="_top" xlink:title=" ">
<polygon fill="white" stroke="#666666" points="560.5,-19 474.5,-19 474.5,0 560.5,0 560.5,-19"/>
<text text-anchor="middle" x="517.5" y="-7" font-family="Helvetica,sans-Serif" font-size="10.00">profiling.cppm</text>
</a>
</g>
</g>
<!-- Node1&#45;&gt;Node7 -->
<g id="edge6_Node000001_Node000007" class="edge">
<title>Node1&#45;&gt;Node7</title>
<g id="a_edge6_Node000001_Node000007"><a xlink:title=" ">
<path fill="none" stroke="#63b8ff" d="M517.5,-44.66C517.5,-35.93 517.5,-25.99 517.5,-19.09"/>
<polygon fill="#63b8ff" stroke="#63b8ff" points="514,-44.75 517.5,-54.75 521,-44.75 514,-44.75"/>
</a>
</g>
</g>
<!-- Node8 -->
<g id="Node000008" class="node">
<title>Node8</title>
<g id="a_Node000008"><a xlink:href="simd_8cppm.html" target="_top" xlink:title=" ">
<polygon fill="white" stroke="#666666" points="650,-19 579,-19 579,0 650,0 650,-19"/>
<text text-anchor="middle" x="614.5" y="-7" font-family="Helvetica,sans-Serif" font-size="10.00">simd.cppm</text>
</a>
</g>
</g>
<!-- Node1&#45;&gt;Node8 -->
<g id="edge7_Node000001_Node000008" class="edge">
<title>Node1&#45;&gt;Node8</title>
<g id="a_edge7_Node000001_Node000008"><a xlink:title=" ">
<path fill="none" stroke="#63b8ff" d="M542.27,-49.97C560,-40.28 583.35,-27.52 598.63,-19.17"/>
<polygon fill="#63b8ff" stroke="#63b8ff" points="540.18,-47.12 533.08,-54.98 543.54,-53.26 540.18,-47.12"/>
</a>
</g>
</g>
<!-- Node9 -->
<g id="Node000009" class="node">
<title>Node9</title>
<g id="a_Node000009"><a xlink:href="simd__data_8cppm.html" target="_top" xlink:title=" ">
<polygon fill="white" stroke="#666666" points="766.5,-19 668.5,-19 668.5,0 766.5,0 766.5,-19"/>
<text text-anchor="middle" x="717.5" y="-7" font-family="Helvetica,sans-Serif" font-size="10.00">simd_data.cppm</text>
</a>
</g>
</g>
<!-- Node1&#45;&gt;Node9 -->
<g id="edge8_Node000001_Node000009" class="edge">
<title>Node1&#45;&gt;Node9</title>
<g id="a_edge8_Node000001_Node000009"><a xlink:title=" ">
<path fill="none" stroke="#63b8ff" d="M559.72,-52.31C597.15,-42.39 651,-28.12 685.11,-19.08"/>
<polygon fill="#63b8ff" stroke="#63b8ff" points="558.4,-49.04 549.63,-54.98 560.2,-55.81 558.4,-49.04"/>
</a>
</g>
</g>
<!-- Node10 -->
<g id="Node000010" class="node">
<title>Node10</title>
<g id="a_Node000010"><a xlink:href="static__string_8cppm.html" target="_top" xlink:title=" ">
<polygon fill="white" stroke="#666666" points="892,-19 785,-19 785,0 892,0 892,-19"/>
<text text-anchor="middle" x="838.5" y="-7" font-family="Helvetica,sans-Serif" font-size="10.00">static_string.cppm</text>
</a>
</g>
</g>
<!-- Node1&#45;&gt;Node10 -->
<g id="edge9_Node000001_Node000010" class="edge">
<title>Node1&#45;&gt;Node10</title>
<g id="a_edge9_Node000001_Node000010"><a xlink:title=" ">
<path fill="none" stroke="#63b8ff" d="M570.14,-54.81C630.1,-44.91 727.42,-28.84 786.93,-19.01"/>
<polygon fill="#63b8ff" stroke="#63b8ff" points="569.42,-51.38 560.13,-56.46 570.56,-58.29 569.42,-51.38"/>
</a>
</g>
</g>
<!-- Node11 -->
<g id="Node000011" class="node">
<title>Node11</title>
<g id="a_Node000011"><a xlink:href="types_8cppm.html" target="_top" xlink:title=" ">
<polygon fill="white" stroke="#666666" points="984.5,-19 910.5,-19 910.5,0 984.5,0 984.5,-19"/>
<text text-anchor="middle" x="947.5" y="-7" font-family="Helvetica,sans-Serif" font-size="10.00">types.cppm</text>
</a>
</g>
</g>
<!-- Node1&#45;&gt;Node11 -->
<g id="edge10_Node000001_Node000011" class="edge">
<title>Node1&#45;&gt;Node11</title>
<g id="a_edge10_Node000001_Node000011"><a xlink:title=" ">
<path fill="none" stroke="#63b8ff" d="M570.27,-58.52C644.42,-51.27 783.6,-36.7 901.5,-19 904.39,-18.57 907.38,-18.09 910.38,-17.58"/>
<polygon fill="#63b8ff" stroke="#63b8ff" points="569.86,-55.04 560.24,-59.5 570.53,-62.01 569.86,-55.04"/>
</a>
</g>
</g>
<!-- Node12 -->
<g id="Node000012" class="node">
<title>Node12</title>
<g id="a_Node000012"><a xlink:href="wait_8cppm.html" target="_top" xlink:title="waiting strategies">
<polygon fill="white" stroke="#666666" points="1070.5,-19 1002.5,-19 1002.5,0 1070.5,0 1070.5,-19"/>
<text text-anchor="middle" x="1036.5" y="-7" font-family="Helvetica,sans-Serif" font-size="10.00">wait.cppm</text>
</a>
</g>
</g>
<!-- Node1&#45;&gt;Node12 -->
<g id="edge11_Node000001_Node000012" class="edge">
<title>Node1&#45;&gt;Node12</title>
<g id="a_edge11_Node000001_Node000012"><a xlink:title=" ">
<path fill="none" stroke="#63b8ff" d="M570.01,-60.35C657.95,-54.68 840.42,-41.23 993.5,-19 996.36,-18.58 999.32,-18.11 1002.29,-17.59"/>
<polygon fill="#63b8ff" stroke="#63b8ff" points="569.78,-56.86 560.02,-60.98 570.22,-63.84 569.78,-56.86"/>
</a>
</g>
</g>
</g>
</svg>
