<?xml version="1.0" encoding="UTF-8" standalone="no"?>
<!DOCTYPE svg PUBLIC "-//W3C//DTD SVG 1.1//EN"
 "http://www.w3.org/Graphics/SVG/1.1/DTD/svg11.dtd">
<!-- Generated by graphviz version 2.42.4 (0)
 -->
<!-- Title: attributes.hpp Pages: 1 -->
<!--zoomable 148 -->

<svg id="main" version="1.1" xmlns="http://www.w3.org/2000/svg" xmlns:xlink="http://www.w3.org/1999/xlink" xml:space="preserve" onload="init(evt)">

<style type="text/css"><![CDATA[
.node, .edge {opacity: 0.7;}
.node.selected, .edge.selected {opacity: 1;}
.edge:hover path { stroke: red; }
.edge:hover polygon { stroke: red; fill: red; }
]]></style>

<defs>
  <circle id="rim" cx="0" cy="0" r="7"/>
  <circle id="rim2" cx="0" cy="0" r="3.5"/>
  <g id="zoomPlus">
    <use xlink:href="#rim" fill="#404040"><set attributeName="fill" to="#808080" begin="zoomplus.mouseover" end="zoomplus.mouseout"/></use>
    <path d="M-4,0h8M0,-4v8" fill="none" stroke="white" stroke-width="1.5" pointer-events="none"/>
  </g>
  <g id="zoomMin">
    <use xlink:href="#rim" fill="#404040"><set attributeName="fill" to="#808080" begin="zoomminus.mouseover" end="zoomminus.mouseout"/></use>
    <path d="M-4,0h8" fill="none" stroke="white" stroke-width="1.5" pointer-events="none"/>
  </g>
  <g id="arrowUp" transform="translate(30 24)">
    <use xlink:href="#rim"/>
    <path pointer-events="none" fill="none" stroke="white" stroke-width="1.5" d="M0,-3.0v7 M-2.5,-0.5L0,-3.0L2.5,-0.5"/>
  </g>
  <g id="arrowRight" transform="rotate(90) translate(36 -43)">
    <use xlink:href="#rim"/>
    <path pointer-events="none" fill="none" stroke="white" stroke-width="1.5" d="M0,-3.0v7 M-2.5,-0.5L0,-3.0L2.5,-0.5"/>
  </g>
  <g id="arrowDown" transform="rotate(180) translate(-30 -48)">
    <use xlink:href="#rim"/>
    <path pointer-events="none" fill="none" stroke="white" stroke-width="1.5" d="M0,-3.0v7 M-2.5,-0.5L0,-3.0L2.5,-0.5"/>
  </g>
  <g id="arrowLeft" transform="rotate(270) translate(-36 17)">
    <use xlink:href="#rim"/>
    <path pointer-events="none" fill="none" stroke="white" stroke-width="1.5" d="M0,-3.0v7 M-2.5,-0.5L0,-3.0L2.5,-0.5"/>
  </g>
  <g id="resetDef">
    <use xlink:href="#rim2" fill="#404040"><set attributeName="fill" to="#808080" begin="reset.mouseover" end="reset.mouseout"/></use>
  </g>
</defs>
<script type="application/ecmascript">
var viewWidth = 2444;
var viewHeight = 148;
var sectionId = 'dynsection-0';
</script>
<script type="application/ecmascript" xlink:href="svg.min.js"/>
<svg id="graph" class="graph">
<g id="viewport">
<title>attributes.hpp</title>
<!-- Node1 -->
<g id="Node000001" class="node">
<title>Node1</title>
<g id="a_Node000001"><a xlink:title="an opinionated subset of clang/gcc attributes">
<polygon fill="#999999" stroke="#666666" points="1281.5,-140 1196.5,-140 1196.5,-121 1281.5,-121 1281.5,-140"/>
<text text-anchor="middle" x="1239" y="-128" font-family="Helvetica,sans-Serif" font-size="10.00">attributes.hpp</text>
</a>
</g>
</g>
<!-- Node2 -->
<g id="Node000002" class="node">
<title>Node2</title>
<g id="a_Node000002"><a xlink:title=" ">
<polygon fill="#e0e0e0" stroke="#999999" points="134,-79.5 0,-79.5 0,-60.5 134,-60.5 134,-79.5"/>
<text text-anchor="middle" x="67" y="-67.5" font-family="Helvetica,sans-Serif" font-size="10.00">attributes/detection.hpp</text>
</a>
</g>
</g>
<!-- Node1&#45;&gt;Node2 -->
<g id="edge1_Node000001_Node000002" class="edge">
<title>Node1&#45;&gt;Node2</title>
<g id="a_edge1_Node000001_Node000002"><a xlink:title=" ">
<path fill="none" stroke="#63b8ff" d="M1196.27,-129.93C1049.27,-130.97 551.08,-130.64 143,-85 134.66,-84.07 125.86,-82.76 117.33,-81.3"/>
<polygon fill="#63b8ff" stroke="#63b8ff" points="117.93,-77.86 107.47,-79.55 116.7,-84.75 117.93,-77.86"/>
</a>
</g>
</g>
<!-- Node3 -->
<g id="Node000003" class="node">
<title>Node3</title>
<g id="a_Node000003"><a xlink:title=" ">
<polygon fill="#e0e0e0" stroke="#999999" points="276,-79.5 152,-79.5 152,-60.5 276,-60.5 276,-79.5"/>
<text text-anchor="middle" x="214" y="-67.5" font-family="Helvetica,sans-Serif" font-size="10.00">attributes/inlining.hpp</text>
</a>
</g>
</g>
<!-- Node1&#45;&gt;Node3 -->
<g id="edge2_Node000001_Node000003" class="edge">
<title>Node1&#45;&gt;Node3</title>
<g id="a_edge2_Node000001_Node000003"><a xlink:title=" ">
<path fill="none" stroke="#63b8ff" d="M1196.5,-129.75C1062.21,-130.08 635.19,-127.46 285,-85 277.46,-84.09 269.51,-82.82 261.78,-81.42"/>
<polygon fill="#63b8ff" stroke="#63b8ff" points="262.26,-77.95 251.79,-79.53 260.96,-84.83 262.26,-77.95"/>
</a>
</g>
</g>
<!-- Node4 -->
<g id="Node000004" class="node">
<title>Node4</title>
<g id="a_Node000004"><a xlink:href="targets_8hpp.html" target="_top" xlink:title=" ">
<polygon fill="white" stroke="#666666" points="416,-79.5 294,-79.5 294,-60.5 416,-60.5 416,-79.5"/>
<text text-anchor="middle" x="355" y="-67.5" font-family="Helvetica,sans-Serif" font-size="10.00">attributes/targets.hpp</text>
</a>
</g>
</g>
<!-- Node1&#45;&gt;Node4 -->
<g id="edge3_Node000001_Node000004" class="edge">
<title>Node1&#45;&gt;Node4</title>
<g id="a_edge3_Node000001_Node000004"><a xlink:title=" ">
<path fill="none" stroke="#63b8ff" d="M1196.44,-129.31C1075.3,-128.31 718.45,-122.17 425,-85 417.73,-84.08 410.08,-82.84 402.62,-81.47"/>
<polygon fill="#63b8ff" stroke="#63b8ff" points="403.1,-78 392.62,-79.55 401.78,-84.87 403.1,-78"/>
</a>
</g>
</g>
<!-- Node6 -->
<g id="Node000006" class="node">
<title>Node6</title>
<g id="a_Node000006"><a xlink:href="calling__conventions_8hpp.html" target="_top" xlink:title=" ">
<polygon fill="white" stroke="#666666" points="536,-85 434,-85 434,-55 536,-55 536,-85"/>
<text text-anchor="start" x="442" y="-73" font-family="Helvetica,sans-Serif" font-size="10.00">attributes/calling</text>
<text text-anchor="middle" x="485" y="-62" font-family="Helvetica,sans-Serif" font-size="10.00">_conventions.hpp</text>
</a>
</g>
</g>
<!-- Node1&#45;&gt;Node6 -->
<g id="edge5_Node000001_Node000006" class="edge">
<title>Node1&#45;&gt;Node6</title>
<g id="a_edge5_Node000001_Node000006"><a xlink:title=" ">
<path fill="none" stroke="#63b8ff" d="M1196.5,-129.21C1089.02,-127.96 797.67,-121.34 546.33,-85.02"/>
<polygon fill="#63b8ff" stroke="#63b8ff" points="546.68,-81.54 536.28,-83.55 545.67,-88.46 546.68,-81.54"/>
</a>
</g>
</g>
<!-- Node7 -->
<g id="Node000007" class="node">
<title>Node7</title>
<g id="a_Node000007"><a xlink:title=" ">
<polygon fill="#e0e0e0" stroke="#999999" points="677.5,-79.5 554.5,-79.5 554.5,-60.5 677.5,-60.5 677.5,-79.5"/>
<text text-anchor="middle" x="616" y="-67.5" font-family="Helvetica,sans-Serif" font-size="10.00">attributes/linkage.hpp</text>
</a>
</g>
</g>
<!-- Node1&#45;&gt;Node7 -->
<g id="edge7_Node000001_Node000007" class="edge">
<title>Node1&#45;&gt;Node7</title>
<g id="a_edge7_Node000001_Node000007"><a xlink:title=" ">
<path fill="none" stroke="#63b8ff" d="M1196.23,-127.72C1103.23,-123.48 875.81,-111.14 687,-85 679.81,-84.01 672.26,-82.75 664.86,-81.39"/>
<polygon fill="#63b8ff" stroke="#63b8ff" points="665.4,-77.93 654.93,-79.51 664.1,-84.81 665.4,-77.93"/>
</a>
</g>
</g>
<!-- Node8 -->
<g id="Node000008" class="node">
<title>Node8</title>
<g id="a_Node000008"><a xlink:href="typestate_8hpp.html" target="_top" xlink:title=" ">
<polygon fill="white" stroke="#666666" points="830,-79.5 696,-79.5 696,-60.5 830,-60.5 830,-79.5"/>
<text text-anchor="middle" x="763" y="-67.5" font-family="Helvetica,sans-Serif" font-size="10.00">attributes/typestate.hpp</text>
</a>
</g>
</g>
<!-- Node1&#45;&gt;Node8 -->
<g id="edge8_Node000001_Node000008" class="edge">
<title>Node1&#45;&gt;Node8</title>
<g id="a_edge8_Node000001_Node000008"><a xlink:title=" ">
<path fill="none" stroke="#63b8ff" d="M1196.25,-125.75C1122.94,-119.11 968.61,-104.12 839,-85 831.62,-83.91 823.85,-82.63 816.23,-81.3"/>
<polygon fill="#63b8ff" stroke="#63b8ff" points="816.78,-77.85 806.32,-79.53 815.55,-84.74 816.78,-77.85"/>
</a>
</g>
</g>
<!-- Node9 -->
<g id="Node000009" class="node">
<title>Node9</title>
<g id="a_Node000009"><a xlink:href="thread__safety_8hpp.html" target="_top" xlink:title=" ">
<polygon fill="white" stroke="#666666" points="1002,-79.5 848,-79.5 848,-60.5 1002,-60.5 1002,-79.5"/>
<text text-anchor="middle" x="925" y="-67.5" font-family="Helvetica,sans-Serif" font-size="10.00">attributes/thread_safety.hpp</text>
</a>
</g>
</g>
<!-- Node1&#45;&gt;Node9 -->
<g id="edge10_Node000001_Node000009" class="edge">
<title>Node1&#45;&gt;Node9</title>
<g id="a_edge10_Node000001_Node000009"><a xlink:title=" ">
<path fill="none" stroke="#63b8ff" d="M1196.33,-121.55C1140.41,-111.13 1042.25,-92.84 980.58,-81.36"/>
<polygon fill="#63b8ff" stroke="#63b8ff" points="981.11,-77.89 970.64,-79.5 979.83,-84.77 981.11,-77.89"/>
</a>
</g>
</g>
<!-- Node10 -->
<g id="Node000010" class="node">
<title>Node10</title>
<g id="a_Node000010"><a xlink:href="handles_8hpp.html" target="_top" xlink:title=" ">
<polygon fill="white" stroke="#666666" points="1146,-79.5 1020,-79.5 1020,-60.5 1146,-60.5 1146,-79.5"/>
<text text-anchor="middle" x="1083" y="-67.5" font-family="Helvetica,sans-Serif" font-size="10.00">attributes/handles.hpp</text>
</a>
</g>
</g>
<!-- Node1&#45;&gt;Node10 -->
<g id="edge12_Node000001_Node000010" class="edge">
<title>Node1&#45;&gt;Node10</title>
<g id="a_edge12_Node000001_Node000010"><a xlink:title=" ">
<path fill="none" stroke="#63b8ff" d="M1216.32,-120.99C1189.74,-111.03 1145.52,-94.45 1115.36,-83.13"/>
<polygon fill="#63b8ff" stroke="#63b8ff" points="1116.3,-79.75 1105.71,-79.52 1113.85,-86.31 1116.3,-79.75"/>
</a>
</g>
</g>
<!-- Node11 -->
<g id="Node000011" class="node">
<title>Node11</title>
<g id="a_Node000011"><a xlink:title=" ">
<polygon fill="#e0e0e0" stroke="#999999" points="1313.5,-79.5 1164.5,-79.5 1164.5,-60.5 1313.5,-60.5 1313.5,-79.5"/>
<text text-anchor="middle" x="1239" y="-67.5" font-family="Helvetica,sans-Serif" font-size="10.00">attributes/initialization.hpp</text>
</a>
</g>
</g>
<!-- Node1&#45;&gt;Node11 -->
<g id="edge14_Node000001_Node000011" class="edge">
<title>Node1&#45;&gt;Node11</title>
<g id="a_edge14_Node000001_Node000011"><a xlink:title=" ">
<path fill="none" stroke="#63b8ff" d="M1239,-120.87C1239,-112.75 1239,-100.31 1239,-89.89"/>
<polygon fill="#63b8ff" stroke="#63b8ff" points="1242.5,-89.67 1239,-79.67 1235.5,-89.67 1242.5,-89.67"/>
</a>
</g>
</g>
<!-- Node12 -->
<g id="Node000012" class="node">
<title>Node12</title>
<g id="a_Node000012"><a xlink:title=" ">
<polygon fill="#e0e0e0" stroke="#999999" points="1446.5,-79.5 1331.5,-79.5 1331.5,-60.5 1446.5,-60.5 1446.5,-79.5"/>
<text text-anchor="middle" x="1389" y="-67.5" font-family="Helvetica,sans-Serif" font-size="10.00">attributes/purity.hpp</text>
</a>
</g>
</g>
<!-- Node1&#45;&gt;Node12 -->
<g id="edge15_Node000001_Node000012" class="edge">
<title>Node1&#45;&gt;Node12</title>
<g id="a_edge15_Node000001_Node000012"><a xlink:title=" ">
<path fill="none" stroke="#63b8ff" d="M1260.81,-120.99C1286.25,-111.07 1328.51,-94.59 1357.51,-83.28"/>
<polygon fill="#63b8ff" stroke="#63b8ff" points="1359.12,-86.41 1367.16,-79.52 1356.57,-79.89 1359.12,-86.41"/>
</a>
</g>
</g>
<!-- Node13 -->
<g id="Node000013" class="node">
<title>Node13</title>
<g id="a_Node000013"><a xlink:href="attributes_2memory_8hpp.html" target="_top" xlink:title=" ">
<polygon fill="white" stroke="#666666" points="1593,-79.5 1465,-79.5 1465,-60.5 1593,-60.5 1593,-79.5"/>
<text text-anchor="middle" x="1529" y="-67.5" font-family="Helvetica,sans-Serif" font-size="10.00">attributes/memory.hpp</text>
</a>
</g>
</g>
<!-- Node1&#45;&gt;Node13 -->
<g id="edge16_Node000001_Node000013" class="edge">
<title>Node1&#45;&gt;Node13</title>
<g id="a_edge16_Node000001_Node000013"><a xlink:title=" ">
<path fill="none" stroke="#63b8ff" d="M1281.17,-120.99C1332.93,-110.55 1420.71,-92.85 1476.71,-81.55"/>
<polygon fill="#63b8ff" stroke="#63b8ff" points="1477.67,-84.93 1486.78,-79.52 1476.29,-78.06 1477.67,-84.93"/>
</a>
</g>
</g>
<!-- Node14 -->
<g id="Node000014" class="node">
<title>Node14</title>
<g id="a_Node000014"><a xlink:href="strings_8hpp.html" target="_top" xlink:title=" ">
<polygon fill="white" stroke="#666666" points="1732.5,-79.5 1611.5,-79.5 1611.5,-60.5 1732.5,-60.5 1732.5,-79.5"/>
<text text-anchor="middle" x="1672" y="-67.5" font-family="Helvetica,sans-Serif" font-size="10.00">attributes/strings.hpp</text>
</a>
</g>
</g>
<!-- Node1&#45;&gt;Node14 -->
<g id="edge18_Node000001_Node000014" class="edge">
<title>Node1&#45;&gt;Node14</title>
<g id="a_edge18_Node000001_Node000014"><a xlink:title=" ">
<path fill="none" stroke="#63b8ff" d="M1281.62,-125.33C1349.59,-118.44 1486.66,-103.58 1602,-85 1608.58,-83.94 1615.48,-82.71 1622.28,-81.42"/>
<polygon fill="#63b8ff" stroke="#63b8ff" points="1622.96,-84.86 1632.12,-79.52 1621.63,-77.98 1622.96,-84.86"/>
</a>
</g>
</g>
<!-- Node15 -->
<g id="Node000015" class="node">
<title>Node15</title>
<g id="a_Node000015"><a xlink:title=" ">
<polygon fill="#e0e0e0" stroke="#999999" points="1881.5,-79.5 1750.5,-79.5 1750.5,-60.5 1881.5,-60.5 1881.5,-79.5"/>
<text text-anchor="middle" x="1816" y="-67.5" font-family="Helvetica,sans-Serif" font-size="10.00">attributes/lifetimes.hpp</text>
</a>
</g>
</g>
<!-- Node1&#45;&gt;Node15 -->
<g id="edge20_Node000001_Node000015" class="edge">
<title>Node1&#45;&gt;Node15</title>
<g id="a_edge20_Node000001_Node000015"><a xlink:title=" ">
<path fill="none" stroke="#63b8ff" d="M1281.56,-127.16C1368.41,-122.06 1572.23,-108.51 1742,-85 1749.38,-83.98 1757.15,-82.72 1764.76,-81.37"/>
<polygon fill="#63b8ff" stroke="#63b8ff" points="1765.42,-84.81 1774.63,-79.57 1764.17,-77.92 1765.42,-84.81"/>
</a>
</g>
</g>
<!-- Node16 -->
<g id="Node000016" class="node">
<title>Node16</title>
<g id="a_Node000016"><a xlink:href="control__flow_8hpp.html" target="_top" xlink:title=" ">
<polygon fill="white" stroke="#666666" points="2000.5,-85 1899.5,-85 1899.5,-55 2000.5,-55 2000.5,-85"/>
<text text-anchor="start" x="1907.5" y="-73" font-family="Helvetica,sans-Serif" font-size="10.00">attributes/control</text>
<text text-anchor="middle" x="1950" y="-62" font-family="Helvetica,sans-Serif" font-size="10.00">_flow.hpp</text>
</a>
</g>
</g>
<!-- Node1&#45;&gt;Node16 -->
<g id="edge21_Node000001_Node000016" class="edge">
<title>Node1&#45;&gt;Node16</title>
<g id="a_edge21_Node000001_Node000016"><a xlink:title=" ">
<path fill="none" stroke="#63b8ff" d="M1281.6,-129.02C1384.57,-127.33 1655.2,-119.81 1889.2,-85.11"/>
<polygon fill="#63b8ff" stroke="#63b8ff" points="1889.89,-88.55 1899.26,-83.6 1888.85,-81.63 1889.89,-88.55"/>
</a>
</g>
</g>
<!-- Node17 -->
<g id="Node000017" class="node">
<title>Node17</title>
<g id="a_Node000017"><a xlink:href="null__safety_8hpp.html" target="_top" xlink:title=" ">
<polygon fill="white" stroke="#666666" points="2159,-79.5 2019,-79.5 2019,-60.5 2159,-60.5 2159,-79.5"/>
<text text-anchor="middle" x="2089" y="-67.5" font-family="Helvetica,sans-Serif" font-size="10.00">attributes/null_safety.hpp</text>
</a>
</g>
</g>
<!-- Node1&#45;&gt;Node17 -->
<g id="edge23_Node000001_Node000017" class="edge">
<title>Node1&#45;&gt;Node17</title>
<g id="a_edge23_Node000001_Node000017"><a xlink:title=" ">
<path fill="none" stroke="#63b8ff" d="M1281.78,-128.8C1398.76,-126.49 1733.68,-117.34 2010,-85 2018.45,-84.01 2027.37,-82.7 2036.05,-81.27"/>
<polygon fill="#63b8ff" stroke="#63b8ff" points="2036.82,-84.69 2046.08,-79.55 2035.64,-77.79 2036.82,-84.69"/>
</a>
</g>
</g>
<!-- Node18 -->
<g id="Node000018" class="node">
<title>Node18</title>
<g id="a_Node000018"><a xlink:href="cuda_8hpp.html" target="_top" xlink:title=" ">
<polygon fill="white" stroke="#666666" points="2288.5,-79.5 2177.5,-79.5 2177.5,-60.5 2288.5,-60.5 2288.5,-79.5"/>
<text text-anchor="middle" x="2233" y="-67.5" font-family="Helvetica,sans-Serif" font-size="10.00">attributes/cuda.hpp</text>
</a>
</g>
</g>
<!-- Node1&#45;&gt;Node18 -->
<g id="edge25_Node000001_Node000018" class="edge">
<title>Node1&#45;&gt;Node18</title>
<g id="a_edge25_Node000001_Node000018"><a xlink:title=" ">
<path fill="none" stroke="#63b8ff" d="M1281.82,-129.94C1414.22,-130.77 1828.57,-129.38 2168,-85 2174.69,-84.13 2181.71,-82.92 2188.57,-81.58"/>
<polygon fill="#63b8ff" stroke="#63b8ff" points="2189.35,-84.99 2198.44,-79.55 2187.94,-78.14 2189.35,-84.99"/>
</a>
</g>
</g>
<!-- Node19 -->
<g id="Node000019" class="node">
<title>Node19</title>
<g id="a_Node000019"><a xlink:href="performance__constraints_8hpp.html" target="_top" xlink:title=" ">
<polygon fill="white" stroke="#666666" points="2435.5,-85 2306.5,-85 2306.5,-55 2435.5,-55 2435.5,-85"/>
<text text-anchor="start" x="2314.5" y="-73" font-family="Helvetica,sans-Serif" font-size="10.00">attributes/performance</text>
<text text-anchor="middle" x="2371" y="-62" font-family="Helvetica,sans-Serif" font-size="10.00">_constraints.hpp</text>
</a>
</g>
</g>
<!-- Node1&#45;&gt;Node19 -->
<g id="edge27_Node000001_Node000019" class="edge">
<title>Node1&#45;&gt;Node19</title>
<g id="a_edge27_Node000001_Node000019"><a xlink:title=" ">
<path fill="none" stroke="#63b8ff" d="M1281.55,-129.96C1423.98,-131.01 1897.07,-130.69 2296.19,-85.1"/>
<polygon fill="#63b8ff" stroke="#63b8ff" points="2296.67,-88.56 2306.2,-83.94 2295.86,-81.61 2296.67,-88.56"/>
</a>
</g>
</g>
<!-- Node5 -->
<g id="Node000005" class="node">
<title>Node5</title>
<g id="a_Node000005"><a xlink:href="common_8hpp.html" target="_top" xlink:title=" ">
<polygon fill="white" stroke="#666666" points="1569,-19 1489,-19 1489,0 1569,0 1569,-19"/>
<text text-anchor="middle" x="1529" y="-7" font-family="Helvetica,sans-Serif" font-size="10.00">common.hpp</text>
</a>
</g>
</g>
<!-- Node4&#45;&gt;Node5 -->
<g id="edge4_Node000004_Node000005" class="edge">
<title>Node4&#45;&gt;Node5</title>
<g id="a_edge4_Node000004_Node000005"><a xlink:title=" ">
<path fill="none" stroke="#63b8ff" d="M391.88,-60.5C402.52,-58.35 414.17,-56.29 425,-55 633.32,-30.13 1291.66,-15.27 1478.88,-11.47"/>
<polygon fill="#63b8ff" stroke="#63b8ff" points="1479.06,-14.97 1488.99,-11.27 1478.92,-7.97 1479.06,-14.97"/>
</a>
</g>
</g>
<!-- Node6&#45;&gt;Node5 -->
<g id="edge6_Node000006_Node000005" class="edge">
<title>Node6&#45;&gt;Node5</title>
<g id="a_edge6_Node000006_Node000005"><a xlink:title=" ">
<path fill="none" stroke="#63b8ff" d="M536.27,-56.38C539.21,-55.86 542.14,-55.4 545,-55 728.23,-29.7 1304.46,-15.38 1478.64,-11.55"/>
<polygon fill="#63b8ff" stroke="#63b8ff" points="1478.88,-15.05 1488.8,-11.33 1478.73,-8.05 1478.88,-15.05"/>
</a>
</g>
</g>
<!-- Node8&#45;&gt;Node5 -->
<g id="edge9_Node000008_Node000005" class="edge">
<title>Node8&#45;&gt;Node5</title>
<g id="a_edge9_Node000008_Node000005"><a xlink:title=" ">
<path fill="none" stroke="#63b8ff" d="M804.28,-60.48C815.5,-58.42 827.68,-56.4 839,-55 1077.27,-25.48 1364.4,-14.92 1478.61,-11.72"/>
<polygon fill="#63b8ff" stroke="#63b8ff" points="1478.89,-15.21 1488.79,-11.44 1478.7,-8.21 1478.89,-15.21"/>
</a>
</g>
</g>
<!-- Node9&#45;&gt;Node5 -->
<g id="edge11_Node000009_Node000005" class="edge">
<title>Node9&#45;&gt;Node5</title>
<g id="a_edge11_Node000009_Node000005"><a xlink:title=" ">
<path fill="none" stroke="#63b8ff" d="M973.57,-60.43C985.77,-58.47 998.84,-56.51 1011,-55 1181.99,-33.77 1386,-19.46 1478.71,-13.55"/>
<polygon fill="#63b8ff" stroke="#63b8ff" points="1479.16,-17.03 1488.92,-12.91 1478.72,-10.04 1479.16,-17.03"/>
</a>
</g>
</g>
<!-- Node10&#45;&gt;Node5 -->
<g id="edge13_Node000010_Node000005" class="edge">
<title>Node10&#45;&gt;Node5</title>
<g id="a_edge13_Node000010_Node000005"><a xlink:title=" ">
<path fill="none" stroke="#63b8ff" d="M1124.6,-60.49C1134.84,-58.55 1145.8,-56.58 1156,-55 1271.01,-37.13 1406.95,-22.55 1478.74,-15.36"/>
<polygon fill="#63b8ff" stroke="#63b8ff" points="1479.25,-18.82 1488.85,-14.35 1478.56,-11.86 1479.25,-18.82"/>
</a>
</g>
</g>
<!-- Node13&#45;&gt;Node5 -->
<g id="edge17_Node000013_Node000005" class="edge">
<title>Node13&#45;&gt;Node5</title>
<g id="a_edge17_Node000013_Node000005"><a xlink:title=" ">
<path fill="none" stroke="#63b8ff" d="M1529,-60.37C1529,-52.25 1529,-39.81 1529,-29.39"/>
<polygon fill="#63b8ff" stroke="#63b8ff" points="1532.5,-29.17 1529,-19.17 1525.5,-29.17 1532.5,-29.17"/>
</a>
</g>
</g>
<!-- Node14&#45;&gt;Node5 -->
<g id="edge19_Node000014_Node000005" class="edge">
<title>Node14&#45;&gt;Node5</title>
<g id="a_edge19_Node000014_Node000005"><a xlink:title=" ">
<path fill="none" stroke="#63b8ff" d="M1651.21,-60.49C1627.06,-50.62 1587.02,-34.23 1559.38,-22.93"/>
<polygon fill="#63b8ff" stroke="#63b8ff" points="1560.4,-19.56 1549.82,-19.02 1557.75,-26.04 1560.4,-19.56"/>
</a>
</g>
</g>
<!-- Node16&#45;&gt;Node5 -->
<g id="edge22_Node000016_Node000005" class="edge">
<title>Node16&#45;&gt;Node5</title>
<g id="a_edge22_Node000016_Node000005"><a xlink:title=" ">
<path fill="none" stroke="#63b8ff" d="M1899.23,-56.58C1896.45,-56.01 1893.69,-55.48 1891,-55 1780.59,-35.18 1649.63,-21.48 1579.44,-14.92"/>
<polygon fill="#63b8ff" stroke="#63b8ff" points="1579.4,-11.4 1569.12,-13.97 1578.76,-18.37 1579.4,-11.4"/>
</a>
</g>
</g>
<!-- Node17&#45;&gt;Node5 -->
<g id="edge24_Node000017_Node000005" class="edge">
<title>Node17&#45;&gt;Node5</title>
<g id="a_edge24_Node000017_Node000005"><a xlink:title=" ">
<path fill="none" stroke="#63b8ff" d="M2044.4,-60.43C2033.2,-58.46 2021.18,-56.51 2010,-55 1853.46,-33.93 1666.9,-19.77 1579.23,-13.77"/>
<polygon fill="#63b8ff" stroke="#63b8ff" points="1579.25,-10.26 1569.04,-13.07 1578.78,-17.24 1579.25,-10.26"/>
</a>
</g>
</g>
<!-- Node18&#45;&gt;Node5 -->
<g id="edge26_Node000018_Node000005" class="edge">
<title>Node18&#45;&gt;Node5</title>
<g id="a_edge26_Node000018_Node000005"><a xlink:title=" ">
<path fill="none" stroke="#63b8ff" d="M2197.74,-60.45C2188.14,-58.38 2177.71,-56.38 2168,-55 1950.36,-24.14 1687.84,-14.41 1579.51,-11.57"/>
<polygon fill="#63b8ff" stroke="#63b8ff" points="1579.29,-8.07 1569.21,-11.31 1579.12,-15.06 1579.29,-8.07"/>
</a>
</g>
</g>
<!-- Node19&#45;&gt;Node5 -->
<g id="edge28_Node000019_Node000005" class="edge">
<title>Node19&#45;&gt;Node5</title>
<g id="a_edge28_Node000019_Node000005"><a xlink:title=" ">
<path fill="none" stroke="#63b8ff" d="M2306.19,-56.11C2303.43,-55.71 2300.69,-55.33 2298,-55 2028.49,-21.51 1702.64,-13.15 1579.45,-11.12"/>
<polygon fill="#63b8ff" stroke="#63b8ff" points="1579.25,-7.62 1569.2,-10.96 1579.14,-14.62 1579.25,-7.62"/>
</a>
</g>
</g>
</g>
</svg>

<g id="navigator" transform="translate(0 0)" fill="#404254">
  <rect fill="#f2f5e9" fill-opacity="0.5" stroke="#606060" stroke-width=".5" x="0" y="0" width="60" height="60"/>
  <use id="zoomplus" xlink:href="#zoomPlus" x="17" y="9" onmousedown="handleZoom(evt,'in')"/>
  <use id="zoomminus" xlink:href="#zoomMin" x="42" y="9" onmousedown="handleZoom(evt,'out')"/>
  <use id="reset" xlink:href="#resetDef" x="30" y="36" onmousedown="handleReset()"/>
   <use id="arrowup" xlink:href="#arrowUp" x="0" y="0" onmousedown="handlePan(0,-1)"/>
  <use id="arrowright" xlink:href="#arrowRight" x="0" y="0" onmousedown="handlePan(1,0)"/>
  <use id="arrowdown" xlink:href="#arrowDown" x="0" y="0" onmousedown="handlePan(0,1)"/>
  <use id="arrowleft" xlink:href="#arrowLeft" x="0" y="0" onmousedown="handlePan(-1,0)"/>
</g>
<svg viewBox="0 0 15 15" width="100%" height="30px" preserveAspectRatio="xMaxYMin meet">
 <g id="arrow_out" transform="scale(0.3 0.3)">
  <a xlink:href="attributes_8hpp__incl_org.svg" target="_base">
   <rect id="button" ry="5" rx="5" y="6" x="6" height="38" width="38"
        fill="#f2f5e9" fill-opacity="0.5" stroke="#606060" stroke-width="1.0"/>
   <path id="arrow"
     d="M 11.500037,31.436501 C 11.940474,20.09759 22.043105,11.32322 32.158766,21.979434 L 37.068811,17.246167 C 37.068811,17.246167 37.088388,32 37.088388,32 L 22.160133,31.978069 C 22.160133,31.978069 26.997745,27.140456 26.997745,27.140456 C 18.528582,18.264221 13.291696,25.230495 11.500037,31.436501 z"
     style="fill:#404040;"/>
  </a>
 </g>
</svg>

<style type='text/css'>
<![CDATA[
[data-mouse-over-selected='false'] { opacity: 0.7; }
[data-mouse-over-selected='true']  { opacity: 1.0; }
]]>
</style>
<script type="application/ecmascript"><![CDATA[
document.addEventListener('DOMContentLoaded', (event) => {
  highlightEdges();
  highlightAdjacentNodes();
});
]]></script>
</svg>
