<?xml version="1.0" encoding="UTF-8" standalone="no"?>
<!DOCTYPE svg PUBLIC "-//W3C//DTD SVG 1.1//EN"
 "http://www.w3.org/Graphics/SVG/1.1/DTD/svg11.dtd">
<!-- Generated by graphviz version 2.42.4 (0)
 -->
<!-- Title: attributes.hpp Pages: 1 -->
<svg width="1002pt" height="82pt"
 viewBox="0.00 0.00 1001.50 82.00" xmlns="http://www.w3.org/2000/svg" xmlns:xlink="http://www.w3.org/1999/xlink">
<g id="graph0" class="graph" transform="scale(1 1) rotate(0) translate(4 78)">
<title>attributes.hpp</title>
<!-- Node1 -->
<g id="Node000001" class="node">
<title>Node1</title>
<g id="a_Node000001"><a xlink:title="an opinionated subset of clang/gcc attributes">
<polygon fill="#999999" stroke="#666666" points="531,-74 446,-74 446,-55 531,-55 531,-74"/>
<text text-anchor="middle" x="488.5" y="-62" font-family="Helvetica,sans-Serif" font-size="10.00">attributes.hpp</text>
</a>
</g>
</g>
<!-- Node2 -->
<g id="Node000002" class="node">
<title>Node2</title>
<g id="a_Node000002"><a xlink:href="cpuid_8cppm.html" target="_top" xlink:title=" ">
<polygon fill="white" stroke="#666666" points="73,-19 0,-19 0,0 73,0 73,-19"/>
<text text-anchor="middle" x="36.5" y="-7" font-family="Helvetica,sans-Serif" font-size="10.00">cpuid.cppm</text>
</a>
</g>
</g>
<!-- Node1&#45;&gt;Node2 -->
<g id="edge1_Node000001_Node000002" class="edge">
<title>Node1&#45;&gt;Node2</title>
<g id="a_edge1_Node000001_Node000002"><a xlink:title=" ">
<path fill="none" stroke="#63b8ff" d="M435.99,-58.99C358.47,-52.05 208.89,-37.58 82.5,-19 79.45,-18.55 76.29,-18.05 73.12,-17.52"/>
<polygon fill="#63b8ff" stroke="#63b8ff" points="435.72,-62.48 445.99,-59.88 436.34,-55.51 435.72,-62.48"/>
</a>
</g>
</g>
<!-- Node3 -->
<g id="Node000003" class="node">
<title>Node3</title>
<g id="a_Node000003"><a xlink:href="memory_8cppm.html" target="_top" xlink:title=" ">
<polygon fill="white" stroke="#666666" points="177.5,-19 91.5,-19 91.5,0 177.5,0 177.5,-19"/>
<text text-anchor="middle" x="134.5" y="-7" font-family="Helvetica,sans-Serif" font-size="10.00">memory.cppm</text>
</a>
</g>
</g>
<!-- Node1&#45;&gt;Node3 -->
<g id="edge2_Node000001_Node000003" class="edge">
<title>Node1&#45;&gt;Node3</title>
<g id="a_edge2_Node000001_Node000003"><a xlink:title=" ">
<path fill="none" stroke="#63b8ff" d="M435.92,-56.01C375.64,-47.36 273.88,-32.58 186.5,-19 183.61,-18.55 180.63,-18.08 177.62,-17.6"/>
<polygon fill="#63b8ff" stroke="#63b8ff" points="435.56,-59.49 445.96,-57.45 436.55,-52.56 435.56,-59.49"/>
</a>
</g>
</g>
<!-- Node4 -->
<g id="Node000004" class="node">
<title>Node4</title>
<g id="a_Node000004"><a xlink:href="numerics_8cppm.html" target="_top" xlink:title=" ">
<polygon fill="white" stroke="#666666" points="287.5,-19 195.5,-19 195.5,0 287.5,0 287.5,-19"/>
<text text-anchor="middle" x="241.5" y="-7" font-family="Helvetica,sans-Serif" font-size="10.00">numerics.cppm</text>
</a>
</g>
</g>
<!-- Node1&#45;&gt;Node4 -->
<g id="edge3_Node000001_Node000004" class="edge">
<title>Node1&#45;&gt;Node4</title>
<g id="a_edge3_Node000001_Node000004"><a xlink:title=" ">
<path fill="none" stroke="#63b8ff" d="M439,-52.88C392.7,-42.94 324.43,-28.3 281.5,-19.08"/>
<polygon fill="#63b8ff" stroke="#63b8ff" points="438.3,-56.31 448.82,-54.98 439.77,-49.46 438.3,-56.31"/>
</a>
</g>
</g>
<!-- Node5 -->
<g id="Node000005" class="node">
<title>Node5</title>
<g id="a_Node000005"><a xlink:href="prelude_8hpp.html" target="_top" xlink:title=" ">
<polygon fill="white" stroke="#666666" points="379.5,-19 305.5,-19 305.5,0 379.5,0 379.5,-19"/>
<text text-anchor="middle" x="342.5" y="-7" font-family="Helvetica,sans-Serif" font-size="10.00">prelude.hpp</text>
</a>
</g>
</g>
<!-- Node1&#45;&gt;Node5 -->
<g id="edge4_Node000001_Node000005" class="edge">
<title>Node1&#45;&gt;Node5</title>
<g id="a_edge4_Node000001_Node000005"><a xlink:title=" ">
<path fill="none" stroke="#63b8ff" d="M455.58,-51.55C428.47,-41.71 390.67,-27.98 366.38,-19.17"/>
<polygon fill="#63b8ff" stroke="#63b8ff" points="454.45,-54.86 465.04,-54.98 456.84,-48.28 454.45,-54.86"/>
</a>
</g>
</g>
<!-- Node6 -->
<g id="Node000006" class="node">
<title>Node6</title>
<g id="a_Node000006"><a xlink:href="profiling_8cppm.html" target="_top" xlink:title=" ">
<polygon fill="white" stroke="#666666" points="483.5,-19 397.5,-19 397.5,0 483.5,0 483.5,-19"/>
<text text-anchor="middle" x="440.5" y="-7" font-family="Helvetica,sans-Serif" font-size="10.00">profiling.cppm</text>
</a>
</g>
</g>
<!-- Node1&#45;&gt;Node6 -->
<g id="edge5_Node000001_Node000006" class="edge">
<title>Node1&#45;&gt;Node6</title>
<g id="a_edge5_Node000001_Node000006"><a xlink:title=" ">
<path fill="none" stroke="#63b8ff" d="M473.77,-47.24C465.36,-37.95 455.15,-26.68 448.28,-19.09"/>
<polygon fill="#63b8ff" stroke="#63b8ff" points="471.27,-49.69 480.57,-54.75 476.46,-44.99 471.27,-49.69"/>
</a>
</g>
</g>
<!-- Node7 -->
<g id="Node000007" class="node">
<title>Node7</title>
<g id="a_Node000007"><a xlink:href="simd_8cppm.html" target="_top" xlink:title=" ">
<polygon fill="white" stroke="#666666" points="573,-19 502,-19 502,0 573,0 573,-19"/>
<text text-anchor="middle" x="537.5" y="-7" font-family="Helvetica,sans-Serif" font-size="10.00">simd.cppm</text>
</a>
</g>
</g>
<!-- Node1&#45;&gt;Node7 -->
<g id="edge6_Node000001_Node000007" class="edge">
<title>Node1&#45;&gt;Node7</title>
<g id="a_edge6_Node000001_Node000007"><a xlink:title=" ">
<path fill="none" stroke="#63b8ff" d="M503.53,-47.24C512.12,-37.95 522.54,-26.68 529.56,-19.09"/>
<polygon fill="#63b8ff" stroke="#63b8ff" points="500.81,-45.03 496.59,-54.75 505.95,-49.78 500.81,-45.03"/>
</a>
</g>
</g>
<!-- Node8 -->
<g id="Node000008" class="node">
<title>Node8</title>
<g id="a_Node000008"><a xlink:href="simd__data_8cppm.html" target="_top" xlink:title=" ">
<polygon fill="white" stroke="#666666" points="689.5,-19 591.5,-19 591.5,0 689.5,0 689.5,-19"/>
<text text-anchor="middle" x="640.5" y="-7" font-family="Helvetica,sans-Serif" font-size="10.00">simd_data.cppm</text>
</a>
</g>
</g>
<!-- Node1&#45;&gt;Node8 -->
<g id="edge7_Node000001_Node000008" class="edge">
<title>Node1&#45;&gt;Node8</title>
<g id="a_edge7_Node000001_Node000008"><a xlink:title=" ">
<path fill="none" stroke="#63b8ff" d="M522.43,-51.67C550.77,-41.79 590.52,-27.93 615.89,-19.08"/>
<polygon fill="#63b8ff" stroke="#63b8ff" points="521.21,-48.39 512.92,-54.98 523.52,-55 521.21,-48.39"/>
</a>
</g>
</g>
<!-- Node9 -->
<g id="Node000009" class="node">
<title>Node9</title>
<g id="a_Node000009"><a xlink:href="static__string_8cppm.html" target="_top" xlink:title=" ">
<polygon fill="white" stroke="#666666" points="815,-19 708,-19 708,0 815,0 815,-19"/>
<text text-anchor="middle" x="761.5" y="-7" font-family="Helvetica,sans-Serif" font-size="10.00">static_string.cppm</text>
</a>
</g>
</g>
<!-- Node1&#45;&gt;Node9 -->
<g id="edge8_Node000001_Node000009" class="edge">
<title>Node1&#45;&gt;Node9</title>
<g id="a_edge8_Node000001_Node000009"><a xlink:title=" ">
<path fill="none" stroke="#63b8ff" d="M541.04,-53.3C592.23,-43.36 669.2,-28.42 717.33,-19.07"/>
<polygon fill="#63b8ff" stroke="#63b8ff" points="540.31,-49.88 531.16,-55.22 541.64,-56.75 540.31,-49.88"/>
</a>
</g>
</g>
<!-- Node10 -->
<g id="Node000010" class="node">
<title>Node10</title>
<g id="a_Node000010"><a xlink:href="types_8cppm.html" target="_top" xlink:title=" ">
<polygon fill="white" stroke="#666666" points="907.5,-19 833.5,-19 833.5,0 907.5,0 907.5,-19"/>
<text text-anchor="middle" x="870.5" y="-7" font-family="Helvetica,sans-Serif" font-size="10.00">types.cppm</text>
</a>
</g>
</g>
<!-- Node1&#45;&gt;Node10 -->
<g id="edge9_Node000001_Node000010" class="edge">
<title>Node1&#45;&gt;Node10</title>
<g id="a_edge9_Node000001_Node000010"><a xlink:title=" ">
<path fill="none" stroke="#63b8ff" d="M541.22,-57.36C607.49,-49.45 724.65,-34.83 824.5,-19 827.39,-18.54 830.37,-18.05 833.37,-17.53"/>
<polygon fill="#63b8ff" stroke="#63b8ff" points="540.55,-53.92 531.03,-58.57 541.38,-60.87 540.55,-53.92"/>
</a>
</g>
</g>
<!-- Node11 -->
<g id="Node000011" class="node">
<title>Node11</title>
<g id="a_Node000011"><a xlink:href="wait_8cppm.html" target="_top" xlink:title="waiting strategies">
<polygon fill="white" stroke="#666666" points="993.5,-19 925.5,-19 925.5,0 993.5,0 993.5,-19"/>
<text text-anchor="middle" x="959.5" y="-7" font-family="Helvetica,sans-Serif" font-size="10.00">wait.cppm</text>
</a>
</g>
</g>
<!-- Node1&#45;&gt;Node11 -->
<g id="edge10_Node000001_Node000011" class="edge">
<title>Node1&#45;&gt;Node11</title>
<g id="a_edge10_Node000001_Node000011"><a xlink:title=" ">
<path fill="none" stroke="#63b8ff" d="M541.63,-59.55C622.73,-53.16 782.17,-39.22 916.5,-19 919.36,-18.57 922.32,-18.08 925.28,-17.56"/>
<polygon fill="#63b8ff" stroke="#63b8ff" points="540.88,-56.1 531.19,-60.36 541.43,-63.08 540.88,-56.1"/>
</a>
</g>
</g>
</g>
</svg>
