<?xml version="1.0" encoding="UTF-8" standalone="no"?>
<!DOCTYPE svg PUBLIC "-//W3C//DTD SVG 1.1//EN"
 "http://www.w3.org/Graphics/SVG/1.1/DTD/svg11.dtd">
<!-- Generated by graphviz version 2.42.4 (0)
 -->
<!-- Title: bf16.hpp Pages: 1 -->
<svg width="295pt" height="192pt"
 viewBox="0.00 0.00 294.50 192.00" xmlns="http://www.w3.org/2000/svg" xmlns:xlink="http://www.w3.org/1999/xlink">

<svg id="main" version="1.1" xmlns="http://www.w3.org/2000/svg" xmlns:xlink="http://www.w3.org/1999/xlink" xml:space="preserve">

<style type="text/css"><![CDATA[
.node, .edge {opacity: 0.7;}
.node.selected, .edge.selected {opacity: 1;}
.edge:hover path { stroke: red; }
.edge:hover polygon { stroke: red; fill: red; }
]]></style>
<script type="application/ecmascript" xlink:href="svg.min.js"/>
<svg id="graph" class="graph">
<g id="graph0" class="graph" transform="scale(1 1) rotate(0) translate(4 188)">
<title>bf16.hpp</title>
<!-- Node1 -->
<g id="Node000001" class="node">
<title>Node1</title>
<g id="a_Node000001"><a xlink:title=" ">
<polygon fill="#999999" stroke="#666666" points="212.5,-184 153.5,-184 153.5,-165 212.5,-165 212.5,-184"/>
<text text-anchor="middle" x="183" y="-172" font-family="Helvetica,sans-Serif" font-size="10.00">bf16.hpp</text>
</a>
</g>
</g>
<!-- Node2 -->
<g id="Node000002" class="node">
<title>Node2</title>
<g id="a_Node000002"><a xlink:href="bf16_8cpp.html" target="_top" xlink:title=" ">
<polygon fill="white" stroke="#666666" points="123.5,-129 64.5,-129 64.5,-110 123.5,-110 123.5,-129"/>
<text text-anchor="middle" x="94" y="-117" font-family="Helvetica,sans-Serif" font-size="10.00">bf16.cpp</text>
</a>
</g>
</g>
<!-- Node1&#45;&gt;Node2 -->
<g id="edge1_Node000001_Node000002" class="edge">
<title>Node1&#45;&gt;Node2</title>
<g id="a_edge1_Node000001_Node000002"><a xlink:title=" ">
<path fill="none" stroke="#63b8ff" d="M159.82,-159.7C143.61,-150.04 122.45,-137.44 108.56,-129.17"/>
<polygon fill="#63b8ff" stroke="#63b8ff" points="158.32,-162.88 168.7,-164.98 161.9,-156.86 158.32,-162.88"/>
</a>
</g>
</g>
<!-- Node3 -->
<g id="Node000003" class="node">
<title>Node3</title>
<g id="a_Node000003"><a xlink:href="numerics_8hpp.html" target="_top" xlink:title=" ">
<polygon fill="white" stroke="#666666" points="224.5,-129 141.5,-129 141.5,-110 224.5,-110 224.5,-129"/>
<text text-anchor="middle" x="183" y="-117" font-family="Helvetica,sans-Serif" font-size="10.00">numerics.hpp</text>
</a>
</g>
</g>
<!-- Node1&#45;&gt;Node3 -->
<g id="edge2_Node000001_Node000003" class="edge">
<title>Node1&#45;&gt;Node3</title>
<g id="a_edge2_Node000001_Node000003"><a xlink:title=" ">
<path fill="none" stroke="#63b8ff" d="M183,-154.66C183,-145.93 183,-135.99 183,-129.09"/>
<polygon fill="#63b8ff" stroke="#63b8ff" points="179.5,-154.75 183,-164.75 186.5,-154.75 179.5,-154.75"/>
</a>
</g>
</g>
<!-- Node7 -->
<g id="Node000007" class="node">
<title>Node7</title>
<g id="a_Node000007"><a xlink:href="tests_8cpp.html" target="_top" xlink:title=" ">
<polygon fill="white" stroke="#666666" points="286.5,-19 225.5,-19 225.5,0 286.5,0 286.5,-19"/>
<text text-anchor="middle" x="256" y="-7" font-family="Helvetica,sans-Serif" font-size="10.00">tests.cpp</text>
</a>
</g>
</g>
<!-- Node1&#45;&gt;Node7 -->
<g id="edge9_Node000001_Node000007" class="edge">
<title>Node1&#45;&gt;Node7</title>
<g id="a_edge9_Node000001_Node000007"><a xlink:title=" ">
<path fill="none" stroke="#63b8ff" d="M204.45,-158.77C214.56,-150.92 226.11,-140.51 234,-129 248.71,-107.55 249.08,-99.54 254,-74 257.71,-54.72 257.23,-31.55 256.59,-19.22"/>
<polygon fill="#63b8ff" stroke="#63b8ff" points="202.36,-155.96 196.41,-164.73 206.53,-161.59 202.36,-155.96"/>
</a>
</g>
</g>
<!-- Node4 -->
<g id="Node000004" class="node">
<title>Node4</title>
<g id="a_Node000004"><a xlink:href="numerics_8cpp.html" target="_top" xlink:title="numerics external template instantiations">
<polygon fill="white" stroke="#666666" points="82,-74 0,-74 0,-55 82,-55 82,-74"/>
<text text-anchor="middle" x="41" y="-62" font-family="Helvetica,sans-Serif" font-size="10.00">numerics.cpp</text>
</a>
</g>
</g>
<!-- Node3&#45;&gt;Node4 -->
<g id="edge3_Node000003_Node000004" class="edge">
<title>Node3&#45;&gt;Node4</title>
<g id="a_edge3_Node000003_Node000004"><a xlink:title=" ">
<path fill="none" stroke="#63b8ff" d="M150.64,-106.42C124.29,-96.59 87.74,-82.95 64.23,-74.17"/>
<polygon fill="#63b8ff" stroke="#63b8ff" points="149.59,-109.77 160.19,-109.98 152.04,-103.21 149.59,-109.77"/>
</a>
</g>
</g>
<!-- Node5 -->
<g id="Node000005" class="node">
<title>Node5</title>
<g id="a_Node000005"><a xlink:href="simd_8hpp.html" target="_top" xlink:title=" ">
<polygon fill="white" stroke="#666666" points="174,-19 112,-19 112,0 174,0 174,-19"/>
<text text-anchor="middle" x="143" y="-7" font-family="Helvetica,sans-Serif" font-size="10.00">simd.hpp</text>
</a>
</g>
</g>
<!-- Node3&#45;&gt;Node5 -->
<g id="edge4_Node000003_Node000005" class="edge">
<title>Node3&#45;&gt;Node5</title>
<g id="a_edge4_Node000003_Node000005"><a xlink:title=" ">
<path fill="none" stroke="#63b8ff" d="M157.75,-104.24C147.09,-96.75 135.83,-86.51 130,-74 121.44,-55.64 131.35,-31.71 137.98,-19.11"/>
<polygon fill="#63b8ff" stroke="#63b8ff" points="156.12,-107.36 166.42,-109.87 159.94,-101.49 156.12,-107.36"/>
</a>
</g>
</g>
<!-- Node6 -->
<g id="Node000006" class="node">
<title>Node6</title>
<g id="a_Node000006"><a xlink:href="simd__data_8hpp.html" target="_top" xlink:title=" ">
<polygon fill="white" stroke="#666666" points="227.5,-74 138.5,-74 138.5,-55 227.5,-55 227.5,-74"/>
<text text-anchor="middle" x="183" y="-62" font-family="Helvetica,sans-Serif" font-size="10.00">simd_data.hpp</text>
</a>
</g>
</g>
<!-- Node3&#45;&gt;Node6 -->
<g id="edge5_Node000003_Node000006" class="edge">
<title>Node3&#45;&gt;Node6</title>
<g id="a_edge5_Node000003_Node000006"><a xlink:title=" ">
<path fill="none" stroke="#63b8ff" d="M183,-99.66C183,-90.93 183,-80.99 183,-74.09"/>
<polygon fill="#63b8ff" stroke="#63b8ff" points="179.5,-99.75 183,-109.75 186.5,-99.75 179.5,-99.75"/>
</a>
</g>
</g>
<!-- Node3&#45;&gt;Node7 -->
<g id="edge8_Node000003_Node000007" class="edge">
<title>Node3&#45;&gt;Node7</title>
<g id="a_edge8_Node000003_Node000007"><a xlink:title=" ">
<path fill="none" stroke="#63b8ff" d="M205.54,-104.07C216.1,-96.3 228.08,-85.87 236,-74 247.55,-56.7 252.75,-32.33 254.81,-19.39"/>
<polygon fill="#63b8ff" stroke="#63b8ff" points="203.31,-101.36 197.11,-109.95 207.32,-107.1 203.31,-101.36"/>
</a>
</g>
</g>
<!-- Node6&#45;&gt;Node5 -->
<g id="edge6_Node000006_Node000005" class="edge">
<title>Node6&#45;&gt;Node5</title>
<g id="a_edge6_Node000006_Node000005"><a xlink:title=" ">
<path fill="none" stroke="#63b8ff" d="M170.3,-46.67C163.37,-37.5 155.09,-26.52 149.48,-19.09"/>
<polygon fill="#63b8ff" stroke="#63b8ff" points="167.58,-48.87 176.39,-54.75 173.16,-44.66 167.58,-48.87"/>
</a>
</g>
</g>
<!-- Node6&#45;&gt;Node7 -->
<g id="edge7_Node000006_Node000007" class="edge">
<title>Node6&#45;&gt;Node7</title>
<g id="a_edge7_Node000006_Node000007"><a xlink:title=" ">
<path fill="none" stroke="#63b8ff" d="M203.14,-48.88C216.28,-39.34 232.98,-27.21 244.06,-19.17"/>
<polygon fill="#63b8ff" stroke="#63b8ff" points="200.76,-46.28 194.73,-54.98 204.88,-51.94 200.76,-46.28"/>
</a>
</g>
</g>
</g>
</svg>
</svg>

<style type='text/css'>
<![CDATA[
[data-mouse-over-selected='false'] { opacity: 0.7; }
[data-mouse-over-selected='true']  { opacity: 1.0; }
]]>
</style>
<script type="application/ecmascript"><![CDATA[
document.addEventListener('DOMContentLoaded', (event) => {
  highlightEdges();
  highlightAdjacentNodes();
});
]]></script>
</svg>
