<?xml version="1.0" encoding="UTF-8" standalone="no"?>
<!DOCTYPE svg PUBLIC "-//W3C//DTD SVG 1.1//EN"
 "http://www.w3.org/Graphics/SVG/1.1/DTD/svg11.dtd">
<!-- Generated by graphviz version 2.42.4 (0)
 -->
<!-- Title: ein::static_c_string::end Pages: 1 -->
<svg width="284pt" height="86pt"
 viewBox="0.00 0.00 284.00 86.00" xmlns="http://www.w3.org/2000/svg" xmlns:xlink="http://www.w3.org/1999/xlink">
<g id="graph0" class="graph" transform="scale(1 1) rotate(0) translate(4 82)">
<title>ein::static_c_string::end</title>
<!-- Node1 -->
<g id="Node000001" class="node">
<title>Node1</title>
<g id="a_Node000001"><a xlink:title=" ">
<polygon fill="#999999" stroke="#666666" points="276,-48.5 144,-48.5 144,-29.5 276,-29.5 276,-48.5"/>
<text text-anchor="middle" x="210" y="-36.5" font-family="Helvetica,sans-Serif" font-size="10.00">ein::static_c_string::end</text>
</a>
</g>
</g>
<!-- Node2 -->
<g id="Node000002" class="node">
<title>Node2</title>
<g id="a_Node000002"><a xlink:href="classein_1_1static__c__string.html#a06413bfe7c5554f36c07da0f37bd0e13" target="_top" xlink:title="O(n)">
<polygon fill="white" stroke="#666666" points="108,-78 0,-78 0,-48 108,-48 108,-78"/>
<text text-anchor="start" x="8" y="-66" font-family="Helvetica,sans-Serif" font-size="10.00">ein::static_c_string</text>
<text text-anchor="middle" x="54" y="-55" font-family="Helvetica,sans-Serif" font-size="10.00">::crbegin</text>
</a>
</g>
</g>
<!-- Node1&#45;&gt;Node2 -->
<g id="edge1_Node000001_Node000002" class="edge">
<title>Node1&#45;&gt;Node2</title>
<g id="a_edge1_Node000001_Node000002"><a xlink:title=" ">
<path fill="none" stroke="#63b8ff" d="M137.79,-50.1C127.81,-51.65 117.7,-53.23 108.14,-54.72"/>
<polygon fill="#63b8ff" stroke="#63b8ff" points="138.35,-53.55 147.69,-48.55 137.27,-46.64 138.35,-53.55"/>
</a>
</g>
</g>
<!-- Node3 -->
<g id="Node000003" class="node">
<title>Node3</title>
<g id="a_Node000003"><a xlink:href="classein_1_1static__c__string.html#a1d24709a7064506e41567cee4235c73e" target="_top" xlink:title="O(n)">
<polygon fill="white" stroke="#666666" points="108,-30 0,-30 0,0 108,0 108,-30"/>
<text text-anchor="start" x="8" y="-18" font-family="Helvetica,sans-Serif" font-size="10.00">ein::static_c_string</text>
<text text-anchor="middle" x="54" y="-7" font-family="Helvetica,sans-Serif" font-size="10.00">::rbegin</text>
</a>
</g>
</g>
<!-- Node1&#45;&gt;Node3 -->
<g id="edge2_Node000001_Node000003" class="edge">
<title>Node1&#45;&gt;Node3</title>
<g id="a_edge2_Node000001_Node000003"><a xlink:title=" ">
<path fill="none" stroke="#63b8ff" d="M137.79,-27.9C127.81,-26.35 117.7,-24.77 108.14,-23.28"/>
<polygon fill="#63b8ff" stroke="#63b8ff" points="137.27,-31.36 147.69,-29.45 138.35,-24.45 137.27,-31.36"/>
</a>
</g>
</g>
</g>
</svg>
