<?xml version="1.0" encoding="UTF-8" standalone="no"?>
<!DOCTYPE svg PUBLIC "-//W3C//DTD SVG 1.1//EN"
 "http://www.w3.org/Graphics/SVG/1.1/DTD/svg11.dtd">
<!-- Generated by graphviz version 2.42.4 (0)
 -->
<!-- Title: common.hpp Pages: 1 -->
<svg width="2083pt" height="302pt"
 viewBox="0.00 0.00 2083.46 302.00" xmlns="http://www.w3.org/2000/svg" xmlns:xlink="http://www.w3.org/1999/xlink">
<g id="graph0" class="graph" transform="scale(1 1) rotate(0) translate(4 298)">
<title>common.hpp</title>
<!-- Node1 -->
<g id="Node000001" class="node">
<title>Node1</title>
<g id="a_Node000001"><a xlink:title=" ">
<polygon fill="#999999" stroke="#666666" points="950.96,-294 870.96,-294 870.96,-275 950.96,-275 950.96,-294"/>
<text text-anchor="middle" x="910.96" y="-282" font-family="Helvetica,sans-Serif" font-size="10.00">common.hpp</text>
</a>
</g>
</g>
<!-- Node2 -->
<g id="Node000002" class="node">
<title>Node2</title>
<g id="a_Node000002"><a xlink:href="bf16_8hpp.html" target="_top" xlink:title=" ">
<polygon fill="white" stroke="#666666" points="70.46,-239 11.46,-239 11.46,-220 70.46,-220 70.46,-239"/>
<text text-anchor="middle" x="40.96" y="-227" font-family="Helvetica,sans-Serif" font-size="10.00">bf16.hpp</text>
</a>
</g>
</g>
<!-- Node1&#45;&gt;Node2 -->
<g id="edge1_Node000001_Node000002" class="edge">
<title>Node1&#45;&gt;Node2</title>
<g id="a_edge1_Node000001_Node000002"><a xlink:title=" ">
<path fill="none" stroke="#63b8ff" d="M860.44,-283.18C731.01,-281.85 377.15,-274.92 84.96,-239 80.33,-238.43 75.45,-237.66 70.7,-236.82"/>
<polygon fill="#63b8ff" stroke="#63b8ff" points="860.79,-286.69 870.82,-283.28 860.85,-279.69 860.79,-286.69"/>
</a>
</g>
</g>
<!-- Node4 -->
<g id="Node000004" class="node">
<title>Node4</title>
<g id="a_Node000004"><a xlink:href="numerics_8hpp.html" target="_top" xlink:title=" ">
<polygon fill="white" stroke="#666666" points="247.46,-184 164.46,-184 164.46,-165 247.46,-165 247.46,-184"/>
<text text-anchor="middle" x="205.96" y="-172" font-family="Helvetica,sans-Serif" font-size="10.00">numerics.hpp</text>
</a>
</g>
</g>
<!-- Node1&#45;&gt;Node4 -->
<g id="edge38_Node000001_Node000004" class="edge">
<title>Node1&#45;&gt;Node4</title>
<g id="a_edge38_Node000001_Node000004"><a xlink:title=" ">
<path fill="none" stroke="#63b8ff" d="M860.61,-282.64C736.05,-280.05 416.29,-270.46 314.96,-239 275.85,-226.86 235.72,-198.57 216.92,-184.21"/>
<polygon fill="#63b8ff" stroke="#63b8ff" points="860.57,-286.14 870.64,-282.84 860.71,-279.14 860.57,-286.14"/>
</a>
</g>
</g>
<!-- Node6 -->
<g id="Node000006" class="node">
<title>Node6</title>
<g id="a_Node000006"><a xlink:href="simd_8hpp.html" target="_top" xlink:title=" ">
<polygon fill="white" stroke="#666666" points="306.96,-74 244.96,-74 244.96,-55 306.96,-55 306.96,-74"/>
<text text-anchor="middle" x="275.96" y="-62" font-family="Helvetica,sans-Serif" font-size="10.00">simd.hpp</text>
</a>
</g>
</g>
<!-- Node1&#45;&gt;Node6 -->
<g id="edge44_Node000001_Node000006" class="edge">
<title>Node1&#45;&gt;Node6</title>
<g id="a_edge44_Node000001_Node000006"><a xlink:title=" ">
<path fill="none" stroke="#63b8ff" d="M860.57,-282.47C729.51,-279.39 380.41,-268.57 268.96,-239 214.59,-224.57 197.24,-221.11 154.96,-184 127.47,-159.87 96.91,-139.18 118.96,-110 134.08,-90 203.35,-76.38 244.65,-69.88"/>
<polygon fill="#63b8ff" stroke="#63b8ff" points="860.65,-285.97 870.73,-282.7 860.81,-278.97 860.65,-285.97"/>
</a>
</g>
</g>
<!-- Node8 -->
<g id="Node000008" class="node">
<title>Node8</title>
<g id="a_Node000008"><a xlink:href="simd__data_8hpp.html" target="_top" xlink:title=" ">
<polygon fill="white" stroke="#666666" points="393.46,-129 304.46,-129 304.46,-110 393.46,-110 393.46,-129"/>
<text text-anchor="middle" x="348.96" y="-117" font-family="Helvetica,sans-Serif" font-size="10.00">simd_data.hpp</text>
</a>
</g>
</g>
<!-- Node1&#45;&gt;Node8 -->
<g id="edge45_Node000001_Node000008" class="edge">
<title>Node1&#45;&gt;Node8</title>
<g id="a_edge45_Node000001_Node000008"><a xlink:title=" ">
<path fill="none" stroke="#63b8ff" d="M860.48,-280.58C770.71,-274.9 587.07,-260.96 526.96,-239 455.13,-212.76 383.64,-152.02 358.46,-129.29"/>
<polygon fill="#63b8ff" stroke="#63b8ff" points="860.49,-284.08 870.69,-281.21 860.93,-277.1 860.49,-284.08"/>
</a>
</g>
</g>
<!-- Node9 -->
<g id="Node000009" class="node">
<title>Node9</title>
<g id="a_Node000009"><a xlink:href="calling__conventions_8hpp.html" target="_top" xlink:title=" ">
<polygon fill="white" stroke="#666666" points="1881.96,-239 1747.96,-239 1747.96,-220 1881.96,-220 1881.96,-239"/>
<text text-anchor="middle" x="1814.96" y="-227" font-family="Helvetica,sans-Serif" font-size="10.00">calling_conventions.hpp</text>
</a>
</g>
</g>
<!-- Node1&#45;&gt;Node9 -->
<g id="edge12_Node000001_Node000009" class="edge">
<title>Node1&#45;&gt;Node9</title>
<g id="a_edge12_Node000001_Node000009"><a xlink:title=" ">
<path fill="none" stroke="#63b8ff" d="M961.46,-281.8C1090.87,-277.23 1444.87,-263.33 1738.96,-239 1741.87,-238.76 1744.84,-238.5 1747.84,-238.22"/>
<polygon fill="#63b8ff" stroke="#63b8ff" points="960.96,-278.32 951.08,-282.16 961.2,-285.31 960.96,-278.32"/>
</a>
</g>
</g>
<!-- Node11 -->
<g id="Node000011" class="node">
<title>Node11</title>
<g id="a_Node000011"><a xlink:href="control__flow_8hpp.html" target="_top" xlink:title=" ">
<polygon fill="white" stroke="#666666" points="1995.96,-239 1899.96,-239 1899.96,-220 1995.96,-220 1995.96,-239"/>
<text text-anchor="middle" x="1947.96" y="-227" font-family="Helvetica,sans-Serif" font-size="10.00">control_flow.hpp</text>
</a>
</g>
</g>
<!-- Node1&#45;&gt;Node11 -->
<g id="edge14_Node000001_Node000011" class="edge">
<title>Node1&#45;&gt;Node11</title>
<g id="a_edge14_Node000001_Node000011"><a xlink:title=" ">
<path fill="none" stroke="#63b8ff" d="M961.55,-283.03C1106.6,-281.3 1536.22,-273.41 1890.96,-239 1893.85,-238.72 1896.81,-238.39 1899.8,-238.04"/>
<polygon fill="#63b8ff" stroke="#63b8ff" points="961.16,-279.54 951.21,-283.15 961.25,-286.54 961.16,-279.54"/>
</a>
</g>
</g>
<!-- Node12 -->
<g id="Node000012" class="node">
<title>Node12</title>
<g id="a_Node000012"><a xlink:href="cpuid_8cpp.html" target="_top" xlink:title=" ">
<polygon fill="white" stroke="#666666" points="785.46,-184 722.46,-184 722.46,-165 785.46,-165 785.46,-184"/>
<text text-anchor="middle" x="753.96" y="-172" font-family="Helvetica,sans-Serif" font-size="10.00">cpuid.cpp</text>
</a>
</g>
</g>
<!-- Node1&#45;&gt;Node12 -->
<g id="edge16_Node000001_Node000012" class="edge">
<title>Node1&#45;&gt;Node12</title>
<g id="a_edge16_Node000001_Node000012"><a xlink:title=" ">
<path fill="none" stroke="#63b8ff" d="M860.27,-279.82C805.18,-274.64 722.38,-263.01 702.96,-239 687.13,-219.43 717.97,-196.37 738.23,-184.14"/>
<polygon fill="#63b8ff" stroke="#63b8ff" points="860.28,-283.33 870.55,-280.74 860.91,-276.36 860.28,-283.33"/>
</a>
</g>
</g>
<!-- Node13 -->
<g id="Node000013" class="node">
<title>Node13</title>
<g id="a_Node000013"><a xlink:href="cpuid_8hpp.html" target="_top" xlink:title=" ">
<polygon fill="white" stroke="#666666" points="775.96,-239 711.96,-239 711.96,-220 775.96,-220 775.96,-239"/>
<text text-anchor="middle" x="743.96" y="-227" font-family="Helvetica,sans-Serif" font-size="10.00">cpuid.hpp</text>
</a>
</g>
</g>
<!-- Node1&#45;&gt;Node13 -->
<g id="edge17_Node000001_Node000013" class="edge">
<title>Node1&#45;&gt;Node13</title>
<g id="a_edge17_Node000001_Node000013"><a xlink:title=" ">
<path fill="none" stroke="#63b8ff" d="M874.5,-271.93C843.31,-262.03 799.12,-248.01 771,-239.08"/>
<polygon fill="#63b8ff" stroke="#63b8ff" points="873.54,-275.3 884.13,-274.98 875.66,-268.62 873.54,-275.3"/>
</a>
</g>
</g>
<!-- Node14 -->
<g id="Node000014" class="node">
<title>Node14</title>
<g id="a_Node000014"><a xlink:href="wait_8hpp.html" target="_top" xlink:title="waiting strategies">
<polygon fill="white" stroke="#666666" points="901.46,-184 842.46,-184 842.46,-165 901.46,-165 901.46,-184"/>
<text text-anchor="middle" x="871.96" y="-172" font-family="Helvetica,sans-Serif" font-size="10.00">wait.hpp</text>
</a>
</g>
</g>
<!-- Node1&#45;&gt;Node14 -->
<g id="edge65_Node000001_Node000014" class="edge">
<title>Node1&#45;&gt;Node14</title>
<g id="a_edge65_Node000001_Node000014"><a xlink:title=" ">
<path fill="none" stroke="#63b8ff" d="M865.21,-271.36C848.98,-264.61 832.41,-254.36 822.96,-239 810.12,-218.12 838.1,-195.94 856.84,-184.11"/>
<polygon fill="#63b8ff" stroke="#63b8ff" points="864.08,-274.68 874.67,-274.94 866.56,-268.13 864.08,-274.68"/>
</a>
</g>
</g>
<!-- Node16 -->
<g id="Node000016" class="node">
<title>Node16</title>
<g id="a_Node000016"><a xlink:href="cuda_8hpp.html" target="_top" xlink:title=" ">
<polygon fill="white" stroke="#666666" points="2075.46,-239 2014.46,-239 2014.46,-220 2075.46,-220 2075.46,-239"/>
<text text-anchor="middle" x="2044.96" y="-227" font-family="Helvetica,sans-Serif" font-size="10.00">cuda.hpp</text>
</a>
</g>
</g>
<!-- Node1&#45;&gt;Node16 -->
<g id="edge23_Node000001_Node000016" class="edge">
<title>Node1&#45;&gt;Node16</title>
<g id="a_edge23_Node000001_Node000016"><a xlink:title=" ">
<path fill="none" stroke="#63b8ff" d="M961.26,-282.58C1147.66,-279 1798.92,-264.89 2004.96,-239 2007.92,-238.63 2010.98,-238.15 2014.04,-237.61"/>
<polygon fill="#63b8ff" stroke="#63b8ff" points="961.12,-279.08 951.19,-282.77 961.26,-286.08 961.12,-279.08"/>
</a>
</g>
</g>
<!-- Node17 -->
<g id="Node000017" class="node">
<title>Node17</title>
<g id="a_Node000017"><a xlink:href="fp16_8hpp.html" target="_top" xlink:title=" ">
<polygon fill="white" stroke="#666666" points="655.46,-239 596.46,-239 596.46,-220 655.46,-220 655.46,-239"/>
<text text-anchor="middle" x="625.96" y="-227" font-family="Helvetica,sans-Serif" font-size="10.00">fp16.hpp</text>
</a>
</g>
</g>
<!-- Node1&#45;&gt;Node17 -->
<g id="edge25_Node000001_Node000017" class="edge">
<title>Node1&#45;&gt;Node17</title>
<g id="a_edge25_Node000001_Node000017"><a xlink:title=" ">
<path fill="none" stroke="#63b8ff" d="M860.88,-274.38C812.12,-265.47 735.92,-251.46 669.96,-239 665.37,-238.13 660.52,-237.21 655.78,-236.29"/>
<polygon fill="#63b8ff" stroke="#63b8ff" points="860.39,-277.85 870.86,-276.2 861.65,-270.96 860.39,-277.85"/>
</a>
</g>
</g>
<!-- Node19 -->
<g id="Node000019" class="node">
<title>Node19</title>
<g id="a_Node000019"><a xlink:href="handles_8hpp.html" target="_top" xlink:title=" ">
<polygon fill="white" stroke="#666666" points="1319.96,-239 1243.96,-239 1243.96,-220 1319.96,-220 1319.96,-239"/>
<text text-anchor="middle" x="1281.96" y="-227" font-family="Helvetica,sans-Serif" font-size="10.00">handles.hpp</text>
</a>
</g>
</g>
<!-- Node1&#45;&gt;Node19 -->
<g id="edge29_Node000001_Node000019" class="edge">
<title>Node1&#45;&gt;Node19</title>
<g id="a_edge29_Node000001_Node000019"><a xlink:title=" ">
<path fill="none" stroke="#63b8ff" d="M961.38,-277.25C1025.19,-269.18 1138.42,-254.35 1234.96,-239 1237.83,-238.54 1240.79,-238.05 1243.76,-237.55"/>
<polygon fill="#63b8ff" stroke="#63b8ff" points="960.68,-273.81 951.2,-278.53 961.56,-280.75 960.68,-273.81"/>
</a>
</g>
</g>
<!-- Node20 -->
<g id="Node000020" class="node">
<title>Node20</title>
<g id="a_Node000020"><a xlink:href="attributes_2memory_8hpp.html" target="_top" xlink:title=" ">
<polygon fill="white" stroke="#666666" points="1415.46,-239 1338.46,-239 1338.46,-220 1415.46,-220 1415.46,-239"/>
<text text-anchor="middle" x="1376.96" y="-227" font-family="Helvetica,sans-Serif" font-size="10.00">memory.hpp</text>
</a>
</g>
</g>
<!-- Node1&#45;&gt;Node20 -->
<g id="edge31_Node000001_Node000020" class="edge">
<title>Node1&#45;&gt;Node20</title>
<g id="a_edge31_Node000001_Node000020"><a xlink:title=" ">
<path fill="none" stroke="#63b8ff" d="M961.25,-279.28C1039.89,-272.42 1196.7,-257.73 1328.96,-239 1331.98,-238.57 1335.1,-238.1 1338.23,-237.6"/>
<polygon fill="#63b8ff" stroke="#63b8ff" points="960.79,-275.81 951.13,-280.16 961.4,-282.78 960.79,-275.81"/>
</a>
</g>
</g>
<!-- Node21 -->
<g id="Node000021" class="node">
<title>Node21</title>
<g id="a_Node000021"><a xlink:href="memory_8hpp.html" target="_top" xlink:title=" ">
<polygon fill="white" stroke="#666666" points="1100.46,-184 1023.46,-184 1023.46,-165 1100.46,-165 1100.46,-184"/>
<text text-anchor="middle" x="1061.96" y="-172" font-family="Helvetica,sans-Serif" font-size="10.00">memory.hpp</text>
</a>
</g>
</g>
<!-- Node1&#45;&gt;Node21 -->
<g id="edge33_Node000001_Node000021" class="edge">
<title>Node1&#45;&gt;Node21</title>
<g id="a_edge33_Node000001_Node000021"><a xlink:title=" ">
<path fill="none" stroke="#63b8ff" d="M942.31,-270.92C960.06,-263.06 982.18,-251.98 999.96,-239 1022.61,-222.47 1044.39,-197.35 1055.09,-184.21"/>
<polygon fill="#63b8ff" stroke="#63b8ff" points="940.76,-267.77 932.96,-274.94 943.53,-274.2 940.76,-267.77"/>
</a>
</g>
</g>
<!-- Node22 -->
<g id="Node000022" class="node">
<title>Node22</title>
<g id="a_Node000022"><a xlink:href="null__safety_8hpp.html" target="_top" xlink:title=" ">
<polygon fill="white" stroke="#666666" points="1135.96,-239 1045.96,-239 1045.96,-220 1135.96,-220 1135.96,-239"/>
<text text-anchor="middle" x="1090.96" y="-227" font-family="Helvetica,sans-Serif" font-size="10.00">null_safety.hpp</text>
</a>
</g>
</g>
<!-- Node1&#45;&gt;Node22 -->
<g id="edge35_Node000001_Node000022" class="edge">
<title>Node1&#45;&gt;Node22</title>
<g id="a_edge35_Node000001_Node000022"><a xlink:title=" ">
<path fill="none" stroke="#63b8ff" d="M949.83,-272.06C983.47,-262.15 1031.38,-248.04 1061.81,-239.08"/>
<polygon fill="#63b8ff" stroke="#63b8ff" points="948.49,-268.8 939.88,-274.98 950.46,-275.52 948.49,-268.8"/>
</a>
</g>
</g>
<!-- Node23 -->
<g id="Node000023" class="node">
<title>Node23</title>
<g id="a_Node000023"><a xlink:href="performance__constraints_8hpp.html" target="_top" xlink:title=" ">
<polygon fill="white" stroke="#666666" points="990.46,-239 831.46,-239 831.46,-220 990.46,-220 990.46,-239"/>
<text text-anchor="middle" x="910.96" y="-227" font-family="Helvetica,sans-Serif" font-size="10.00">performance_constraints.hpp</text>
</a>
</g>
</g>
<!-- Node1&#45;&gt;Node23 -->
<g id="edge39_Node000001_Node000023" class="edge">
<title>Node1&#45;&gt;Node23</title>
<g id="a_edge39_Node000001_Node000023"><a xlink:title=" ">
<path fill="none" stroke="#63b8ff" d="M910.96,-264.66C910.96,-255.93 910.96,-245.99 910.96,-239.09"/>
<polygon fill="#63b8ff" stroke="#63b8ff" points="907.46,-264.75 910.96,-274.75 914.46,-264.75 907.46,-264.75"/>
</a>
</g>
</g>
<!-- Node24 -->
<g id="Node000024" class="node">
<title>Node24</title>
<g id="a_Node000024"><a xlink:href="profiling_8hpp.html" target="_top" xlink:title=" ">
<polygon fill="white" stroke="#666666" points="681.46,-129 604.46,-129 604.46,-110 681.46,-110 681.46,-129"/>
<text text-anchor="middle" x="642.96" y="-117" font-family="Helvetica,sans-Serif" font-size="10.00">profiling.hpp</text>
</a>
</g>
</g>
<!-- Node1&#45;&gt;Node24 -->
<g id="edge42_Node000001_Node000024" class="edge">
<title>Node1&#45;&gt;Node24</title>
<g id="a_edge42_Node000001_Node000024"><a xlink:title=" ">
<path fill="none" stroke="#63b8ff" d="M860.8,-284.24C779.06,-284.25 622.74,-278.9 587.96,-239 557.71,-204.29 610.02,-150.12 632.97,-129.17"/>
<polygon fill="#63b8ff" stroke="#63b8ff" points="860.87,-287.74 870.86,-284.21 860.85,-280.74 860.87,-287.74"/>
</a>
</g>
</g>
<!-- Node25 -->
<g id="Node000025" class="node">
<title>Node25</title>
<g id="a_Node000025"><a xlink:href="static__string_8hpp.html" target="_top" xlink:title=" ">
<polygon fill="white" stroke="#666666" points="550.96,-184 452.96,-184 452.96,-165 550.96,-165 550.96,-184"/>
<text text-anchor="middle" x="501.96" y="-172" font-family="Helvetica,sans-Serif" font-size="10.00">static_string.hpp</text>
</a>
</g>
</g>
<!-- Node1&#45;&gt;Node25 -->
<g id="edge46_Node000001_Node000025" class="edge">
<title>Node1&#45;&gt;Node25</title>
<g id="a_edge46_Node000001_Node000025"><a xlink:title=" ">
<path fill="none" stroke="#63b8ff" d="M860.78,-281.8C775.28,-278.16 605.59,-267.49 553.96,-239 530.76,-226.19 513.82,-198.48 506.29,-184.27"/>
<polygon fill="#63b8ff" stroke="#63b8ff" points="860.64,-285.3 870.78,-282.21 860.93,-278.3 860.64,-285.3"/>
</a>
</g>
</g>
<!-- Node27 -->
<g id="Node000027" class="node">
<title>Node27</title>
<g id="a_Node000027"><a xlink:href="strings_8hpp.html" target="_top" xlink:title=" ">
<polygon fill="white" stroke="#666666" points="1225.46,-239 1154.46,-239 1154.46,-220 1225.46,-220 1225.46,-239"/>
<text text-anchor="middle" x="1189.96" y="-227" font-family="Helvetica,sans-Serif" font-size="10.00">strings.hpp</text>
</a>
</g>
</g>
<!-- Node1&#45;&gt;Node27 -->
<g id="edge50_Node000001_Node000027" class="edge">
<title>Node1&#45;&gt;Node27</title>
<g id="a_edge50_Node000001_Node000027"><a xlink:title=" ">
<path fill="none" stroke="#63b8ff" d="M961.22,-273.95C1016.85,-263.39 1105.1,-246.62 1154.13,-237.31"/>
<polygon fill="#63b8ff" stroke="#63b8ff" points="960.4,-270.55 951.23,-275.85 961.71,-277.42 960.4,-270.55"/>
</a>
</g>
</g>
<!-- Node28 -->
<g id="Node000028" class="node">
<title>Node28</title>
<g id="a_Node000028"><a xlink:href="targets_8hpp.html" target="_top" xlink:title=" ">
<polygon fill="white" stroke="#666666" points="1505.96,-239 1433.96,-239 1433.96,-220 1505.96,-220 1505.96,-239"/>
<text text-anchor="middle" x="1469.96" y="-227" font-family="Helvetica,sans-Serif" font-size="10.00">targets.hpp</text>
</a>
</g>
</g>
<!-- Node1&#45;&gt;Node28 -->
<g id="edge53_Node000001_Node000028" class="edge">
<title>Node1&#45;&gt;Node28</title>
<g id="a_edge53_Node000001_Node000028"><a xlink:title=" ">
<path fill="none" stroke="#63b8ff" d="M961.27,-280.82C1053.51,-275.55 1255.78,-262.24 1424.96,-239 1427.8,-238.61 1430.72,-238.16 1433.66,-237.68"/>
<polygon fill="#63b8ff" stroke="#63b8ff" points="960.89,-277.34 951.1,-281.4 961.28,-284.33 960.89,-277.34"/>
</a>
</g>
</g>
<!-- Node29 -->
<g id="Node000029" class="node">
<title>Node29</title>
<g id="a_Node000029"><a xlink:href="thread__safety_8hpp.html" target="_top" xlink:title=" ">
<polygon fill="white" stroke="#666666" points="1627.96,-239 1523.96,-239 1523.96,-220 1627.96,-220 1627.96,-239"/>
<text text-anchor="middle" x="1575.96" y="-227" font-family="Helvetica,sans-Serif" font-size="10.00">thread_safety.hpp</text>
</a>
</g>
</g>
<!-- Node1&#45;&gt;Node29 -->
<g id="edge55_Node000001_Node000029" class="edge">
<title>Node1&#45;&gt;Node29</title>
<g id="a_edge55_Node000001_Node000029"><a xlink:title=" ">
<path fill="none" stroke="#63b8ff" d="M961.14,-280.91C1064.8,-275.31 1310.01,-260.81 1514.96,-239 1517.83,-238.69 1520.78,-238.36 1523.75,-238"/>
<polygon fill="#63b8ff" stroke="#63b8ff" points="960.77,-277.42 950.97,-281.45 961.15,-284.41 960.77,-277.42"/>
</a>
</g>
</g>
<!-- Node30 -->
<g id="Node000030" class="node">
<title>Node30</title>
<g id="a_Node000030"><a xlink:href="types_8hpp.html" target="_top" xlink:title=" ">
<polygon fill="white" stroke="#666666" points="388.46,-239 323.46,-239 323.46,-220 388.46,-220 388.46,-239"/>
<text text-anchor="middle" x="355.96" y="-227" font-family="Helvetica,sans-Serif" font-size="10.00">types.hpp</text>
</a>
</g>
</g>
<!-- Node1&#45;&gt;Node30 -->
<g id="edge57_Node000001_Node000030" class="edge">
<title>Node1&#45;&gt;Node30</title>
<g id="a_edge57_Node000001_Node000030"><a xlink:title=" ">
<path fill="none" stroke="#63b8ff" d="M860.45,-280.09C770.1,-273.74 574.9,-258.94 410.96,-239 403.67,-238.11 395.86,-237 388.49,-235.88"/>
<polygon fill="#63b8ff" stroke="#63b8ff" points="860.47,-283.6 870.69,-280.8 860.95,-276.61 860.47,-283.6"/>
</a>
</g>
</g>
<!-- Node31 -->
<g id="Node000031" class="node">
<title>Node31</title>
<g id="a_Node000031"><a xlink:href="typestate_8hpp.html" target="_top" xlink:title=" ">
<polygon fill="white" stroke="#666666" points="1729.96,-239 1645.96,-239 1645.96,-220 1729.96,-220 1729.96,-239"/>
<text text-anchor="middle" x="1687.96" y="-227" font-family="Helvetica,sans-Serif" font-size="10.00">typestate.hpp</text>
</a>
</g>
</g>
<!-- Node1&#45;&gt;Node31 -->
<g id="edge63_Node000001_Node000031" class="edge">
<title>Node1&#45;&gt;Node31</title>
<g id="a_edge63_Node000001_Node000031"><a xlink:title=" ">
<path fill="none" stroke="#63b8ff" d="M961.43,-282.21C1079.77,-278.8 1384.24,-267.73 1636.96,-239 1639.82,-238.68 1642.75,-238.3 1645.71,-237.89"/>
<polygon fill="#63b8ff" stroke="#63b8ff" points="961.12,-278.72 951.23,-282.5 961.32,-285.72 961.12,-278.72"/>
</a>
</g>
</g>
<!-- Node3 -->
<g id="Node000003" class="node">
<title>Node3</title>
<g id="a_Node000003"><a xlink:href="bf16_8cpp.html" target="_top" xlink:title=" ">
<polygon fill="white" stroke="#666666" points="70.46,-184 11.46,-184 11.46,-165 70.46,-165 70.46,-184"/>
<text text-anchor="middle" x="40.96" y="-172" font-family="Helvetica,sans-Serif" font-size="10.00">bf16.cpp</text>
</a>
</g>
</g>
<!-- Node2&#45;&gt;Node3 -->
<g id="edge2_Node000002_Node000003" class="edge">
<title>Node2&#45;&gt;Node3</title>
<g id="a_edge2_Node000002_Node000003"><a xlink:title=" ">
<path fill="none" stroke="#63b8ff" d="M40.96,-209.66C40.96,-200.93 40.96,-190.99 40.96,-184.09"/>
<polygon fill="#63b8ff" stroke="#63b8ff" points="37.46,-209.75 40.96,-219.75 44.46,-209.75 37.46,-209.75"/>
</a>
</g>
</g>
<!-- Node2&#45;&gt;Node4 -->
<g id="edge3_Node000002_Node000004" class="edge">
<title>Node2&#45;&gt;Node4</title>
<g id="a_edge3_Node000002_Node000004"><a xlink:title=" ">
<path fill="none" stroke="#63b8ff" d="M77.39,-216.8C108.18,-206.91 151.58,-192.97 179.24,-184.08"/>
<polygon fill="#63b8ff" stroke="#63b8ff" points="75.92,-213.59 67.47,-219.98 78.06,-220.26 75.92,-213.59"/>
</a>
</g>
</g>
<!-- Node7 -->
<g id="Node000007" class="node">
<title>Node7</title>
<g id="a_Node000007"><a xlink:href="tests_8cpp.html" target="_top" xlink:title=" ">
<polygon fill="white" stroke="#666666" points="606.46,-19 545.46,-19 545.46,0 606.46,0 606.46,-19"/>
<text text-anchor="middle" x="575.96" y="-7" font-family="Helvetica,sans-Serif" font-size="10.00">tests.cpp</text>
</a>
</g>
</g>
<!-- Node2&#45;&gt;Node7 -->
<g id="edge11_Node000002_Node000007" class="edge">
<title>Node2&#45;&gt;Node7</title>
<g id="a_edge11_Node000002_Node000007"><a xlink:title=" ">
<path fill="none" stroke="#63b8ff" d="M21.47,-212.75C8.76,-200.44 -4.4,-182.52 1.96,-165 32.42,-81.11 83.86,-78.49 169.96,-55 306.43,-17.77 476.77,-11.54 545.3,-10.6"/>
<polygon fill="#63b8ff" stroke="#63b8ff" points="19.37,-215.57 29.16,-219.64 24.05,-210.36 19.37,-215.57"/>
</a>
</g>
</g>
<!-- Node5 -->
<g id="Node000005" class="node">
<title>Node5</title>
<g id="a_Node000005"><a xlink:href="numerics_8cpp.html" target="_top" xlink:title="numerics external template instantiations">
<polygon fill="white" stroke="#666666" points="209.96,-129 127.96,-129 127.96,-110 209.96,-110 209.96,-129"/>
<text text-anchor="middle" x="168.96" y="-117" font-family="Helvetica,sans-Serif" font-size="10.00">numerics.cpp</text>
</a>
</g>
</g>
<!-- Node4&#45;&gt;Node5 -->
<g id="edge4_Node000004_Node000005" class="edge">
<title>Node4&#45;&gt;Node5</title>
<g id="a_edge4_Node000004_Node000005"><a xlink:title=" ">
<path fill="none" stroke="#63b8ff" d="M194.02,-156.39C187.65,-147.27 180.09,-136.45 174.96,-129.09"/>
<polygon fill="#63b8ff" stroke="#63b8ff" points="191.26,-158.55 199.85,-164.75 197,-154.55 191.26,-158.55"/>
</a>
</g>
</g>
<!-- Node4&#45;&gt;Node6 -->
<g id="edge5_Node000004_Node000006" class="edge">
<title>Node4&#45;&gt;Node6</title>
<g id="a_edge5_Node000004_Node000006"><a xlink:title=" ">
<path fill="none" stroke="#63b8ff" d="M217.26,-156.07C232.44,-132.64 258.86,-91.89 270.35,-74.16"/>
<polygon fill="#63b8ff" stroke="#63b8ff" points="214.19,-154.37 211.69,-164.66 220.07,-158.17 214.19,-154.37"/>
</a>
</g>
</g>
<!-- Node4&#45;&gt;Node7 -->
<g id="edge10_Node000004_Node000007" class="edge">
<title>Node4&#45;&gt;Node7</title>
<g id="a_edge10_Node000004_Node000007"><a xlink:title=" ">
<path fill="none" stroke="#63b8ff" d="M164.53,-161.56C135.44,-150.89 104.15,-133.33 118.96,-110 165.26,-37.08 450.23,-16.64 545.2,-11.82"/>
<polygon fill="#63b8ff" stroke="#63b8ff" points="163.65,-164.96 174.24,-164.92 165.93,-158.34 163.65,-164.96"/>
</a>
</g>
</g>
<!-- Node4&#45;&gt;Node8 -->
<g id="edge7_Node000004_Node000008" class="edge">
<title>Node4&#45;&gt;Node8</title>
<g id="a_edge7_Node000004_Node000008"><a xlink:title=" ">
<path fill="none" stroke="#63b8ff" d="M238.55,-161.42C265.08,-151.59 301.89,-137.95 325.57,-129.17"/>
<polygon fill="#63b8ff" stroke="#63b8ff" points="237.1,-158.23 228.94,-164.98 239.53,-164.79 237.1,-158.23"/>
</a>
</g>
</g>
<!-- Node6&#45;&gt;Node7 -->
<g id="edge6_Node000006_Node000007" class="edge">
<title>Node6&#45;&gt;Node7</title>
<g id="a_edge6_Node000006_Node000007"><a xlink:title=" ">
<path fill="none" stroke="#63b8ff" d="M317.26,-56.2C378.24,-45.43 490.98,-25.51 545.22,-15.93"/>
<polygon fill="#63b8ff" stroke="#63b8ff" points="316.46,-52.79 307.22,-57.98 317.67,-59.68 316.46,-52.79"/>
</a>
</g>
</g>
<!-- Node8&#45;&gt;Node6 -->
<g id="edge8_Node000008_Node000006" class="edge">
<title>Node8&#45;&gt;Node6</title>
<g id="a_edge8_Node000008_Node000006"><a xlink:title=" ">
<path fill="none" stroke="#63b8ff" d="M328.82,-103.88C315.68,-94.34 298.98,-82.21 287.9,-74.17"/>
<polygon fill="#63b8ff" stroke="#63b8ff" points="327.08,-106.94 337.23,-109.98 331.2,-101.28 327.08,-106.94"/>
</a>
</g>
</g>
<!-- Node8&#45;&gt;Node7 -->
<g id="edge9_Node000008_Node000007" class="edge">
<title>Node8&#45;&gt;Node7</title>
<g id="a_edge9_Node000008_Node000007"><a xlink:title=" ">
<path fill="none" stroke="#63b8ff" d="M360.78,-101.1C371.47,-86.67 388.49,-66.69 407.96,-55 451.3,-28.99 509.84,-17.97 545.15,-13.45"/>
<polygon fill="#63b8ff" stroke="#63b8ff" points="357.65,-99.46 354.7,-109.64 363.35,-103.52 357.65,-99.46"/>
</a>
</g>
</g>
<!-- Node10 -->
<g id="Node000010" class="node">
<title>Node10</title>
<g id="a_Node000010"><a xlink:href="attributes_8hpp.html" target="_top" xlink:title="an opinionated subset of clang/gcc attributes">
<polygon fill="white" stroke="#666666" points="1512.46,-184 1427.46,-184 1427.46,-165 1512.46,-165 1512.46,-184"/>
<text text-anchor="middle" x="1469.96" y="-172" font-family="Helvetica,sans-Serif" font-size="10.00">attributes.hpp</text>
</a>
</g>
</g>
<!-- Node9&#45;&gt;Node10 -->
<g id="edge13_Node000009_Node000010" class="edge">
<title>Node9&#45;&gt;Node10</title>
<g id="a_edge13_Node000009_Node000010"><a xlink:title=" ">
<path fill="none" stroke="#63b8ff" d="M1749.55,-218.45C1679.92,-207.75 1571.78,-191.14 1512.46,-182.03"/>
<polygon fill="#63b8ff" stroke="#63b8ff" points="1749.12,-221.93 1759.53,-219.98 1750.18,-215.01 1749.12,-221.93"/>
</a>
</g>
</g>
<!-- Node11&#45;&gt;Node10 -->
<g id="edge15_Node000011_Node000010" class="edge">
<title>Node11&#45;&gt;Node10</title>
<g id="a_edge15_Node000011_Node000010"><a xlink:title=" ">
<path fill="none" stroke="#63b8ff" d="M1889.43,-219.85C1745.34,-201.69 1587.14,-186.35 1512.76,-179.41"/>
<polygon fill="#63b8ff" stroke="#63b8ff" points="1889.42,-223.38 1899.78,-221.17 1890.3,-216.44 1889.42,-223.38"/>
</a>
</g>
</g>
<!-- Node13&#45;&gt;Node7 -->
<g id="edge19_Node000013_Node000007" class="edge">
<title>Node13&#45;&gt;Node7</title>
<g id="a_edge19_Node000013_Node000007"><a xlink:title=" ">
<path fill="none" stroke="#63b8ff" d="M768.37,-214.15C785.36,-202.15 803.54,-183.98 794.96,-165 757.97,-83.17 652.28,-36.91 602.5,-19.1"/>
<polygon fill="#63b8ff" stroke="#63b8ff" points="766.17,-211.41 759.75,-219.83 770.02,-217.25 766.17,-211.41"/>
</a>
</g>
</g>
<!-- Node13&#45;&gt;Node12 -->
<g id="edge18_Node000013_Node000012" class="edge">
<title>Node13&#45;&gt;Node12</title>
<g id="a_edge18_Node000013_Node000012"><a xlink:title=" ">
<path fill="none" stroke="#63b8ff" d="M747.52,-209.66C749.16,-200.93 751.04,-190.99 752.34,-184.09"/>
<polygon fill="#63b8ff" stroke="#63b8ff" points="744.03,-209.27 745.61,-219.75 750.91,-210.57 744.03,-209.27"/>
</a>
</g>
</g>
<!-- Node13&#45;&gt;Node14 -->
<g id="edge20_Node000013_Node000014" class="edge">
<title>Node13&#45;&gt;Node14</title>
<g id="a_edge20_Node000013_Node000014"><a xlink:title=" ">
<path fill="none" stroke="#63b8ff" d="M774.08,-216.03C797.75,-206.23 830.11,-192.83 851.02,-184.17"/>
<polygon fill="#63b8ff" stroke="#63b8ff" points="772.43,-212.93 764.53,-219.98 775.1,-219.39 772.43,-212.93"/>
</a>
</g>
</g>
<!-- Node14&#45;&gt;Node7 -->
<g id="edge21_Node000014_Node000007" class="edge">
<title>Node14&#45;&gt;Node7</title>
<g id="a_edge21_Node000014_Node000007"><a xlink:title=" ">
<path fill="none" stroke="#63b8ff" d="M870.58,-154.43C867.58,-127.84 858.06,-80.1 827.96,-55 794.78,-27.33 666.55,-16.02 606.86,-12.18"/>
<polygon fill="#63b8ff" stroke="#63b8ff" points="867.12,-155.06 871.53,-164.7 874.09,-154.41 867.12,-155.06"/>
</a>
</g>
</g>
<!-- Node15 -->
<g id="Node000015" class="node">
<title>Node15</title>
<g id="a_Node000015"><a xlink:href="wait_8cpp.html" target="_top" xlink:title=" ">
<polygon fill="white" stroke="#666666" points="937.96,-129 879.96,-129 879.96,-110 937.96,-110 937.96,-129"/>
<text text-anchor="middle" x="908.96" y="-117" font-family="Helvetica,sans-Serif" font-size="10.00">wait.cpp</text>
</a>
</g>
</g>
<!-- Node14&#45;&gt;Node15 -->
<g id="edge22_Node000014_Node000015" class="edge">
<title>Node14&#45;&gt;Node15</title>
<g id="a_edge22_Node000014_Node000015"><a xlink:title=" ">
<path fill="none" stroke="#63b8ff" d="M883.91,-156.39C890.27,-147.27 897.83,-136.45 902.96,-129.09"/>
<polygon fill="#63b8ff" stroke="#63b8ff" points="880.93,-154.55 878.07,-164.75 886.67,-158.55 880.93,-154.55"/>
</a>
</g>
</g>
<!-- Node16&#45;&gt;Node10 -->
<g id="edge24_Node000016_Node000010" class="edge">
<title>Node16&#45;&gt;Node10</title>
<g id="a_edge24_Node000016_Node000010"><a xlink:title=" ">
<path fill="none" stroke="#63b8ff" d="M2004.33,-220.12C1815.17,-192.77 1601.71,-181.19 1512.48,-177.21"/>
<polygon fill="#63b8ff" stroke="#63b8ff" points="2004.06,-223.62 2014.46,-221.6 2005.07,-216.69 2004.06,-223.62"/>
</a>
</g>
</g>
<!-- Node17&#45;&gt;Node4 -->
<g id="edge27_Node000017_Node000004" class="edge">
<title>Node17&#45;&gt;Node4</title>
<g id="a_edge27_Node000017_Node000004"><a xlink:title=" ">
<path fill="none" stroke="#63b8ff" d="M586.34,-223.5C506.85,-213.47 328.62,-190.98 247.54,-180.75"/>
<polygon fill="#63b8ff" stroke="#63b8ff" points="586.07,-226.99 596.43,-224.77 586.94,-220.05 586.07,-226.99"/>
</a>
</g>
</g>
<!-- Node17&#45;&gt;Node7 -->
<g id="edge28_Node000017_Node000007" class="edge">
<title>Node17&#45;&gt;Node7</title>
<g id="a_edge28_Node000017_Node000007"><a xlink:title=" ">
<path fill="none" stroke="#63b8ff" d="M625.4,-209.91C625.85,-196.44 628.28,-178.33 636.96,-165 652.7,-140.83 677.35,-154.43 690.96,-129 694.95,-121.55 694.47,-117.68 690.96,-110 670.76,-65.82 620.19,-33.75 593.34,-19.2"/>
<polygon fill="#63b8ff" stroke="#63b8ff" points="621.9,-209.93 625.4,-219.93 628.9,-209.93 621.9,-209.93"/>
</a>
</g>
</g>
<!-- Node18 -->
<g id="Node000018" class="node">
<title>Node18</title>
<g id="a_Node000018"><a xlink:href="fp16_8cpp.html" target="_top" xlink:title=" ">
<polygon fill="white" stroke="#666666" points="704.46,-184 645.46,-184 645.46,-165 704.46,-165 704.46,-184"/>
<text text-anchor="middle" x="674.96" y="-172" font-family="Helvetica,sans-Serif" font-size="10.00">fp16.cpp</text>
</a>
</g>
</g>
<!-- Node17&#45;&gt;Node18 -->
<g id="edge26_Node000017_Node000018" class="edge">
<title>Node17&#45;&gt;Node18</title>
<g id="a_edge26_Node000017_Node000018"><a xlink:title=" ">
<path fill="none" stroke="#63b8ff" d="M641,-212.24C649.58,-202.95 660,-191.68 667.02,-184.09"/>
<polygon fill="#63b8ff" stroke="#63b8ff" points="638.27,-210.03 634.05,-219.75 643.41,-214.78 638.27,-210.03"/>
</a>
</g>
</g>
<!-- Node19&#45;&gt;Node10 -->
<g id="edge30_Node000019_Node000010" class="edge">
<title>Node19&#45;&gt;Node10</title>
<g id="a_edge30_Node000019_Node000010"><a xlink:title=" ">
<path fill="none" stroke="#63b8ff" d="M1322.1,-217.18C1357.26,-207.27 1407.59,-193.08 1439.52,-184.08"/>
<polygon fill="#63b8ff" stroke="#63b8ff" points="1320.84,-213.9 1312.17,-219.98 1322.74,-220.64 1320.84,-213.9"/>
</a>
</g>
</g>
<!-- Node20&#45;&gt;Node10 -->
<g id="edge32_Node000020_Node000010" class="edge">
<title>Node20&#45;&gt;Node10</title>
<g id="a_edge32_Node000020_Node000010"><a xlink:title=" ">
<path fill="none" stroke="#63b8ff" d="M1400.71,-214.97C1417.71,-205.28 1440.09,-192.52 1454.75,-184.17"/>
<polygon fill="#63b8ff" stroke="#63b8ff" points="1398.86,-211.99 1391.9,-219.98 1402.32,-218.07 1398.86,-211.99"/>
</a>
</g>
</g>
<!-- Node21&#45;&gt;Node7 -->
<g id="edge34_Node000021_Node000007" class="edge">
<title>Node21&#45;&gt;Node7</title>
<g id="a_edge34_Node000021_Node000007"><a xlink:title=" ">
<path fill="none" stroke="#63b8ff" d="M1041.98,-159.15C1005.67,-133.82 925.57,-81.35 849.96,-55 765.09,-25.42 658.46,-15.32 606.81,-12.02"/>
<polygon fill="#63b8ff" stroke="#63b8ff" points="1040.06,-162.07 1050.25,-164.98 1044.09,-156.35 1040.06,-162.07"/>
</a>
</g>
</g>
<!-- Node22&#45;&gt;Node10 -->
<g id="edge36_Node000022_Node000010" class="edge">
<title>Node22&#45;&gt;Node10</title>
<g id="a_edge36_Node000022_Node000010"><a xlink:title=" ">
<path fill="none" stroke="#63b8ff" d="M1145.66,-220.04C1145.76,-220.03 1145.86,-220.01 1145.96,-220 1246.67,-205.3 1365.2,-189.37 1427.21,-181.14"/>
<polygon fill="#63b8ff" stroke="#63b8ff" points="1145.35,-216.55 1135.97,-221.48 1146.38,-223.48 1145.35,-216.55"/>
</a>
</g>
</g>
<!-- Node22&#45;&gt;Node21 -->
<g id="edge37_Node000022_Node000021" class="edge">
<title>Node22&#45;&gt;Node21</title>
<g id="a_edge37_Node000022_Node000021"><a xlink:title=" ">
<path fill="none" stroke="#63b8ff" d="M1081.29,-210.82C1076.36,-201.82 1070.6,-191.29 1066.66,-184.09"/>
<polygon fill="#63b8ff" stroke="#63b8ff" points="1078.3,-212.66 1086.17,-219.75 1084.44,-209.3 1078.3,-212.66"/>
</a>
</g>
</g>
<!-- Node23&#45;&gt;Node10 -->
<g id="edge40_Node000023_Node000010" class="edge">
<title>Node23&#45;&gt;Node10</title>
<g id="a_edge40_Node000023_Node000010"><a xlink:title=" ">
<path fill="none" stroke="#63b8ff" d="M1000.83,-219.98C1122.91,-208.4 1336.34,-188.17 1427.13,-179.56"/>
<polygon fill="#63b8ff" stroke="#63b8ff" points="1000.38,-216.51 990.76,-220.93 1001.04,-223.47 1000.38,-216.51"/>
</a>
</g>
</g>
<!-- Node23&#45;&gt;Node14 -->
<g id="edge41_Node000023_Node000014" class="edge">
<title>Node23&#45;&gt;Node14</title>
<g id="a_edge41_Node000023_Node000014"><a xlink:title=" ">
<path fill="none" stroke="#63b8ff" d="M898.58,-211.67C891.83,-202.5 883.75,-191.52 878.28,-184.09"/>
<polygon fill="#63b8ff" stroke="#63b8ff" points="895.78,-213.77 904.52,-219.75 901.41,-209.62 895.78,-213.77"/>
</a>
</g>
</g>
<!-- Node24&#45;&gt;Node7 -->
<g id="edge43_Node000024_Node000007" class="edge">
<title>Node24&#45;&gt;Node7</title>
<g id="a_edge43_Node000024_Node000007"><a xlink:title=" ">
<path fill="none" stroke="#63b8ff" d="M632.15,-101.07C617.61,-77.64 592.33,-36.89 581.33,-19.16"/>
<polygon fill="#63b8ff" stroke="#63b8ff" points="629.23,-103.01 637.48,-109.66 635.18,-99.32 629.23,-103.01"/>
</a>
</g>
</g>
<!-- Node25&#45;&gt;Node7 -->
<g id="edge49_Node000025_Node000007" class="edge">
<title>Node25&#45;&gt;Node7</title>
<g id="a_edge49_Node000025_Node000007"><a xlink:title=" ">
<path fill="none" stroke="#63b8ff" d="M526.47,-159.5C537.54,-151.9 549.73,-141.5 556.96,-129 578.05,-92.58 577.69,-39.85 576.6,-19.23"/>
<polygon fill="#63b8ff" stroke="#63b8ff" points="524.47,-156.63 517.95,-164.98 528.25,-162.51 524.47,-156.63"/>
</a>
</g>
</g>
<!-- Node25&#45;&gt;Node24 -->
<g id="edge47_Node000025_Node000024" class="edge">
<title>Node25&#45;&gt;Node24</title>
<g id="a_edge47_Node000025_Node000024"><a xlink:title=" ">
<path fill="none" stroke="#63b8ff" d="M534.1,-161.42C560.26,-151.59 596.55,-137.95 619.89,-129.17"/>
<polygon fill="#63b8ff" stroke="#63b8ff" points="532.74,-158.19 524.62,-164.98 535.21,-164.74 532.74,-158.19"/>
</a>
</g>
</g>
<!-- Node26 -->
<g id="Node000026" class="node">
<title>Node26</title>
<g id="a_Node000026"><a xlink:href="static__string_8cpp.html" target="_top" xlink:title=" ">
<polygon fill="white" stroke="#666666" points="547.46,-129 450.46,-129 450.46,-110 547.46,-110 547.46,-129"/>
<text text-anchor="middle" x="498.96" y="-117" font-family="Helvetica,sans-Serif" font-size="10.00">static_string.cpp</text>
</a>
</g>
</g>
<!-- Node25&#45;&gt;Node26 -->
<g id="edge48_Node000025_Node000026" class="edge">
<title>Node25&#45;&gt;Node26</title>
<g id="a_edge48_Node000025_Node000026"><a xlink:title=" ">
<path fill="none" stroke="#63b8ff" d="M500.89,-154.66C500.4,-145.93 499.84,-135.99 499.45,-129.09"/>
<polygon fill="#63b8ff" stroke="#63b8ff" points="497.41,-154.96 501.47,-164.75 504.39,-154.57 497.41,-154.96"/>
</a>
</g>
</g>
<!-- Node27&#45;&gt;Node10 -->
<g id="edge51_Node000027_Node000010" class="edge">
<title>Node27&#45;&gt;Node10</title>
<g id="a_edge51_Node000027_Node000010"><a xlink:title=" ">
<path fill="none" stroke="#63b8ff" d="M1235.84,-219.82C1288.86,-209.78 1375.4,-193.4 1427.1,-183.61"/>
<polygon fill="#63b8ff" stroke="#63b8ff" points="1234.88,-216.43 1225.71,-221.73 1236.18,-223.31 1234.88,-216.43"/>
</a>
</g>
</g>
<!-- Node27&#45;&gt;Node21 -->
<g id="edge52_Node000027_Node000021" class="edge">
<title>Node27&#45;&gt;Node21</title>
<g id="a_edge52_Node000027_Node000021"><a xlink:title=" ">
<path fill="none" stroke="#63b8ff" d="M1159.84,-216.03C1136.17,-206.23 1103.82,-192.83 1082.9,-184.17"/>
<polygon fill="#63b8ff" stroke="#63b8ff" points="1158.82,-219.39 1169.4,-219.98 1161.5,-212.93 1158.82,-219.39"/>
</a>
</g>
</g>
<!-- Node28&#45;&gt;Node10 -->
<g id="edge54_Node000028_Node000010" class="edge">
<title>Node28&#45;&gt;Node10</title>
<g id="a_edge54_Node000028_Node000010"><a xlink:title=" ">
<path fill="none" stroke="#63b8ff" d="M1469.96,-209.66C1469.96,-200.93 1469.96,-190.99 1469.96,-184.09"/>
<polygon fill="#63b8ff" stroke="#63b8ff" points="1466.46,-209.75 1469.96,-219.75 1473.46,-209.75 1466.46,-209.75"/>
</a>
</g>
</g>
<!-- Node29&#45;&gt;Node10 -->
<g id="edge56_Node000029_Node000010" class="edge">
<title>Node29&#45;&gt;Node10</title>
<g id="a_edge56_Node000029_Node000010"><a xlink:title=" ">
<path fill="none" stroke="#63b8ff" d="M1549.96,-215.5C1530.46,-205.75 1504.31,-192.68 1487.3,-184.17"/>
<polygon fill="#63b8ff" stroke="#63b8ff" points="1548.42,-218.64 1558.93,-219.98 1551.55,-212.38 1548.42,-218.64"/>
</a>
</g>
</g>
<!-- Node30&#45;&gt;Node4 -->
<g id="edge58_Node000030_Node000004" class="edge">
<title>Node30&#45;&gt;Node4</title>
<g id="a_edge58_Node000030_Node000004"><a xlink:title=" ">
<path fill="none" stroke="#63b8ff" d="M322.14,-216.55C294.29,-206.71 255.45,-192.98 230.5,-184.17"/>
<polygon fill="#63b8ff" stroke="#63b8ff" points="321.27,-219.95 331.86,-219.98 323.6,-213.35 321.27,-219.95"/>
</a>
</g>
</g>
<!-- Node30&#45;&gt;Node6 -->
<g id="edge59_Node000030_Node000006" class="edge">
<title>Node30&#45;&gt;Node6</title>
<g id="a_edge59_Node000030_Node000006"><a xlink:title=" ">
<path fill="none" stroke="#63b8ff" d="M344,-211.52C330.84,-192.24 309.72,-159.5 295.96,-129 287.5,-110.25 281.14,-86.87 278.04,-74.37"/>
<polygon fill="#63b8ff" stroke="#63b8ff" points="341.19,-213.61 349.76,-219.84 346.94,-209.62 341.19,-213.61"/>
</a>
</g>
</g>
<!-- Node30&#45;&gt;Node7 -->
<g id="edge62_Node000030_Node000007" class="edge">
<title>Node30&#45;&gt;Node7</title>
<g id="a_edge62_Node000030_Node000007"><a xlink:title=" ">
<path fill="none" stroke="#63b8ff" d="M366.3,-210.97C381.14,-186.66 410.22,-142.09 441.96,-110 480.68,-70.86 535.74,-35.01 561.55,-19.13"/>
<polygon fill="#63b8ff" stroke="#63b8ff" points="363.16,-209.41 361.01,-219.78 369.16,-213.01 363.16,-209.41"/>
</a>
</g>
</g>
<!-- Node30&#45;&gt;Node8 -->
<g id="edge60_Node000030_Node000008" class="edge">
<title>Node30&#45;&gt;Node8</title>
<g id="a_edge60_Node000030_Node000008"><a xlink:title=" ">
<path fill="none" stroke="#63b8ff" d="M354.73,-209.48C353.2,-185.84 350.65,-146.5 349.52,-129.16"/>
<polygon fill="#63b8ff" stroke="#63b8ff" points="351.25,-209.91 355.39,-219.66 358.23,-209.46 351.25,-209.91"/>
</a>
</g>
</g>
<!-- Node30&#45;&gt;Node25 -->
<g id="edge61_Node000030_Node000025" class="edge">
<title>Node30&#45;&gt;Node25</title>
<g id="a_edge61_Node000030_Node000025"><a xlink:title=" ">
<path fill="none" stroke="#63b8ff" d="M388.88,-216.55C415.99,-206.71 453.8,-192.98 478.08,-184.17"/>
<polygon fill="#63b8ff" stroke="#63b8ff" points="387.62,-213.28 379.42,-219.98 390.01,-219.86 387.62,-213.28"/>
</a>
</g>
</g>
<!-- Node31&#45;&gt;Node10 -->
<g id="edge64_Node000031_Node000010" class="edge">
<title>Node31&#45;&gt;Node10</title>
<g id="a_edge64_Node000031_Node000010"><a xlink:title=" ">
<path fill="none" stroke="#63b8ff" d="M1642.98,-217.56C1602.15,-207.64 1542.76,-193.2 1505.26,-184.08"/>
<polygon fill="#63b8ff" stroke="#63b8ff" points="1642.39,-221.02 1652.94,-219.98 1644.05,-214.22 1642.39,-221.02"/>
</a>
</g>
</g>
</g>
</svg>
