<?xml version="1.0" encoding="UTF-8" standalone="no"?>
<!DOCTYPE svg PUBLIC "-//W3C//DTD SVG 1.1//EN"
 "http://www.w3.org/Graphics/SVG/1.1/DTD/svg11.dtd">
<!-- Generated by graphviz version 2.42.4 (0)
 -->
<!-- Title: common.hpp Pages: 1 -->
<svg width="2075pt" height="247pt"
 viewBox="0.00 0.00 2075.49 247.00" xmlns="http://www.w3.org/2000/svg" xmlns:xlink="http://www.w3.org/1999/xlink">
<g id="graph0" class="graph" transform="scale(1 1) rotate(0) translate(4 243)">
<title>common.hpp</title>
<!-- Node1 -->
<g id="Node000001" class="node">
<title>Node1</title>
<g id="a_Node000001"><a xlink:title=" ">
<polygon fill="#999999" stroke="#666666" points="873.49,-239 793.49,-239 793.49,-220 873.49,-220 873.49,-239"/>
<text text-anchor="middle" x="833.49" y="-227" font-family="Helvetica,sans-Serif" font-size="10.00">common.hpp</text>
</a>
</g>
</g>
<!-- Node2 -->
<g id="Node000002" class="node">
<title>Node2</title>
<g id="a_Node000002"><a xlink:href="bf16_8hpp.html" target="_top" xlink:title=" ">
<polygon fill="white" stroke="#666666" points="170.99,-184 111.99,-184 111.99,-165 170.99,-165 170.99,-184"/>
<text text-anchor="middle" x="141.49" y="-172" font-family="Helvetica,sans-Serif" font-size="10.00">bf16.hpp</text>
</a>
</g>
</g>
<!-- Node1&#45;&gt;Node2 -->
<g id="edge1_Node000001_Node000002" class="edge">
<title>Node1&#45;&gt;Node2</title>
<g id="a_edge1_Node000001_Node000002"><a xlink:title=" ">
<path fill="none" stroke="#63b8ff" d="M783.25,-225.36C678.89,-218.71 431.08,-202.33 223.49,-184 206.09,-182.46 186.65,-180.46 171.07,-178.79"/>
<polygon fill="#63b8ff" stroke="#63b8ff" points="783.28,-228.86 793.48,-226.01 783.73,-221.88 783.28,-228.86"/>
</a>
</g>
</g>
<!-- Node4 -->
<g id="Node000004" class="node">
<title>Node4</title>
<g id="a_Node000004"><a xlink:href="numerics_8hpp.html" target="_top" xlink:title=" ">
<polygon fill="white" stroke="#666666" points="262.99,-129 179.99,-129 179.99,-110 262.99,-110 262.99,-129"/>
<text text-anchor="middle" x="221.49" y="-117" font-family="Helvetica,sans-Serif" font-size="10.00">numerics.hpp</text>
</a>
</g>
</g>
<!-- Node1&#45;&gt;Node4 -->
<g id="edge37_Node000001_Node000004" class="edge">
<title>Node1&#45;&gt;Node4</title>
<g id="a_edge37_Node000001_Node000004"><a xlink:title=" ">
<path fill="none" stroke="#63b8ff" d="M782.94,-229.23C663.13,-230.19 365.33,-227.96 277.49,-184 253.04,-171.77 234.55,-143.79 226.27,-129.4"/>
<polygon fill="#63b8ff" stroke="#63b8ff" points="783.33,-232.72 793.3,-229.13 783.26,-225.72 783.33,-232.72"/>
</a>
</g>
</g>
<!-- Node6 -->
<g id="Node000006" class="node">
<title>Node6</title>
<g id="a_Node000006"><a xlink:href="simd_8hpp.html" target="_top" xlink:title=" ">
<polygon fill="white" stroke="#666666" points="201.49,-19 139.49,-19 139.49,0 201.49,0 201.49,-19"/>
<text text-anchor="middle" x="170.49" y="-7" font-family="Helvetica,sans-Serif" font-size="10.00">simd.hpp</text>
</a>
</g>
</g>
<!-- Node1&#45;&gt;Node6 -->
<g id="edge43_Node000001_Node000006" class="edge">
<title>Node1&#45;&gt;Node6</title>
<g id="a_edge43_Node000001_Node000006"><a xlink:title=" ">
<path fill="none" stroke="#63b8ff" d="M783.04,-228.41C639.38,-227.68 230.24,-222.2 102.49,-184 55.37,-169.91 31.14,-171.54 6.49,-129 -27.51,-70.34 82.97,-32.78 139.4,-17.84"/>
<polygon fill="#63b8ff" stroke="#63b8ff" points="783.3,-231.91 793.32,-228.45 783.33,-224.91 783.3,-231.91"/>
</a>
</g>
</g>
<!-- Node7 -->
<g id="Node000007" class="node">
<title>Node7</title>
<g id="a_Node000007"><a xlink:href="simd__data_8hpp.html" target="_top" xlink:title=" ">
<polygon fill="white" stroke="#666666" points="338.99,-74 249.99,-74 249.99,-55 338.99,-55 338.99,-74"/>
<text text-anchor="middle" x="294.49" y="-62" font-family="Helvetica,sans-Serif" font-size="10.00">simd_data.hpp</text>
</a>
</g>
</g>
<!-- Node1&#45;&gt;Node7 -->
<g id="edge44_Node000001_Node000007" class="edge">
<title>Node1&#45;&gt;Node7</title>
<g id="a_edge44_Node000001_Node000007"><a xlink:title=" ">
<path fill="none" stroke="#63b8ff" d="M783.26,-226.8C665.78,-222.43 380.37,-209.31 345.49,-184 308.14,-156.91 297.87,-96.68 295.29,-74.19"/>
<polygon fill="#63b8ff" stroke="#63b8ff" points="783.3,-230.31 793.42,-227.18 783.56,-223.31 783.3,-230.31"/>
</a>
</g>
</g>
<!-- Node9 -->
<g id="Node000009" class="node">
<title>Node9</title>
<g id="a_Node000009"><a xlink:href="calling__conventions_8hpp.html" target="_top" xlink:title=" ">
<polygon fill="white" stroke="#666666" points="1953.49,-184 1819.49,-184 1819.49,-165 1953.49,-165 1953.49,-184"/>
<text text-anchor="middle" x="1886.49" y="-172" font-family="Helvetica,sans-Serif" font-size="10.00">calling_conventions.hpp</text>
</a>
</g>
</g>
<!-- Node1&#45;&gt;Node9 -->
<g id="edge11_Node000001_Node000009" class="edge">
<title>Node1&#45;&gt;Node9</title>
<g id="a_edge11_Node000001_Node000009"><a xlink:title=" ">
<path fill="none" stroke="#63b8ff" d="M883.87,-227.38C1028.32,-223.9 1456.26,-211.85 1810.49,-184 1813.4,-183.77 1816.37,-183.52 1819.37,-183.25"/>
<polygon fill="#63b8ff" stroke="#63b8ff" points="883.48,-223.88 873.56,-227.62 883.64,-230.88 883.48,-223.88"/>
</a>
</g>
</g>
<!-- Node11 -->
<g id="Node000011" class="node">
<title>Node11</title>
<g id="a_Node000011"><a xlink:href="control__flow_8hpp.html" target="_top" xlink:title=" ">
<polygon fill="white" stroke="#666666" points="2067.49,-184 1971.49,-184 1971.49,-165 2067.49,-165 2067.49,-184"/>
<text text-anchor="middle" x="2019.49" y="-172" font-family="Helvetica,sans-Serif" font-size="10.00">control_flow.hpp</text>
</a>
</g>
</g>
<!-- Node1&#45;&gt;Node11 -->
<g id="edge13_Node000001_Node000011" class="edge">
<title>Node1&#45;&gt;Node11</title>
<g id="a_edge13_Node000001_Node000011"><a xlink:title=" ">
<path fill="none" stroke="#63b8ff" d="M884,-228.46C1042.99,-227.92 1547.25,-223.03 1962.49,-184 1965.38,-183.73 1968.34,-183.41 1971.33,-183.06"/>
<polygon fill="#63b8ff" stroke="#63b8ff" points="883.58,-224.96 873.59,-228.49 883.6,-231.96 883.58,-224.96"/>
</a>
</g>
</g>
<!-- Node12 -->
<g id="Node000012" class="node">
<title>Node12</title>
<g id="a_Node000012"><a xlink:href="cpuid_8cpp.html" target="_top" xlink:title=" ">
<polygon fill="white" stroke="#666666" points="766.99,-129 703.99,-129 703.99,-110 766.99,-110 766.99,-129"/>
<text text-anchor="middle" x="735.49" y="-117" font-family="Helvetica,sans-Serif" font-size="10.00">cpuid.cpp</text>
</a>
</g>
</g>
<!-- Node1&#45;&gt;Node12 -->
<g id="edge15_Node000001_Node000012" class="edge">
<title>Node1&#45;&gt;Node12</title>
<g id="a_edge15_Node000001_Node000012"><a xlink:title=" ">
<path fill="none" stroke="#63b8ff" d="M783.04,-226.57C752.07,-222.46 714.62,-211.58 694.49,-184 680.64,-165.03 706.2,-141.54 722.83,-129.13"/>
<polygon fill="#63b8ff" stroke="#63b8ff" points="782.92,-230.08 793.25,-227.72 783.71,-223.12 782.92,-230.08"/>
</a>
</g>
</g>
<!-- Node13 -->
<g id="Node000013" class="node">
<title>Node13</title>
<g id="a_Node000013"><a xlink:href="cpuid_8hpp.html" target="_top" xlink:title=" ">
<polygon fill="white" stroke="#666666" points="767.49,-184 703.49,-184 703.49,-165 767.49,-165 767.49,-184"/>
<text text-anchor="middle" x="735.49" y="-172" font-family="Helvetica,sans-Serif" font-size="10.00">cpuid.hpp</text>
</a>
</g>
</g>
<!-- Node1&#45;&gt;Node13 -->
<g id="edge16_Node000001_Node000013" class="edge">
<title>Node1&#45;&gt;Node13</title>
<g id="a_edge16_Node000001_Node000013"><a xlink:title=" ">
<path fill="none" stroke="#63b8ff" d="M808.46,-214.97C790.55,-205.28 766.96,-192.52 751.52,-184.17"/>
<polygon fill="#63b8ff" stroke="#63b8ff" points="807.28,-218.31 817.74,-219.98 810.61,-212.15 807.28,-218.31"/>
</a>
</g>
</g>
<!-- Node14 -->
<g id="Node000014" class="node">
<title>Node14</title>
<g id="a_Node000014"><a xlink:href="wait_8hpp.html" target="_top" xlink:title="waiting strategies">
<polygon fill="white" stroke="#666666" points="882.99,-129 823.99,-129 823.99,-110 882.99,-110 882.99,-129"/>
<text text-anchor="middle" x="853.49" y="-117" font-family="Helvetica,sans-Serif" font-size="10.00">wait.hpp</text>
</a>
</g>
</g>
<!-- Node1&#45;&gt;Node14 -->
<g id="edge64_Node000001_Node000014" class="edge">
<title>Node1&#45;&gt;Node14</title>
<g id="a_edge64_Node000001_Node000014"><a xlink:title=" ">
<path fill="none" stroke="#63b8ff" d="M824.4,-210.55C819.11,-197.67 814.41,-180.02 819.49,-165 824.28,-150.82 835.61,-137.59 843.88,-129.31"/>
<polygon fill="#63b8ff" stroke="#63b8ff" points="821.25,-212.07 828.59,-219.71 827.61,-209.16 821.25,-212.07"/>
</a>
</g>
</g>
<!-- Node16 -->
<g id="Node000016" class="node">
<title>Node16</title>
<g id="a_Node000016"><a xlink:href="cuda_8hpp.html" target="_top" xlink:title=" ">
<polygon fill="white" stroke="#666666" points="1296.99,-184 1235.99,-184 1235.99,-165 1296.99,-165 1296.99,-184"/>
<text text-anchor="middle" x="1266.49" y="-172" font-family="Helvetica,sans-Serif" font-size="10.00">cuda.hpp</text>
</a>
</g>
</g>
<!-- Node1&#45;&gt;Node16 -->
<g id="edge22_Node000001_Node000016" class="edge">
<title>Node1&#45;&gt;Node16</title>
<g id="a_edge22_Node000001_Node000016"><a xlink:title=" ">
<path fill="none" stroke="#63b8ff" d="M883.64,-224.38C958.55,-217.89 1103.98,-203.9 1226.49,-184 1229.57,-183.5 1232.77,-182.92 1235.97,-182.3"/>
<polygon fill="#63b8ff" stroke="#63b8ff" points="883.21,-220.91 873.55,-225.25 883.81,-227.88 883.21,-220.91"/>
</a>
</g>
</g>
<!-- Node17 -->
<g id="Node000017" class="node">
<title>Node17</title>
<g id="a_Node000017"><a xlink:href="fp16_8hpp.html" target="_top" xlink:title=" ">
<polygon fill="white" stroke="#666666" points="608.99,-184 549.99,-184 549.99,-165 608.99,-165 608.99,-184"/>
<text text-anchor="middle" x="579.49" y="-172" font-family="Helvetica,sans-Serif" font-size="10.00">fp16.hpp</text>
</a>
</g>
</g>
<!-- Node1&#45;&gt;Node17 -->
<g id="edge24_Node000001_Node000017" class="edge">
<title>Node1&#45;&gt;Node17</title>
<g id="a_edge24_Node000001_Node000017"><a xlink:title=" ">
<path fill="none" stroke="#63b8ff" d="M783.24,-218.01C731.3,-207.18 651.96,-190.62 609.23,-181.71"/>
<polygon fill="#63b8ff" stroke="#63b8ff" points="782.74,-221.49 793.24,-220.1 784.16,-214.63 782.74,-221.49"/>
</a>
</g>
</g>
<!-- Node19 -->
<g id="Node000019" class="node">
<title>Node19</title>
<g id="a_Node000019"><a xlink:href="handles_8hpp.html" target="_top" xlink:title=" ">
<polygon fill="white" stroke="#666666" points="1391.49,-184 1315.49,-184 1315.49,-165 1391.49,-165 1391.49,-184"/>
<text text-anchor="middle" x="1353.49" y="-172" font-family="Helvetica,sans-Serif" font-size="10.00">handles.hpp</text>
</a>
</g>
</g>
<!-- Node1&#45;&gt;Node19 -->
<g id="edge28_Node000001_Node000019" class="edge">
<title>Node1&#45;&gt;Node19</title>
<g id="a_edge28_Node000001_Node000019"><a xlink:title=" ">
<path fill="none" stroke="#63b8ff" d="M883.88,-225.17C970.52,-219.14 1153.17,-205.04 1306.49,-184 1309.36,-183.61 1312.33,-183.16 1315.31,-182.68"/>
<polygon fill="#63b8ff" stroke="#63b8ff" points="883.53,-221.69 873.8,-225.87 884.02,-228.67 883.53,-221.69"/>
</a>
</g>
</g>
<!-- Node20 -->
<g id="Node000020" class="node">
<title>Node20</title>
<g id="a_Node000020"><a xlink:href="attributes_2memory_8hpp.html" target="_top" xlink:title=" ">
<polygon fill="white" stroke="#666666" points="1486.99,-184 1409.99,-184 1409.99,-165 1486.99,-165 1486.99,-184"/>
<text text-anchor="middle" x="1448.49" y="-172" font-family="Helvetica,sans-Serif" font-size="10.00">memory.hpp</text>
</a>
</g>
</g>
<!-- Node1&#45;&gt;Node20 -->
<g id="edge30_Node000001_Node000020" class="edge">
<title>Node1&#45;&gt;Node20</title>
<g id="a_edge30_Node000001_Node000020"><a xlink:title=" ">
<path fill="none" stroke="#63b8ff" d="M883.51,-226.21C982.52,-221.31 1210.34,-208.24 1400.49,-184 1403.51,-183.61 1406.63,-183.17 1409.76,-182.69"/>
<polygon fill="#63b8ff" stroke="#63b8ff" points="883.31,-222.71 873.49,-226.7 883.65,-229.7 883.31,-222.71"/>
</a>
</g>
</g>
<!-- Node21 -->
<g id="Node000021" class="node">
<title>Node21</title>
<g id="a_Node000021"><a xlink:href="memory_8hpp.html" target="_top" xlink:title=" ">
<polygon fill="white" stroke="#666666" points="1080.99,-129 1003.99,-129 1003.99,-110 1080.99,-110 1080.99,-129"/>
<text text-anchor="middle" x="1042.49" y="-117" font-family="Helvetica,sans-Serif" font-size="10.00">memory.hpp</text>
</a>
</g>
</g>
<!-- Node1&#45;&gt;Node21 -->
<g id="edge32_Node000001_Node000021" class="edge">
<title>Node1&#45;&gt;Node21</title>
<g id="a_edge32_Node000001_Node000021"><a xlink:title=" ">
<path fill="none" stroke="#63b8ff" d="M834.25,-209.54C835.84,-195.34 840.32,-176.45 852.49,-165 874.07,-144.68 954.93,-131.35 1003.94,-124.94"/>
<polygon fill="#63b8ff" stroke="#63b8ff" points="830.74,-209.47 833.49,-219.7 837.72,-209.99 830.74,-209.47"/>
</a>
</g>
</g>
<!-- Node22 -->
<g id="Node000022" class="node">
<title>Node22</title>
<g id="a_Node000022"><a xlink:href="null__safety_8hpp.html" target="_top" xlink:title=" ">
<polygon fill="white" stroke="#666666" points="1217.49,-184 1127.49,-184 1127.49,-165 1217.49,-165 1217.49,-184"/>
<text text-anchor="middle" x="1172.49" y="-172" font-family="Helvetica,sans-Serif" font-size="10.00">null_safety.hpp</text>
</a>
</g>
</g>
<!-- Node1&#45;&gt;Node22 -->
<g id="edge34_Node000001_Node000022" class="edge">
<title>Node1&#45;&gt;Node22</title>
<g id="a_edge34_Node000001_Node000022"><a xlink:title=" ">
<path fill="none" stroke="#63b8ff" d="M883.78,-220.67C940.72,-211.79 1036.28,-196.89 1118.49,-184 1121.39,-183.54 1124.39,-183.07 1127.41,-182.6"/>
<polygon fill="#63b8ff" stroke="#63b8ff" points="882.95,-217.25 873.61,-222.25 884.03,-224.17 882.95,-217.25"/>
</a>
</g>
</g>
<!-- Node23 -->
<g id="Node000023" class="node">
<title>Node23</title>
<g id="a_Node000023"><a xlink:href="performance__constraints_8hpp.html" target="_top" xlink:title=" ">
<polygon fill="white" stroke="#666666" points="1019.99,-184 860.99,-184 860.99,-165 1019.99,-165 1019.99,-184"/>
<text text-anchor="middle" x="940.49" y="-172" font-family="Helvetica,sans-Serif" font-size="10.00">performance_constraints.hpp</text>
</a>
</g>
</g>
<!-- Node1&#45;&gt;Node23 -->
<g id="edge38_Node000001_Node000023" class="edge">
<title>Node1&#45;&gt;Node23</title>
<g id="a_edge38_Node000001_Node000023"><a xlink:title=" ">
<path fill="none" stroke="#63b8ff" d="M859.73,-215.5C879.41,-205.75 905.81,-192.68 922.98,-184.17"/>
<polygon fill="#63b8ff" stroke="#63b8ff" points="858.09,-212.41 850.68,-219.98 861.19,-218.68 858.09,-212.41"/>
</a>
</g>
</g>
<!-- Node24 -->
<g id="Node000024" class="node">
<title>Node24</title>
<g id="a_Node000024"><a xlink:href="profiling_8hpp.html" target="_top" xlink:title=" ">
<polygon fill="white" stroke="#666666" points="664.99,-74 587.99,-74 587.99,-55 664.99,-55 664.99,-74"/>
<text text-anchor="middle" x="626.49" y="-62" font-family="Helvetica,sans-Serif" font-size="10.00">profiling.hpp</text>
</a>
</g>
</g>
<!-- Node1&#45;&gt;Node24 -->
<g id="edge41_Node000001_Node000024" class="edge">
<title>Node1&#45;&gt;Node24</title>
<g id="a_edge41_Node000001_Node000024"><a xlink:title=" ">
<path fill="none" stroke="#63b8ff" d="M783.09,-223.33C752.25,-217.91 713.65,-206.79 686.49,-184 650.27,-153.62 633.58,-95.91 628.37,-74.12"/>
<polygon fill="#63b8ff" stroke="#63b8ff" points="782.79,-226.83 793.22,-224.96 783.9,-219.92 782.79,-226.83"/>
</a>
</g>
</g>
<!-- Node25 -->
<g id="Node000025" class="node">
<title>Node25</title>
<g id="a_Node000025"><a xlink:href="static__string_8hpp.html" target="_top" xlink:title=" ">
<polygon fill="white" stroke="#666666" points="531.49,-129 433.49,-129 433.49,-110 531.49,-110 531.49,-129"/>
<text text-anchor="middle" x="482.49" y="-117" font-family="Helvetica,sans-Serif" font-size="10.00">static_string.hpp</text>
</a>
</g>
</g>
<!-- Node1&#45;&gt;Node25 -->
<g id="edge45_Node000001_Node000025" class="edge">
<title>Node1&#45;&gt;Node25</title>
<g id="a_edge45_Node000001_Node000025"><a xlink:title=" ">
<path fill="none" stroke="#63b8ff" d="M783.09,-224.83C710.94,-218.91 582.42,-205.66 541.49,-184 516.75,-170.91 496.81,-143.32 487.76,-129.21"/>
<polygon fill="#63b8ff" stroke="#63b8ff" points="783.06,-228.34 793.31,-225.65 783.62,-221.36 783.06,-228.34"/>
</a>
</g>
</g>
<!-- Node27 -->
<g id="Node000027" class="node">
<title>Node27</title>
<g id="a_Node000027"><a xlink:href="strings_8hpp.html" target="_top" xlink:title=" ">
<polygon fill="white" stroke="#666666" points="1108.99,-184 1037.99,-184 1037.99,-165 1108.99,-165 1108.99,-184"/>
<text text-anchor="middle" x="1073.49" y="-172" font-family="Helvetica,sans-Serif" font-size="10.00">strings.hpp</text>
</a>
</g>
</g>
<!-- Node1&#45;&gt;Node27 -->
<g id="edge49_Node000001_Node000027" class="edge">
<title>Node1&#45;&gt;Node27</title>
<g id="a_edge49_Node000001_Node000027"><a xlink:title=" ">
<path fill="none" stroke="#63b8ff" d="M881.82,-217.83C927.95,-207.64 996.37,-192.53 1037.76,-183.39"/>
<polygon fill="#63b8ff" stroke="#63b8ff" points="881.06,-214.41 872.05,-219.98 882.57,-221.25 881.06,-214.41"/>
</a>
</g>
</g>
<!-- Node28 -->
<g id="Node000028" class="node">
<title>Node28</title>
<g id="a_Node000028"><a xlink:href="targets_8hpp.html" target="_top" xlink:title=" ">
<polygon fill="white" stroke="#666666" points="1577.49,-184 1505.49,-184 1505.49,-165 1577.49,-165 1577.49,-184"/>
<text text-anchor="middle" x="1541.49" y="-172" font-family="Helvetica,sans-Serif" font-size="10.00">targets.hpp</text>
</a>
</g>
</g>
<!-- Node1&#45;&gt;Node28 -->
<g id="edge52_Node000001_Node000028" class="edge">
<title>Node1&#45;&gt;Node28</title>
<g id="a_edge52_Node000001_Node000028"><a xlink:title=" ">
<path fill="none" stroke="#63b8ff" d="M883.86,-227.18C994.9,-223.81 1268.95,-213.02 1496.49,-184 1499.33,-183.64 1502.26,-183.21 1505.2,-182.74"/>
<polygon fill="#63b8ff" stroke="#63b8ff" points="883.52,-223.68 873.63,-227.48 883.73,-230.68 883.52,-223.68"/>
</a>
</g>
</g>
<!-- Node29 -->
<g id="Node000029" class="node">
<title>Node29</title>
<g id="a_Node000029"><a xlink:href="thread__safety_8hpp.html" target="_top" xlink:title=" ">
<polygon fill="white" stroke="#666666" points="1699.49,-184 1595.49,-184 1595.49,-165 1699.49,-165 1699.49,-184"/>
<text text-anchor="middle" x="1647.49" y="-172" font-family="Helvetica,sans-Serif" font-size="10.00">thread_safety.hpp</text>
</a>
</g>
</g>
<!-- Node1&#45;&gt;Node29 -->
<g id="edge54_Node000001_Node000029" class="edge">
<title>Node1&#45;&gt;Node29</title>
<g id="a_edge54_Node000001_Node000029"><a xlink:title=" ">
<path fill="none" stroke="#63b8ff" d="M883.65,-226.91C1004.73,-222.78 1322.47,-210.15 1586.49,-184 1589.36,-183.72 1592.3,-183.4 1595.28,-183.05"/>
<polygon fill="#63b8ff" stroke="#63b8ff" points="883.45,-223.42 873.57,-227.25 883.69,-230.41 883.45,-223.42"/>
</a>
</g>
</g>
<!-- Node30 -->
<g id="Node000030" class="node">
<title>Node30</title>
<g id="a_Node000030"><a xlink:href="types_8hpp.html" target="_top" xlink:title=" ">
<polygon fill="white" stroke="#666666" points="418.99,-184 353.99,-184 353.99,-165 418.99,-165 418.99,-184"/>
<text text-anchor="middle" x="386.49" y="-172" font-family="Helvetica,sans-Serif" font-size="10.00">types.hpp</text>
</a>
</g>
</g>
<!-- Node1&#45;&gt;Node30 -->
<g id="edge56_Node000001_Node000030" class="edge">
<title>Node1&#45;&gt;Node30</title>
<g id="a_edge56_Node000001_Node000030"><a xlink:title=" ">
<path fill="none" stroke="#63b8ff" d="M783.49,-222.57C691.24,-211.63 496.6,-188.56 419.21,-179.38"/>
<polygon fill="#63b8ff" stroke="#63b8ff" points="783.08,-226.05 793.42,-223.75 783.91,-219.1 783.08,-226.05"/>
</a>
</g>
</g>
<!-- Node31 -->
<g id="Node000031" class="node">
<title>Node31</title>
<g id="a_Node000031"><a xlink:href="typestate_8hpp.html" target="_top" xlink:title=" ">
<polygon fill="white" stroke="#666666" points="1801.49,-184 1717.49,-184 1717.49,-165 1801.49,-165 1801.49,-184"/>
<text text-anchor="middle" x="1759.49" y="-172" font-family="Helvetica,sans-Serif" font-size="10.00">typestate.hpp</text>
</a>
</g>
</g>
<!-- Node1&#45;&gt;Node31 -->
<g id="edge62_Node000001_Node000031" class="edge">
<title>Node1&#45;&gt;Node31</title>
<g id="a_edge62_Node000001_Node000031"><a xlink:title=" ">
<path fill="none" stroke="#63b8ff" d="M884.13,-227.95C1018.72,-226.04 1396.35,-217.84 1708.49,-184 1711.34,-183.69 1714.28,-183.33 1717.24,-182.92"/>
<polygon fill="#63b8ff" stroke="#63b8ff" points="883.69,-224.45 873.73,-228.09 883.78,-231.45 883.69,-224.45"/>
</a>
</g>
</g>
<!-- Node3 -->
<g id="Node000003" class="node">
<title>Node3</title>
<g id="a_Node000003"><a xlink:href="bf16_8cpp.html" target="_top" xlink:title=" ">
<polygon fill="white" stroke="#666666" points="74.99,-129 15.99,-129 15.99,-110 74.99,-110 74.99,-129"/>
<text text-anchor="middle" x="45.49" y="-117" font-family="Helvetica,sans-Serif" font-size="10.00">bf16.cpp</text>
</a>
</g>
</g>
<!-- Node2&#45;&gt;Node3 -->
<g id="edge2_Node000002_Node000003" class="edge">
<title>Node2&#45;&gt;Node3</title>
<g id="a_edge2_Node000002_Node000003"><a xlink:title=" ">
<path fill="none" stroke="#63b8ff" d="M116.97,-159.97C99.42,-150.28 76.32,-137.52 61.19,-129.17"/>
<polygon fill="#63b8ff" stroke="#63b8ff" points="115.62,-163.22 126.06,-164.98 119,-157.09 115.62,-163.22"/>
</a>
</g>
</g>
<!-- Node2&#45;&gt;Node4 -->
<g id="edge3_Node000002_Node000004" class="edge">
<title>Node2&#45;&gt;Node4</title>
<g id="a_edge3_Node000002_Node000004"><a xlink:title=" ">
<path fill="none" stroke="#63b8ff" d="M162.73,-159.42C177.25,-149.81 196.03,-137.37 208.4,-129.17"/>
<polygon fill="#63b8ff" stroke="#63b8ff" points="160.74,-156.54 154.34,-164.98 164.61,-162.38 160.74,-156.54"/>
</a>
</g>
</g>
<!-- Node8 -->
<g id="Node000008" class="node">
<title>Node8</title>
<g id="a_Node000008"><a xlink:href="tests_8cpp.html" target="_top" xlink:title=" ">
<polygon fill="white" stroke="#666666" points="622.99,-19 561.99,-19 561.99,0 622.99,0 622.99,-19"/>
<text text-anchor="middle" x="592.49" y="-7" font-family="Helvetica,sans-Serif" font-size="10.00">tests.cpp</text>
</a>
</g>
</g>
<!-- Node2&#45;&gt;Node8 -->
<g id="edge10_Node000002_Node000008" class="edge">
<title>Node2&#45;&gt;Node8</title>
<g id="a_edge10_Node000002_Node000008"><a xlink:title=" ">
<path fill="none" stroke="#63b8ff" d="M127.09,-157.02C107,-131.97 75.83,-84.18 102.49,-55 133.52,-21.02 459.53,-12.71 561.91,-10.94"/>
<polygon fill="#63b8ff" stroke="#63b8ff" points="124.53,-159.41 133.62,-164.86 129.91,-154.93 124.53,-159.41"/>
</a>
</g>
</g>
<!-- Node5 -->
<g id="Node000005" class="node">
<title>Node5</title>
<g id="a_Node000005"><a xlink:href="numerics_8cpp.html" target="_top" xlink:title="numerics external template instantiations">
<polygon fill="white" stroke="#666666" points="193.49,-74 111.49,-74 111.49,-55 193.49,-55 193.49,-74"/>
<text text-anchor="middle" x="152.49" y="-62" font-family="Helvetica,sans-Serif" font-size="10.00">numerics.cpp</text>
</a>
</g>
</g>
<!-- Node4&#45;&gt;Node5 -->
<g id="edge4_Node000004_Node000005" class="edge">
<title>Node4&#45;&gt;Node5</title>
<g id="a_edge4_Node000004_Node000005"><a xlink:title=" ">
<path fill="none" stroke="#63b8ff" d="M202.45,-103.88C190.03,-94.34 174.24,-82.21 163.77,-74.17"/>
<polygon fill="#63b8ff" stroke="#63b8ff" points="200.34,-106.67 210.4,-109.98 204.6,-101.12 200.34,-106.67"/>
</a>
</g>
</g>
<!-- Node4&#45;&gt;Node6 -->
<g id="edge5_Node000004_Node000006" class="edge">
<title>Node4&#45;&gt;Node6</title>
<g id="a_edge5_Node000004_Node000006"><a xlink:title=" ">
<path fill="none" stroke="#63b8ff" d="M169.71,-112.7C145.05,-107.04 117.68,-95.9 102.49,-74 86.65,-51.17 122.79,-30.35 148.21,-19.15"/>
<polygon fill="#63b8ff" stroke="#63b8ff" points="169.21,-116.17 179.71,-114.74 170.61,-109.31 169.21,-116.17"/>
</a>
</g>
</g>
<!-- Node4&#45;&gt;Node7 -->
<g id="edge6_Node000004_Node000007" class="edge">
<title>Node4&#45;&gt;Node7</title>
<g id="a_edge6_Node000004_Node000007"><a xlink:title=" ">
<path fill="none" stroke="#63b8ff" d="M241.63,-103.88C254.77,-94.34 271.47,-82.21 282.54,-74.17"/>
<polygon fill="#63b8ff" stroke="#63b8ff" points="239.25,-101.28 233.21,-109.98 243.36,-106.94 239.25,-101.28"/>
</a>
</g>
</g>
<!-- Node4&#45;&gt;Node8 -->
<g id="edge9_Node000004_Node000008" class="edge">
<title>Node4&#45;&gt;Node8</title>
<g id="a_edge9_Node000004_Node000008"><a xlink:title=" ">
<path fill="none" stroke="#63b8ff" d="M222.19,-99.62C223.8,-85.15 228.47,-65.87 241.49,-55 289.75,-14.69 485.34,-10.39 561.72,-10.29"/>
<polygon fill="#63b8ff" stroke="#63b8ff" points="218.68,-99.72 221.45,-109.94 225.66,-100.22 218.68,-99.72"/>
</a>
</g>
</g>
<!-- Node7&#45;&gt;Node6 -->
<g id="edge7_Node000007_Node000006" class="edge">
<title>Node7&#45;&gt;Node6</title>
<g id="a_edge7_Node000007_Node000006"><a xlink:title=" ">
<path fill="none" stroke="#63b8ff" d="M265.31,-51.03C242.38,-41.23 211.03,-27.83 190.77,-19.17"/>
<polygon fill="#63b8ff" stroke="#63b8ff" points="263.99,-54.27 274.56,-54.98 266.74,-47.84 263.99,-54.27"/>
</a>
</g>
</g>
<!-- Node7&#45;&gt;Node8 -->
<g id="edge8_Node000007_Node000008" class="edge">
<title>Node7&#45;&gt;Node8</title>
<g id="a_edge8_Node000007_Node000008"><a xlink:title=" ">
<path fill="none" stroke="#63b8ff" d="M349.16,-53.78C411.6,-42.67 511.55,-24.89 561.69,-15.98"/>
<polygon fill="#63b8ff" stroke="#63b8ff" points="348.33,-50.37 339.1,-55.57 349.56,-57.26 348.33,-50.37"/>
</a>
</g>
</g>
<!-- Node10 -->
<g id="Node000010" class="node">
<title>Node10</title>
<g id="a_Node000010"><a xlink:href="attributes_8hpp.html" target="_top" xlink:title="an opinionated subset of clang/gcc attributes">
<polygon fill="white" stroke="#666666" points="1490.99,-129 1405.99,-129 1405.99,-110 1490.99,-110 1490.99,-129"/>
<text text-anchor="middle" x="1448.49" y="-117" font-family="Helvetica,sans-Serif" font-size="10.00">attributes.hpp</text>
</a>
</g>
</g>
<!-- Node9&#45;&gt;Node10 -->
<g id="edge12_Node000009_Node000010" class="edge">
<title>Node9&#45;&gt;Node10</title>
<g id="a_edge12_Node000009_Node000010"><a xlink:title=" ">
<path fill="none" stroke="#63b8ff" d="M1808.85,-164.11C1716.23,-152.9 1564.71,-134.56 1491.19,-125.67"/>
<polygon fill="#63b8ff" stroke="#63b8ff" points="1808.66,-167.61 1819.01,-165.33 1809.5,-160.66 1808.66,-167.61"/>
</a>
</g>
</g>
<!-- Node11&#45;&gt;Node10 -->
<g id="edge14_Node000011_Node000010" class="edge">
<title>Node11&#45;&gt;Node10</title>
<g id="a_edge14_Node000011_Node000010"><a xlink:title=" ">
<path fill="none" stroke="#63b8ff" d="M1961.36,-164.94C1780.63,-143.93 1577.87,-129.18 1491.22,-123.3"/>
<polygon fill="#63b8ff" stroke="#63b8ff" points="1960.97,-168.42 1971.31,-166.1 1961.79,-161.46 1960.97,-168.42"/>
</a>
</g>
</g>
<!-- Node13&#45;&gt;Node8 -->
<g id="edge18_Node000013_Node000008" class="edge">
<title>Node13&#45;&gt;Node8</title>
<g id="a_edge18_Node000013_Node000008"><a xlink:title=" ">
<path fill="none" stroke="#63b8ff" d="M755.85,-158.54C770.45,-145.89 785.99,-127.14 776.49,-110 744.8,-52.83 666.7,-26.86 623.13,-16.48"/>
<polygon fill="#63b8ff" stroke="#63b8ff" points="753.58,-155.88 748.01,-164.89 757.98,-161.32 753.58,-155.88"/>
</a>
</g>
</g>
<!-- Node13&#45;&gt;Node12 -->
<g id="edge17_Node000013_Node000012" class="edge">
<title>Node13&#45;&gt;Node12</title>
<g id="a_edge17_Node000013_Node000012"><a xlink:title=" ">
<path fill="none" stroke="#63b8ff" d="M735.49,-154.66C735.49,-145.93 735.49,-135.99 735.49,-129.09"/>
<polygon fill="#63b8ff" stroke="#63b8ff" points="731.99,-154.75 735.49,-164.75 738.99,-154.75 731.99,-154.75"/>
</a>
</g>
</g>
<!-- Node13&#45;&gt;Node14 -->
<g id="edge19_Node000013_Node000014" class="edge">
<title>Node13&#45;&gt;Node14</title>
<g id="a_edge19_Node000013_Node000014"><a xlink:title=" ">
<path fill="none" stroke="#63b8ff" d="M763.84,-160.77C785.6,-150.99 815.07,-137.75 834.18,-129.17"/>
<polygon fill="#63b8ff" stroke="#63b8ff" points="762.13,-157.69 754.45,-164.98 765,-164.08 762.13,-157.69"/>
</a>
</g>
</g>
<!-- Node14&#45;&gt;Node8 -->
<g id="edge20_Node000014_Node000008" class="edge">
<title>Node14&#45;&gt;Node8</title>
<g id="a_edge20_Node000014_Node000008"><a xlink:title=" ">
<path fill="none" stroke="#63b8ff" d="M845.69,-100.46C838.44,-85.89 826.24,-66.06 809.49,-55 751.72,-16.86 667.91,-10.35 623.23,-9.85"/>
<polygon fill="#63b8ff" stroke="#63b8ff" points="842.7,-102.34 850.09,-109.94 849.05,-99.39 842.7,-102.34"/>
</a>
</g>
</g>
<!-- Node15 -->
<g id="Node000015" class="node">
<title>Node15</title>
<g id="a_Node000015"><a xlink:href="wait_8cpp.html" target="_top" xlink:title=" ">
<polygon fill="white" stroke="#666666" points="919.49,-74 861.49,-74 861.49,-55 919.49,-55 919.49,-74"/>
<text text-anchor="middle" x="890.49" y="-62" font-family="Helvetica,sans-Serif" font-size="10.00">wait.cpp</text>
</a>
</g>
</g>
<!-- Node14&#45;&gt;Node15 -->
<g id="edge21_Node000014_Node000015" class="edge">
<title>Node14&#45;&gt;Node15</title>
<g id="a_edge21_Node000014_Node000015"><a xlink:title=" ">
<path fill="none" stroke="#63b8ff" d="M865.43,-101.39C871.8,-92.27 879.35,-81.45 884.49,-74.09"/>
<polygon fill="#63b8ff" stroke="#63b8ff" points="862.45,-99.55 859.6,-109.75 868.19,-103.55 862.45,-99.55"/>
</a>
</g>
</g>
<!-- Node16&#45;&gt;Node10 -->
<g id="edge23_Node000016_Node000010" class="edge">
<title>Node16&#45;&gt;Node10</title>
<g id="a_edge23_Node000016_Node000010"><a xlink:title=" ">
<path fill="none" stroke="#63b8ff" d="M1305.35,-162.18C1339.38,-152.27 1388.11,-138.08 1419.02,-129.08"/>
<polygon fill="#63b8ff" stroke="#63b8ff" points="1304.35,-158.83 1295.73,-164.98 1306.31,-165.55 1304.35,-158.83"/>
</a>
</g>
</g>
<!-- Node17&#45;&gt;Node4 -->
<g id="edge26_Node000017_Node000004" class="edge">
<title>Node17&#45;&gt;Node4</title>
<g id="a_edge26_Node000017_Node000004"><a xlink:title=" ">
<path fill="none" stroke="#63b8ff" d="M539.96,-167.65C471.75,-157.55 332.59,-136.95 263.02,-126.65"/>
<polygon fill="#63b8ff" stroke="#63b8ff" points="539.48,-171.12 549.89,-169.12 540.51,-164.19 539.48,-171.12"/>
</a>
</g>
</g>
<!-- Node17&#45;&gt;Node8 -->
<g id="edge27_Node000017_Node000008" class="edge">
<title>Node17&#45;&gt;Node8</title>
<g id="a_edge27_Node000017_Node000008"><a xlink:title=" ">
<path fill="none" stroke="#63b8ff" d="M600.69,-159.12C623.87,-141.97 659.68,-110.96 674.49,-74 685.3,-47.01 649.84,-28.8 622.18,-19.04"/>
<polygon fill="#63b8ff" stroke="#63b8ff" points="598.59,-156.32 592.5,-164.99 602.67,-162.01 598.59,-156.32"/>
</a>
</g>
</g>
<!-- Node18 -->
<g id="Node000018" class="node">
<title>Node18</title>
<g id="a_Node000018"><a xlink:href="fp16_8cpp.html" target="_top" xlink:title=" ">
<polygon fill="white" stroke="#666666" points="608.99,-129 549.99,-129 549.99,-110 608.99,-110 608.99,-129"/>
<text text-anchor="middle" x="579.49" y="-117" font-family="Helvetica,sans-Serif" font-size="10.00">fp16.cpp</text>
</a>
</g>
</g>
<!-- Node17&#45;&gt;Node18 -->
<g id="edge25_Node000017_Node000018" class="edge">
<title>Node17&#45;&gt;Node18</title>
<g id="a_edge25_Node000017_Node000018"><a xlink:title=" ">
<path fill="none" stroke="#63b8ff" d="M579.49,-154.66C579.49,-145.93 579.49,-135.99 579.49,-129.09"/>
<polygon fill="#63b8ff" stroke="#63b8ff" points="575.99,-154.75 579.49,-164.75 582.99,-154.75 575.99,-154.75"/>
</a>
</g>
</g>
<!-- Node19&#45;&gt;Node10 -->
<g id="edge29_Node000019_Node000010" class="edge">
<title>Node19&#45;&gt;Node10</title>
<g id="a_edge29_Node000019_Node000010"><a xlink:title=" ">
<path fill="none" stroke="#63b8ff" d="M1377.75,-159.97C1395.11,-150.28 1417.98,-137.52 1432.95,-129.17"/>
<polygon fill="#63b8ff" stroke="#63b8ff" points="1375.78,-157.06 1368.75,-164.98 1379.19,-163.17 1375.78,-157.06"/>
</a>
</g>
</g>
<!-- Node20&#45;&gt;Node10 -->
<g id="edge31_Node000020_Node000010" class="edge">
<title>Node20&#45;&gt;Node10</title>
<g id="a_edge31_Node000020_Node000010"><a xlink:title=" ">
<path fill="none" stroke="#63b8ff" d="M1448.49,-154.66C1448.49,-145.93 1448.49,-135.99 1448.49,-129.09"/>
<polygon fill="#63b8ff" stroke="#63b8ff" points="1444.99,-154.75 1448.49,-164.75 1451.99,-154.75 1444.99,-154.75"/>
</a>
</g>
</g>
<!-- Node21&#45;&gt;Node8 -->
<g id="edge33_Node000021_Node000008" class="edge">
<title>Node21&#45;&gt;Node8</title>
<g id="a_edge33_Node000021_Node000008"><a xlink:title=" ">
<path fill="none" stroke="#63b8ff" d="M1022.06,-103.98C1000.06,-89.11 963.49,-66.6 928.49,-55 820.12,-19.1 683.04,-12.05 623,-10.75"/>
<polygon fill="#63b8ff" stroke="#63b8ff" points="1020.33,-107.04 1030.55,-109.83 1024.3,-101.27 1020.33,-107.04"/>
</a>
</g>
</g>
<!-- Node22&#45;&gt;Node10 -->
<g id="edge35_Node000022_Node000010" class="edge">
<title>Node22&#45;&gt;Node10</title>
<g id="a_edge35_Node000022_Node000010"><a xlink:title=" ">
<path fill="none" stroke="#63b8ff" d="M1226.95,-163.04C1279.35,-152.98 1357.5,-137.97 1405.61,-128.73"/>
<polygon fill="#63b8ff" stroke="#63b8ff" points="1225.99,-159.66 1216.83,-164.98 1227.31,-166.54 1225.99,-159.66"/>
</a>
</g>
</g>
<!-- Node22&#45;&gt;Node21 -->
<g id="edge36_Node000022_Node000021" class="edge">
<title>Node22&#45;&gt;Node21</title>
<g id="a_edge36_Node000022_Node000021"><a xlink:title=" ">
<path fill="none" stroke="#63b8ff" d="M1142.22,-161.16C1118.15,-151.35 1085.09,-137.87 1063.75,-129.17"/>
<polygon fill="#63b8ff" stroke="#63b8ff" points="1141.02,-164.45 1151.6,-164.98 1143.66,-157.97 1141.02,-164.45"/>
</a>
</g>
</g>
<!-- Node23&#45;&gt;Node10 -->
<g id="edge39_Node000023_Node000010" class="edge">
<title>Node23&#45;&gt;Node10</title>
<g id="a_edge39_Node000023_Node000010"><a xlink:title=" ">
<path fill="none" stroke="#63b8ff" d="M1030.25,-164.13C1140.54,-152.63 1323.15,-133.58 1405.66,-124.97"/>
<polygon fill="#63b8ff" stroke="#63b8ff" points="1029.72,-160.67 1020.14,-165.19 1030.45,-167.63 1029.72,-160.67"/>
</a>
</g>
</g>
<!-- Node23&#45;&gt;Node14 -->
<g id="edge40_Node000023_Node000014" class="edge">
<title>Node23&#45;&gt;Node14</title>
<g id="a_edge40_Node000023_Node000014"><a xlink:title=" ">
<path fill="none" stroke="#63b8ff" d="M917.83,-159.7C901.98,-150.04 881.3,-137.44 867.72,-129.17"/>
<polygon fill="#63b8ff" stroke="#63b8ff" points="916.15,-162.77 926.51,-164.98 919.79,-156.79 916.15,-162.77"/>
</a>
</g>
</g>
<!-- Node24&#45;&gt;Node8 -->
<g id="edge42_Node000024_Node000008" class="edge">
<title>Node24&#45;&gt;Node8</title>
<g id="a_edge42_Node000024_Node000008"><a xlink:title=" ">
<path fill="none" stroke="#63b8ff" d="M615.33,-46.1C609.51,-37.04 602.67,-26.37 598,-19.09"/>
<polygon fill="#63b8ff" stroke="#63b8ff" points="612.53,-48.22 620.87,-54.75 618.42,-44.44 612.53,-48.22"/>
</a>
</g>
</g>
<!-- Node25&#45;&gt;Node8 -->
<g id="edge48_Node000025_Node000008" class="edge">
<title>Node25&#45;&gt;Node8</title>
<g id="a_edge48_Node000025_Node000008"><a xlink:title=" ">
<path fill="none" stroke="#63b8ff" d="M504.08,-103.76C515.43,-95.58 529.27,-84.87 540.49,-74 558.91,-56.15 577.13,-32.01 586.33,-19.25"/>
<polygon fill="#63b8ff" stroke="#63b8ff" points="501.76,-101.11 495.61,-109.74 505.8,-106.83 501.76,-101.11"/>
</a>
</g>
</g>
<!-- Node25&#45;&gt;Node24 -->
<g id="edge46_Node000025_Node000024" class="edge">
<title>Node25&#45;&gt;Node24</title>
<g id="a_edge46_Node000025_Node000024"><a xlink:title=" ">
<path fill="none" stroke="#63b8ff" d="M515.31,-106.42C542.02,-96.59 579.09,-82.95 602.93,-74.17"/>
<polygon fill="#63b8ff" stroke="#63b8ff" points="513.8,-103.25 505.62,-109.98 516.22,-109.82 513.8,-103.25"/>
</a>
</g>
</g>
<!-- Node26 -->
<g id="Node000026" class="node">
<title>Node26</title>
<g id="a_Node000026"><a xlink:href="static__string_8cpp.html" target="_top" xlink:title=" ">
<polygon fill="white" stroke="#666666" points="530.99,-74 433.99,-74 433.99,-55 530.99,-55 530.99,-74"/>
<text text-anchor="middle" x="482.49" y="-62" font-family="Helvetica,sans-Serif" font-size="10.00">static_string.cpp</text>
</a>
</g>
</g>
<!-- Node25&#45;&gt;Node26 -->
<g id="edge47_Node000025_Node000026" class="edge">
<title>Node25&#45;&gt;Node26</title>
<g id="a_edge47_Node000025_Node000026"><a xlink:title=" ">
<path fill="none" stroke="#63b8ff" d="M482.49,-99.66C482.49,-90.93 482.49,-80.99 482.49,-74.09"/>
<polygon fill="#63b8ff" stroke="#63b8ff" points="478.99,-99.75 482.49,-109.75 485.99,-99.75 478.99,-99.75"/>
</a>
</g>
</g>
<!-- Node27&#45;&gt;Node10 -->
<g id="edge50_Node000027_Node000010" class="edge">
<title>Node27&#45;&gt;Node10</title>
<g id="a_edge50_Node000027_Node000010"><a xlink:title=" ">
<path fill="none" stroke="#63b8ff" d="M1119.52,-164.91C1228.66,-147.44 1344.87,-132.86 1405.92,-125.51"/>
<polygon fill="#63b8ff" stroke="#63b8ff" points="1118.63,-161.51 1109.32,-166.56 1119.75,-168.42 1118.63,-161.51"/>
</a>
</g>
</g>
<!-- Node27&#45;&gt;Node21 -->
<g id="edge51_Node000027_Node000021" class="edge">
<title>Node27&#45;&gt;Node21</title>
<g id="a_edge51_Node000027_Node000021"><a xlink:title=" ">
<path fill="none" stroke="#63b8ff" d="M1063.31,-156.1C1058.01,-147.04 1051.77,-136.37 1047.51,-129.09"/>
<polygon fill="#63b8ff" stroke="#63b8ff" points="1060.3,-157.88 1068.37,-164.75 1066.34,-154.35 1060.3,-157.88"/>
</a>
</g>
</g>
<!-- Node28&#45;&gt;Node10 -->
<g id="edge53_Node000028_Node000010" class="edge">
<title>Node28&#45;&gt;Node10</title>
<g id="a_edge53_Node000028_Node000010"><a xlink:title=" ">
<path fill="none" stroke="#63b8ff" d="M1517.74,-159.97C1500.74,-150.28 1478.35,-137.52 1463.7,-129.17"/>
<polygon fill="#63b8ff" stroke="#63b8ff" points="1516.12,-163.07 1526.54,-164.98 1519.59,-156.99 1516.12,-163.07"/>
</a>
</g>
</g>
<!-- Node29&#45;&gt;Node10 -->
<g id="edge55_Node000029_Node000010" class="edge">
<title>Node29&#45;&gt;Node10</title>
<g id="a_edge55_Node000029_Node000010"><a xlink:title=" ">
<path fill="none" stroke="#63b8ff" d="M1605.47,-162.31C1568.24,-152.39 1514.65,-138.12 1480.71,-129.08"/>
<polygon fill="#63b8ff" stroke="#63b8ff" points="1604.95,-165.79 1615.51,-164.98 1606.75,-159.03 1604.95,-165.79"/>
</a>
</g>
</g>
<!-- Node30&#45;&gt;Node4 -->
<g id="edge57_Node000030_Node000004" class="edge">
<title>Node30&#45;&gt;Node4</title>
<g id="a_edge57_Node000030_Node000004"><a xlink:title=" ">
<path fill="none" stroke="#63b8ff" d="M350.06,-161.8C319.26,-151.91 275.86,-137.97 248.2,-129.08"/>
<polygon fill="#63b8ff" stroke="#63b8ff" points="349.38,-165.26 359.98,-164.98 351.53,-158.59 349.38,-165.26"/>
</a>
</g>
</g>
<!-- Node30&#45;&gt;Node6 -->
<g id="edge58_Node000030_Node000006" class="edge">
<title>Node30&#45;&gt;Node6</title>
<g id="a_edge58_Node000030_Node000006"><a xlink:title=" ">
<path fill="none" stroke="#63b8ff" d="M385.89,-154.78C384.01,-128.61 376.64,-81.38 348.49,-55 308.27,-17.33 241.12,-10.25 201.8,-9.62"/>
<polygon fill="#63b8ff" stroke="#63b8ff" points="382.4,-155.06 386.41,-164.87 389.39,-154.7 382.4,-155.06"/>
</a>
</g>
</g>
<!-- Node30&#45;&gt;Node7 -->
<g id="edge59_Node000030_Node000007" class="edge">
<title>Node30&#45;&gt;Node7</title>
<g id="a_edge59_Node000030_Node000007"><a xlink:title=" ">
<path fill="none" stroke="#63b8ff" d="M372.43,-157C352.61,-133.73 317.17,-92.13 301.86,-74.16"/>
<polygon fill="#63b8ff" stroke="#63b8ff" points="369.81,-159.32 378.96,-164.66 375.14,-154.78 369.81,-159.32"/>
</a>
</g>
</g>
<!-- Node30&#45;&gt;Node8 -->
<g id="edge61_Node000030_Node000008" class="edge">
<title>Node30&#45;&gt;Node8</title>
<g id="a_edge61_Node000030_Node000008"><a xlink:title=" ">
<path fill="none" stroke="#63b8ff" d="M387.31,-154.82C389.5,-128.72 397.36,-81.55 425.49,-55 462.8,-19.78 524.77,-11.76 561.82,-10.31"/>
<polygon fill="#63b8ff" stroke="#63b8ff" points="383.81,-154.69 386.67,-164.89 390.8,-155.14 383.81,-154.69"/>
</a>
</g>
</g>
<!-- Node30&#45;&gt;Node25 -->
<g id="edge60_Node000030_Node000025" class="edge">
<title>Node30&#45;&gt;Node25</title>
<g id="a_edge60_Node000030_Node000025"><a xlink:title=" ">
<path fill="none" stroke="#63b8ff" d="M411,-159.97C428.55,-150.28 451.66,-137.52 466.78,-129.17"/>
<polygon fill="#63b8ff" stroke="#63b8ff" points="408.97,-157.09 401.91,-164.98 412.36,-163.22 408.97,-157.09"/>
</a>
</g>
</g>
<!-- Node31&#45;&gt;Node10 -->
<g id="edge63_Node000031_Node000010" class="edge">
<title>Node31&#45;&gt;Node10</title>
<g id="a_edge63_Node000031_Node000010"><a xlink:title=" ">
<path fill="none" stroke="#63b8ff" d="M1707.08,-164.57C1646.34,-154.22 1547.41,-137.36 1491.16,-127.77"/>
<polygon fill="#63b8ff" stroke="#63b8ff" points="1706.77,-168.07 1717.22,-166.3 1707.95,-161.17 1706.77,-168.07"/>
</a>
</g>
</g>
</g>
</svg>
