<?xml version="1.0" encoding="UTF-8" standalone="no"?>
<!DOCTYPE svg PUBLIC "-//W3C//DTD SVG 1.1//EN"
 "http://www.w3.org/Graphics/SVG/1.1/DTD/svg11.dtd">
<!-- Generated by graphviz version 2.42.4 (0)
 -->
<!-- Title: common.hpp Pages: 1 -->
<!--zoomable 247 -->

<svg id="main" version="1.1" xmlns="http://www.w3.org/2000/svg" xmlns:xlink="http://www.w3.org/1999/xlink" xml:space="preserve" onload="init(evt)">

<style type="text/css"><![CDATA[
.node, .edge {opacity: 0.7;}
.node.selected, .edge.selected {opacity: 1;}
.edge:hover path { stroke: red; }
.edge:hover polygon { stroke: red; fill: red; }
]]></style>

<defs>
  <circle id="rim" cx="0" cy="0" r="7"/>
  <circle id="rim2" cx="0" cy="0" r="3.5"/>
  <g id="zoomPlus">
    <use xlink:href="#rim" fill="#404040"><set attributeName="fill" to="#808080" begin="zoomplus.mouseover" end="zoomplus.mouseout"/></use>
    <path d="M-4,0h8M0,-4v8" fill="none" stroke="white" stroke-width="1.5" pointer-events="none"/>
  </g>
  <g id="zoomMin">
    <use xlink:href="#rim" fill="#404040"><set attributeName="fill" to="#808080" begin="zoomminus.mouseover" end="zoomminus.mouseout"/></use>
    <path d="M-4,0h8" fill="none" stroke="white" stroke-width="1.5" pointer-events="none"/>
  </g>
  <g id="arrowUp" transform="translate(30 24)">
    <use xlink:href="#rim"/>
    <path pointer-events="none" fill="none" stroke="white" stroke-width="1.5" d="M0,-3.0v7 M-2.5,-0.5L0,-3.0L2.5,-0.5"/>
  </g>
  <g id="arrowRight" transform="rotate(90) translate(36 -43)">
    <use xlink:href="#rim"/>
    <path pointer-events="none" fill="none" stroke="white" stroke-width="1.5" d="M0,-3.0v7 M-2.5,-0.5L0,-3.0L2.5,-0.5"/>
  </g>
  <g id="arrowDown" transform="rotate(180) translate(-30 -48)">
    <use xlink:href="#rim"/>
    <path pointer-events="none" fill="none" stroke="white" stroke-width="1.5" d="M0,-3.0v7 M-2.5,-0.5L0,-3.0L2.5,-0.5"/>
  </g>
  <g id="arrowLeft" transform="rotate(270) translate(-36 17)">
    <use xlink:href="#rim"/>
    <path pointer-events="none" fill="none" stroke="white" stroke-width="1.5" d="M0,-3.0v7 M-2.5,-0.5L0,-3.0L2.5,-0.5"/>
  </g>
  <g id="resetDef">
    <use xlink:href="#rim2" fill="#404040"><set attributeName="fill" to="#808080" begin="reset.mouseover" end="reset.mouseout"/></use>
  </g>
</defs>
<script type="application/ecmascript">
var viewWidth = 2078;
var viewHeight = 247;
var sectionId = 'dynsection-0';
</script>
<script type="application/ecmascript" xlink:href="svg.min.js"/>
<svg id="graph" class="graph">
<g id="viewport">
<title>common.hpp</title>
<!-- Node1 -->
<g id="Node000001" class="node">
<title>Node1</title>
<g id="a_Node000001"><a xlink:title=" ">
<polygon fill="#999999" stroke="#666666" points="875.5,-239 795.5,-239 795.5,-220 875.5,-220 875.5,-239"/>
<text text-anchor="middle" x="835.5" y="-227" font-family="Helvetica,sans-Serif" font-size="10.00">common.hpp</text>
</a>
</g>
</g>
<!-- Node2 -->
<g id="Node000002" class="node">
<title>Node2</title>
<g id="a_Node000002"><a xlink:href="bf16_8hpp.html" target="_top" xlink:title=" ">
<polygon fill="white" stroke="#666666" points="198,-184 139,-184 139,-165 198,-165 198,-184"/>
<text text-anchor="middle" x="168.5" y="-172" font-family="Helvetica,sans-Serif" font-size="10.00">bf16.hpp</text>
</a>
</g>
</g>
<!-- Node1&#45;&gt;Node2 -->
<g id="edge1_Node000001_Node000002" class="edge">
<title>Node1&#45;&gt;Node2</title>
<g id="a_edge1_Node000001_Node000002"><a xlink:title=" ">
<path fill="none" stroke="#63b8ff" d="M784.92,-226.26C679.88,-221.3 430.55,-207.88 222.5,-184 214.58,-183.09 206.04,-181.86 198.15,-180.62"/>
<polygon fill="#63b8ff" stroke="#63b8ff" points="785.07,-229.77 795.23,-226.74 785.4,-222.78 785.07,-229.77"/>
</a>
</g>
</g>
<!-- Node4 -->
<g id="Node000004" class="node">
<title>Node4</title>
<g id="a_Node000004"><a xlink:href="numerics_8hpp.html" target="_top" xlink:title=" ">
<polygon fill="white" stroke="#666666" points="275,-129 192,-129 192,-110 275,-110 275,-129"/>
<text text-anchor="middle" x="233.5" y="-117" font-family="Helvetica,sans-Serif" font-size="10.00">numerics.hpp</text>
</a>
</g>
</g>
<!-- Node1&#45;&gt;Node4 -->
<g id="edge36_Node000001_Node000004" class="edge">
<title>Node1&#45;&gt;Node4</title>
<g id="a_edge36_Node000001_Node000004"><a xlink:title=" ">
<path fill="none" stroke="#63b8ff" d="M784.98,-227.33C653.74,-223.89 309.18,-212.26 266.5,-184 247.23,-171.24 238.54,-143.5 235.23,-129.29"/>
<polygon fill="#63b8ff" stroke="#63b8ff" points="785.08,-230.83 795.17,-227.59 785.26,-223.83 785.08,-230.83"/>
</a>
</g>
</g>
<!-- Node6 -->
<g id="Node000006" class="node">
<title>Node6</title>
<g id="a_Node000006"><a xlink:href="simd_8hpp.html" target="_top" xlink:title=" ">
<polygon fill="white" stroke="#666666" points="255.5,-19 193.5,-19 193.5,0 255.5,0 255.5,-19"/>
<text text-anchor="middle" x="224.5" y="-7" font-family="Helvetica,sans-Serif" font-size="10.00">simd.hpp</text>
</a>
</g>
</g>
<!-- Node1&#45;&gt;Node6 -->
<g id="edge42_Node000001_Node000006" class="edge">
<title>Node1&#45;&gt;Node6</title>
<g id="a_edge42_Node000001_Node000006"><a xlink:title=" ">
<path fill="none" stroke="#63b8ff" d="M784.97,-227.69C720.46,-225.27 606.25,-216.29 514.5,-184 484.06,-173.29 291.77,-52.85 238.29,-19.19"/>
<polygon fill="#63b8ff" stroke="#63b8ff" points="785.15,-231.19 795.26,-228.03 785.39,-224.2 785.15,-231.19"/>
</a>
</g>
</g>
<!-- Node7 -->
<g id="Node000007" class="node">
<title>Node7</title>
<g id="a_Node000007"><a xlink:href="simd__data_8hpp.html" target="_top" xlink:title=" ">
<polygon fill="white" stroke="#666666" points="89,-74 0,-74 0,-55 89,-55 89,-74"/>
<text text-anchor="middle" x="44.5" y="-62" font-family="Helvetica,sans-Serif" font-size="10.00">simd_data.hpp</text>
</a>
</g>
</g>
<!-- Node1&#45;&gt;Node7 -->
<g id="edge43_Node000001_Node000007" class="edge">
<title>Node1&#45;&gt;Node7</title>
<g id="a_edge43_Node000001_Node000007"><a xlink:title=" ">
<path fill="none" stroke="#63b8ff" d="M785.39,-228.02C645.54,-226.27 253.17,-218.33 129.5,-184 78.36,-169.8 51.06,-174.36 23.5,-129 12.65,-111.14 27.44,-87 37.18,-74.24"/>
<polygon fill="#63b8ff" stroke="#63b8ff" points="785.37,-231.52 795.41,-228.14 785.45,-224.52 785.37,-231.52"/>
</a>
</g>
</g>
<!-- Node9 -->
<g id="Node000009" class="node">
<title>Node9</title>
<g id="a_Node000009"><a xlink:href="calling__conventions_8hpp.html" target="_top" xlink:title=" ">
<polygon fill="white" stroke="#666666" points="1955.5,-184 1821.5,-184 1821.5,-165 1955.5,-165 1955.5,-184"/>
<text text-anchor="middle" x="1888.5" y="-172" font-family="Helvetica,sans-Serif" font-size="10.00">calling_conventions.hpp</text>
</a>
</g>
</g>
<!-- Node1&#45;&gt;Node9 -->
<g id="edge10_Node000001_Node000009" class="edge">
<title>Node1&#45;&gt;Node9</title>
<g id="a_edge10_Node000001_Node000009"><a xlink:title=" ">
<path fill="none" stroke="#63b8ff" d="M885.88,-227.38C1030.33,-223.9 1458.28,-211.85 1812.5,-184 1815.41,-183.77 1818.38,-183.52 1821.39,-183.25"/>
<polygon fill="#63b8ff" stroke="#63b8ff" points="885.49,-223.88 875.58,-227.62 885.66,-230.88 885.49,-223.88"/>
</a>
</g>
</g>
<!-- Node11 -->
<g id="Node000011" class="node">
<title>Node11</title>
<g id="a_Node000011"><a xlink:href="control__flow_8hpp.html" target="_top" xlink:title=" ">
<polygon fill="white" stroke="#666666" points="2069.5,-184 1973.5,-184 1973.5,-165 2069.5,-165 2069.5,-184"/>
<text text-anchor="middle" x="2021.5" y="-172" font-family="Helvetica,sans-Serif" font-size="10.00">control_flow.hpp</text>
</a>
</g>
</g>
<!-- Node1&#45;&gt;Node11 -->
<g id="edge12_Node000001_Node000011" class="edge">
<title>Node1&#45;&gt;Node11</title>
<g id="a_edge12_Node000001_Node000011"><a xlink:title=" ">
<path fill="none" stroke="#63b8ff" d="M886.01,-228.46C1045,-227.92 1549.27,-223.03 1964.5,-184 1967.39,-183.73 1970.35,-183.41 1973.34,-183.06"/>
<polygon fill="#63b8ff" stroke="#63b8ff" points="885.59,-224.96 875.6,-228.49 885.61,-231.96 885.59,-224.96"/>
</a>
</g>
</g>
<!-- Node12 -->
<g id="Node000012" class="node">
<title>Node12</title>
<g id="a_Node000012"><a xlink:href="cpuid_8cpp.html" target="_top" xlink:title=" ">
<polygon fill="white" stroke="#666666" points="769,-129 706,-129 706,-110 769,-110 769,-129"/>
<text text-anchor="middle" x="737.5" y="-117" font-family="Helvetica,sans-Serif" font-size="10.00">cpuid.cpp</text>
</a>
</g>
</g>
<!-- Node1&#45;&gt;Node12 -->
<g id="edge14_Node000001_Node000012" class="edge">
<title>Node1&#45;&gt;Node12</title>
<g id="a_edge14_Node000001_Node000012"><a xlink:title=" ">
<path fill="none" stroke="#63b8ff" d="M785.05,-226.57C754.09,-222.46 716.63,-211.58 696.5,-184 682.65,-165.03 708.21,-141.54 724.85,-129.13"/>
<polygon fill="#63b8ff" stroke="#63b8ff" points="784.94,-230.08 795.27,-227.72 785.72,-223.12 784.94,-230.08"/>
</a>
</g>
</g>
<!-- Node13 -->
<g id="Node000013" class="node">
<title>Node13</title>
<g id="a_Node000013"><a xlink:href="cpuid_8hpp.html" target="_top" xlink:title=" ">
<polygon fill="white" stroke="#666666" points="769.5,-184 705.5,-184 705.5,-165 769.5,-165 769.5,-184"/>
<text text-anchor="middle" x="737.5" y="-172" font-family="Helvetica,sans-Serif" font-size="10.00">cpuid.hpp</text>
</a>
</g>
</g>
<!-- Node1&#45;&gt;Node13 -->
<g id="edge15_Node000001_Node000013" class="edge">
<title>Node1&#45;&gt;Node13</title>
<g id="a_edge15_Node000001_Node000013"><a xlink:title=" ">
<path fill="none" stroke="#63b8ff" d="M810.47,-214.97C792.56,-205.28 768.97,-192.52 753.53,-184.17"/>
<polygon fill="#63b8ff" stroke="#63b8ff" points="809.29,-218.31 819.75,-219.98 812.62,-212.15 809.29,-218.31"/>
</a>
</g>
</g>
<!-- Node14 -->
<g id="Node000014" class="node">
<title>Node14</title>
<g id="a_Node000014"><a xlink:href="wait_8hpp.html" target="_top" xlink:title="waiting strategies">
<polygon fill="white" stroke="#666666" points="885,-129 826,-129 826,-110 885,-110 885,-129"/>
<text text-anchor="middle" x="855.5" y="-117" font-family="Helvetica,sans-Serif" font-size="10.00">wait.hpp</text>
</a>
</g>
</g>
<!-- Node1&#45;&gt;Node14 -->
<g id="edge63_Node000001_Node000014" class="edge">
<title>Node1&#45;&gt;Node14</title>
<g id="a_edge63_Node000001_Node000014"><a xlink:title=" ">
<path fill="none" stroke="#63b8ff" d="M826.41,-210.55C821.13,-197.67 816.42,-180.02 821.5,-165 826.3,-150.82 837.63,-137.59 845.89,-129.31"/>
<polygon fill="#63b8ff" stroke="#63b8ff" points="823.26,-212.07 830.6,-219.71 829.63,-209.16 823.26,-212.07"/>
</a>
</g>
</g>
<!-- Node16 -->
<g id="Node000016" class="node">
<title>Node16</title>
<g id="a_Node000016"><a xlink:href="cuda_8hpp.html" target="_top" xlink:title=" ">
<polygon fill="white" stroke="#666666" points="1299,-184 1238,-184 1238,-165 1299,-165 1299,-184"/>
<text text-anchor="middle" x="1268.5" y="-172" font-family="Helvetica,sans-Serif" font-size="10.00">cuda.hpp</text>
</a>
</g>
</g>
<!-- Node1&#45;&gt;Node16 -->
<g id="edge21_Node000001_Node000016" class="edge">
<title>Node1&#45;&gt;Node16</title>
<g id="a_edge21_Node000001_Node000016"><a xlink:title=" ">
<path fill="none" stroke="#63b8ff" d="M885.65,-224.38C960.57,-217.89 1106,-203.9 1228.5,-184 1231.58,-183.5 1234.79,-182.92 1237.98,-182.3"/>
<polygon fill="#63b8ff" stroke="#63b8ff" points="885.23,-220.91 875.56,-225.25 885.82,-227.88 885.23,-220.91"/>
</a>
</g>
</g>
<!-- Node17 -->
<g id="Node000017" class="node">
<title>Node17</title>
<g id="a_Node000017"><a xlink:href="fp16_8hpp.html" target="_top" xlink:title=" ">
<polygon fill="white" stroke="#666666" points="611,-184 552,-184 552,-165 611,-165 611,-184"/>
<text text-anchor="middle" x="581.5" y="-172" font-family="Helvetica,sans-Serif" font-size="10.00">fp16.hpp</text>
</a>
</g>
</g>
<!-- Node1&#45;&gt;Node17 -->
<g id="edge23_Node000001_Node000017" class="edge">
<title>Node1&#45;&gt;Node17</title>
<g id="a_edge23_Node000001_Node000017"><a xlink:title=" ">
<path fill="none" stroke="#63b8ff" d="M785.25,-218.01C733.31,-207.18 653.98,-190.62 611.24,-181.71"/>
<polygon fill="#63b8ff" stroke="#63b8ff" points="784.75,-221.49 795.25,-220.1 786.18,-214.63 784.75,-221.49"/>
</a>
</g>
</g>
<!-- Node19 -->
<g id="Node000019" class="node">
<title>Node19</title>
<g id="a_Node000019"><a xlink:href="handles_8hpp.html" target="_top" xlink:title=" ">
<polygon fill="white" stroke="#666666" points="1393.5,-184 1317.5,-184 1317.5,-165 1393.5,-165 1393.5,-184"/>
<text text-anchor="middle" x="1355.5" y="-172" font-family="Helvetica,sans-Serif" font-size="10.00">handles.hpp</text>
</a>
</g>
</g>
<!-- Node1&#45;&gt;Node19 -->
<g id="edge27_Node000001_Node000019" class="edge">
<title>Node1&#45;&gt;Node19</title>
<g id="a_edge27_Node000001_Node000019"><a xlink:title=" ">
<path fill="none" stroke="#63b8ff" d="M885.89,-225.17C972.53,-219.14 1155.18,-205.04 1308.5,-184 1311.38,-183.61 1314.34,-183.16 1317.32,-182.68"/>
<polygon fill="#63b8ff" stroke="#63b8ff" points="885.55,-221.69 875.81,-225.87 886.03,-228.67 885.55,-221.69"/>
</a>
</g>
</g>
<!-- Node20 -->
<g id="Node000020" class="node">
<title>Node20</title>
<g id="a_Node000020"><a xlink:href="attributes_2memory_8hpp.html" target="_top" xlink:title=" ">
<polygon fill="white" stroke="#666666" points="1489,-184 1412,-184 1412,-165 1489,-165 1489,-184"/>
<text text-anchor="middle" x="1450.5" y="-172" font-family="Helvetica,sans-Serif" font-size="10.00">memory.hpp</text>
</a>
</g>
</g>
<!-- Node1&#45;&gt;Node20 -->
<g id="edge29_Node000001_Node000020" class="edge">
<title>Node1&#45;&gt;Node20</title>
<g id="a_edge29_Node000001_Node000020"><a xlink:title=" ">
<path fill="none" stroke="#63b8ff" d="M885.53,-226.21C984.54,-221.31 1212.35,-208.24 1402.5,-184 1405.52,-183.61 1408.64,-183.17 1411.78,-182.69"/>
<polygon fill="#63b8ff" stroke="#63b8ff" points="885.32,-222.71 875.51,-226.7 885.67,-229.7 885.32,-222.71"/>
</a>
</g>
</g>
<!-- Node21 -->
<g id="Node000021" class="node">
<title>Node21</title>
<g id="a_Node000021"><a xlink:href="memory_8hpp.html" target="_top" xlink:title=" ">
<polygon fill="white" stroke="#666666" points="1083,-129 1006,-129 1006,-110 1083,-110 1083,-129"/>
<text text-anchor="middle" x="1044.5" y="-117" font-family="Helvetica,sans-Serif" font-size="10.00">memory.hpp</text>
</a>
</g>
</g>
<!-- Node1&#45;&gt;Node21 -->
<g id="edge31_Node000001_Node000021" class="edge">
<title>Node1&#45;&gt;Node21</title>
<g id="a_edge31_Node000001_Node000021"><a xlink:title=" ">
<path fill="none" stroke="#63b8ff" d="M836.26,-209.54C837.86,-195.34 842.33,-176.45 854.5,-165 876.09,-144.68 956.95,-131.35 1005.96,-124.94"/>
<polygon fill="#63b8ff" stroke="#63b8ff" points="832.76,-209.47 835.5,-219.7 839.74,-209.99 832.76,-209.47"/>
</a>
</g>
</g>
<!-- Node22 -->
<g id="Node000022" class="node">
<title>Node22</title>
<g id="a_Node000022"><a xlink:href="null__safety_8hpp.html" target="_top" xlink:title=" ">
<polygon fill="white" stroke="#666666" points="1219.5,-184 1129.5,-184 1129.5,-165 1219.5,-165 1219.5,-184"/>
<text text-anchor="middle" x="1174.5" y="-172" font-family="Helvetica,sans-Serif" font-size="10.00">null_safety.hpp</text>
</a>
</g>
</g>
<!-- Node1&#45;&gt;Node22 -->
<g id="edge33_Node000001_Node000022" class="edge">
<title>Node1&#45;&gt;Node22</title>
<g id="a_edge33_Node000001_Node000022"><a xlink:title=" ">
<path fill="none" stroke="#63b8ff" d="M885.79,-220.67C942.74,-211.79 1038.29,-196.89 1120.5,-184 1123.41,-183.54 1126.4,-183.07 1129.42,-182.6"/>
<polygon fill="#63b8ff" stroke="#63b8ff" points="884.96,-217.25 875.62,-222.25 886.04,-224.17 884.96,-217.25"/>
</a>
</g>
</g>
<!-- Node23 -->
<g id="Node000023" class="node">
<title>Node23</title>
<g id="a_Node000023"><a xlink:href="performance__constraints_8hpp.html" target="_top" xlink:title=" ">
<polygon fill="white" stroke="#666666" points="1022,-184 863,-184 863,-165 1022,-165 1022,-184"/>
<text text-anchor="middle" x="942.5" y="-172" font-family="Helvetica,sans-Serif" font-size="10.00">performance_constraints.hpp</text>
</a>
</g>
</g>
<!-- Node1&#45;&gt;Node23 -->
<g id="edge37_Node000001_Node000023" class="edge">
<title>Node1&#45;&gt;Node23</title>
<g id="a_edge37_Node000001_Node000023"><a xlink:title=" ">
<path fill="none" stroke="#63b8ff" d="M861.74,-215.5C881.43,-205.75 907.82,-192.68 925,-184.17"/>
<polygon fill="#63b8ff" stroke="#63b8ff" points="860.1,-212.41 852.69,-219.98 863.21,-218.68 860.1,-212.41"/>
</a>
</g>
</g>
<!-- Node24 -->
<g id="Node000024" class="node">
<title>Node24</title>
<g id="a_Node000024"><a xlink:href="profiling_8hpp.html" target="_top" xlink:title=" ">
<polygon fill="white" stroke="#666666" points="667,-74 590,-74 590,-55 667,-55 667,-74"/>
<text text-anchor="middle" x="628.5" y="-62" font-family="Helvetica,sans-Serif" font-size="10.00">profiling.hpp</text>
</a>
</g>
</g>
<!-- Node1&#45;&gt;Node24 -->
<g id="edge40_Node000001_Node000024" class="edge">
<title>Node1&#45;&gt;Node24</title>
<g id="a_edge40_Node000001_Node000024"><a xlink:title=" ">
<path fill="none" stroke="#63b8ff" d="M785.1,-223.33C754.27,-217.91 715.66,-206.79 688.5,-184 652.28,-153.62 635.6,-95.91 630.38,-74.12"/>
<polygon fill="#63b8ff" stroke="#63b8ff" points="784.8,-226.83 795.23,-224.96 785.91,-219.92 784.8,-226.83"/>
</a>
</g>
</g>
<!-- Node25 -->
<g id="Node000025" class="node">
<title>Node25</title>
<g id="a_Node000025"><a xlink:href="static__string_8hpp.html" target="_top" xlink:title=" ">
<polygon fill="white" stroke="#666666" points="533.5,-129 435.5,-129 435.5,-110 533.5,-110 533.5,-129"/>
<text text-anchor="middle" x="484.5" y="-117" font-family="Helvetica,sans-Serif" font-size="10.00">static_string.hpp</text>
</a>
</g>
</g>
<!-- Node1&#45;&gt;Node25 -->
<g id="edge44_Node000001_Node000025" class="edge">
<title>Node1&#45;&gt;Node25</title>
<g id="a_edge44_Node000001_Node000025"><a xlink:title=" ">
<path fill="none" stroke="#63b8ff" d="M785.1,-224.83C712.96,-218.91 584.43,-205.66 543.5,-184 518.76,-170.91 498.82,-143.32 489.77,-129.21"/>
<polygon fill="#63b8ff" stroke="#63b8ff" points="785.07,-228.34 795.32,-225.65 785.63,-221.36 785.07,-228.34"/>
</a>
</g>
</g>
<!-- Node27 -->
<g id="Node000027" class="node">
<title>Node27</title>
<g id="a_Node000027"><a xlink:href="strings_8hpp.html" target="_top" xlink:title=" ">
<polygon fill="white" stroke="#666666" points="1111,-184 1040,-184 1040,-165 1111,-165 1111,-184"/>
<text text-anchor="middle" x="1075.5" y="-172" font-family="Helvetica,sans-Serif" font-size="10.00">strings.hpp</text>
</a>
</g>
</g>
<!-- Node1&#45;&gt;Node27 -->
<g id="edge48_Node000001_Node000027" class="edge">
<title>Node1&#45;&gt;Node27</title>
<g id="a_edge48_Node000001_Node000027"><a xlink:title=" ">
<path fill="none" stroke="#63b8ff" d="M883.83,-217.83C929.96,-207.64 998.38,-192.53 1039.78,-183.39"/>
<polygon fill="#63b8ff" stroke="#63b8ff" points="883.07,-214.41 874.06,-219.98 884.58,-221.25 883.07,-214.41"/>
</a>
</g>
</g>
<!-- Node28 -->
<g id="Node000028" class="node">
<title>Node28</title>
<g id="a_Node000028"><a xlink:href="targets_8hpp.html" target="_top" xlink:title=" ">
<polygon fill="white" stroke="#666666" points="1579.5,-184 1507.5,-184 1507.5,-165 1579.5,-165 1579.5,-184"/>
<text text-anchor="middle" x="1543.5" y="-172" font-family="Helvetica,sans-Serif" font-size="10.00">targets.hpp</text>
</a>
</g>
</g>
<!-- Node1&#45;&gt;Node28 -->
<g id="edge51_Node000001_Node000028" class="edge">
<title>Node1&#45;&gt;Node28</title>
<g id="a_edge51_Node000001_Node000028"><a xlink:title=" ">
<path fill="none" stroke="#63b8ff" d="M885.87,-227.18C996.92,-223.81 1270.96,-213.02 1498.5,-184 1501.34,-183.64 1504.27,-183.21 1507.21,-182.74"/>
<polygon fill="#63b8ff" stroke="#63b8ff" points="885.54,-223.68 875.64,-227.48 885.74,-230.68 885.54,-223.68"/>
</a>
</g>
</g>
<!-- Node29 -->
<g id="Node000029" class="node">
<title>Node29</title>
<g id="a_Node000029"><a xlink:href="thread__safety_8hpp.html" target="_top" xlink:title=" ">
<polygon fill="white" stroke="#666666" points="1701.5,-184 1597.5,-184 1597.5,-165 1701.5,-165 1701.5,-184"/>
<text text-anchor="middle" x="1649.5" y="-172" font-family="Helvetica,sans-Serif" font-size="10.00">thread_safety.hpp</text>
</a>
</g>
</g>
<!-- Node1&#45;&gt;Node29 -->
<g id="edge53_Node000001_Node000029" class="edge">
<title>Node1&#45;&gt;Node29</title>
<g id="a_edge53_Node000001_Node000029"><a xlink:title=" ">
<path fill="none" stroke="#63b8ff" d="M885.67,-226.91C1006.74,-222.78 1324.48,-210.15 1588.5,-184 1591.37,-183.72 1594.32,-183.4 1597.29,-183.05"/>
<polygon fill="#63b8ff" stroke="#63b8ff" points="885.46,-223.42 875.59,-227.25 885.7,-230.41 885.46,-223.42"/>
</a>
</g>
</g>
<!-- Node30 -->
<g id="Node000030" class="node">
<title>Node30</title>
<g id="a_Node000030"><a xlink:href="types_8hpp.html" target="_top" xlink:title=" ">
<polygon fill="white" stroke="#666666" points="341,-184 276,-184 276,-165 341,-165 341,-184"/>
<text text-anchor="middle" x="308.5" y="-172" font-family="Helvetica,sans-Serif" font-size="10.00">types.hpp</text>
</a>
</g>
</g>
<!-- Node1&#45;&gt;Node30 -->
<g id="edge55_Node000001_Node000030" class="edge">
<title>Node1&#45;&gt;Node30</title>
<g id="a_edge55_Node000001_Node000030"><a xlink:title=" ">
<path fill="none" stroke="#63b8ff" d="M785.03,-225.26C697.39,-219.32 511.48,-205.29 355.5,-184 350.82,-183.36 345.89,-182.58 341.06,-181.76"/>
<polygon fill="#63b8ff" stroke="#63b8ff" points="785.01,-228.77 795.23,-225.95 785.48,-221.79 785.01,-228.77"/>
</a>
</g>
</g>
<!-- Node31 -->
<g id="Node000031" class="node">
<title>Node31</title>
<g id="a_Node000031"><a xlink:href="typestate_8hpp.html" target="_top" xlink:title=" ">
<polygon fill="white" stroke="#666666" points="1803.5,-184 1719.5,-184 1719.5,-165 1803.5,-165 1803.5,-184"/>
<text text-anchor="middle" x="1761.5" y="-172" font-family="Helvetica,sans-Serif" font-size="10.00">typestate.hpp</text>
</a>
</g>
</g>
<!-- Node1&#45;&gt;Node31 -->
<g id="edge61_Node000001_Node000031" class="edge">
<title>Node1&#45;&gt;Node31</title>
<g id="a_edge61_Node000001_Node000031"><a xlink:title=" ">
<path fill="none" stroke="#63b8ff" d="M886.14,-227.95C1020.73,-226.04 1398.37,-217.84 1710.5,-184 1713.36,-183.69 1716.29,-183.33 1719.25,-182.92"/>
<polygon fill="#63b8ff" stroke="#63b8ff" points="885.7,-224.45 875.75,-228.09 885.8,-231.45 885.7,-224.45"/>
</a>
</g>
</g>
<!-- Node3 -->
<g id="Node000003" class="node">
<title>Node3</title>
<g id="a_Node000003"><a xlink:href="bf16_8cpp.html" target="_top" xlink:title=" ">
<polygon fill="white" stroke="#666666" points="92,-129 33,-129 33,-110 92,-110 92,-129"/>
<text text-anchor="middle" x="62.5" y="-117" font-family="Helvetica,sans-Serif" font-size="10.00">bf16.cpp</text>
</a>
</g>
</g>
<!-- Node2&#45;&gt;Node3 -->
<g id="edge2_Node000002_Node000003" class="edge">
<title>Node2&#45;&gt;Node3</title>
<g id="a_edge2_Node000002_Node000003"><a xlink:title=" ">
<path fill="none" stroke="#63b8ff" d="M142.5,-160.5C123,-150.75 96.85,-137.68 79.84,-129.17"/>
<polygon fill="#63b8ff" stroke="#63b8ff" points="140.96,-163.64 151.47,-164.98 144.09,-157.38 140.96,-163.64"/>
</a>
</g>
</g>
<!-- Node2&#45;&gt;Node4 -->
<g id="edge3_Node000002_Node000004" class="edge">
<title>Node2&#45;&gt;Node4</title>
<g id="a_edge3_Node000002_Node000004"><a xlink:title=" ">
<path fill="none" stroke="#63b8ff" d="M186.77,-158.6C198.42,-149.11 213.1,-137.13 222.87,-129.17"/>
<polygon fill="#63b8ff" stroke="#63b8ff" points="184.48,-155.95 178.94,-164.98 188.91,-161.38 184.48,-155.95"/>
</a>
</g>
</g>
<!-- Node8 -->
<g id="Node000008" class="node">
<title>Node8</title>
<g id="a_Node000008"><a xlink:href="tests_8cpp.html" target="_top" xlink:title=" ">
<polygon fill="white" stroke="#666666" points="659,-19 598,-19 598,0 659,0 659,-19"/>
<text text-anchor="middle" x="628.5" y="-7" font-family="Helvetica,sans-Serif" font-size="10.00">tests.cpp</text>
</a>
</g>
</g>
<!-- Node2&#45;&gt;Node8 -->
<g id="edge9_Node000002_Node000008" class="edge">
<title>Node2&#45;&gt;Node8</title>
<g id="a_edge9_Node000002_Node000008"><a xlink:title=" ">
<path fill="none" stroke="#63b8ff" d="M162.94,-155.19C156.29,-129.18 149,-81.74 174.5,-55 203.71,-24.38 500.65,-13.87 597.87,-11.23"/>
<polygon fill="#63b8ff" stroke="#63b8ff" points="159.59,-156.21 165.65,-164.9 166.33,-154.33 159.59,-156.21"/>
</a>
</g>
</g>
<!-- Node5 -->
<g id="Node000005" class="node">
<title>Node5</title>
<g id="a_Node000005"><a xlink:href="numerics_8cpp.html" target="_top" xlink:title="numerics external template instantiations">
<polygon fill="white" stroke="#666666" points="265.5,-74 183.5,-74 183.5,-55 265.5,-55 265.5,-74"/>
<text text-anchor="middle" x="224.5" y="-62" font-family="Helvetica,sans-Serif" font-size="10.00">numerics.cpp</text>
</a>
</g>
</g>
<!-- Node4&#45;&gt;Node5 -->
<g id="edge4_Node000004_Node000005" class="edge">
<title>Node4&#45;&gt;Node5</title>
<g id="a_edge4_Node000004_Node000005"><a xlink:title=" ">
<path fill="none" stroke="#63b8ff" d="M230.3,-99.66C228.82,-90.93 227.13,-80.99 225.96,-74.09"/>
<polygon fill="#63b8ff" stroke="#63b8ff" points="226.89,-100.48 232.01,-109.75 233.79,-99.3 226.89,-100.48"/>
</a>
</g>
</g>
<!-- Node4&#45;&gt;Node6 -->
<g id="edge5_Node000004_Node000006" class="edge">
<title>Node4&#45;&gt;Node6</title>
<g id="a_edge5_Node000004_Node000006"><a xlink:title=" ">
<path fill="none" stroke="#63b8ff" d="M205.43,-104.84C193.6,-97.48 181.07,-87.18 174.5,-74 163.61,-52.15 190.62,-30.67 209.04,-19.15"/>
<polygon fill="#63b8ff" stroke="#63b8ff" points="203.82,-107.95 214.23,-109.9 207.3,-101.88 203.82,-107.95"/>
</a>
</g>
</g>
<!-- Node4&#45;&gt;Node7 -->
<g id="edge6_Node000004_Node000007" class="edge">
<title>Node4&#45;&gt;Node7</title>
<g id="a_edge6_Node000004_Node000007"><a xlink:title=" ">
<path fill="none" stroke="#63b8ff" d="M193.15,-107.18C157.8,-97.27 107.2,-83.08 75.1,-74.08"/>
<polygon fill="#63b8ff" stroke="#63b8ff" points="192.56,-110.65 203.13,-109.98 194.45,-103.91 192.56,-110.65"/>
</a>
</g>
</g>
<!-- Node4&#45;&gt;Node8 -->
<g id="edge8_Node000004_Node000008" class="edge">
<title>Node4&#45;&gt;Node8</title>
<g id="a_edge8_Node000004_Node000008"><a xlink:title=" ">
<path fill="none" stroke="#63b8ff" d="M261.24,-105.61C292.71,-91.43 345.85,-68.83 393.5,-55 465.28,-34.17 552.3,-20.63 597.64,-14.43"/>
<polygon fill="#63b8ff" stroke="#63b8ff" points="259.47,-102.57 251.82,-109.89 262.37,-108.94 259.47,-102.57"/>
</a>
</g>
</g>
<!-- Node7&#45;&gt;Node6 -->
<g id="edge7_Node000007_Node000006" class="edge">
<title>Node7&#45;&gt;Node6</title>
<g id="a_edge7_Node000007_Node000006"><a xlink:title=" ">
<path fill="none" stroke="#63b8ff" d="M83.37,-52.06C117.01,-42.15 164.92,-28.04 195.35,-19.08"/>
<polygon fill="#63b8ff" stroke="#63b8ff" points="82.02,-48.8 73.42,-54.98 84,-55.52 82.02,-48.8"/>
</a>
</g>
</g>
<!-- Node10 -->
<g id="Node000010" class="node">
<title>Node10</title>
<g id="a_Node000010"><a xlink:href="attributes_8hpp.html" target="_top" xlink:title="an opinionated subset of clang/gcc attributes">
<polygon fill="white" stroke="#666666" points="1493,-129 1408,-129 1408,-110 1493,-110 1493,-129"/>
<text text-anchor="middle" x="1450.5" y="-117" font-family="Helvetica,sans-Serif" font-size="10.00">attributes.hpp</text>
</a>
</g>
</g>
<!-- Node9&#45;&gt;Node10 -->
<g id="edge11_Node000009_Node000010" class="edge">
<title>Node9&#45;&gt;Node10</title>
<g id="a_edge11_Node000009_Node000010"><a xlink:title=" ">
<path fill="none" stroke="#63b8ff" d="M1810.86,-164.11C1718.25,-152.9 1566.73,-134.56 1493.2,-125.67"/>
<polygon fill="#63b8ff" stroke="#63b8ff" points="1810.67,-167.61 1821.02,-165.33 1811.52,-160.66 1810.67,-167.61"/>
</a>
</g>
</g>
<!-- Node11&#45;&gt;Node10 -->
<g id="edge13_Node000011_Node000010" class="edge">
<title>Node11&#45;&gt;Node10</title>
<g id="a_edge13_Node000011_Node000010"><a xlink:title=" ">
<path fill="none" stroke="#63b8ff" d="M1963.37,-164.94C1782.65,-143.93 1579.88,-129.18 1493.24,-123.3"/>
<polygon fill="#63b8ff" stroke="#63b8ff" points="1962.99,-168.42 1973.33,-166.1 1963.8,-161.46 1962.99,-168.42"/>
</a>
</g>
</g>
<!-- Node13&#45;&gt;Node8 -->
<g id="edge17_Node000013_Node000008" class="edge">
<title>Node13&#45;&gt;Node8</title>
<g id="a_edge17_Node000013_Node000008"><a xlink:title=" ">
<path fill="none" stroke="#63b8ff" d="M757.75,-158.61C772.27,-146 787.77,-127.27 778.5,-110 752.27,-61.12 690.3,-32.19 654.76,-19.04"/>
<polygon fill="#63b8ff" stroke="#63b8ff" points="755.5,-155.92 749.94,-164.94 759.91,-161.36 755.5,-155.92"/>
</a>
</g>
</g>
<!-- Node13&#45;&gt;Node12 -->
<g id="edge16_Node000013_Node000012" class="edge">
<title>Node13&#45;&gt;Node12</title>
<g id="a_edge16_Node000013_Node000012"><a xlink:title=" ">
<path fill="none" stroke="#63b8ff" d="M737.5,-154.66C737.5,-145.93 737.5,-135.99 737.5,-129.09"/>
<polygon fill="#63b8ff" stroke="#63b8ff" points="734,-154.75 737.5,-164.75 741,-154.75 734,-154.75"/>
</a>
</g>
</g>
<!-- Node13&#45;&gt;Node14 -->
<g id="edge18_Node000013_Node000014" class="edge">
<title>Node13&#45;&gt;Node14</title>
<g id="a_edge18_Node000013_Node000014"><a xlink:title=" ">
<path fill="none" stroke="#63b8ff" d="M765.85,-160.77C787.62,-150.99 817.09,-137.75 836.2,-129.17"/>
<polygon fill="#63b8ff" stroke="#63b8ff" points="764.15,-157.69 756.46,-164.98 767.01,-164.08 764.15,-157.69"/>
</a>
</g>
</g>
<!-- Node14&#45;&gt;Node8 -->
<g id="edge19_Node000014_Node000008" class="edge">
<title>Node14&#45;&gt;Node8</title>
<g id="a_edge19_Node000014_Node000008"><a xlink:title=" ">
<path fill="none" stroke="#63b8ff" d="M847.36,-100.15C840.02,-85.72 827.87,-66.24 811.5,-55 764.87,-22.98 697.69,-13.92 659.03,-11.4"/>
<polygon fill="#63b8ff" stroke="#63b8ff" points="844.39,-102.05 851.84,-109.57 850.71,-99.04 844.39,-102.05"/>
</a>
</g>
</g>
<!-- Node15 -->
<g id="Node000015" class="node">
<title>Node15</title>
<g id="a_Node000015"><a xlink:href="wait_8cpp.html" target="_top" xlink:title=" ">
<polygon fill="white" stroke="#666666" points="921.5,-74 863.5,-74 863.5,-55 921.5,-55 921.5,-74"/>
<text text-anchor="middle" x="892.5" y="-62" font-family="Helvetica,sans-Serif" font-size="10.00">wait.cpp</text>
</a>
</g>
</g>
<!-- Node14&#45;&gt;Node15 -->
<g id="edge20_Node000014_Node000015" class="edge">
<title>Node14&#45;&gt;Node15</title>
<g id="a_edge20_Node000014_Node000015"><a xlink:title=" ">
<path fill="none" stroke="#63b8ff" d="M867.45,-101.39C873.81,-92.27 881.37,-81.45 886.5,-74.09"/>
<polygon fill="#63b8ff" stroke="#63b8ff" points="864.46,-99.55 861.61,-109.75 870.2,-103.55 864.46,-99.55"/>
</a>
</g>
</g>
<!-- Node16&#45;&gt;Node10 -->
<g id="edge22_Node000016_Node000010" class="edge">
<title>Node16&#45;&gt;Node10</title>
<g id="a_edge22_Node000016_Node000010"><a xlink:title=" ">
<path fill="none" stroke="#63b8ff" d="M1307.36,-162.18C1341.4,-152.27 1390.12,-138.08 1421.03,-129.08"/>
<polygon fill="#63b8ff" stroke="#63b8ff" points="1306.36,-158.83 1297.74,-164.98 1308.32,-165.55 1306.36,-158.83"/>
</a>
</g>
</g>
<!-- Node17&#45;&gt;Node4 -->
<g id="edge25_Node000017_Node000004" class="edge">
<title>Node17&#45;&gt;Node4</title>
<g id="a_edge25_Node000017_Node000004"><a xlink:title=" ">
<path fill="none" stroke="#63b8ff" d="M541.77,-167.45C475.38,-157.34 342.57,-137.11 275.02,-126.82"/>
<polygon fill="#63b8ff" stroke="#63b8ff" points="541.42,-170.94 551.83,-168.98 542.47,-164.02 541.42,-170.94"/>
</a>
</g>
</g>
<!-- Node17&#45;&gt;Node8 -->
<g id="edge26_Node000017_Node000008" class="edge">
<title>Node17&#45;&gt;Node8</title>
<g id="a_edge26_Node000017_Node000008"><a xlink:title=" ">
<path fill="none" stroke="#63b8ff" d="M602.71,-159.12C625.88,-141.97 661.69,-110.96 676.5,-74 685.44,-51.68 660.06,-30.37 642.87,-19"/>
<polygon fill="#63b8ff" stroke="#63b8ff" points="600.6,-156.32 594.51,-164.99 604.68,-162.01 600.6,-156.32"/>
</a>
</g>
</g>
<!-- Node18 -->
<g id="Node000018" class="node">
<title>Node18</title>
<g id="a_Node000018"><a xlink:href="fp16_8cpp.html" target="_top" xlink:title=" ">
<polygon fill="white" stroke="#666666" points="611,-129 552,-129 552,-110 611,-110 611,-129"/>
<text text-anchor="middle" x="581.5" y="-117" font-family="Helvetica,sans-Serif" font-size="10.00">fp16.cpp</text>
</a>
</g>
</g>
<!-- Node17&#45;&gt;Node18 -->
<g id="edge24_Node000017_Node000018" class="edge">
<title>Node17&#45;&gt;Node18</title>
<g id="a_edge24_Node000017_Node000018"><a xlink:title=" ">
<path fill="none" stroke="#63b8ff" d="M581.5,-154.66C581.5,-145.93 581.5,-135.99 581.5,-129.09"/>
<polygon fill="#63b8ff" stroke="#63b8ff" points="578,-154.75 581.5,-164.75 585,-154.75 578,-154.75"/>
</a>
</g>
</g>
<!-- Node19&#45;&gt;Node10 -->
<g id="edge28_Node000019_Node000010" class="edge">
<title>Node19&#45;&gt;Node10</title>
<g id="a_edge28_Node000019_Node000010"><a xlink:title=" ">
<path fill="none" stroke="#63b8ff" d="M1379.76,-159.97C1397.13,-150.28 1419.99,-137.52 1434.96,-129.17"/>
<polygon fill="#63b8ff" stroke="#63b8ff" points="1377.79,-157.06 1370.76,-164.98 1381.2,-163.17 1377.79,-157.06"/>
</a>
</g>
</g>
<!-- Node20&#45;&gt;Node10 -->
<g id="edge30_Node000020_Node000010" class="edge">
<title>Node20&#45;&gt;Node10</title>
<g id="a_edge30_Node000020_Node000010"><a xlink:title=" ">
<path fill="none" stroke="#63b8ff" d="M1450.5,-154.66C1450.5,-145.93 1450.5,-135.99 1450.5,-129.09"/>
<polygon fill="#63b8ff" stroke="#63b8ff" points="1447,-154.75 1450.5,-164.75 1454,-154.75 1447,-154.75"/>
</a>
</g>
</g>
<!-- Node21&#45;&gt;Node8 -->
<g id="edge32_Node000021_Node000008" class="edge">
<title>Node21&#45;&gt;Node8</title>
<g id="a_edge32_Node000021_Node000008"><a xlink:title=" ">
<path fill="none" stroke="#63b8ff" d="M1024.04,-104.08C1002.01,-89.3 965.41,-66.85 930.5,-55 835.15,-22.63 714.98,-13.8 659.36,-11.39"/>
<polygon fill="#63b8ff" stroke="#63b8ff" points="1022.31,-107.14 1032.54,-109.89 1026.26,-101.36 1022.31,-107.14"/>
</a>
</g>
</g>
<!-- Node22&#45;&gt;Node10 -->
<g id="edge34_Node000022_Node000010" class="edge">
<title>Node22&#45;&gt;Node10</title>
<g id="a_edge34_Node000022_Node000010"><a xlink:title=" ">
<path fill="none" stroke="#63b8ff" d="M1228.96,-163.04C1281.36,-152.98 1359.52,-137.97 1407.63,-128.73"/>
<polygon fill="#63b8ff" stroke="#63b8ff" points="1228,-159.66 1218.84,-164.98 1229.32,-166.54 1228,-159.66"/>
</a>
</g>
</g>
<!-- Node22&#45;&gt;Node21 -->
<g id="edge35_Node000022_Node000021" class="edge">
<title>Node22&#45;&gt;Node21</title>
<g id="a_edge35_Node000022_Node000021"><a xlink:title=" ">
<path fill="none" stroke="#63b8ff" d="M1144.23,-161.16C1120.16,-151.35 1087.1,-137.87 1065.77,-129.17"/>
<polygon fill="#63b8ff" stroke="#63b8ff" points="1143.03,-164.45 1153.61,-164.98 1145.67,-157.97 1143.03,-164.45"/>
</a>
</g>
</g>
<!-- Node23&#45;&gt;Node10 -->
<g id="edge38_Node000023_Node000010" class="edge">
<title>Node23&#45;&gt;Node10</title>
<g id="a_edge38_Node000023_Node000010"><a xlink:title=" ">
<path fill="none" stroke="#63b8ff" d="M1032.27,-164.13C1142.55,-152.63 1325.16,-133.58 1407.68,-124.97"/>
<polygon fill="#63b8ff" stroke="#63b8ff" points="1031.74,-160.67 1022.15,-165.19 1032.46,-167.63 1031.74,-160.67"/>
</a>
</g>
</g>
<!-- Node23&#45;&gt;Node14 -->
<g id="edge39_Node000023_Node000014" class="edge">
<title>Node23&#45;&gt;Node14</title>
<g id="a_edge39_Node000023_Node000014"><a xlink:title=" ">
<path fill="none" stroke="#63b8ff" d="M919.84,-159.7C903.99,-150.04 883.31,-137.44 869.73,-129.17"/>
<polygon fill="#63b8ff" stroke="#63b8ff" points="918.16,-162.77 928.52,-164.98 921.8,-156.79 918.16,-162.77"/>
</a>
</g>
</g>
<!-- Node24&#45;&gt;Node8 -->
<g id="edge41_Node000024_Node000008" class="edge">
<title>Node24&#45;&gt;Node8</title>
<g id="a_edge41_Node000024_Node000008"><a xlink:title=" ">
<path fill="none" stroke="#63b8ff" d="M628.5,-44.66C628.5,-35.93 628.5,-25.99 628.5,-19.09"/>
<polygon fill="#63b8ff" stroke="#63b8ff" points="625,-44.75 628.5,-54.75 632,-44.75 625,-44.75"/>
</a>
</g>
</g>
<!-- Node25&#45;&gt;Node8 -->
<g id="edge47_Node000025_Node000008" class="edge">
<title>Node25&#45;&gt;Node8</title>
<g id="a_edge47_Node000025_Node000008"><a xlink:title=" ">
<path fill="none" stroke="#63b8ff" d="M504.5,-103.5C535.07,-80.57 592.47,-37.52 616.96,-19.16"/>
<polygon fill="#63b8ff" stroke="#63b8ff" points="502.18,-100.86 496.28,-109.66 506.38,-106.46 502.18,-100.86"/>
</a>
</g>
</g>
<!-- Node25&#45;&gt;Node24 -->
<g id="edge45_Node000025_Node000024" class="edge">
<title>Node25&#45;&gt;Node24</title>
<g id="a_edge45_Node000025_Node000024"><a xlink:title=" ">
<path fill="none" stroke="#63b8ff" d="M517.32,-106.42C544.03,-96.59 581.1,-82.95 604.94,-74.17"/>
<polygon fill="#63b8ff" stroke="#63b8ff" points="515.81,-103.25 507.64,-109.98 518.23,-109.82 515.81,-103.25"/>
</a>
</g>
</g>
<!-- Node26 -->
<g id="Node000026" class="node">
<title>Node26</title>
<g id="a_Node000026"><a xlink:href="static__string_8cpp.html" target="_top" xlink:title=" ">
<polygon fill="white" stroke="#666666" points="533,-74 436,-74 436,-55 533,-55 533,-74"/>
<text text-anchor="middle" x="484.5" y="-62" font-family="Helvetica,sans-Serif" font-size="10.00">static_string.cpp</text>
</a>
</g>
</g>
<!-- Node25&#45;&gt;Node26 -->
<g id="edge46_Node000025_Node000026" class="edge">
<title>Node25&#45;&gt;Node26</title>
<g id="a_edge46_Node000025_Node000026"><a xlink:title=" ">
<path fill="none" stroke="#63b8ff" d="M484.5,-99.66C484.5,-90.93 484.5,-80.99 484.5,-74.09"/>
<polygon fill="#63b8ff" stroke="#63b8ff" points="481,-99.75 484.5,-109.75 488,-99.75 481,-99.75"/>
</a>
</g>
</g>
<!-- Node27&#45;&gt;Node10 -->
<g id="edge49_Node000027_Node000010" class="edge">
<title>Node27&#45;&gt;Node10</title>
<g id="a_edge49_Node000027_Node000010"><a xlink:title=" ">
<path fill="none" stroke="#63b8ff" d="M1121.53,-164.91C1230.68,-147.44 1346.88,-132.86 1407.94,-125.51"/>
<polygon fill="#63b8ff" stroke="#63b8ff" points="1120.65,-161.51 1111.33,-166.56 1121.76,-168.42 1120.65,-161.51"/>
</a>
</g>
</g>
<!-- Node27&#45;&gt;Node21 -->
<g id="edge50_Node000027_Node000021" class="edge">
<title>Node27&#45;&gt;Node21</title>
<g id="a_edge50_Node000027_Node000021"><a xlink:title=" ">
<path fill="none" stroke="#63b8ff" d="M1065.32,-156.1C1060.03,-147.04 1053.78,-136.37 1049.52,-129.09"/>
<polygon fill="#63b8ff" stroke="#63b8ff" points="1062.31,-157.88 1070.38,-164.75 1068.35,-154.35 1062.31,-157.88"/>
</a>
</g>
</g>
<!-- Node28&#45;&gt;Node10 -->
<g id="edge52_Node000028_Node000010" class="edge">
<title>Node28&#45;&gt;Node10</title>
<g id="a_edge52_Node000028_Node000010"><a xlink:title=" ">
<path fill="none" stroke="#63b8ff" d="M1519.75,-159.97C1502.75,-150.28 1480.37,-137.52 1465.71,-129.17"/>
<polygon fill="#63b8ff" stroke="#63b8ff" points="1518.14,-163.07 1528.56,-164.98 1521.6,-156.99 1518.14,-163.07"/>
</a>
</g>
</g>
<!-- Node29&#45;&gt;Node10 -->
<g id="edge54_Node000029_Node000010" class="edge">
<title>Node29&#45;&gt;Node10</title>
<g id="a_edge54_Node000029_Node000010"><a xlink:title=" ">
<path fill="none" stroke="#63b8ff" d="M1607.49,-162.31C1570.25,-152.39 1516.66,-138.12 1482.72,-129.08"/>
<polygon fill="#63b8ff" stroke="#63b8ff" points="1606.96,-165.79 1617.53,-164.98 1608.76,-159.03 1606.96,-165.79"/>
</a>
</g>
</g>
<!-- Node30&#45;&gt;Node4 -->
<g id="edge56_Node000030_Node000004" class="edge">
<title>Node30&#45;&gt;Node4</title>
<g id="a_edge56_Node000030_Node000004"><a xlink:title=" ">
<path fill="none" stroke="#63b8ff" d="M288.19,-159.15C274.64,-149.57 257.26,-137.29 245.77,-129.17"/>
<polygon fill="#63b8ff" stroke="#63b8ff" points="286.26,-162.07 296.45,-164.98 290.3,-156.36 286.26,-162.07"/>
</a>
</g>
</g>
<!-- Node30&#45;&gt;Node6 -->
<g id="edge57_Node000030_Node000006" class="edge">
<title>Node30&#45;&gt;Node6</title>
<g id="a_edge57_Node000030_Node000006"><a xlink:title=" ">
<path fill="none" stroke="#63b8ff" d="M306.4,-154.68C302.95,-130.13 294.37,-86.59 274.5,-55 265.1,-40.05 249.23,-27.16 237.89,-19.16"/>
<polygon fill="#63b8ff" stroke="#63b8ff" points="302.95,-155.31 307.67,-164.79 309.89,-154.43 302.95,-155.31"/>
</a>
</g>
</g>
<!-- Node30&#45;&gt;Node7 -->
<g id="edge58_Node000030_Node000007" class="edge">
<title>Node30&#45;&gt;Node7</title>
<g id="a_edge58_Node000030_Node000007"><a xlink:title=" ">
<path fill="none" stroke="#63b8ff" d="M272.59,-161.8C247.2,-153.28 212.49,-141.16 182.5,-129 138.27,-111.06 87.6,-86.74 61.7,-74.04"/>
<polygon fill="#63b8ff" stroke="#63b8ff" points="271.58,-165.15 282.18,-164.99 273.79,-158.51 271.58,-165.15"/>
</a>
</g>
</g>
<!-- Node30&#45;&gt;Node8 -->
<g id="edge60_Node000030_Node000008" class="edge">
<title>Node30&#45;&gt;Node8</title>
<g id="a_edge60_Node000030_Node000008"><a xlink:title=" ">
<path fill="none" stroke="#63b8ff" d="M320.47,-156.5C339.83,-130.36 380.59,-80.66 427.5,-55 482.53,-24.9 556.57,-15.15 597.7,-12"/>
<polygon fill="#63b8ff" stroke="#63b8ff" points="317.58,-154.53 314.54,-164.68 323.24,-158.64 317.58,-154.53"/>
</a>
</g>
</g>
<!-- Node30&#45;&gt;Node25 -->
<g id="edge59_Node000030_Node000025" class="edge">
<title>Node30&#45;&gt;Node25</title>
<g id="a_edge59_Node000030_Node000025"><a xlink:title=" ">
<path fill="none" stroke="#63b8ff" d="M346.5,-162.06C379.4,-152.15 426.24,-138.04 456,-129.08"/>
<polygon fill="#63b8ff" stroke="#63b8ff" points="345.34,-158.75 336.78,-164.98 347.36,-165.45 345.34,-158.75"/>
</a>
</g>
</g>
<!-- Node31&#45;&gt;Node10 -->
<g id="edge62_Node000031_Node000010" class="edge">
<title>Node31&#45;&gt;Node10</title>
<g id="a_edge62_Node000031_Node000010"><a xlink:title=" ">
<path fill="none" stroke="#63b8ff" d="M1709.09,-164.57C1648.35,-154.22 1549.43,-137.36 1493.17,-127.77"/>
<polygon fill="#63b8ff" stroke="#63b8ff" points="1708.79,-168.07 1719.23,-166.3 1709.96,-161.17 1708.79,-168.07"/>
</a>
</g>
</g>
</g>
</svg>

<g id="navigator" transform="translate(0 0)" fill="#404254">
  <rect fill="#f2f5e9" fill-opacity="0.5" stroke="#606060" stroke-width=".5" x="0" y="0" width="60" height="60"/>
  <use id="zoomplus" xlink:href="#zoomPlus" x="17" y="9" onmousedown="handleZoom(evt,'in')"/>
  <use id="zoomminus" xlink:href="#zoomMin" x="42" y="9" onmousedown="handleZoom(evt,'out')"/>
  <use id="reset" xlink:href="#resetDef" x="30" y="36" onmousedown="handleReset()"/>
   <use id="arrowup" xlink:href="#arrowUp" x="0" y="0" onmousedown="handlePan(0,-1)"/>
  <use id="arrowright" xlink:href="#arrowRight" x="0" y="0" onmousedown="handlePan(1,0)"/>
  <use id="arrowdown" xlink:href="#arrowDown" x="0" y="0" onmousedown="handlePan(0,1)"/>
  <use id="arrowleft" xlink:href="#arrowLeft" x="0" y="0" onmousedown="handlePan(-1,0)"/>
</g>
<svg viewBox="0 0 15 15" width="100%" height="30px" preserveAspectRatio="xMaxYMin meet">
 <g id="arrow_out" transform="scale(0.3 0.3)">
  <a xlink:href="common_8hpp__dep__incl_org.svg" target="_base">
   <rect id="button" ry="5" rx="5" y="6" x="6" height="38" width="38"
        fill="#f2f5e9" fill-opacity="0.5" stroke="#606060" stroke-width="1.0"/>
   <path id="arrow"
     d="M 11.500037,31.436501 C 11.940474,20.09759 22.043105,11.32322 32.158766,21.979434 L 37.068811,17.246167 C 37.068811,17.246167 37.088388,32 37.088388,32 L 22.160133,31.978069 C 22.160133,31.978069 26.997745,27.140456 26.997745,27.140456 C 18.528582,18.264221 13.291696,25.230495 11.500037,31.436501 z"
     style="fill:#404040;"/>
  </a>
 </g>
</svg>

<style type='text/css'>
<![CDATA[
[data-mouse-over-selected='false'] { opacity: 0.7; }
[data-mouse-over-selected='true']  { opacity: 1.0; }
]]>
</style>
<script type="application/ecmascript"><![CDATA[
document.addEventListener('DOMContentLoaded', (event) => {
  highlightEdges();
  highlightAdjacentNodes();
});
]]></script>
</svg>
