<?xml version="1.0" encoding="UTF-8" standalone="no"?>
<!DOCTYPE svg PUBLIC "-//W3C//DTD SVG 1.1//EN"
 "http://www.w3.org/Graphics/SVG/1.1/DTD/svg11.dtd">
<!-- Generated by graphviz version 2.42.4 (0)
 -->
<!-- Title: cpuid.hpp Pages: 1 -->
<svg width="207pt" height="137pt"
 viewBox="0.00 0.00 206.50 137.00" xmlns="http://www.w3.org/2000/svg" xmlns:xlink="http://www.w3.org/1999/xlink">
<g id="graph0" class="graph" transform="scale(1 1) rotate(0) translate(4 133)">
<title>cpuid.hpp</title>
<!-- Node1 -->
<g id="Node000001" class="node">
<title>Node1</title>
<g id="a_Node000001"><a xlink:title=" ">
<polygon fill="#999999" stroke="#666666" points="123.5,-129 59.5,-129 59.5,-110 123.5,-110 123.5,-129"/>
<text text-anchor="middle" x="91.5" y="-117" font-family="Helvetica,sans-Serif" font-size="10.00">cpuid.hpp</text>
</a>
</g>
</g>
<!-- Node2 -->
<g id="Node000002" class="node">
<title>Node2</title>
<g id="a_Node000002"><a xlink:href="cpuid_8cpp.html" target="_top" xlink:title=" ">
<polygon fill="white" stroke="#666666" points="63,-74 0,-74 0,-55 63,-55 63,-74"/>
<text text-anchor="middle" x="31.5" y="-62" font-family="Helvetica,sans-Serif" font-size="10.00">cpuid.cpp</text>
</a>
</g>
</g>
<!-- Node1&#45;&gt;Node2 -->
<g id="edge1_Node000001_Node000002" class="edge">
<title>Node1&#45;&gt;Node2</title>
<g id="a_edge1_Node000001_Node000002"><a xlink:title=" ">
<path fill="none" stroke="#63b8ff" d="M74.32,-103.32C63.62,-93.87 50.24,-82.06 41.32,-74.17"/>
<polygon fill="#63b8ff" stroke="#63b8ff" points="72.05,-105.99 81.86,-109.98 76.68,-100.74 72.05,-105.99"/>
</a>
</g>
</g>
<!-- Node3 -->
<g id="Node000003" class="node">
<title>Node3</title>
<g id="a_Node000003"><a xlink:href="tests_8cpp.html" target="_top" xlink:title=" ">
<polygon fill="white" stroke="#666666" points="122,-19 61,-19 61,0 122,0 122,-19"/>
<text text-anchor="middle" x="91.5" y="-7" font-family="Helvetica,sans-Serif" font-size="10.00">tests.cpp</text>
</a>
</g>
</g>
<!-- Node1&#45;&gt;Node3 -->
<g id="edge2_Node000001_Node000003" class="edge">
<title>Node1&#45;&gt;Node3</title>
<g id="a_edge2_Node000001_Node000003"><a xlink:title=" ">
<path fill="none" stroke="#63b8ff" d="M91.5,-99.48C91.5,-75.84 91.5,-36.5 91.5,-19.16"/>
<polygon fill="#63b8ff" stroke="#63b8ff" points="88,-99.66 91.5,-109.66 95,-99.66 88,-99.66"/>
</a>
</g>
</g>
<!-- Node4 -->
<g id="Node000004" class="node">
<title>Node4</title>
<g id="a_Node000004"><a xlink:href="wait_8hpp.html" target="_top" xlink:title="waiting strategies">
<polygon fill="white" stroke="#666666" points="179,-74 120,-74 120,-55 179,-55 179,-74"/>
<text text-anchor="middle" x="149.5" y="-62" font-family="Helvetica,sans-Serif" font-size="10.00">wait.hpp</text>
</a>
</g>
</g>
<!-- Node1&#45;&gt;Node4 -->
<g id="edge3_Node000001_Node000004" class="edge">
<title>Node1&#45;&gt;Node4</title>
<g id="a_edge3_Node000001_Node000004"><a xlink:title=" ">
<path fill="none" stroke="#63b8ff" d="M108.41,-103.04C118.7,-93.64 131.47,-81.98 140.01,-74.17"/>
<polygon fill="#63b8ff" stroke="#63b8ff" points="105.84,-100.66 100.82,-109.98 110.56,-105.82 105.84,-100.66"/>
</a>
</g>
</g>
<!-- Node4&#45;&gt;Node3 -->
<g id="edge4_Node000004_Node000003" class="edge">
<title>Node4&#45;&gt;Node3</title>
<g id="a_edge4_Node000004_Node000003"><a xlink:title=" ">
<path fill="none" stroke="#63b8ff" d="M132.59,-48.04C122.3,-38.64 109.53,-26.98 100.99,-19.17"/>
<polygon fill="#63b8ff" stroke="#63b8ff" points="130.44,-50.82 140.18,-54.98 135.16,-45.66 130.44,-50.82"/>
</a>
</g>
</g>
<!-- Node5 -->
<g id="Node000005" class="node">
<title>Node5</title>
<g id="a_Node000005"><a xlink:href="wait_8cpp.html" target="_top" xlink:title=" ">
<polygon fill="white" stroke="#666666" points="198.5,-19 140.5,-19 140.5,0 198.5,0 198.5,-19"/>
<text text-anchor="middle" x="169.5" y="-7" font-family="Helvetica,sans-Serif" font-size="10.00">wait.cpp</text>
</a>
</g>
</g>
<!-- Node4&#45;&gt;Node5 -->
<g id="edge5_Node000004_Node000005" class="edge">
<title>Node4&#45;&gt;Node5</title>
<g id="a_edge5_Node000004_Node000005"><a xlink:title=" ">
<path fill="none" stroke="#63b8ff" d="M156.39,-45.24C159.74,-36.37 163.6,-26.14 166.26,-19.09"/>
<polygon fill="#63b8ff" stroke="#63b8ff" points="153.06,-44.16 152.8,-54.75 159.61,-46.63 153.06,-44.16"/>
</a>
</g>
</g>
</g>
</svg>
