<?xml version="1.0" encoding="UTF-8" standalone="no"?>
<!DOCTYPE svg PUBLIC "-//W3C//DTD SVG 1.1//EN"
 "http://www.w3.org/Graphics/SVG/1.1/DTD/svg11.dtd">
<!-- Generated by graphviz version 2.42.4 (0)
 -->
<!-- Title: ein Pages: 1 -->
<svg width="509pt" height="188pt"
 viewBox="0.00 0.00 508.88 188.00" xmlns="http://www.w3.org/2000/svg" xmlns:xlink="http://www.w3.org/1999/xlink">
<g id="graph0" class="graph" transform="scale(1 1) rotate(0) translate(4 184)">
<title>ein</title>
<polygon fill="white" stroke="transparent" points="-4,4 -4,-184 504.88,-184 504.88,4 -4,4"/>
<!-- node3 -->
<g id="node1" class="node">
<title>node3</title>
<polygon fill="none" stroke="black" points="251.56,-154.54 251.56,-169.46 235.75,-180 213.38,-180 197.56,-169.46 197.56,-154.54 213.38,-144 235.75,-144 251.56,-154.54"/>
<text text-anchor="middle" x="224.56" y="-158.9" font-family="Times,serif" font-size="12.00">ein</text>
</g>
<!-- node4 -->
<g id="node2" class="node">
<title>node4</title>
<polygon fill="none" stroke="black" points="277,-23.56 226.56,-36 176.12,-23.56 195.39,-3.44 257.74,-3.44 277,-23.56"/>
<text text-anchor="middle" x="226.56" y="-14.9" font-family="Times,serif" font-size="12.00">Threads</text>
</g>
<!-- node3&#45;&gt;node4 -->
<g id="edge1" class="edge">
<title>node3&#45;&gt;node4</title>
<path fill="none" stroke="black" d="M197.28,-159.63C128.7,-155.2 -41.83,-137.46 9.56,-72 28.91,-47.36 110.25,-32.71 167.64,-25.26"/>
<polygon fill="black" stroke="black" points="168.22,-28.71 177.7,-23.99 167.35,-21.77 168.22,-28.71"/>
</g>
<!-- node2 -->
<g id="node3" class="node">
<title>node2</title>
<polygon fill="none" stroke="black" points="227.05,-95.56 122.56,-108 18.07,-95.56 57.98,-75.44 187.14,-75.44 227.05,-95.56"/>
<text text-anchor="middle" x="122.56" y="-86.9" font-family="Times,serif" font-size="12.00">compiler_rt_builtins</text>
</g>
<!-- node3&#45;&gt;node2 -->
<g id="edge2" class="edge">
<title>node3&#45;&gt;node2</title>
<path fill="none" stroke="black" d="M206.33,-148.49C191.4,-138.24 169.97,-123.53 152.52,-111.56"/>
<polygon fill="black" stroke="black" points="154.04,-108.36 143.82,-105.59 150.08,-114.13 154.04,-108.36"/>
</g>
<!-- node5 -->
<g id="node4" class="node">
<title>node5</title>
<polygon fill="none" stroke="black" points="407.9,-95.56 326.56,-108 245.23,-95.56 276.3,-75.44 376.83,-75.44 407.9,-95.56"/>
<text text-anchor="middle" x="326.56" y="-86.9" font-family="Times,serif" font-size="12.00">nlohmann_json</text>
</g>
<!-- node3&#45;&gt;node5 -->
<g id="edge3" class="edge">
<title>node3&#45;&gt;node5</title>
<path fill="none" stroke="black" d="M242.8,-148.49C258.06,-138.01 280.12,-122.87 297.77,-110.76"/>
<polygon fill="black" stroke="black" points="299.77,-113.63 306.03,-105.09 295.81,-107.86 299.77,-113.63"/>
</g>
<!-- node6 -->
<g id="node5" class="node">
<title>node6</title>
<polygon fill="none" stroke="black" points="500.69,-82.54 500.69,-97.46 478.94,-108 448.18,-108 426.44,-97.46 426.44,-82.54 448.18,-72 478.94,-72 500.69,-82.54"/>
<text text-anchor="middle" x="463.56" y="-86.9" font-family="Times,serif" font-size="12.00">spdlog</text>
</g>
<!-- node3&#45;&gt;node6 -->
<g id="edge4" class="edge">
<title>node3&#45;&gt;node6</title>
<path fill="none" stroke="black" d="M251.47,-154.28C288.78,-144.8 358.24,-126.57 416.56,-108 419.45,-107.08 422.42,-106.1 425.4,-105.08"/>
<polygon fill="black" stroke="black" points="426.56,-108.38 434.85,-101.79 424.26,-101.78 426.56,-108.38"/>
</g>
<!-- node6&#45;&gt;node4 -->
<g id="edge5" class="edge">
<title>node6&#45;&gt;node4</title>
<path fill="none" stroke="black" d="M434.85,-78.23C428.83,-76.08 422.51,-73.9 416.56,-72 367.01,-56.15 309.36,-40.45 270.67,-30.3"/>
<polygon fill="black" stroke="black" points="271.33,-26.85 260.77,-27.71 269.56,-33.63 271.33,-26.85"/>
</g>
</g>
</svg>
