<?xml version="1.0" encoding="UTF-8" standalone="no"?>
<!DOCTYPE svg PUBLIC "-//W3C//DTD SVG 1.1//EN"
 "http://www.w3.org/Graphics/SVG/1.1/DTD/svg11.dtd">
<!-- Generated by graphviz version 2.42.4 (0)
 -->
<!-- Title: ein_tests Pages: 1 -->
<svg width="767pt" height="282pt"
 viewBox="0.00 0.00 766.53 282.17" xmlns="http://www.w3.org/2000/svg" xmlns:xlink="http://www.w3.org/1999/xlink">
<g id="graph0" class="graph" transform="scale(1 1) rotate(0) translate(4 278.17)">
<title>ein_tests</title>
<polygon fill="white" stroke="transparent" points="-4,4 -4,-278.17 762.53,-278.17 762.53,4 -4,4"/>
<!-- node7 -->
<g id="node1" class="node">
<title>node7</title>
<polygon fill="none" stroke="black" points="196.62,-238.22 200.01,-238.32 203.36,-238.46 206.66,-238.66 209.9,-238.9 213.06,-239.19 216.14,-239.53 219.11,-239.92 221.98,-240.34 224.72,-240.82 227.34,-241.33 229.81,-241.88 232.13,-242.48 234.3,-243.11 236.31,-243.77 238.14,-244.47 239.81,-245.21 241.3,-245.97 242.61,-246.76 243.74,-247.58 244.69,-248.42 245.46,-249.28 246.04,-250.16 246.45,-251.05 246.69,-251.96 246.75,-252.89 246.65,-253.82 246.38,-254.76 245.96,-255.7 245.38,-256.64 244.66,-257.58 243.8,-258.52 242.81,-259.45 241.69,-260.37 240.46,-261.28 239.11,-262.18 237.67,-263.06 236.13,-263.92 234.5,-264.76 232.8,-265.58 231.02,-266.37 229.17,-267.13 227.27,-267.86 225.31,-268.56 223.3,-269.23 221.26,-269.86 219.17,-270.45 217.06,-271.01 214.91,-271.52 212.74,-271.99 210.55,-272.42 208.35,-272.8 206.13,-273.14 203.9,-273.43 201.66,-273.68 199.41,-273.87 197.16,-274.02 194.9,-274.12 192.64,-274.17 190.38,-274.17 188.12,-274.12 185.86,-274.02 183.61,-273.87 181.36,-273.68 179.12,-273.43 176.89,-273.14 174.67,-272.8 172.46,-272.42 170.28,-271.99 168.11,-271.52 165.96,-271.01 163.85,-270.45 161.76,-269.86 159.71,-269.23 157.71,-268.56 155.75,-267.86 153.85,-267.13 152,-266.37 150.22,-265.58 148.51,-264.76 146.89,-263.92 145.35,-263.06 143.9,-262.18 142.56,-261.28 141.33,-260.37 140.21,-259.45 139.22,-258.52 138.36,-257.58 137.64,-256.64 137.06,-255.7 136.64,-254.76 136.37,-253.82 136.27,-252.89 136.33,-251.96 136.56,-251.05 136.97,-250.16 137.56,-249.28 138.33,-248.42 139.28,-247.58 140.41,-246.76 141.72,-245.97 143.21,-245.21 144.87,-244.47 146.71,-243.77 148.72,-243.11 150.88,-242.48 153.21,-241.88 155.68,-241.33 158.3,-240.82 161.04,-240.34 163.91,-239.92 166.88,-239.53 169.96,-239.19 173.12,-238.9 176.36,-238.66 179.66,-238.46 183.01,-238.32 186.4,-238.22 189.8,-238.17 193.22,-238.17 196.62,-238.22"/>
<text text-anchor="middle" x="191.51" y="-252.47" font-family="Times,serif" font-size="14.00">ein_tests</text>
</g>
<!-- node7&#45;&gt;node7 -->
<g id="edge9" class="edge">
<title>node7&#45;&gt;node7</title>
<path fill="none" stroke="black" d="M221.66,-269.89C243.31,-274.35 264.88,-269.78 264.88,-256.17 264.88,-246.12 253.12,-240.99 238.26,-240.8"/>
<polygon fill="black" stroke="black" points="237.91,-237.31 228.13,-241.38 238.31,-244.3 237.91,-237.31"/>
</g>
<!-- node1 -->
<g id="node2" class="node">
<title>node1</title>
<polygon fill="none" stroke="black" points="225.03,-161 225.03,-185.17 159.12,-202.25 65.9,-202.25 -0.01,-185.17 -0.01,-161 65.9,-143.92 159.12,-143.92 225.03,-161"/>
<text text-anchor="middle" x="112.51" y="-176.88" font-family="Times,serif" font-size="14.00">Catch2WithMain</text>
<text text-anchor="middle" x="112.51" y="-161.88" font-family="Times,serif" font-size="14.00">(Catch2WithMain)</text>
</g>
<!-- node7&#45;&gt;node1 -->
<g id="edge1" class="edge">
<title>node7&#45;&gt;node1</title>
<path fill="none" stroke="black" stroke-dasharray="1,5" d="M175.14,-238.37C166.99,-230.01 156.82,-219.56 147.06,-209.54"/>
<polygon fill="black" stroke="black" points="149.54,-207.08 140.06,-202.36 144.53,-211.96 149.54,-207.08"/>
</g>
<!-- node3 -->
<g id="node4" class="node">
<title>node3</title>
<polygon fill="none" stroke="black" points="333.51,-165.63 333.51,-180.54 317.69,-191.08 295.33,-191.08 279.51,-180.54 279.51,-165.63 295.33,-155.08 317.69,-155.08 333.51,-165.63"/>
<text text-anchor="middle" x="306.51" y="-169.38" font-family="Times,serif" font-size="14.00">ein</text>
</g>
<!-- node7&#45;&gt;node3 -->
<g id="edge3" class="edge">
<title>node7&#45;&gt;node3</title>
<path fill="none" stroke="black" stroke-dasharray="1,5" d="M214.23,-239.15C233.16,-225.8 260.15,-206.77 280.05,-192.74"/>
<polygon fill="black" stroke="black" points="282.21,-195.5 288.37,-186.87 278.18,-189.78 282.21,-195.5"/>
</g>
<!-- node0 -->
<g id="node3" class="node">
<title>node0</title>
<polygon fill="none" stroke="black" points="122.78,-82.54 122.78,-97.46 95.09,-108 55.93,-108 28.24,-97.46 28.24,-82.54 55.93,-72 95.09,-72 122.78,-82.54"/>
<text text-anchor="middle" x="75.51" y="-86.3" font-family="Times,serif" font-size="14.00">Catch2</text>
</g>
<!-- node1&#45;&gt;node0 -->
<g id="edge2" class="edge">
<title>node1&#45;&gt;node0</title>
<path fill="none" stroke="black" d="M99.57,-143.72C95.67,-135.19 91.42,-125.86 87.58,-117.46"/>
<polygon fill="black" stroke="black" points="90.65,-115.76 83.32,-108.12 84.29,-118.67 90.65,-115.76"/>
</g>
<!-- node4 -->
<g id="node5" class="node">
<title>node4</title>
<polygon fill="none" stroke="black" points="490.91,-23.56 431.51,-36 372.11,-23.56 394.8,-3.44 468.22,-3.44 490.91,-23.56"/>
<text text-anchor="middle" x="431.51" y="-14.3" font-family="Times,serif" font-size="14.00">Threads</text>
</g>
<!-- node3&#45;&gt;node4 -->
<g id="edge4" class="edge">
<title>node3&#45;&gt;node4</title>
<path fill="none" stroke="black" d="M283.45,-162.88C246.16,-147.78 176.1,-118.36 169.51,-108 160.92,-94.5 159.38,-84.38 169.51,-72 193.56,-42.6 293.98,-29.13 363.27,-23.23"/>
<polygon fill="black" stroke="black" points="363.57,-26.72 373.26,-22.42 363,-19.75 363.57,-26.72"/>
</g>
<!-- node2 -->
<g id="node6" class="node">
<title>node2</title>
<polygon fill="none" stroke="black" points="434.48,-95.56 306.51,-108 178.54,-95.56 227.42,-75.44 385.6,-75.44 434.48,-95.56"/>
<text text-anchor="middle" x="306.51" y="-86.3" font-family="Times,serif" font-size="14.00">compiler_rt_builtins</text>
</g>
<!-- node3&#45;&gt;node2 -->
<g id="edge5" class="edge">
<title>node3&#45;&gt;node2</title>
<path fill="none" stroke="black" d="M306.51,-154.89C306.51,-144.25 306.51,-130.35 306.51,-118.23"/>
<polygon fill="black" stroke="black" points="310.01,-118.17 306.51,-108.17 303.01,-118.17 310.01,-118.17"/>
</g>
<!-- node5 -->
<g id="node7" class="node">
<title>node5</title>
<polygon fill="none" stroke="black" points="650.14,-95.56 551.51,-108 452.88,-95.56 490.55,-75.44 612.47,-75.44 650.14,-95.56"/>
<text text-anchor="middle" x="551.51" y="-86.3" font-family="Times,serif" font-size="14.00">nlohmann_json</text>
</g>
<!-- node3&#45;&gt;node5 -->
<g id="edge6" class="edge">
<title>node3&#45;&gt;node5</title>
<path fill="none" stroke="black" d="M331.35,-163.86C371.92,-150.44 453.05,-123.59 504.69,-106.5"/>
<polygon fill="black" stroke="black" points="505.89,-109.78 514.28,-103.32 503.69,-103.14 505.89,-109.78"/>
</g>
<!-- node6 -->
<g id="node8" class="node">
<title>node6</title>
<polygon fill="none" stroke="black" points="758.56,-82.54 758.56,-97.46 732.17,-108 694.85,-108 668.46,-97.46 668.46,-82.54 694.85,-72 732.17,-72 758.56,-82.54"/>
<text text-anchor="middle" x="713.51" y="-86.3" font-family="Times,serif" font-size="14.00">spdlog</text>
</g>
<!-- node3&#45;&gt;node6 -->
<g id="edge7" class="edge">
<title>node3&#45;&gt;node6</title>
<path fill="none" stroke="black" d="M333.77,-168.33C393.36,-159.85 539.48,-137.66 659.51,-108 663.11,-107.11 666.82,-106.11 670.53,-105.06"/>
<polygon fill="black" stroke="black" points="671.68,-108.37 680.28,-102.18 669.7,-101.66 671.68,-108.37"/>
</g>
<!-- node6&#45;&gt;node4 -->
<g id="edge8" class="edge">
<title>node6&#45;&gt;node4</title>
<path fill="none" stroke="black" d="M679.64,-77.9C672.99,-75.85 666.05,-73.79 659.51,-72 599.06,-55.49 528.72,-39.64 482.33,-29.65"/>
<polygon fill="black" stroke="black" points="483.03,-26.22 472.52,-27.54 481.56,-33.06 483.03,-26.22"/>
</g>
</g>
</svg>
