<?xml version="1.0" encoding="UTF-8" standalone="no"?>
<!DOCTYPE svg PUBLIC "-//W3C//DTD SVG 1.1//EN"
 "http://www.w3.org/Graphics/SVG/1.1/DTD/svg11.dtd">
<!-- Generated by graphviz version 2.42.4 (0)
 -->
<!-- Title: ein Pages: 1 -->
<!--zoomable 188 -->

<svg id="main" version="1.1" xmlns="http://www.w3.org/2000/svg" xmlns:xlink="http://www.w3.org/1999/xlink" xml:space="preserve" onload="init(evt)">

<style type="text/css"><![CDATA[
.node, .edge {opacity: 0.7;}
.node.selected, .edge.selected {opacity: 1;}
.edge:hover path { stroke: red; }
.edge:hover polygon { stroke: red; fill: red; }
]]></style>

<defs>
  <circle id="rim" cx="0" cy="0" r="7"/>
  <circle id="rim2" cx="0" cy="0" r="3.5"/>
  <g id="zoomPlus">
    <use xlink:href="#rim" fill="#404040"><set attributeName="fill" to="#808080" begin="zoomplus.mouseover" end="zoomplus.mouseout"/></use>
    <path d="M-4,0h8M0,-4v8" fill="none" stroke="white" stroke-width="1.5" pointer-events="none"/>
  </g>
  <g id="zoomMin">
    <use xlink:href="#rim" fill="#404040"><set attributeName="fill" to="#808080" begin="zoomminus.mouseover" end="zoomminus.mouseout"/></use>
    <path d="M-4,0h8" fill="none" stroke="white" stroke-width="1.5" pointer-events="none"/>
  </g>
  <g id="arrowUp" transform="translate(30 24)">
    <use xlink:href="#rim"/>
    <path pointer-events="none" fill="none" stroke="white" stroke-width="1.5" d="M0,-3.0v7 M-2.5,-0.5L0,-3.0L2.5,-0.5"/>
  </g>
  <g id="arrowRight" transform="rotate(90) translate(36 -43)">
    <use xlink:href="#rim"/>
    <path pointer-events="none" fill="none" stroke="white" stroke-width="1.5" d="M0,-3.0v7 M-2.5,-0.5L0,-3.0L2.5,-0.5"/>
  </g>
  <g id="arrowDown" transform="rotate(180) translate(-30 -48)">
    <use xlink:href="#rim"/>
    <path pointer-events="none" fill="none" stroke="white" stroke-width="1.5" d="M0,-3.0v7 M-2.5,-0.5L0,-3.0L2.5,-0.5"/>
  </g>
  <g id="arrowLeft" transform="rotate(270) translate(-36 17)">
    <use xlink:href="#rim"/>
    <path pointer-events="none" fill="none" stroke="white" stroke-width="1.5" d="M0,-3.0v7 M-2.5,-0.5L0,-3.0L2.5,-0.5"/>
  </g>
  <g id="resetDef">
    <use xlink:href="#rim2" fill="#404040"><set attributeName="fill" to="#808080" begin="reset.mouseover" end="reset.mouseout"/></use>
  </g>
</defs>
<script type="application/ecmascript">
var viewWidth = 509;
var viewHeight = 188;
</script>
<script type="application/ecmascript" xlink:href="svg.min.js"/>
<svg id="graph" class="graph">
<g id="viewport">
<title>ein</title>
<polygon fill="white" stroke="transparent" points="-4,4 -4,-184 504.88,-184 504.88,4 -4,4"/>
<!-- node3 -->
<g id="node1" class="node">
<title>node3</title>
<polygon fill="none" stroke="black" points="251.56,-154.54 251.56,-169.46 235.75,-180 213.38,-180 197.56,-169.46 197.56,-154.54 213.38,-144 235.75,-144 251.56,-154.54"/>
<text text-anchor="middle" x="224.56" y="-158.9" font-family="Times,serif" font-size="12.00">ein</text>
</g>
<!-- node4 -->
<g id="node2" class="node">
<title>node4</title>
<polygon fill="none" stroke="black" points="277,-23.56 226.56,-36 176.12,-23.56 195.39,-3.44 257.74,-3.44 277,-23.56"/>
<text text-anchor="middle" x="226.56" y="-14.9" font-family="Times,serif" font-size="12.00">Threads</text>
</g>
<!-- node3&#45;&gt;node4 -->
<g id="edge1" class="edge">
<title>node3&#45;&gt;node4</title>
<path fill="none" stroke="black" d="M197.28,-159.63C128.7,-155.2 -41.83,-137.46 9.56,-72 28.91,-47.36 110.25,-32.71 167.64,-25.26"/>
<polygon fill="black" stroke="black" points="168.22,-28.71 177.7,-23.99 167.35,-21.77 168.22,-28.71"/>
</g>
<!-- node2 -->
<g id="node3" class="node">
<title>node2</title>
<polygon fill="none" stroke="black" points="227.05,-95.56 122.56,-108 18.07,-95.56 57.98,-75.44 187.14,-75.44 227.05,-95.56"/>
<text text-anchor="middle" x="122.56" y="-86.9" font-family="Times,serif" font-size="12.00">compiler_rt_builtins</text>
</g>
<!-- node3&#45;&gt;node2 -->
<g id="edge2" class="edge">
<title>node3&#45;&gt;node2</title>
<path fill="none" stroke="black" d="M206.33,-148.49C191.4,-138.24 169.97,-123.53 152.52,-111.56"/>
<polygon fill="black" stroke="black" points="154.04,-108.36 143.82,-105.59 150.08,-114.13 154.04,-108.36"/>
</g>
<!-- node5 -->
<g id="node4" class="node">
<title>node5</title>
<polygon fill="none" stroke="black" points="407.9,-95.56 326.56,-108 245.23,-95.56 276.3,-75.44 376.83,-75.44 407.9,-95.56"/>
<text text-anchor="middle" x="326.56" y="-86.9" font-family="Times,serif" font-size="12.00">nlohmann_json</text>
</g>
<!-- node3&#45;&gt;node5 -->
<g id="edge3" class="edge">
<title>node3&#45;&gt;node5</title>
<path fill="none" stroke="black" d="M242.8,-148.49C258.06,-138.01 280.12,-122.87 297.77,-110.76"/>
<polygon fill="black" stroke="black" points="299.77,-113.63 306.03,-105.09 295.81,-107.86 299.77,-113.63"/>
</g>
<!-- node6 -->
<g id="node5" class="node">
<title>node6</title>
<polygon fill="none" stroke="black" points="500.69,-82.54 500.69,-97.46 478.94,-108 448.18,-108 426.44,-97.46 426.44,-82.54 448.18,-72 478.94,-72 500.69,-82.54"/>
<text text-anchor="middle" x="463.56" y="-86.9" font-family="Times,serif" font-size="12.00">spdlog</text>
</g>
<!-- node3&#45;&gt;node6 -->
<g id="edge4" class="edge">
<title>node3&#45;&gt;node6</title>
<path fill="none" stroke="black" d="M251.47,-154.28C288.78,-144.8 358.24,-126.57 416.56,-108 419.45,-107.08 422.42,-106.1 425.4,-105.08"/>
<polygon fill="black" stroke="black" points="426.56,-108.38 434.85,-101.79 424.26,-101.78 426.56,-108.38"/>
</g>
<!-- node6&#45;&gt;node4 -->
<g id="edge5" class="edge">
<title>node6&#45;&gt;node4</title>
<path fill="none" stroke="black" d="M434.85,-78.23C428.83,-76.08 422.51,-73.9 416.56,-72 367.01,-56.15 309.36,-40.45 270.67,-30.3"/>
<polygon fill="black" stroke="black" points="271.33,-26.85 260.77,-27.71 269.56,-33.63 271.33,-26.85"/>
</g>
</g>
</svg>

<g id="navigator" transform="translate(0 0)" fill="#404254">
  <rect fill="#f2f5e9" fill-opacity="0.5" stroke="#606060" stroke-width=".5" x="0" y="0" width="60" height="60"/>
  <use id="zoomplus" xlink:href="#zoomPlus" x="17" y="9" onmousedown="handleZoom(evt,'in')"/>
  <use id="zoomminus" xlink:href="#zoomMin" x="42" y="9" onmousedown="handleZoom(evt,'out')"/>
  <use id="reset" xlink:href="#resetDef" x="30" y="36" onmousedown="handleReset()"/>
   <use id="arrowup" xlink:href="#arrowUp" x="0" y="0" onmousedown="handlePan(0,-1)"/>
  <use id="arrowright" xlink:href="#arrowRight" x="0" y="0" onmousedown="handlePan(1,0)"/>
  <use id="arrowdown" xlink:href="#arrowDown" x="0" y="0" onmousedown="handlePan(0,1)"/>
  <use id="arrowleft" xlink:href="#arrowLeft" x="0" y="0" onmousedown="handlePan(-1,0)"/>
</g>
<svg viewBox="0 0 15 15" width="100%" height="30px" preserveAspectRatio="xMaxYMin meet">
 <g id="arrow_out" transform="scale(0.3 0.3)">
  <a xlink:href="dot_ein_org.svg" target="_base">
   <rect id="button" ry="5" rx="5" y="6" x="6" height="38" width="38"
        fill="#f2f5e9" fill-opacity="0.5" stroke="#606060" stroke-width="1.0"/>
   <path id="arrow"
     d="M 11.500037,31.436501 C 11.940474,20.09759 22.043105,11.32322 32.158766,21.979434 L 37.068811,17.246167 C 37.068811,17.246167 37.088388,32 37.088388,32 L 22.160133,31.978069 C 22.160133,31.978069 26.997745,27.140456 26.997745,27.140456 C 18.528582,18.264221 13.291696,25.230495 11.500037,31.436501 z"
     style="fill:#404040;"/>
  </a>
 </g>
</svg>

<style type='text/css'>
<![CDATA[
[data-mouse-over-selected='false'] { opacity: 0.7; }
[data-mouse-over-selected='true']  { opacity: 1.0; }
]]>
</style>
<script type="application/ecmascript"><![CDATA[
document.addEventListener('DOMContentLoaded', (event) => {
  highlightEdges();
  highlightAdjacentNodes();
});
]]></script>
</svg>
