<?xml version="1.0" encoding="UTF-8" standalone="no"?>
<!DOCTYPE svg PUBLIC "-//W3C//DTD SVG 1.1//EN"
 "http://www.w3.org/Graphics/SVG/1.1/DTD/svg11.dtd">
<!-- Generated by graphviz version 2.42.4 (0)
 -->
<!-- Title: fp16.hpp Pages: 1 -->
<svg width="315pt" height="192pt"
 viewBox="0.00 0.00 314.50 192.00" xmlns="http://www.w3.org/2000/svg" xmlns:xlink="http://www.w3.org/1999/xlink">
<g id="graph0" class="graph" transform="scale(1 1) rotate(0) translate(4 188)">
<title>fp16.hpp</title>
<!-- Node1 -->
<g id="Node000001" class="node">
<title>Node1</title>
<g id="a_Node000001"><a xlink:title=" ">
<polygon fill="#999999" stroke="#666666" points="212.5,-184 153.5,-184 153.5,-165 212.5,-165 212.5,-184"/>
<text text-anchor="middle" x="183" y="-172" font-family="Helvetica,sans-Serif" font-size="10.00">fp16.hpp</text>
</a>
</g>
</g>
<!-- Node2 -->
<g id="Node000002" class="node">
<title>Node2</title>
<g id="a_Node000002"><a xlink:href="fp16_8cpp.html" target="_top" xlink:title=" ">
<polygon fill="white" stroke="#666666" points="123.5,-129 64.5,-129 64.5,-110 123.5,-110 123.5,-129"/>
<text text-anchor="middle" x="94" y="-117" font-family="Helvetica,sans-Serif" font-size="10.00">fp16.cpp</text>
</a>
</g>
</g>
<!-- Node1&#45;&gt;Node2 -->
<g id="edge1_Node000001_Node000002" class="edge">
<title>Node1&#45;&gt;Node2</title>
<g id="a_edge1_Node000001_Node000002"><a xlink:title=" ">
<path fill="none" stroke="#63b8ff" d="M159.82,-159.7C143.61,-150.04 122.45,-137.44 108.56,-129.17"/>
<polygon fill="#63b8ff" stroke="#63b8ff" points="158.32,-162.88 168.7,-164.98 161.9,-156.86 158.32,-162.88"/>
</a>
</g>
</g>
<!-- Node3 -->
<g id="Node000003" class="node">
<title>Node3</title>
<g id="a_Node000003"><a xlink:href="numerics_8hpp.html" target="_top" xlink:title=" ">
<polygon fill="white" stroke="#666666" points="224.5,-129 141.5,-129 141.5,-110 224.5,-110 224.5,-129"/>
<text text-anchor="middle" x="183" y="-117" font-family="Helvetica,sans-Serif" font-size="10.00">numerics.hpp</text>
</a>
</g>
</g>
<!-- Node1&#45;&gt;Node3 -->
<g id="edge2_Node000001_Node000003" class="edge">
<title>Node1&#45;&gt;Node3</title>
<g id="a_edge2_Node000001_Node000003"><a xlink:title=" ">
<path fill="none" stroke="#63b8ff" d="M183,-154.66C183,-145.93 183,-135.99 183,-129.09"/>
<polygon fill="#63b8ff" stroke="#63b8ff" points="179.5,-154.75 183,-164.75 186.5,-154.75 179.5,-154.75"/>
</a>
</g>
</g>
<!-- Node7 -->
<g id="Node000007" class="node">
<title>Node7</title>
<g id="a_Node000007"><a xlink:href="tests_8cpp.html" target="_top" xlink:title=" ">
<polygon fill="white" stroke="#666666" points="306.5,-74 245.5,-74 245.5,-55 306.5,-55 306.5,-74"/>
<text text-anchor="middle" x="276" y="-62" font-family="Helvetica,sans-Serif" font-size="10.00">tests.cpp</text>
</a>
</g>
</g>
<!-- Node1&#45;&gt;Node7 -->
<g id="edge8_Node000001_Node000007" class="edge">
<title>Node1&#45;&gt;Node7</title>
<g id="a_edge8_Node000001_Node000007"><a xlink:title=" ">
<path fill="none" stroke="#63b8ff" d="M202.86,-158.28C212.8,-150.17 224.66,-139.67 234,-129 249.67,-111.1 264.07,-86.98 271.24,-74.23"/>
<polygon fill="#63b8ff" stroke="#63b8ff" points="200.38,-155.78 194.74,-164.75 204.74,-161.26 200.38,-155.78"/>
</a>
</g>
</g>
<!-- Node4 -->
<g id="Node000004" class="node">
<title>Node4</title>
<g id="a_Node000004"><a xlink:href="numerics_8cpp.html" target="_top" xlink:title="numerics external template instantiations">
<polygon fill="white" stroke="#666666" points="82,-74 0,-74 0,-55 82,-55 82,-74"/>
<text text-anchor="middle" x="41" y="-62" font-family="Helvetica,sans-Serif" font-size="10.00">numerics.cpp</text>
</a>
</g>
</g>
<!-- Node3&#45;&gt;Node4 -->
<g id="edge3_Node000003_Node000004" class="edge">
<title>Node3&#45;&gt;Node4</title>
<g id="a_edge3_Node000003_Node000004"><a xlink:title=" ">
<path fill="none" stroke="#63b8ff" d="M150.64,-106.42C124.29,-96.59 87.74,-82.95 64.23,-74.17"/>
<polygon fill="#63b8ff" stroke="#63b8ff" points="149.59,-109.77 160.19,-109.98 152.04,-103.21 149.59,-109.77"/>
</a>
</g>
</g>
<!-- Node5 -->
<g id="Node000005" class="node">
<title>Node5</title>
<g id="a_Node000005"><a xlink:href="simd_8hpp.html" target="_top" xlink:title=" ">
<polygon fill="white" stroke="#666666" points="177,-19 115,-19 115,0 177,0 177,-19"/>
<text text-anchor="middle" x="146" y="-7" font-family="Helvetica,sans-Serif" font-size="10.00">simd.hpp</text>
</a>
</g>
</g>
<!-- Node3&#45;&gt;Node5 -->
<g id="edge4_Node000003_Node000005" class="edge">
<title>Node3&#45;&gt;Node5</title>
<g id="a_edge4_Node000003_Node000005"><a xlink:title=" ">
<path fill="none" stroke="#63b8ff" d="M157.75,-104.24C147.09,-96.75 135.83,-86.51 130,-74 121.35,-55.45 132.78,-31.59 140.32,-19.06"/>
<polygon fill="#63b8ff" stroke="#63b8ff" points="156.12,-107.36 166.42,-109.87 159.94,-101.49 156.12,-107.36"/>
</a>
</g>
</g>
<!-- Node6 -->
<g id="Node000006" class="node">
<title>Node6</title>
<g id="a_Node000006"><a xlink:href="simd__data_8hpp.html" target="_top" xlink:title=" ">
<polygon fill="white" stroke="#666666" points="227.5,-74 138.5,-74 138.5,-55 227.5,-55 227.5,-74"/>
<text text-anchor="middle" x="183" y="-62" font-family="Helvetica,sans-Serif" font-size="10.00">simd_data.hpp</text>
</a>
</g>
</g>
<!-- Node3&#45;&gt;Node6 -->
<g id="edge5_Node000003_Node000006" class="edge">
<title>Node3&#45;&gt;Node6</title>
<g id="a_edge5_Node000003_Node000006"><a xlink:title=" ">
<path fill="none" stroke="#63b8ff" d="M183,-99.66C183,-90.93 183,-80.99 183,-74.09"/>
<polygon fill="#63b8ff" stroke="#63b8ff" points="179.5,-99.75 183,-109.75 186.5,-99.75 179.5,-99.75"/>
</a>
</g>
</g>
<!-- Node3&#45;&gt;Node7 -->
<g id="edge7_Node000003_Node000007" class="edge">
<title>Node3&#45;&gt;Node7</title>
<g id="a_edge7_Node000003_Node000007"><a xlink:title=" ">
<path fill="none" stroke="#63b8ff" d="M206.75,-104.97C223.75,-95.28 246.13,-82.52 260.79,-74.17"/>
<polygon fill="#63b8ff" stroke="#63b8ff" points="204.9,-101.99 197.94,-109.98 208.36,-108.07 204.9,-101.99"/>
</a>
</g>
</g>
<!-- Node6&#45;&gt;Node5 -->
<g id="edge6_Node000006_Node000005" class="edge">
<title>Node6&#45;&gt;Node5</title>
<g id="a_edge6_Node000006_Node000005"><a xlink:title=" ">
<path fill="none" stroke="#63b8ff" d="M171.05,-46.39C164.69,-37.27 157.13,-26.45 152,-19.09"/>
<polygon fill="#63b8ff" stroke="#63b8ff" points="168.3,-48.55 176.89,-54.75 174.04,-44.55 168.3,-48.55"/>
</a>
</g>
</g>
</g>
</svg>
