<?xml version="1.0" encoding="UTF-8" standalone="no"?>
<!DOCTYPE svg PUBLIC "-//W3C//DTD SVG 1.1//EN"
 "http://www.w3.org/Graphics/SVG/1.1/DTD/svg11.dtd">
<!-- Generated by graphviz version 2.42.4 (0)
 -->
<!-- Title: fp16.hpp Pages: 1 -->
<svg width="348pt" height="82pt"
 viewBox="0.00 0.00 348.00 82.00" xmlns="http://www.w3.org/2000/svg" xmlns:xlink="http://www.w3.org/1999/xlink">
<g id="graph0" class="graph" transform="scale(1 1) rotate(0) translate(4 78)">
<title>fp16.hpp</title>
<!-- Node1 -->
<g id="Node000001" class="node">
<title>Node1</title>
<g id="a_Node000001"><a xlink:title=" ">
<polygon fill="#999999" stroke="#666666" points="179,-74 120,-74 120,-55 179,-55 179,-74"/>
<text text-anchor="middle" x="149.5" y="-62" font-family="Helvetica,sans-Serif" font-size="10.00">fp16.hpp</text>
</a>
</g>
</g>
<!-- Node2 -->
<g id="Node000002" class="node">
<title>Node2</title>
<g id="a_Node000002"><a xlink:title=" ">
<polygon fill="#e0e0e0" stroke="#999999" points="29,-19 0,-19 0,0 29,0 29,-19"/>
<text text-anchor="middle" x="14.5" y="-7" font-family="Helvetica,sans-Serif" font-size="10.00">bit</text>
</a>
</g>
</g>
<!-- Node1&#45;&gt;Node2 -->
<g id="edge1_Node000001_Node000002" class="edge">
<title>Node1&#45;&gt;Node2</title>
<g id="a_edge1_Node000001_Node000002"><a xlink:title=" ">
<path fill="none" stroke="#63b8ff" d="M127.81,-54.98C103.44,-45.42 63.99,-29.93 38.65,-19.98"/>
<polygon fill="#63b8ff" stroke="#63b8ff" points="39.65,-16.61 29.06,-16.22 37.09,-23.13 39.65,-16.61"/>
</a>
</g>
</g>
<!-- Node3 -->
<g id="Node000003" class="node">
<title>Node3</title>
<g id="a_Node000003"><a xlink:title=" ">
<polygon fill="#e0e0e0" stroke="#999999" points="106,-19 47,-19 47,0 106,0 106,-19"/>
<text text-anchor="middle" x="76.5" y="-7" font-family="Helvetica,sans-Serif" font-size="10.00">compare</text>
</a>
</g>
</g>
<!-- Node1&#45;&gt;Node3 -->
<g id="edge2_Node000001_Node000003" class="edge">
<title>Node1&#45;&gt;Node3</title>
<g id="a_edge2_Node000001_Node000003"><a xlink:title=" ">
<path fill="none" stroke="#63b8ff" d="M137.77,-54.98C126.77,-47 110.08,-34.88 96.9,-25.31"/>
<polygon fill="#63b8ff" stroke="#63b8ff" points="98.59,-22.21 88.44,-19.17 94.48,-27.88 98.59,-22.21"/>
</a>
</g>
</g>
<!-- Node4 -->
<g id="Node000004" class="node">
<title>Node4</title>
<g id="a_Node000004"><a xlink:title=" ">
<polygon fill="#e0e0e0" stroke="#999999" points="174.5,-19 124.5,-19 124.5,0 174.5,0 174.5,-19"/>
<text text-anchor="middle" x="149.5" y="-7" font-family="Helvetica,sans-Serif" font-size="10.00">cstdint</text>
</a>
</g>
</g>
<!-- Node1&#45;&gt;Node4 -->
<g id="edge3_Node000001_Node000004" class="edge">
<title>Node1&#45;&gt;Node4</title>
<g id="a_edge3_Node000001_Node000004"><a xlink:title=" ">
<path fill="none" stroke="#63b8ff" d="M149.5,-54.75C149.5,-47.8 149.5,-37.85 149.5,-29.13"/>
<polygon fill="#63b8ff" stroke="#63b8ff" points="153,-29.09 149.5,-19.09 146,-29.09 153,-29.09"/>
</a>
</g>
</g>
<!-- Node5 -->
<g id="Node000005" class="node">
<title>Node5</title>
<g id="a_Node000005"><a xlink:title=" ">
<polygon fill="#e0e0e0" stroke="#999999" points="236.5,-19 192.5,-19 192.5,0 236.5,0 236.5,-19"/>
<text text-anchor="middle" x="214.5" y="-7" font-family="Helvetica,sans-Serif" font-size="10.00">limits</text>
</a>
</g>
</g>
<!-- Node1&#45;&gt;Node5 -->
<g id="edge4_Node000001_Node000005" class="edge">
<title>Node1&#45;&gt;Node5</title>
<g id="a_edge4_Node000001_Node000005"><a xlink:title=" ">
<path fill="none" stroke="#63b8ff" d="M159.94,-54.98C169.65,-47.07 184.32,-35.11 196,-25.58"/>
<polygon fill="#63b8ff" stroke="#63b8ff" points="198.33,-28.2 203.87,-19.17 193.9,-22.78 198.33,-28.2"/>
</a>
</g>
</g>
<!-- Node6 -->
<g id="Node000006" class="node">
<title>Node6</title>
<g id="a_Node000006"><a xlink:href="attributes_8hpp.html" target="_top" xlink:title="an opinionated subset of clang/gcc attributes">
<polygon fill="white" stroke="#666666" points="340,-19 255,-19 255,0 340,0 340,-19"/>
<text text-anchor="middle" x="297.5" y="-7" font-family="Helvetica,sans-Serif" font-size="10.00">attributes.hpp</text>
</a>
</g>
</g>
<!-- Node1&#45;&gt;Node6 -->
<g id="edge5_Node000001_Node000006" class="edge">
<title>Node1&#45;&gt;Node6</title>
<g id="a_edge5_Node000001_Node000006"><a xlink:title=" ">
<path fill="none" stroke="#63b8ff" d="M173.28,-54.98C197.73,-46.23 236.03,-32.51 263.65,-22.62"/>
<polygon fill="#63b8ff" stroke="#63b8ff" points="265.05,-25.84 273.29,-19.17 262.69,-19.25 265.05,-25.84"/>
</a>
</g>
</g>
</g>
</svg>
