<?xml version="1.0" encoding="UTF-8" standalone="no"?>
<!DOCTYPE svg PUBLIC "-//W3C//DTD SVG 1.1//EN"
 "http://www.w3.org/Graphics/SVG/1.1/DTD/svg11.dtd">
<!-- Generated by graphviz version 2.42.4 (0)
 -->
<!-- Title: Attributes Pages: 1 -->
<svg width="249pt" height="656pt"
 viewBox="0.00 0.00 249.00 656.00" xmlns="http://www.w3.org/2000/svg" xmlns:xlink="http://www.w3.org/1999/xlink">
<g id="graph0" class="graph" transform="scale(1 1) rotate(0) translate(4 652)">
<title>Attributes</title>
<!-- Node12 -->
<g id="Node000012" class="node">
<title>Node12</title>
<g id="a_Node000012"><a xlink:href="group__alignment__attributes.html" target="_top" xlink:title=" ">
<polygon fill="white" stroke="#666666" points="226,-648 116,-648 116,-629 226,-629 226,-648"/>
<text text-anchor="middle" x="171" y="-636" font-family="Helvetica,sans-Serif" font-size="10.00">Memory Alignment</text>
</a>
</g>
</g>
<!-- Node13 -->
<g id="Node000013" class="node">
<title>Node13</title>
<g id="a_Node000013"><a xlink:href="group__allocation__attributes.html" target="_top" xlink:title=" ">
<polygon fill="white" stroke="#666666" points="225.5,-611 116.5,-611 116.5,-592 225.5,-592 225.5,-611"/>
<text text-anchor="middle" x="171" y="-599" font-family="Helvetica,sans-Serif" font-size="10.00">Memory Allocation</text>
</a>
</g>
</g>
<!-- Node3 -->
<g id="Node000003" class="node">
<title>Node3</title>
<g id="a_Node000003"><a xlink:href="group__attribute__detection.html" target="_top" xlink:title=" ">
<polygon fill="white" stroke="#666666" points="226,-574 116,-574 116,-555 226,-555 226,-574"/>
<text text-anchor="middle" x="171" y="-562" font-family="Helvetica,sans-Serif" font-size="10.00">Attribute Detection</text>
</a>
</g>
</g>
<!-- Node1 -->
<g id="Node000001" class="node">
<title>Node1</title>
<g id="a_Node000001"><a xlink:title="macros used to provide useful attributes">
<polygon fill="#999999" stroke="#666666" points="65,-333 0,-333 0,-314 65,-314 65,-333"/>
<text text-anchor="middle" x="32.5" y="-321" font-family="Helvetica,sans-Serif" font-size="10.00">Attributes</text>
</a>
</g>
</g>
<!-- Node1&#45;&gt;Node12 -->
<g id="edge11" class="edge">
<title>Node1&#45;&gt;Node12</title>
<path fill="none" stroke="black" d="M35.31,-342.97C41.24,-402.45 61.94,-580.18 101,-620.5 105.22,-624.86 110.35,-628.21 115.9,-630.77"/>
<polygon fill="black" stroke="black" points="38.8,-342.63 34.35,-333.01 31.83,-343.3 38.8,-342.63"/>
</g>
<!-- Node1&#45;&gt;Node13 -->
<g id="edge12" class="edge">
<title>Node1&#45;&gt;Node13</title>
<path fill="none" stroke="black" d="M36.04,-343.35C43.44,-398.04 66.62,-549.08 101,-583.5 105.37,-587.88 110.67,-591.24 116.37,-593.8"/>
<polygon fill="black" stroke="black" points="39.49,-342.68 34.71,-333.22 32.55,-343.6 39.49,-342.68"/>
</g>
<!-- Node1&#45;&gt;Node3 -->
<g id="edge2" class="edge">
<title>Node1&#45;&gt;Node3</title>
<path fill="none" stroke="black" d="M33.42,-343.31C34.36,-386.69 42.93,-490.64 101,-546.5 105.28,-550.62 110.38,-553.83 115.85,-556.32"/>
<polygon fill="black" stroke="black" points="36.92,-343.18 33.32,-333.21 29.92,-343.25 36.92,-343.18"/>
</g>
<!-- Node2 -->
<g id="Node000002" class="node">
<title>Node2</title>
<g id="a_Node000002"><a xlink:href="group__calling__convention__attributes.html" target="_top" xlink:title=" ">
<polygon fill="white" stroke="#666666" points="228,-537 114,-537 114,-518 228,-518 228,-537"/>
<text text-anchor="middle" x="171" y="-525" font-family="Helvetica,sans-Serif" font-size="10.00">Calling Conventions</text>
</a>
</g>
</g>
<!-- Node1&#45;&gt;Node2 -->
<g id="edge1" class="edge">
<title>Node1&#45;&gt;Node2</title>
<path fill="none" stroke="black" d="M34.85,-343.62C38.51,-381.78 51.98,-464.84 101,-509.5 104.75,-512.92 109.07,-515.7 113.68,-517.97"/>
<polygon fill="black" stroke="black" points="38.31,-342.99 34,-333.31 31.33,-343.56 38.31,-342.99"/>
</g>
<!-- Node9 -->
<g id="Node000009" class="node">
<title>Node9</title>
<g id="a_Node000009"><a xlink:href="group__control__flow__attributes.html" target="_top" xlink:title=" ">
<polygon fill="white" stroke="#666666" points="210,-500 132,-500 132,-481 210,-481 210,-500"/>
<text text-anchor="middle" x="171" y="-488" font-family="Helvetica,sans-Serif" font-size="10.00">Control Flow</text>
</a>
</g>
</g>
<!-- Node1&#45;&gt;Node9 -->
<g id="edge8" class="edge">
<title>Node1&#45;&gt;Node9</title>
<path fill="none" stroke="black" d="M36.81,-343.16C43.27,-375.19 60.6,-438.45 101,-472.5 109.61,-479.76 120.82,-484.13 131.69,-486.75"/>
<polygon fill="black" stroke="black" points="40.24,-342.43 34.97,-333.24 33.36,-343.71 40.24,-342.43"/>
</g>
<!-- Node10 -->
<g id="Node000010" class="node">
<title>Node10</title>
<g id="a_Node000010"><a xlink:href="group__cuda__attributes.html" target="_top" xlink:title=" ">
<polygon fill="white" stroke="#666666" points="193.5,-463 148.5,-463 148.5,-444 193.5,-444 193.5,-463"/>
<text text-anchor="middle" x="171" y="-451" font-family="Helvetica,sans-Serif" font-size="10.00">CUDA</text>
</a>
</g>
</g>
<!-- Node1&#45;&gt;Node10 -->
<g id="edge9" class="edge">
<title>Node1&#45;&gt;Node10</title>
<path fill="none" stroke="black" d="M39.8,-342.52C49.12,-367.68 69.02,-411.6 101,-435.5 114.69,-445.73 133.67,-450.16 148.26,-452.07"/>
<polygon fill="black" stroke="black" points="43.07,-341.27 36.45,-333 36.47,-343.6 43.07,-341.27"/>
</g>
<!-- Node11 -->
<g id="Node000011" class="node">
<title>Node11</title>
<g id="a_Node000011"><a xlink:href="group__handle__attributes.html" target="_top" xlink:title=" ">
<polygon fill="white" stroke="#666666" points="199,-426 143,-426 143,-407 199,-407 199,-426"/>
<text text-anchor="middle" x="171" y="-414" font-family="Helvetica,sans-Serif" font-size="10.00">Handles</text>
</a>
</g>
</g>
<!-- Node1&#45;&gt;Node11 -->
<g id="edge10" class="edge">
<title>Node1&#45;&gt;Node11</title>
<path fill="none" stroke="black" d="M45.26,-341.8C57.24,-358.99 77.39,-384.13 101,-398.5 113.59,-406.16 129.38,-410.59 142.68,-413.13"/>
<polygon fill="black" stroke="black" points="47.95,-339.54 39.47,-333.2 42.14,-343.45 47.95,-339.54"/>
</g>
<!-- Node8 -->
<g id="Node000008" class="node">
<title>Node8</title>
<g id="a_Node000008"><a xlink:href="group__initialization__attributes.html" target="_top" xlink:title=" ">
<polygon fill="white" stroke="#666666" points="209.5,-389 132.5,-389 132.5,-370 209.5,-370 209.5,-389"/>
<text text-anchor="middle" x="171" y="-377" font-family="Helvetica,sans-Serif" font-size="10.00">Initialization</text>
</a>
</g>
</g>
<!-- Node1&#45;&gt;Node8 -->
<g id="edge7" class="edge">
<title>Node1&#45;&gt;Node8</title>
<path fill="none" stroke="black" d="M56.52,-338.42C69.24,-346.15 85.55,-355.26 101,-361.5 110.87,-365.49 121.9,-368.83 132.19,-371.51"/>
<polygon fill="black" stroke="black" points="58.3,-335.41 47.96,-333.1 54.6,-341.35 58.3,-335.41"/>
</g>
<!-- Node6 -->
<g id="Node000006" class="node">
<title>Node6</title>
<g id="a_Node000006"><a xlink:href="group__inlining__attributes.html" target="_top" xlink:title=" ">
<polygon fill="white" stroke="#666666" points="216.5,-352 125.5,-352 125.5,-333 216.5,-333 216.5,-352"/>
<text text-anchor="middle" x="171" y="-340" font-family="Helvetica,sans-Serif" font-size="10.00">Inlining Control</text>
</a>
</g>
</g>
<!-- Node1&#45;&gt;Node6 -->
<g id="edge5" class="edge">
<title>Node1&#45;&gt;Node6</title>
<path fill="none" stroke="black" d="M75.21,-329.31C91.07,-331.51 109.2,-334.04 125.33,-336.28"/>
<polygon fill="black" stroke="black" points="75.55,-325.82 65.16,-327.91 74.58,-332.75 75.55,-325.82"/>
</g>
<!-- Node5 -->
<g id="Node000005" class="node">
<title>Node5</title>
<g id="a_Node000005"><a xlink:href="group__lifetime__attributes.html" target="_top" xlink:title=" ">
<polygon fill="white" stroke="#666666" points="219.5,-315 122.5,-315 122.5,-296 219.5,-296 219.5,-315"/>
<text text-anchor="middle" x="171" y="-303" font-family="Helvetica,sans-Serif" font-size="10.00">Object Lifetimes</text>
</a>
</g>
</g>
<!-- Node1&#45;&gt;Node5 -->
<g id="edge4" class="edge">
<title>Node1&#45;&gt;Node5</title>
<path fill="none" stroke="black" d="M75.14,-318.01C90.08,-316.04 107.04,-313.8 122.45,-311.77"/>
<polygon fill="black" stroke="black" points="74.62,-314.55 65.16,-319.33 75.53,-321.49 74.62,-314.55"/>
</g>
<!-- Node7 -->
<g id="Node000007" class="node">
<title>Node7</title>
<g id="a_Node000007"><a xlink:href="group__linkage__attributes.html" target="_top" xlink:title=" ">
<polygon fill="white" stroke="#666666" points="217,-278 125,-278 125,-259 217,-259 217,-278"/>
<text text-anchor="middle" x="171" y="-266" font-family="Helvetica,sans-Serif" font-size="10.00">Linkage Control</text>
</a>
</g>
</g>
<!-- Node1&#45;&gt;Node7 -->
<g id="edge6" class="edge">
<title>Node1&#45;&gt;Node7</title>
<path fill="none" stroke="black" d="M58.02,-308.73C70.56,-301.62 86.25,-293.38 101,-287.5 110,-283.91 119.92,-280.75 129.37,-278.08"/>
<polygon fill="black" stroke="black" points="56.01,-305.85 49.12,-313.89 59.52,-311.9 56.01,-305.85"/>
</g>
<!-- Node14 -->
<g id="Node000014" class="node">
<title>Node14</title>
<g id="a_Node000014"><a xlink:href="group__null__safety__attributes.html" target="_top" xlink:title=" ">
<polygon fill="white" stroke="#666666" points="206.5,-241 135.5,-241 135.5,-222 206.5,-222 206.5,-241"/>
<text text-anchor="middle" x="171" y="-229" font-family="Helvetica,sans-Serif" font-size="10.00">Null Safety</text>
</a>
</g>
</g>
<!-- Node1&#45;&gt;Node14 -->
<g id="edge13" class="edge">
<title>Node1&#45;&gt;Node14</title>
<path fill="none" stroke="black" d="M45.6,-305.49C57.72,-288.83 77.86,-264.58 101,-250.5 111.4,-244.17 123.95,-239.9 135.48,-237.05"/>
<polygon fill="black" stroke="black" points="42.61,-303.66 39.73,-313.85 48.34,-307.68 42.61,-303.66"/>
</g>
<!-- Node15 -->
<g id="Node000015" class="node">
<title>Node15</title>
<g id="a_Node000015"><a xlink:href="group__performance__constraint__attributes.html" target="_top" xlink:title=" ">
<polygon fill="white" stroke="#666666" points="239.5,-204 102.5,-204 102.5,-185 239.5,-185 239.5,-204"/>
<text text-anchor="middle" x="171" y="-192" font-family="Helvetica,sans-Serif" font-size="10.00">Performance Constraints</text>
</a>
</g>
</g>
<!-- Node1&#45;&gt;Node15 -->
<g id="edge14" class="edge">
<title>Node1&#45;&gt;Node15</title>
<path fill="none" stroke="black" d="M40.21,-304.18C49.8,-279.43 69.8,-236.95 101,-213.5 106.16,-209.62 112.08,-206.53 118.22,-204.07"/>
<polygon fill="black" stroke="black" points="36.81,-303.28 36.63,-313.88 43.38,-305.71 36.81,-303.28"/>
</g>
<!-- Node4 -->
<g id="Node000004" class="node">
<title>Node4</title>
<g id="a_Node000004"><a xlink:href="group__purity__attributes.html" target="_top" xlink:title=" ">
<polygon fill="white" stroke="#666666" points="193.5,-167 148.5,-167 148.5,-148 193.5,-148 193.5,-167"/>
<text text-anchor="middle" x="171" y="-155" font-family="Helvetica,sans-Serif" font-size="10.00">Purity</text>
</a>
</g>
</g>
<!-- Node1&#45;&gt;Node4 -->
<g id="edge3" class="edge">
<title>Node1&#45;&gt;Node4</title>
<path fill="none" stroke="black" d="M37.03,-303.74C43.74,-272.1 61.36,-210.19 101,-176.5 114.16,-165.31 133.37,-160.67 148.18,-158.77"/>
<polygon fill="black" stroke="black" points="33.53,-303.44 35.04,-313.92 40.4,-304.79 33.53,-303.44"/>
</g>
<!-- Node16 -->
<g id="Node000016" class="node">
<title>Node16</title>
<g id="a_Node000016"><a xlink:href="group__string__safety__attributes.html" target="_top" xlink:title=" ">
<polygon fill="white" stroke="#666666" points="211,-130 131,-130 131,-111 211,-111 211,-130"/>
<text text-anchor="middle" x="171" y="-118" font-family="Helvetica,sans-Serif" font-size="10.00">String Safety</text>
</a>
</g>
</g>
<!-- Node1&#45;&gt;Node16 -->
<g id="edge15" class="edge">
<title>Node1&#45;&gt;Node16</title>
<path fill="none" stroke="black" d="M34.97,-303.65C38.85,-266 52.67,-183.98 101,-139.5 109.23,-131.93 120.2,-127.33 130.97,-124.55"/>
<polygon fill="black" stroke="black" points="31.47,-303.55 34.06,-313.82 38.44,-304.18 31.47,-303.55"/>
</g>
<!-- Node17 -->
<g id="Node000017" class="node">
<title>Node17</title>
<g id="a_Node000017"><a xlink:href="group__target__attributes.html" target="_top" xlink:title=" ">
<polygon fill="white" stroke="#666666" points="241,-93 101,-93 101,-74 241,-74 241,-93"/>
<text text-anchor="middle" x="171" y="-81" font-family="Helvetica,sans-Serif" font-size="10.00">Function Multi&#45;Versioning</text>
</a>
</g>
</g>
<!-- Node1&#45;&gt;Node17 -->
<g id="edge16" class="edge">
<title>Node1&#45;&gt;Node17</title>
<path fill="none" stroke="black" d="M33.54,-303.64C34.75,-260.6 43.84,-158.1 101,-102.5 105.01,-98.6 109.74,-95.49 114.82,-93"/>
<polygon fill="black" stroke="black" points="30.04,-303.85 33.38,-313.9 37.04,-303.96 30.04,-303.85"/>
</g>
<!-- Node18 -->
<g id="Node000018" class="node">
<title>Node18</title>
<g id="a_Node000018"><a xlink:href="group__thread__safety__attributes.html" target="_top" xlink:title=" ">
<polygon fill="white" stroke="#666666" points="213.5,-56 128.5,-56 128.5,-37 213.5,-37 213.5,-56"/>
<text text-anchor="middle" x="171" y="-44" font-family="Helvetica,sans-Serif" font-size="10.00">Thread Safety</text>
</a>
</g>
</g>
<!-- Node1&#45;&gt;Node18 -->
<g id="edge17" class="edge">
<title>Node1&#45;&gt;Node18</title>
<path fill="none" stroke="black" d="M36.09,-303.82C43.61,-249.61 67.06,-99.87 101,-65.5 108.33,-58.07 118.28,-53.47 128.34,-50.65"/>
<polygon fill="black" stroke="black" points="32.6,-303.48 34.73,-313.86 39.54,-304.42 32.6,-303.48"/>
</g>
<!-- Node19 -->
<g id="Node000019" class="node">
<title>Node19</title>
<g id="a_Node000019"><a xlink:href="group__typestate__analysis.html" target="_top" xlink:title=" ">
<polygon fill="white" stroke="#666666" points="225,-19 117,-19 117,0 225,0 225,-19"/>
<text text-anchor="middle" x="171" y="-7" font-family="Helvetica,sans-Serif" font-size="10.00">Typestate Analysis</text>
</a>
</g>
</g>
<!-- Node1&#45;&gt;Node19 -->
<g id="edge18" class="edge">
<title>Node1&#45;&gt;Node19</title>
<path fill="none" stroke="black" d="M35.4,-303.79C41.5,-244.38 62.52,-68.7 101,-28.5 105.47,-23.83 110.97,-20.28 116.9,-17.57"/>
<polygon fill="black" stroke="black" points="31.91,-303.46 34.4,-313.76 38.88,-304.16 31.91,-303.46"/>
</g>
</g>
</svg>
