<?xml version="1.0" encoding="UTF-8" standalone="no"?>
<!DOCTYPE svg PUBLIC "-//W3C//DTD SVG 1.1//EN"
 "http://www.w3.org/Graphics/SVG/1.1/DTD/svg11.dtd">
<!-- Generated by graphviz version 2.42.4 (0)
 -->
<!-- Title: Attributes Pages: 1 -->
<!--zoomable 730 -->

<svg id="main" version="1.1" xmlns="http://www.w3.org/2000/svg" xmlns:xlink="http://www.w3.org/1999/xlink" xml:space="preserve" onload="init(evt)">

<style type="text/css"><![CDATA[
.node, .edge {opacity: 0.7;}
.node.selected, .edge.selected {opacity: 1;}
.edge:hover path { stroke: red; }
.edge:hover polygon { stroke: red; fill: red; }
]]></style>

<defs>
  <circle id="rim" cx="0" cy="0" r="7"/>
  <circle id="rim2" cx="0" cy="0" r="3.5"/>
  <g id="zoomPlus">
    <use xlink:href="#rim" fill="#404040"><set attributeName="fill" to="#808080" begin="zoomplus.mouseover" end="zoomplus.mouseout"/></use>
    <path d="M-4,0h8M0,-4v8" fill="none" stroke="white" stroke-width="1.5" pointer-events="none"/>
  </g>
  <g id="zoomMin">
    <use xlink:href="#rim" fill="#404040"><set attributeName="fill" to="#808080" begin="zoomminus.mouseover" end="zoomminus.mouseout"/></use>
    <path d="M-4,0h8" fill="none" stroke="white" stroke-width="1.5" pointer-events="none"/>
  </g>
  <g id="arrowUp" transform="translate(30 24)">
    <use xlink:href="#rim"/>
    <path pointer-events="none" fill="none" stroke="white" stroke-width="1.5" d="M0,-3.0v7 M-2.5,-0.5L0,-3.0L2.5,-0.5"/>
  </g>
  <g id="arrowRight" transform="rotate(90) translate(36 -43)">
    <use xlink:href="#rim"/>
    <path pointer-events="none" fill="none" stroke="white" stroke-width="1.5" d="M0,-3.0v7 M-2.5,-0.5L0,-3.0L2.5,-0.5"/>
  </g>
  <g id="arrowDown" transform="rotate(180) translate(-30 -48)">
    <use xlink:href="#rim"/>
    <path pointer-events="none" fill="none" stroke="white" stroke-width="1.5" d="M0,-3.0v7 M-2.5,-0.5L0,-3.0L2.5,-0.5"/>
  </g>
  <g id="arrowLeft" transform="rotate(270) translate(-36 17)">
    <use xlink:href="#rim"/>
    <path pointer-events="none" fill="none" stroke="white" stroke-width="1.5" d="M0,-3.0v7 M-2.5,-0.5L0,-3.0L2.5,-0.5"/>
  </g>
  <g id="resetDef">
    <use xlink:href="#rim2" fill="#404040"><set attributeName="fill" to="#808080" begin="reset.mouseover" end="reset.mouseout"/></use>
  </g>
</defs>
<script type="application/ecmascript">
var viewWidth = 249;
var viewHeight = 730;
var sectionId = 'dynsection-0';
</script>
<script type="application/ecmascript" xlink:href="svg.min.js"/>
<svg id="graph" class="graph">
<g id="viewport">
<title>Attributes</title>
<!-- Node10 -->
<g id="Node000010" class="node">
<title>Node10</title>
<g id="a_Node000010"><a xlink:href="group__aliasing__attributes.html" target="_top" xlink:title=" ">
<polygon fill="white" stroke="#666666" points="218,-722 124,-722 124,-703 218,-703 218,-722"/>
<text text-anchor="middle" x="171" y="-710" font-family="Helvetica,sans-Serif" font-size="10.00">Aliasing Control</text>
</a>
</g>
</g>
<!-- Node13 -->
<g id="Node000013" class="node">
<title>Node13</title>
<g id="a_Node000013"><a xlink:href="group__alignment__attributes.html" target="_top" xlink:title=" ">
<polygon fill="white" stroke="#666666" points="226,-685 116,-685 116,-666 226,-666 226,-685"/>
<text text-anchor="middle" x="171" y="-673" font-family="Helvetica,sans-Serif" font-size="10.00">Memory Alignment</text>
</a>
</g>
</g>
<!-- Node16 -->
<g id="Node000016" class="node">
<title>Node16</title>
<g id="a_Node000016"><a xlink:href="group__allocation__attributes.html" target="_top" xlink:title=" ">
<polygon fill="white" stroke="#666666" points="225.5,-648 116.5,-648 116.5,-629 225.5,-629 225.5,-648"/>
<text text-anchor="middle" x="171" y="-636" font-family="Helvetica,sans-Serif" font-size="10.00">Memory Allocation</text>
</a>
</g>
</g>
<!-- Node2 -->
<g id="Node000002" class="node">
<title>Node2</title>
<g id="a_Node000002"><a xlink:href="group__attribute__detection.html" target="_top" xlink:title=" ">
<polygon fill="white" stroke="#666666" points="226,-611 116,-611 116,-592 226,-592 226,-611"/>
<text text-anchor="middle" x="171" y="-599" font-family="Helvetica,sans-Serif" font-size="10.00">Attribute Detection</text>
</a>
</g>
</g>
<!-- Node1 -->
<g id="Node000001" class="node">
<title>Node1</title>
<g id="a_Node000001"><a xlink:title="macros used to provide useful attributes">
<polygon fill="#999999" stroke="#666666" points="65,-370 0,-370 0,-351 65,-351 65,-370"/>
<text text-anchor="middle" x="32.5" y="-358" font-family="Helvetica,sans-Serif" font-size="10.00">Attributes</text>
</a>
</g>
</g>
<!-- Node1&#45;&gt;Node10 -->
<g id="edge9" class="edge">
<title>Node1&#45;&gt;Node10</title>
<path fill="none" stroke="black" d="M34.8,-380.25C39.46,-444.85 57.38,-648.38 101,-694.5 107.12,-700.98 115.26,-705.23 123.8,-708.01"/>
<polygon fill="black" stroke="black" points="38.29,-379.91 34.1,-370.18 31.3,-380.4 38.29,-379.91"/>
</g>
<!-- Node1&#45;&gt;Node13 -->
<g id="edge12" class="edge">
<title>Node1&#45;&gt;Node13</title>
<path fill="none" stroke="black" d="M35.31,-379.97C41.24,-439.45 61.94,-617.18 101,-657.5 105.22,-661.86 110.35,-665.21 115.9,-667.77"/>
<polygon fill="black" stroke="black" points="38.8,-379.63 34.35,-370.01 31.83,-380.3 38.8,-379.63"/>
</g>
<!-- Node1&#45;&gt;Node16 -->
<g id="edge15" class="edge">
<title>Node1&#45;&gt;Node16</title>
<path fill="none" stroke="black" d="M36.04,-380.35C43.44,-435.04 66.62,-586.08 101,-620.5 105.37,-624.88 110.67,-628.24 116.37,-630.8"/>
<polygon fill="black" stroke="black" points="39.49,-379.68 34.71,-370.22 32.55,-380.6 39.49,-379.68"/>
</g>
<!-- Node1&#45;&gt;Node2 -->
<g id="edge1" class="edge">
<title>Node1&#45;&gt;Node2</title>
<path fill="none" stroke="black" d="M33.42,-380.31C34.36,-423.69 42.93,-527.64 101,-583.5 105.28,-587.62 110.38,-590.83 115.85,-593.32"/>
<polygon fill="black" stroke="black" points="36.92,-380.18 33.32,-370.21 29.92,-380.25 36.92,-380.18"/>
</g>
<!-- Node5 -->
<g id="Node000005" class="node">
<title>Node5</title>
<g id="a_Node000005"><a xlink:href="group__calling__convention__attributes.html" target="_top" xlink:title=" ">
<polygon fill="white" stroke="#666666" points="228,-574 114,-574 114,-555 228,-555 228,-574"/>
<text text-anchor="middle" x="171" y="-562" font-family="Helvetica,sans-Serif" font-size="10.00">Calling Conventions</text>
</a>
</g>
</g>
<!-- Node1&#45;&gt;Node5 -->
<g id="edge4" class="edge">
<title>Node1&#45;&gt;Node5</title>
<path fill="none" stroke="black" d="M34.85,-380.62C38.51,-418.78 51.98,-501.84 101,-546.5 104.75,-549.92 109.07,-552.7 113.68,-554.97"/>
<polygon fill="black" stroke="black" points="38.31,-379.99 34,-370.31 31.33,-380.56 38.31,-379.99"/>
</g>
<!-- Node17 -->
<g id="Node000017" class="node">
<title>Node17</title>
<g id="a_Node000017"><a xlink:href="group__control__flow__attributes.html" target="_top" xlink:title=" ">
<polygon fill="white" stroke="#666666" points="210,-537 132,-537 132,-518 210,-518 210,-537"/>
<text text-anchor="middle" x="171" y="-525" font-family="Helvetica,sans-Serif" font-size="10.00">Control Flow</text>
</a>
</g>
</g>
<!-- Node1&#45;&gt;Node17 -->
<g id="edge16" class="edge">
<title>Node1&#45;&gt;Node17</title>
<path fill="none" stroke="black" d="M36.81,-380.16C43.27,-412.19 60.6,-475.45 101,-509.5 109.61,-516.76 120.82,-521.13 131.69,-523.75"/>
<polygon fill="black" stroke="black" points="40.24,-379.43 34.97,-370.24 33.36,-380.71 40.24,-379.43"/>
</g>
<!-- Node19 -->
<g id="Node000019" class="node">
<title>Node19</title>
<g id="a_Node000019"><a xlink:href="group__cuda__attributes.html" target="_top" xlink:title=" ">
<polygon fill="white" stroke="#666666" points="193.5,-500 148.5,-500 148.5,-481 193.5,-481 193.5,-500"/>
<text text-anchor="middle" x="171" y="-488" font-family="Helvetica,sans-Serif" font-size="10.00">CUDA</text>
</a>
</g>
</g>
<!-- Node1&#45;&gt;Node19 -->
<g id="edge18" class="edge">
<title>Node1&#45;&gt;Node19</title>
<path fill="none" stroke="black" d="M39.8,-379.52C49.12,-404.68 69.02,-448.6 101,-472.5 114.69,-482.73 133.67,-487.16 148.26,-489.07"/>
<polygon fill="black" stroke="black" points="43.07,-378.27 36.45,-370 36.47,-380.6 43.07,-378.27"/>
</g>
<!-- Node9 -->
<g id="Node000009" class="node">
<title>Node9</title>
<g id="a_Node000009"><a xlink:href="group__handle__attributes.html" target="_top" xlink:title=" ">
<polygon fill="white" stroke="#666666" points="199,-463 143,-463 143,-444 199,-444 199,-463"/>
<text text-anchor="middle" x="171" y="-451" font-family="Helvetica,sans-Serif" font-size="10.00">Handles</text>
</a>
</g>
</g>
<!-- Node1&#45;&gt;Node9 -->
<g id="edge8" class="edge">
<title>Node1&#45;&gt;Node9</title>
<path fill="none" stroke="black" d="M45.26,-378.8C57.24,-395.99 77.39,-421.13 101,-435.5 113.59,-443.16 129.38,-447.59 142.68,-450.13"/>
<polygon fill="black" stroke="black" points="47.95,-376.54 39.47,-370.2 42.14,-380.45 47.95,-376.54"/>
</g>
<!-- Node11 -->
<g id="Node000011" class="node">
<title>Node11</title>
<g id="a_Node000011"><a xlink:href="group__initialization__attributes.html" target="_top" xlink:title=" ">
<polygon fill="white" stroke="#666666" points="209.5,-426 132.5,-426 132.5,-407 209.5,-407 209.5,-426"/>
<text text-anchor="middle" x="171" y="-414" font-family="Helvetica,sans-Serif" font-size="10.00">Initialization</text>
</a>
</g>
</g>
<!-- Node1&#45;&gt;Node11 -->
<g id="edge10" class="edge">
<title>Node1&#45;&gt;Node11</title>
<path fill="none" stroke="black" d="M56.52,-375.42C69.24,-383.15 85.55,-392.26 101,-398.5 110.87,-402.49 121.9,-405.83 132.19,-408.51"/>
<polygon fill="black" stroke="black" points="58.3,-372.41 47.96,-370.1 54.6,-378.35 58.3,-372.41"/>
</g>
<!-- Node3 -->
<g id="Node000003" class="node">
<title>Node3</title>
<g id="a_Node000003"><a xlink:href="group__inlining__attributes.html" target="_top" xlink:title=" ">
<polygon fill="white" stroke="#666666" points="216.5,-389 125.5,-389 125.5,-370 216.5,-370 216.5,-389"/>
<text text-anchor="middle" x="171" y="-377" font-family="Helvetica,sans-Serif" font-size="10.00">Inlining Control</text>
</a>
</g>
</g>
<!-- Node1&#45;&gt;Node3 -->
<g id="edge2" class="edge">
<title>Node1&#45;&gt;Node3</title>
<path fill="none" stroke="black" d="M75.21,-366.31C91.07,-368.51 109.2,-371.04 125.33,-373.28"/>
<polygon fill="black" stroke="black" points="75.55,-362.82 65.16,-364.91 74.58,-369.75 75.55,-362.82"/>
</g>
<!-- Node15 -->
<g id="Node000015" class="node">
<title>Node15</title>
<g id="a_Node000015"><a xlink:href="group__lifetime__attributes.html" target="_top" xlink:title=" ">
<polygon fill="white" stroke="#666666" points="219.5,-352 122.5,-352 122.5,-333 219.5,-333 219.5,-352"/>
<text text-anchor="middle" x="171" y="-340" font-family="Helvetica,sans-Serif" font-size="10.00">Object Lifetimes</text>
</a>
</g>
</g>
<!-- Node1&#45;&gt;Node15 -->
<g id="edge14" class="edge">
<title>Node1&#45;&gt;Node15</title>
<path fill="none" stroke="black" d="M75.14,-355.01C90.08,-353.04 107.04,-350.8 122.45,-348.77"/>
<polygon fill="black" stroke="black" points="74.62,-351.55 65.16,-356.33 75.53,-358.49 74.62,-351.55"/>
</g>
<!-- Node6 -->
<g id="Node000006" class="node">
<title>Node6</title>
<g id="a_Node000006"><a xlink:href="group__linkage__attributes.html" target="_top" xlink:title=" ">
<polygon fill="white" stroke="#666666" points="217,-315 125,-315 125,-296 217,-296 217,-315"/>
<text text-anchor="middle" x="171" y="-303" font-family="Helvetica,sans-Serif" font-size="10.00">Linkage Control</text>
</a>
</g>
</g>
<!-- Node1&#45;&gt;Node6 -->
<g id="edge5" class="edge">
<title>Node1&#45;&gt;Node6</title>
<path fill="none" stroke="black" d="M58.02,-345.73C70.56,-338.62 86.25,-330.38 101,-324.5 110,-320.91 119.92,-317.75 129.37,-315.08"/>
<polygon fill="black" stroke="black" points="56.01,-342.85 49.12,-350.89 59.52,-348.9 56.01,-342.85"/>
</g>
<!-- Node20 -->
<g id="Node000020" class="node">
<title>Node20</title>
<g id="a_Node000020"><a xlink:href="group__loop__attributes.html" target="_top" xlink:title=" ">
<polygon fill="white" stroke="#666666" points="193.5,-278 148.5,-278 148.5,-259 193.5,-259 193.5,-278"/>
<text text-anchor="middle" x="171" y="-266" font-family="Helvetica,sans-Serif" font-size="10.00">Loops</text>
</a>
</g>
</g>
<!-- Node1&#45;&gt;Node20 -->
<g id="edge19" class="edge">
<title>Node1&#45;&gt;Node20</title>
<path fill="none" stroke="black" d="M45.6,-342.49C57.72,-325.83 77.86,-301.58 101,-287.5 115.44,-278.72 134.01,-273.9 148.25,-271.32"/>
<polygon fill="black" stroke="black" points="42.61,-340.66 39.73,-350.85 48.34,-344.68 42.61,-340.66"/>
</g>
<!-- Node4 -->
<g id="Node000004" class="node">
<title>Node4</title>
<g id="a_Node000004"><a xlink:href="group__multiversioning__attributes.html" target="_top" xlink:title=" ">
<polygon fill="white" stroke="#666666" points="241,-241 101,-241 101,-222 241,-222 241,-241"/>
<text text-anchor="middle" x="171" y="-229" font-family="Helvetica,sans-Serif" font-size="10.00">Function Multi&#45;Versioning</text>
</a>
</g>
</g>
<!-- Node1&#45;&gt;Node4 -->
<g id="edge3" class="edge">
<title>Node1&#45;&gt;Node4</title>
<path fill="none" stroke="black" d="M40.21,-341.18C49.8,-316.43 69.8,-273.95 101,-250.5 106.16,-246.62 112.08,-243.53 118.22,-241.07"/>
<polygon fill="black" stroke="black" points="36.81,-340.28 36.63,-350.88 43.38,-342.71 36.81,-340.28"/>
</g>
<!-- Node18 -->
<g id="Node000018" class="node">
<title>Node18</title>
<g id="a_Node000018"><a xlink:href="group__null__safety__attributes.html" target="_top" xlink:title=" ">
<polygon fill="white" stroke="#666666" points="206.5,-204 135.5,-204 135.5,-185 206.5,-185 206.5,-204"/>
<text text-anchor="middle" x="171" y="-192" font-family="Helvetica,sans-Serif" font-size="10.00">Null Safety</text>
</a>
</g>
</g>
<!-- Node1&#45;&gt;Node18 -->
<g id="edge17" class="edge">
<title>Node1&#45;&gt;Node18</title>
<path fill="none" stroke="black" d="M37.03,-340.74C43.74,-309.1 61.36,-247.19 101,-213.5 110.56,-205.37 123.32,-200.7 135.26,-198.02"/>
<polygon fill="black" stroke="black" points="33.53,-340.44 35.04,-350.92 40.4,-341.79 33.53,-340.44"/>
</g>
<!-- Node21 -->
<g id="Node000021" class="node">
<title>Node21</title>
<g id="a_Node000021"><a xlink:href="group__performance__constraint__attributes.html" target="_top" xlink:title=" ">
<polygon fill="white" stroke="#666666" points="239.5,-167 102.5,-167 102.5,-148 239.5,-148 239.5,-167"/>
<text text-anchor="middle" x="171" y="-155" font-family="Helvetica,sans-Serif" font-size="10.00">Performance Constraints</text>
</a>
</g>
</g>
<!-- Node1&#45;&gt;Node21 -->
<g id="edge20" class="edge">
<title>Node1&#45;&gt;Node21</title>
<path fill="none" stroke="black" d="M34.97,-340.65C38.85,-303 52.67,-220.98 101,-176.5 105.21,-172.63 110.13,-169.54 115.37,-167.07"/>
<polygon fill="black" stroke="black" points="31.47,-340.55 34.06,-350.82 38.44,-341.18 31.47,-340.55"/>
</g>
<!-- Node12 -->
<g id="Node000012" class="node">
<title>Node12</title>
<g id="a_Node000012"><a xlink:href="group__purity__attributes.html" target="_top" xlink:title=" ">
<polygon fill="white" stroke="#666666" points="193.5,-130 148.5,-130 148.5,-111 193.5,-111 193.5,-130"/>
<text text-anchor="middle" x="171" y="-118" font-family="Helvetica,sans-Serif" font-size="10.00">Purity</text>
</a>
</g>
</g>
<!-- Node1&#45;&gt;Node12 -->
<g id="edge11" class="edge">
<title>Node1&#45;&gt;Node12</title>
<path fill="none" stroke="black" d="M33.54,-340.64C34.75,-297.6 43.84,-195.1 101,-139.5 113.56,-127.28 133.21,-122.76 148.34,-121.16"/>
<polygon fill="black" stroke="black" points="30.04,-340.85 33.38,-350.9 37.04,-340.96 30.04,-340.85"/>
</g>
<!-- Node14 -->
<g id="Node000014" class="node">
<title>Node14</title>
<g id="a_Node000014"><a xlink:href="group__string__safety__attributes.html" target="_top" xlink:title=" ">
<polygon fill="white" stroke="#666666" points="211,-93 131,-93 131,-74 211,-74 211,-93"/>
<text text-anchor="middle" x="171" y="-81" font-family="Helvetica,sans-Serif" font-size="10.00">String Safety</text>
</a>
</g>
</g>
<!-- Node1&#45;&gt;Node14 -->
<g id="edge13" class="edge">
<title>Node1&#45;&gt;Node14</title>
<path fill="none" stroke="black" d="M36.09,-340.82C43.61,-286.61 67.06,-136.87 101,-102.5 108.94,-94.45 119.96,-89.73 130.86,-86.98"/>
<polygon fill="black" stroke="black" points="32.6,-340.48 34.73,-350.86 39.54,-341.42 32.6,-340.48"/>
</g>
<!-- Node8 -->
<g id="Node000008" class="node">
<title>Node8</title>
<g id="a_Node000008"><a xlink:href="group__thread__safety__attributes.html" target="_top" xlink:title=" ">
<polygon fill="white" stroke="#666666" points="213.5,-56 128.5,-56 128.5,-37 213.5,-37 213.5,-56"/>
<text text-anchor="middle" x="171" y="-44" font-family="Helvetica,sans-Serif" font-size="10.00">Thread Safety</text>
</a>
</g>
</g>
<!-- Node1&#45;&gt;Node8 -->
<g id="edge7" class="edge">
<title>Node1&#45;&gt;Node8</title>
<path fill="none" stroke="black" d="M35.4,-340.79C41.5,-281.38 62.52,-105.7 101,-65.5 108.22,-57.96 118.13,-53.32 128.19,-50.49"/>
<polygon fill="black" stroke="black" points="31.91,-340.46 34.4,-350.76 38.88,-341.16 31.91,-340.46"/>
</g>
<!-- Node7 -->
<g id="Node000007" class="node">
<title>Node7</title>
<g id="a_Node000007"><a xlink:href="group__typestate__analysis.html" target="_top" xlink:title=" ">
<polygon fill="white" stroke="#666666" points="225,-19 117,-19 117,0 225,0 225,-19"/>
<text text-anchor="middle" x="171" y="-7" font-family="Helvetica,sans-Serif" font-size="10.00">Typestate Analysis</text>
</a>
</g>
</g>
<!-- Node1&#45;&gt;Node7 -->
<g id="edge6" class="edge">
<title>Node1&#45;&gt;Node7</title>
<path fill="none" stroke="black" d="M34.84,-340.89C39.63,-276.75 57.92,-74.62 101,-28.5 105.41,-23.78 110.88,-20.19 116.79,-17.47"/>
<polygon fill="black" stroke="black" points="31.35,-340.66 34.13,-350.89 38.33,-341.17 31.35,-340.66"/>
</g>
</g>
</svg>

<g id="navigator" transform="translate(0 0)" fill="#404254">
  <rect fill="#f2f5e9" fill-opacity="0.5" stroke="#606060" stroke-width=".5" x="0" y="0" width="60" height="60"/>
  <use id="zoomplus" xlink:href="#zoomPlus" x="17" y="9" onmousedown="handleZoom(evt,'in')"/>
  <use id="zoomminus" xlink:href="#zoomMin" x="42" y="9" onmousedown="handleZoom(evt,'out')"/>
  <use id="reset" xlink:href="#resetDef" x="30" y="36" onmousedown="handleReset()"/>
   <use id="arrowup" xlink:href="#arrowUp" x="0" y="0" onmousedown="handlePan(0,-1)"/>
  <use id="arrowright" xlink:href="#arrowRight" x="0" y="0" onmousedown="handlePan(1,0)"/>
  <use id="arrowdown" xlink:href="#arrowDown" x="0" y="0" onmousedown="handlePan(0,1)"/>
  <use id="arrowleft" xlink:href="#arrowLeft" x="0" y="0" onmousedown="handlePan(-1,0)"/>
</g>
<svg viewBox="0 0 15 15" width="100%" height="30px" preserveAspectRatio="xMaxYMin meet">
 <g id="arrow_out" transform="scale(0.3 0.3)">
  <a xlink:href="group__attributes_org.svg" target="_base">
   <rect id="button" ry="5" rx="5" y="6" x="6" height="38" width="38"
        fill="#f2f5e9" fill-opacity="0.5" stroke="#606060" stroke-width="1.0"/>
   <path id="arrow"
     d="M 11.500037,31.436501 C 11.940474,20.09759 22.043105,11.32322 32.158766,21.979434 L 37.068811,17.246167 C 37.068811,17.246167 37.088388,32 37.088388,32 L 22.160133,31.978069 C 22.160133,31.978069 26.997745,27.140456 26.997745,27.140456 C 18.528582,18.264221 13.291696,25.230495 11.500037,31.436501 z"
     style="fill:#404040;"/>
  </a>
 </g>
</svg>

<style type='text/css'>
<![CDATA[
[data-mouse-over-selected='false'] { opacity: 0.7; }
[data-mouse-over-selected='true']  { opacity: 1.0; }
]]>
</style>
<script type="application/ecmascript"><![CDATA[
document.addEventListener('DOMContentLoaded', (event) => {
  highlightEdges();
  highlightAdjacentNodes();
});
]]></script>
</svg>
