<?xml version="1.0" encoding="UTF-8" standalone="no"?>
<!DOCTYPE svg PUBLIC "-//W3C//DTD SVG 1.1//EN"
 "http://www.w3.org/Graphics/SVG/1.1/DTD/svg11.dtd">
<!-- Generated by graphviz version 2.42.4 (0)
 -->
<!-- Title: Graphical Class Hierarchy Pages: 1 -->
<svg width="262pt" height="86pt"
 viewBox="0.00 0.00 262.00 86.00" xmlns="http://www.w3.org/2000/svg" xmlns:xlink="http://www.w3.org/1999/xlink">
<g id="graph0" class="graph" transform="scale(1 1) rotate(0) translate(4 82)">
<title>Graphical Class Hierarchy</title>
<!-- Node0 -->
<g id="Node000000" class="node">
<title>Node0</title>
<g id="a_Node000000"><a xlink:title=" ">
<polygon fill="#e0e0e0" stroke="#999999" points="89,-48.5 0,-48.5 0,-29.5 89,-29.5 89,-48.5"/>
<text text-anchor="middle" x="44.5" y="-36.5" font-family="Helvetica,sans-Serif" font-size="10.00">std::false_type</text>
</a>
</g>
</g>
<!-- Node1 -->
<g id="Node000001" class="node">
<title>Node1</title>
<g id="a_Node000001"><a xlink:href="structein_1_1detail_1_1has__lifted__operations__impl.html" target="_top" xlink:title=" ">
<polygon fill="white" stroke="#666666" points="254,-78 125,-78 125,-48 254,-48 254,-78"/>
<text text-anchor="start" x="133" y="-66" font-family="Helvetica,sans-Serif" font-size="10.00">ein::detail::has_lifted</text>
<text text-anchor="middle" x="189.5" y="-55" font-family="Helvetica,sans-Serif" font-size="10.00">_operations_impl&lt; T &gt;</text>
</a>
</g>
</g>
<!-- Node0&#45;&gt;Node1 -->
<g id="edge2_Node000000_Node000001" class="edge">
<title>Node0&#45;&gt;Node1</title>
<g id="a_edge2_Node000000_Node000001"><a xlink:title=" ">
<path fill="none" stroke="#63b8ff" d="M99.18,-48.01C107.54,-49.41 116.26,-50.88 124.82,-52.31"/>
<polygon fill="#63b8ff" stroke="#63b8ff" points="99.62,-44.53 89.18,-46.33 98.46,-51.44 99.62,-44.53"/>
</a>
</g>
</g>
<!-- Node2 -->
<g id="Node000002" class="node">
<title>Node2</title>
<g id="a_Node000002"><a xlink:href="structein_1_1detail_1_1simd__type__impl.html" target="_top" xlink:title=" ">
<polygon fill="white" stroke="#666666" points="250.5,-30 128.5,-30 128.5,0 250.5,0 250.5,-30"/>
<text text-anchor="start" x="136.5" y="-18" font-family="Helvetica,sans-Serif" font-size="10.00">ein::detail::simd_type</text>
<text text-anchor="middle" x="189.5" y="-7" font-family="Helvetica,sans-Serif" font-size="10.00">_impl&lt; T &gt;</text>
</a>
</g>
</g>
<!-- Node0&#45;&gt;Node2 -->
<g id="edge3_Node000000_Node000002" class="edge">
<title>Node0&#45;&gt;Node2</title>
<g id="a_edge3_Node000000_Node000002"><a xlink:title=" ">
<path fill="none" stroke="#63b8ff" d="M99.31,-29.97C108.84,-28.37 118.81,-26.7 128.5,-25.07"/>
<polygon fill="#63b8ff" stroke="#63b8ff" points="98.46,-26.56 89.18,-31.67 99.62,-33.47 98.46,-26.56"/>
</a>
</g>
</g>
</g>
</svg>
