<?xml version="1.0" encoding="UTF-8" standalone="no"?>
<!DOCTYPE svg PUBLIC "-//W3C//DTD SVG 1.1//EN"
 "http://www.w3.org/Graphics/SVG/1.1/DTD/svg11.dtd">
<!-- Generated by graphviz version 2.42.4 (0)
 -->
<!-- Title: Graphical Class Hierarchy Pages: 1 -->
<svg width="273pt" height="86pt"
 viewBox="0.00 0.00 273.00 86.00" xmlns="http://www.w3.org/2000/svg" xmlns:xlink="http://www.w3.org/1999/xlink">
<g id="graph0" class="graph" transform="scale(1 1) rotate(0) translate(4 82)">
<title>Graphical Class Hierarchy</title>
<!-- Node0 -->
<g id="Node000000" class="node">
<title>Node0</title>
<g id="a_Node000000"><a xlink:title=" ">
<polygon fill="#e0e0e0" stroke="#999999" points="84,-48.5 0,-48.5 0,-29.5 84,-29.5 84,-48.5"/>
<text text-anchor="middle" x="42" y="-36.5" font-family="Helvetica,sans-Serif" font-size="10.00">std::true_type</text>
</a>
</g>
</g>
<!-- Node1 -->
<g id="Node000001" class="node">
<title>Node1</title>
<g id="a_Node000001"><a xlink:href="structein_1_1detail_1_1has__lifted__operations__impl_3_01bf16_01_4.html" target="_top" xlink:title=" ">
<polygon fill="white" stroke="#666666" points="265,-78 120,-78 120,-48 265,-48 265,-78"/>
<text text-anchor="start" x="128" y="-66" font-family="Helvetica,sans-Serif" font-size="10.00">ein::detail::has_lifted</text>
<text text-anchor="middle" x="192.5" y="-55" font-family="Helvetica,sans-Serif" font-size="10.00">_operations_impl&lt; bf16 &gt;</text>
</a>
</g>
</g>
<!-- Node0&#45;&gt;Node1 -->
<g id="edge3_Node000000_Node000001" class="edge">
<title>Node0&#45;&gt;Node1</title>
<g id="a_edge3_Node000000_Node000001"><a xlink:title=" ">
<path fill="none" stroke="#63b8ff" d="M94.24,-47.28C102.54,-48.62 111.26,-50.03 119.93,-51.43"/>
<polygon fill="#63b8ff" stroke="#63b8ff" points="94.8,-43.83 84.37,-45.69 93.68,-50.74 94.8,-43.83"/>
</a>
</g>
</g>
<!-- Node2 -->
<g id="Node000002" class="node">
<title>Node2</title>
<g id="a_Node000002"><a xlink:href="structein_1_1detail_1_1has__lifted__operations__impl_3_01fp16_01_4.html" target="_top" xlink:title=" ">
<polygon fill="white" stroke="#666666" points="265,-30 120,-30 120,0 265,0 265,-30"/>
<text text-anchor="start" x="128" y="-18" font-family="Helvetica,sans-Serif" font-size="10.00">ein::detail::has_lifted</text>
<text text-anchor="middle" x="192.5" y="-7" font-family="Helvetica,sans-Serif" font-size="10.00">_operations_impl&lt; fp16 &gt;</text>
</a>
</g>
</g>
<!-- Node0&#45;&gt;Node2 -->
<g id="edge4_Node000000_Node000002" class="edge">
<title>Node0&#45;&gt;Node2</title>
<g id="a_edge4_Node000000_Node000002"><a xlink:title=" ">
<path fill="none" stroke="#63b8ff" d="M94.24,-30.72C102.54,-29.38 111.26,-27.97 119.93,-26.57"/>
<polygon fill="#63b8ff" stroke="#63b8ff" points="93.68,-27.26 84.37,-32.31 94.8,-34.17 93.68,-27.26"/>
</a>
</g>
</g>
</g>
</svg>
