<?xml version="1.0" encoding="UTF-8" standalone="no"?>
<!DOCTYPE svg PUBLIC "-//W3C//DTD SVG 1.1//EN"
 "http://www.w3.org/Graphics/SVG/1.1/DTD/svg11.dtd">
<!-- Generated by graphviz version 2.42.4 (0)
 -->
<!-- Title: Graphical Class Hierarchy Pages: 1 -->
<svg width="273pt" height="134pt"
 viewBox="0.00 0.00 273.00 134.00" xmlns="http://www.w3.org/2000/svg" xmlns:xlink="http://www.w3.org/1999/xlink">
<g id="graph0" class="graph" transform="scale(1 1) rotate(0) translate(4 130)">
<title>Graphical Class Hierarchy</title>
<!-- Node0 -->
<g id="Node000000" class="node">
<title>Node0</title>
<g id="a_Node000000"><a xlink:title=" ">
<polygon fill="#e0e0e0" stroke="#999999" points="84,-72.5 0,-72.5 0,-53.5 84,-53.5 84,-72.5"/>
<text text-anchor="middle" x="42" y="-60.5" font-family="Helvetica,sans-Serif" font-size="10.00">std::true_type</text>
</a>
</g>
</g>
<!-- Node1 -->
<g id="Node000001" class="node">
<title>Node1</title>
<g id="a_Node000001"><a xlink:href="structein_1_1detail_1_1has__lifted__operations__impl_3_01bf16_01_4.html" target="_top" xlink:title=" ">
<polygon fill="white" stroke="#666666" points="265,-126 120,-126 120,-96 265,-96 265,-126"/>
<text text-anchor="start" x="128" y="-114" font-family="Helvetica,sans-Serif" font-size="10.00">ein::detail::has_lifted</text>
<text text-anchor="middle" x="192.5" y="-103" font-family="Helvetica,sans-Serif" font-size="10.00">_operations_impl&lt; bf16 &gt;</text>
</a>
</g>
</g>
<!-- Node0&#45;&gt;Node1 -->
<g id="edge4_Node000000_Node000001" class="edge">
<title>Node0&#45;&gt;Node1</title>
<g id="a_edge4_Node000000_Node000001"><a xlink:title=" ">
<path fill="none" stroke="#63b8ff" d="M82.34,-75.71C101.55,-81.92 124.8,-89.44 144.9,-95.94"/>
<polygon fill="#63b8ff" stroke="#63b8ff" points="83.29,-72.34 72.69,-72.6 81.13,-79 83.29,-72.34"/>
</a>
</g>
</g>
<!-- Node2 -->
<g id="Node000002" class="node">
<title>Node2</title>
<g id="a_Node000002"><a xlink:href="structein_1_1detail_1_1has__lifted__operations__impl_3_01fp16_01_4.html" target="_top" xlink:title=" ">
<polygon fill="white" stroke="#666666" points="265,-78 120,-78 120,-48 265,-48 265,-78"/>
<text text-anchor="start" x="128" y="-66" font-family="Helvetica,sans-Serif" font-size="10.00">ein::detail::has_lifted</text>
<text text-anchor="middle" x="192.5" y="-55" font-family="Helvetica,sans-Serif" font-size="10.00">_operations_impl&lt; fp16 &gt;</text>
</a>
</g>
</g>
<!-- Node0&#45;&gt;Node2 -->
<g id="edge5_Node000000_Node000002" class="edge">
<title>Node0&#45;&gt;Node2</title>
<g id="a_edge5_Node000000_Node000002"><a xlink:title=" ">
<path fill="none" stroke="#63b8ff" d="M94.51,-63C102.73,-63 111.35,-63 119.93,-63"/>
<polygon fill="#63b8ff" stroke="#63b8ff" points="94.37,-59.5 84.37,-63 94.37,-66.5 94.37,-59.5"/>
</a>
</g>
</g>
<!-- Node3 -->
<g id="Node000003" class="node">
<title>Node3</title>
<g id="a_Node000003"><a xlink:href="structein_1_1detail_1_1simd__type__impl_3_01simd_3_01T_00_01N_01_4_01_4.html" target="_top" xlink:title=" ">
<polygon fill="white" stroke="#666666" points="258.5,-30 126.5,-30 126.5,0 258.5,0 258.5,-30"/>
<text text-anchor="start" x="134.5" y="-18" font-family="Helvetica,sans-Serif" font-size="10.00">ein::detail::simd_type</text>
<text text-anchor="middle" x="192.5" y="-7" font-family="Helvetica,sans-Serif" font-size="10.00">_impl&lt; simd&lt; T, N &gt; &gt;</text>
</a>
</g>
</g>
<!-- Node0&#45;&gt;Node3 -->
<g id="edge6_Node000000_Node000003" class="edge">
<title>Node0&#45;&gt;Node3</title>
<g id="a_edge6_Node000000_Node000003"><a xlink:title=" ">
<path fill="none" stroke="#63b8ff" d="M82.34,-50.29C101.55,-44.08 124.8,-36.56 144.9,-30.06"/>
<polygon fill="#63b8ff" stroke="#63b8ff" points="81.13,-47 72.69,-53.4 83.29,-53.66 81.13,-47"/>
</a>
</g>
</g>
</g>
</svg>
