<?xml version="1.0" encoding="UTF-8" standalone="no"?>
<!DOCTYPE svg PUBLIC "-//W3C//DTD SVG 1.1//EN"
 "http://www.w3.org/Graphics/SVG/1.1/DTD/svg11.dtd">
<!-- Generated by graphviz version 2.42.4 (0)
 -->
<!-- Title: numerics.cppm Pages: 1 -->
<svg width="661pt" height="137pt"
 viewBox="0.00 0.00 660.50 137.00" xmlns="http://www.w3.org/2000/svg" xmlns:xlink="http://www.w3.org/1999/xlink">
<g id="graph0" class="graph" transform="scale(1 1) rotate(0) translate(4 133)">
<title>numerics.cppm</title>
<!-- Node1 -->
<g id="Node000001" class="node">
<title>Node1</title>
<g id="a_Node000001"><a xlink:title=" ">
<polygon fill="#999999" stroke="#666666" points="292.5,-129 200.5,-129 200.5,-110 292.5,-110 292.5,-129"/>
<text text-anchor="middle" x="246.5" y="-117" font-family="Helvetica,sans-Serif" font-size="10.00">numerics.cppm</text>
</a>
</g>
</g>
<!-- Node2 -->
<g id="Node000002" class="node">
<title>Node2</title>
<g id="a_Node000002"><a xlink:title=" ">
<polygon fill="#e0e0e0" stroke="#999999" points="29,-74 0,-74 0,-55 29,-55 29,-74"/>
<text text-anchor="middle" x="14.5" y="-62" font-family="Helvetica,sans-Serif" font-size="10.00">bit</text>
</a>
</g>
</g>
<!-- Node1&#45;&gt;Node2 -->
<g id="edge1_Node000001_Node000002" class="edge">
<title>Node1&#45;&gt;Node2</title>
<g id="a_edge1_Node000001_Node000002"><a xlink:title=" ">
<path fill="none" stroke="#63b8ff" d="M200.37,-110.65C159.87,-103.33 99.27,-91.3 39.13,-74.18"/>
<polygon fill="#63b8ff" stroke="#63b8ff" points="40.07,-70.81 29.49,-71.39 38.12,-77.53 40.07,-70.81"/>
</a>
</g>
</g>
<!-- Node3 -->
<g id="Node000003" class="node">
<title>Node3</title>
<g id="a_Node000003"><a xlink:title=" ">
<polygon fill="#e0e0e0" stroke="#999999" points="94,-74 47,-74 47,-55 94,-55 94,-74"/>
<text text-anchor="middle" x="70.5" y="-62" font-family="Helvetica,sans-Serif" font-size="10.00">cmath</text>
</a>
</g>
</g>
<!-- Node1&#45;&gt;Node3 -->
<g id="edge2_Node000001_Node000003" class="edge">
<title>Node1&#45;&gt;Node3</title>
<g id="a_edge2_Node000001_Node000003"><a xlink:title=" ">
<path fill="none" stroke="#63b8ff" d="M218.22,-109.98C187.05,-100.6 136.94,-85.51 103.87,-75.55"/>
<polygon fill="#63b8ff" stroke="#63b8ff" points="104.78,-72.17 94.19,-72.63 102.76,-78.87 104.78,-72.17"/>
</a>
</g>
</g>
<!-- Node4 -->
<g id="Node000004" class="node">
<title>Node4</title>
<g id="a_Node000004"><a xlink:title=" ">
<polygon fill="#e0e0e0" stroke="#999999" points="162.5,-74 112.5,-74 112.5,-55 162.5,-55 162.5,-74"/>
<text text-anchor="middle" x="137.5" y="-62" font-family="Helvetica,sans-Serif" font-size="10.00">cstdint</text>
</a>
</g>
</g>
<!-- Node1&#45;&gt;Node4 -->
<g id="edge3_Node000001_Node000004" class="edge">
<title>Node1&#45;&gt;Node4</title>
<g id="a_edge3_Node000001_Node000004"><a xlink:title=" ">
<path fill="none" stroke="#63b8ff" d="M228.99,-109.98C211.53,-101.5 184.49,-88.35 164.33,-78.54"/>
<polygon fill="#63b8ff" stroke="#63b8ff" points="165.86,-75.4 155.33,-74.17 162.79,-81.69 165.86,-75.4"/>
</a>
</g>
</g>
<!-- Node5 -->
<g id="Node000005" class="node">
<title>Node5</title>
<g id="a_Node000005"><a xlink:title=" ">
<polygon fill="#e0e0e0" stroke="#999999" points="250,-74 181,-74 181,-55 250,-55 250,-74"/>
<text text-anchor="middle" x="215.5" y="-62" font-family="Helvetica,sans-Serif" font-size="10.00">type_traits</text>
</a>
</g>
</g>
<!-- Node1&#45;&gt;Node5 -->
<g id="edge4_Node000001_Node000005" class="edge">
<title>Node1&#45;&gt;Node5</title>
<g id="a_edge4_Node000001_Node000005"><a xlink:title=" ">
<path fill="none" stroke="#63b8ff" d="M241.38,-109.75C237.14,-102.49 230.97,-91.95 225.72,-82.98"/>
<polygon fill="#63b8ff" stroke="#63b8ff" points="228.59,-80.95 220.52,-74.09 222.55,-84.49 228.59,-80.95"/>
</a>
</g>
</g>
<!-- Node6 -->
<g id="Node000006" class="node">
<title>Node6</title>
<g id="a_Node000006"><a xlink:href="attributes_8hpp.html" target="_top" xlink:title="an opinionated subset of clang/gcc attributes">
<polygon fill="white" stroke="#666666" points="424,-19 339,-19 339,0 424,0 424,-19"/>
<text text-anchor="middle" x="381.5" y="-7" font-family="Helvetica,sans-Serif" font-size="10.00">attributes.hpp</text>
</a>
</g>
</g>
<!-- Node1&#45;&gt;Node6 -->
<g id="edge5_Node000001_Node000006" class="edge">
<title>Node1&#45;&gt;Node6</title>
<g id="a_edge5_Node000001_Node000006"><a xlink:title=" ">
<path fill="none" stroke="#63b8ff" d="M251.85,-109.76C260.25,-96.57 277.66,-71.39 297.5,-55 313.34,-41.91 333.66,-31.02 350.34,-23.29"/>
<polygon fill="#63b8ff" stroke="#63b8ff" points="351.98,-26.39 359.68,-19.11 349.12,-20 351.98,-26.39"/>
</a>
</g>
</g>
<!-- Node7 -->
<g id="Node000007" class="node">
<title>Node7</title>
<g id="a_Node000007"><a xlink:title=" ">
<polygon fill="#e0e0e0" stroke="#999999" points="410.5,-74 306.5,-74 306.5,-55 410.5,-55 410.5,-74"/>
<text text-anchor="middle" x="358.5" y="-62" font-family="Helvetica,sans-Serif" font-size="10.00">ein.numerics.fp16</text>
</a>
</g>
</g>
<!-- Node1&#45;&gt;Node7 -->
<g id="edge6_Node000001_Node000007" class="edge">
<title>Node1&#45;&gt;Node7</title>
<g id="a_edge6_Node000001_Node000007"><a xlink:title=" ">
<path fill="none" stroke="#63b8ff" d="M264.49,-109.98C282.43,-101.5 310.22,-88.35 330.93,-78.54"/>
<polygon fill="#63b8ff" stroke="#63b8ff" points="332.64,-81.61 340.18,-74.17 329.64,-75.28 332.64,-81.61"/>
</a>
</g>
</g>
<!-- Node8 -->
<g id="Node000008" class="node">
<title>Node8</title>
<g id="a_Node000008"><a xlink:title=" ">
<polygon fill="#e0e0e0" stroke="#999999" points="532.5,-74 428.5,-74 428.5,-55 532.5,-55 532.5,-74"/>
<text text-anchor="middle" x="480.5" y="-62" font-family="Helvetica,sans-Serif" font-size="10.00">ein.numerics.bf16</text>
</a>
</g>
</g>
<!-- Node1&#45;&gt;Node8 -->
<g id="edge7_Node000001_Node000008" class="edge">
<title>Node1&#45;&gt;Node8</title>
<g id="a_edge7_Node000001_Node000008"><a xlink:title=" ">
<path fill="none" stroke="#63b8ff" d="M284.1,-109.98C324.49,-100.84 388.78,-86.27 432.73,-76.32"/>
<polygon fill="#63b8ff" stroke="#63b8ff" points="433.63,-79.7 442.61,-74.08 432.08,-72.88 433.63,-79.7"/>
</a>
</g>
</g>
<!-- Node9 -->
<g id="Node000009" class="node">
<title>Node9</title>
<g id="a_Node000009"><a xlink:href="types_8cppm.html" target="_top" xlink:title=" ">
<polygon fill="white" stroke="#666666" points="612.5,-74 550.5,-74 550.5,-55 612.5,-55 612.5,-74"/>
<text text-anchor="middle" x="581.5" y="-62" font-family="Helvetica,sans-Serif" font-size="10.00">ein.types</text>
</a>
</g>
</g>
<!-- Node1&#45;&gt;Node9 -->
<g id="edge8_Node000001_Node000009" class="edge">
<title>Node1&#45;&gt;Node9</title>
<g id="a_edge8_Node000001_Node000009"><a xlink:title=" ">
<path fill="none" stroke="#63b8ff" d="M292.63,-112.41C348.82,-104.8 446.85,-90.9 540.2,-74.15"/>
<polygon fill="#63b8ff" stroke="#63b8ff" points="540.87,-77.58 550.09,-72.36 539.63,-70.7 540.87,-77.58"/>
</a>
</g>
</g>
<!-- Node9&#45;&gt;Node6 -->
<g id="edge10_Node000009_Node000006" class="edge">
<title>Node9&#45;&gt;Node6</title>
<g id="a_edge10_Node000009_Node000006"><a xlink:title=" ">
<path fill="none" stroke="#63b8ff" d="M550.25,-55.22C516.16,-46.19 461.42,-31.68 423.57,-21.65"/>
<polygon fill="#63b8ff" stroke="#63b8ff" points="424.42,-18.25 413.86,-19.07 422.63,-25.02 424.42,-18.25"/>
</a>
</g>
</g>
<!-- Node10 -->
<g id="Node000010" class="node">
<title>Node10</title>
<g id="a_Node000010"><a xlink:title=" ">
<polygon fill="#e0e0e0" stroke="#999999" points="576,-19 503,-19 503,0 576,0 576,-19"/>
<text text-anchor="middle" x="539.5" y="-7" font-family="Helvetica,sans-Serif" font-size="10.00">string_view</text>
</a>
</g>
</g>
<!-- Node9&#45;&gt;Node10 -->
<g id="edge9_Node000009_Node000010" class="edge">
<title>Node9&#45;&gt;Node10</title>
<g id="a_edge9_Node000009_Node000010"><a xlink:title=" ">
<path fill="none" stroke="#63b8ff" d="M574.56,-54.75C568.63,-47.26 559.93,-36.28 552.68,-27.13"/>
<polygon fill="#63b8ff" stroke="#63b8ff" points="555.26,-24.75 546.31,-19.09 549.77,-29.1 555.26,-24.75"/>
</a>
</g>
</g>
<!-- Node11 -->
<g id="Node000011" class="node">
<title>Node11</title>
<g id="a_Node000011"><a xlink:title=" ">
<polygon fill="#e0e0e0" stroke="#999999" points="652.5,-19 594.5,-19 594.5,0 652.5,0 652.5,-19"/>
<text text-anchor="middle" x="623.5" y="-7" font-family="Helvetica,sans-Serif" font-size="10.00">cxxabi.h</text>
</a>
</g>
</g>
<!-- Node9&#45;&gt;Node11 -->
<g id="edge11_Node000009_Node000011" class="edge">
<title>Node9&#45;&gt;Node11</title>
<g id="a_edge11_Node000009_Node000011"><a xlink:title=" ">
<path fill="none" stroke="#63b8ff" d="M588.44,-54.75C594.37,-47.26 603.07,-36.28 610.32,-27.13"/>
<polygon fill="#63b8ff" stroke="#63b8ff" points="613.23,-29.1 616.69,-19.09 607.74,-24.75 613.23,-29.1"/>
</a>
</g>
</g>
</g>
</svg>
