<?xml version="1.0" encoding="UTF-8" standalone="no"?>
<!DOCTYPE svg PUBLIC "-//W3C//DTD SVG 1.1//EN"
 "http://www.w3.org/Graphics/SVG/1.1/DTD/svg11.dtd">
<!-- Generated by graphviz version 2.42.4 (0)
 -->
<!-- Title: prelude.hpp Pages: 1 -->
<!--zoomable 148 -->

<svg id="main" version="1.1" xmlns="http://www.w3.org/2000/svg" xmlns:xlink="http://www.w3.org/1999/xlink" xml:space="preserve" onload="init(evt)">

<style type="text/css"><![CDATA[
.node, .edge {opacity: 0.7;}
.node.selected, .edge.selected {opacity: 1;}
.edge:hover path { stroke: red; }
.edge:hover polygon { stroke: red; fill: red; }
]]></style>

<defs>
  <circle id="rim" cx="0" cy="0" r="7"/>
  <circle id="rim2" cx="0" cy="0" r="3.5"/>
  <g id="zoomPlus">
    <use xlink:href="#rim" fill="#404040"><set attributeName="fill" to="#808080" begin="zoomplus.mouseover" end="zoomplus.mouseout"/></use>
    <path d="M-4,0h8M0,-4v8" fill="none" stroke="white" stroke-width="1.5" pointer-events="none"/>
  </g>
  <g id="zoomMin">
    <use xlink:href="#rim" fill="#404040"><set attributeName="fill" to="#808080" begin="zoomminus.mouseover" end="zoomminus.mouseout"/></use>
    <path d="M-4,0h8" fill="none" stroke="white" stroke-width="1.5" pointer-events="none"/>
  </g>
  <g id="arrowUp" transform="translate(30 24)">
    <use xlink:href="#rim"/>
    <path pointer-events="none" fill="none" stroke="white" stroke-width="1.5" d="M0,-3.0v7 M-2.5,-0.5L0,-3.0L2.5,-0.5"/>
  </g>
  <g id="arrowRight" transform="rotate(90) translate(36 -43)">
    <use xlink:href="#rim"/>
    <path pointer-events="none" fill="none" stroke="white" stroke-width="1.5" d="M0,-3.0v7 M-2.5,-0.5L0,-3.0L2.5,-0.5"/>
  </g>
  <g id="arrowDown" transform="rotate(180) translate(-30 -48)">
    <use xlink:href="#rim"/>
    <path pointer-events="none" fill="none" stroke="white" stroke-width="1.5" d="M0,-3.0v7 M-2.5,-0.5L0,-3.0L2.5,-0.5"/>
  </g>
  <g id="arrowLeft" transform="rotate(270) translate(-36 17)">
    <use xlink:href="#rim"/>
    <path pointer-events="none" fill="none" stroke="white" stroke-width="1.5" d="M0,-3.0v7 M-2.5,-0.5L0,-3.0L2.5,-0.5"/>
  </g>
  <g id="resetDef">
    <use xlink:href="#rim2" fill="#404040"><set attributeName="fill" to="#808080" begin="reset.mouseover" end="reset.mouseout"/></use>
  </g>
</defs>
<script type="application/ecmascript">
var viewWidth = 2204;
var viewHeight = 148;
var sectionId = 'dynsection-0';
</script>
<script type="application/ecmascript" xlink:href="svg.min.js"/>
<svg id="graph" class="graph">
<g id="viewport">
<title>prelude.hpp</title>
<!-- Node1 -->
<g id="Node000001" class="node">
<title>Node1</title>
<g id="a_Node000001"><a xlink:title=" ">
<polygon fill="#999999" stroke="#666666" points="1659,-140 1585,-140 1585,-121 1659,-121 1659,-140"/>
<text text-anchor="middle" x="1622" y="-128" font-family="Helvetica,sans-Serif" font-size="10.00">prelude.hpp</text>
</a>
</g>
</g>
<!-- Node2 -->
<g id="Node000002" class="node">
<title>Node2</title>
<g id="a_Node000002"><a xlink:href="std_8hpp.html" target="_top" xlink:title="The C++ std library.">
<polygon fill="white" stroke="#666666" points="488.5,-85 435.5,-85 435.5,-66 488.5,-66 488.5,-85"/>
<text text-anchor="middle" x="462" y="-73" font-family="Helvetica,sans-Serif" font-size="10.00">std.hpp</text>
</a>
</g>
</g>
<!-- Node1&#45;&gt;Node2 -->
<g id="edge1_Node000001_Node000002" class="edge">
<title>Node1&#45;&gt;Node2</title>
<g id="a_edge1_Node000001_Node000002"><a xlink:title=" ">
<path fill="none" stroke="#63b8ff" d="M1584.72,-127.8C1409.99,-119.81 673.33,-86.16 499.07,-78.19"/>
<polygon fill="#63b8ff" stroke="#63b8ff" points="499.02,-74.69 488.87,-77.73 498.7,-81.68 499.02,-74.69"/>
</a>
</g>
</g>
<!-- Node16 -->
<g id="Node000016" class="node">
<title>Node16</title>
<g id="a_Node000016"><a xlink:href="intrinsics_8hpp.html" target="_top" xlink:title="Imports all of our platform&#45;specific intrinsics once as part of the PCH.">
<polygon fill="white" stroke="#666666" points="1134,-85 1052,-85 1052,-66 1134,-66 1134,-85"/>
<text text-anchor="middle" x="1093" y="-73" font-family="Helvetica,sans-Serif" font-size="10.00">intrinsics.hpp</text>
</a>
</g>
</g>
<!-- Node1&#45;&gt;Node16 -->
<g id="edge15_Node000001_Node000016" class="edge">
<title>Node1&#45;&gt;Node16</title>
<g id="a_edge15_Node000001_Node000016"><a xlink:title=" ">
<path fill="none" stroke="#63b8ff" d="M1584.8,-125.77C1492.05,-116.48 1250.41,-92.27 1144.26,-81.64"/>
<polygon fill="#63b8ff" stroke="#63b8ff" points="1144.42,-78.13 1134.12,-80.62 1143.72,-85.1 1144.42,-78.13"/>
</a>
</g>
</g>
<!-- Node19 -->
<g id="Node000019" class="node">
<title>Node19</title>
<g id="a_Node000019"><a xlink:href="third-party_8hpp.html" target="_top" xlink:title="third&#45;party libraries">
<polygon fill="white" stroke="#666666" points="1614,-85 1526,-85 1526,-66 1614,-66 1614,-85"/>
<text text-anchor="middle" x="1570" y="-73" font-family="Helvetica,sans-Serif" font-size="10.00">third&#45;party.hpp</text>
</a>
</g>
</g>
<!-- Node1&#45;&gt;Node19 -->
<g id="edge18_Node000001_Node000019" class="edge">
<title>Node1&#45;&gt;Node19</title>
<g id="a_edge18_Node000001_Node000019"><a xlink:title=" ">
<path fill="none" stroke="#63b8ff" d="M1613.41,-120.75C1605.84,-113.03 1594.62,-101.6 1585.49,-92.28"/>
<polygon fill="#63b8ff" stroke="#63b8ff" points="1587.93,-89.78 1578.43,-85.09 1582.93,-94.68 1587.93,-89.78"/>
</a>
</g>
</g>
<!-- Node28 -->
<g id="Node000028" class="node">
<title>Node28</title>
<g id="a_Node000028"><a xlink:href="attributes_8hpp.html" target="_top" xlink:title="an opinionated subset of clang/gcc attributes">
<polygon fill="white" stroke="#666666" points="1717.5,-85 1632.5,-85 1632.5,-66 1717.5,-66 1717.5,-85"/>
<text text-anchor="middle" x="1675" y="-73" font-family="Helvetica,sans-Serif" font-size="10.00">attributes.hpp</text>
</a>
</g>
</g>
<!-- Node1&#45;&gt;Node28 -->
<g id="edge27_Node000001_Node000028" class="edge">
<title>Node1&#45;&gt;Node28</title>
<g id="a_edge27_Node000001_Node000028"><a xlink:title=" ">
<path fill="none" stroke="#63b8ff" d="M1630.75,-120.75C1638.47,-113.03 1649.9,-101.6 1659.22,-92.28"/>
<polygon fill="#63b8ff" stroke="#63b8ff" points="1661.81,-94.64 1666.41,-85.09 1656.86,-89.69 1661.81,-94.64"/>
</a>
</g>
</g>
<!-- Node29 -->
<g id="Node000029" class="node">
<title>Node29</title>
<g id="a_Node000029"><a xlink:href="assert_8hpp.html" target="_top" xlink:title="assert even during release">
<polygon fill="white" stroke="#666666" points="1804,-85 1736,-85 1736,-66 1804,-66 1804,-85"/>
<text text-anchor="middle" x="1770" y="-73" font-family="Helvetica,sans-Serif" font-size="10.00">assert.hpp</text>
</a>
</g>
</g>
<!-- Node1&#45;&gt;Node29 -->
<g id="edge28_Node000001_Node000029" class="edge">
<title>Node1&#45;&gt;Node29</title>
<g id="a_edge28_Node000001_Node000029"><a xlink:title=" ">
<path fill="none" stroke="#63b8ff" d="M1645.78,-120.98C1670.23,-112.23 1708.53,-98.51 1736.15,-88.62"/>
<polygon fill="#63b8ff" stroke="#63b8ff" points="1737.55,-91.84 1745.79,-85.17 1735.19,-85.25 1737.55,-91.84"/>
</a>
</g>
</g>
<!-- Node30 -->
<g id="Node000030" class="node">
<title>Node30</title>
<g id="a_Node000030"><a xlink:href="posix_8hpp.html" target="_top" xlink:title="Posix headers.">
<polygon fill="white" stroke="#666666" points="2043,-85 1979,-85 1979,-66 2043,-66 2043,-85"/>
<text text-anchor="middle" x="2011" y="-73" font-family="Helvetica,sans-Serif" font-size="10.00">posix.hpp</text>
</a>
</g>
</g>
<!-- Node1&#45;&gt;Node30 -->
<g id="edge29_Node000001_Node000030" class="edge">
<title>Node1&#45;&gt;Node30</title>
<g id="a_edge29_Node000001_Node000030"><a xlink:title=" ">
<path fill="none" stroke="#63b8ff" d="M1659.3,-124.42C1731.95,-114.52 1891.99,-92.71 1968.56,-82.28"/>
<polygon fill="#63b8ff" stroke="#63b8ff" points="1969.36,-85.71 1978.79,-80.89 1968.41,-78.77 1969.36,-85.71"/>
</a>
</g>
</g>
<!-- Node3 -->
<g id="Node000003" class="node">
<title>Node3</title>
<g id="a_Node000003"><a xlink:title=" ">
<polygon fill="#e0e0e0" stroke="#999999" points="64,-24.5 0,-24.5 0,-5.5 64,-5.5 64,-24.5"/>
<text text-anchor="middle" x="32" y="-12.5" font-family="Helvetica,sans-Serif" font-size="10.00">algorithm</text>
</a>
</g>
</g>
<!-- Node2&#45;&gt;Node3 -->
<g id="edge2_Node000002_Node000003" class="edge">
<title>Node2&#45;&gt;Node3</title>
<g id="a_edge2_Node000002_Node000003"><a xlink:title=" ">
<path fill="none" stroke="#63b8ff" d="M435.26,-73.42C371.71,-70.43 206.96,-60.16 73,-30 70.01,-29.33 66.94,-28.52 63.89,-27.62"/>
<polygon fill="#63b8ff" stroke="#63b8ff" points="64.9,-24.27 54.31,-24.59 62.78,-30.95 64.9,-24.27"/>
</a>
</g>
</g>
<!-- Node4 -->
<g id="Node000004" class="node">
<title>Node4</title>
<g id="a_Node000004"><a xlink:title=" ">
<polygon fill="#e0e0e0" stroke="#999999" points="124,-24.5 82,-24.5 82,-5.5 124,-5.5 124,-24.5"/>
<text text-anchor="middle" x="103" y="-12.5" font-family="Helvetica,sans-Serif" font-size="10.00">array</text>
</a>
</g>
</g>
<!-- Node2&#45;&gt;Node4 -->
<g id="edge3_Node000002_Node000004" class="edge">
<title>Node2&#45;&gt;Node4</title>
<g id="a_edge3_Node000002_Node000004"><a xlink:title=" ">
<path fill="none" stroke="#63b8ff" d="M435.42,-73.61C378.74,-71.14 242.23,-62.06 133,-30 131.55,-29.58 130.09,-29.09 128.62,-28.56"/>
<polygon fill="#63b8ff" stroke="#63b8ff" points="129.73,-25.23 119.16,-24.63 127.05,-31.7 129.73,-25.23"/>
</a>
</g>
</g>
<!-- Node5 -->
<g id="Node000005" class="node">
<title>Node5</title>
<g id="a_Node000005"><a xlink:title=" ">
<polygon fill="#e0e0e0" stroke="#999999" points="171.5,-24.5 142.5,-24.5 142.5,-5.5 171.5,-5.5 171.5,-24.5"/>
<text text-anchor="middle" x="157" y="-12.5" font-family="Helvetica,sans-Serif" font-size="10.00">bit</text>
</a>
</g>
</g>
<!-- Node2&#45;&gt;Node5 -->
<g id="edge4_Node000002_Node000005" class="edge">
<title>Node2&#45;&gt;Node5</title>
<g id="a_edge4_Node000002_Node000005"><a xlink:title=" ">
<path fill="none" stroke="#63b8ff" d="M435.49,-73.73C384.48,-71.51 269.81,-62.95 180,-30 179.42,-29.79 178.85,-29.56 178.27,-29.32"/>
<polygon fill="#63b8ff" stroke="#63b8ff" points="179.69,-26.12 169.2,-24.64 176.48,-32.34 179.69,-26.12"/>
</a>
</g>
</g>
<!-- Node6 -->
<g id="Node000006" class="node">
<title>Node6</title>
<g id="a_Node000006"><a xlink:title=" ">
<polygon fill="#e0e0e0" stroke="#999999" points="236.5,-24.5 189.5,-24.5 189.5,-5.5 236.5,-5.5 236.5,-24.5"/>
<text text-anchor="middle" x="213" y="-12.5" font-family="Helvetica,sans-Serif" font-size="10.00">cmath</text>
</a>
</g>
</g>
<!-- Node2&#45;&gt;Node6 -->
<g id="edge5_Node000002_Node000006" class="edge">
<title>Node2&#45;&gt;Node6</title>
<g id="a_edge5_Node000002_Node000006"><a xlink:title=" ">
<path fill="none" stroke="#63b8ff" d="M435.3,-70.74C394.08,-64.56 312.71,-50.8 246,-30 244.33,-29.48 242.62,-28.9 240.91,-28.29"/>
<polygon fill="#63b8ff" stroke="#63b8ff" points="241.85,-24.9 231.26,-24.51 239.29,-31.41 241.85,-24.9"/>
</a>
</g>
</g>
<!-- Node7 -->
<g id="Node000007" class="node">
<title>Node7</title>
<g id="a_Node000007"><a xlink:title=" ">
<polygon fill="#e0e0e0" stroke="#999999" points="315,-24.5 255,-24.5 255,-5.5 315,-5.5 315,-24.5"/>
<text text-anchor="middle" x="285" y="-12.5" font-family="Helvetica,sans-Serif" font-size="10.00">concepts</text>
</a>
</g>
</g>
<!-- Node2&#45;&gt;Node7 -->
<g id="edge6_Node000002_Node000007" class="edge">
<title>Node2&#45;&gt;Node7</title>
<g id="a_edge6_Node000002_Node000007"><a xlink:title=" ">
<path fill="none" stroke="#63b8ff" d="M435.46,-66.23C407.61,-57.48 362.6,-43.15 324,-30 322.11,-29.36 320.17,-28.69 318.22,-28.01"/>
<polygon fill="#63b8ff" stroke="#63b8ff" points="319.06,-24.59 308.47,-24.56 316.73,-31.19 319.06,-24.59"/>
</a>
</g>
</g>
<!-- Node8 -->
<g id="Node000008" class="node">
<title>Node8</title>
<g id="a_Node000008"><a xlink:title=" ">
<polygon fill="#e0e0e0" stroke="#999999" points="385,-24.5 333,-24.5 333,-5.5 385,-5.5 385,-24.5"/>
<text text-anchor="middle" x="359" y="-12.5" font-family="Helvetica,sans-Serif" font-size="10.00">cpuid.h</text>
</a>
</g>
</g>
<!-- Node2&#45;&gt;Node8 -->
<g id="edge7_Node000002_Node000008" class="edge">
<title>Node2&#45;&gt;Node8</title>
<g id="a_edge7_Node000002_Node000008"><a xlink:title=" ">
<path fill="none" stroke="#63b8ff" d="M446.8,-65.87C429.99,-56.32 402.68,-40.81 382.98,-29.62"/>
<polygon fill="#63b8ff" stroke="#63b8ff" points="384.68,-26.56 374.26,-24.67 381.23,-32.65 384.68,-26.56"/>
</a>
</g>
</g>
<!-- Node9 -->
<g id="Node000009" class="node">
<title>Node9</title>
<g id="a_Node000009"><a xlink:title=" ">
<polygon fill="#e0e0e0" stroke="#999999" points="453,-24.5 403,-24.5 403,-5.5 453,-5.5 453,-24.5"/>
<text text-anchor="middle" x="428" y="-12.5" font-family="Helvetica,sans-Serif" font-size="10.00">cstdint</text>
</a>
</g>
</g>
<!-- Node2&#45;&gt;Node9 -->
<g id="edge8_Node000002_Node000009" class="edge">
<title>Node2&#45;&gt;Node9</title>
<g id="a_edge8_Node000002_Node000009"><a xlink:title=" ">
<path fill="none" stroke="#63b8ff" d="M456.98,-65.87C452.06,-57.4 444.41,-44.24 438.21,-33.57"/>
<polygon fill="#63b8ff" stroke="#63b8ff" points="441.09,-31.55 433.04,-24.67 435.04,-35.07 441.09,-31.55"/>
</a>
</g>
</g>
<!-- Node10 -->
<g id="Node000010" class="node">
<title>Node10</title>
<g id="a_Node000010"><a xlink:title=" ">
<polygon fill="#e0e0e0" stroke="#999999" points="521,-24.5 471,-24.5 471,-5.5 521,-5.5 521,-24.5"/>
<text text-anchor="middle" x="496" y="-12.5" font-family="Helvetica,sans-Serif" font-size="10.00">cstring</text>
</a>
</g>
</g>
<!-- Node2&#45;&gt;Node10 -->
<g id="edge9_Node000002_Node000010" class="edge">
<title>Node2&#45;&gt;Node10</title>
<g id="a_edge9_Node000002_Node000010"><a xlink:title=" ">
<path fill="none" stroke="#63b8ff" d="M467.02,-65.87C471.94,-57.4 479.59,-44.24 485.79,-33.57"/>
<polygon fill="#63b8ff" stroke="#63b8ff" points="488.96,-35.07 490.96,-24.67 482.91,-31.55 488.96,-35.07"/>
</a>
</g>
</g>
<!-- Node11 -->
<g id="Node000011" class="node">
<title>Node11</title>
<g id="a_Node000011"><a xlink:title=" ">
<polygon fill="#e0e0e0" stroke="#999999" points="594.5,-24.5 539.5,-24.5 539.5,-5.5 594.5,-5.5 594.5,-24.5"/>
<text text-anchor="middle" x="567" y="-12.5" font-family="Helvetica,sans-Serif" font-size="10.00">fstream</text>
</a>
</g>
</g>
<!-- Node2&#45;&gt;Node11 -->
<g id="edge10_Node000002_Node000011" class="edge">
<title>Node2&#45;&gt;Node11</title>
<g id="a_edge10_Node000002_Node000011"><a xlink:title=" ">
<path fill="none" stroke="#63b8ff" d="M477.49,-65.87C494.63,-56.32 522.47,-40.81 542.56,-29.62"/>
<polygon fill="#63b8ff" stroke="#63b8ff" points="544.41,-32.59 551.44,-24.67 541,-26.48 544.41,-32.59"/>
</a>
</g>
</g>
<!-- Node12 -->
<g id="Node000012" class="node">
<title>Node12</title>
<g id="a_Node000012"><a xlink:title=" ">
<polygon fill="#e0e0e0" stroke="#999999" points="695.5,-24.5 612.5,-24.5 612.5,-5.5 695.5,-5.5 695.5,-24.5"/>
<text text-anchor="middle" x="654" y="-12.5" font-family="Helvetica,sans-Serif" font-size="10.00">initializer_list</text>
</a>
</g>
</g>
<!-- Node2&#45;&gt;Node12 -->
<g id="edge11_Node000002_Node000012" class="edge">
<title>Node2&#45;&gt;Node12</title>
<g id="a_edge11_Node000002_Node000012"><a xlink:title=" ">
<path fill="none" stroke="#63b8ff" d="M488.7,-66.37C521.9,-56.25 578.78,-38.92 616.38,-27.46"/>
<polygon fill="#63b8ff" stroke="#63b8ff" points="617.43,-30.8 625.97,-24.54 615.39,-24.11 617.43,-30.8"/>
</a>
</g>
</g>
<!-- Node13 -->
<g id="Node000013" class="node">
<title>Node13</title>
<g id="a_Node000013"><a xlink:title=" ">
<polygon fill="#e0e0e0" stroke="#999999" points="772,-24.5 714,-24.5 714,-5.5 772,-5.5 772,-24.5"/>
<text text-anchor="middle" x="743" y="-12.5" font-family="Helvetica,sans-Serif" font-size="10.00">memory</text>
</a>
</g>
</g>
<!-- Node2&#45;&gt;Node13 -->
<g id="edge12_Node000002_Node000013" class="edge">
<title>Node2&#45;&gt;Node13</title>
<g id="a_edge12_Node000002_Node000013"><a xlink:title=" ">
<path fill="none" stroke="#63b8ff" d="M488.82,-71.03C533.79,-64.87 627.08,-50.73 704,-30 706.43,-29.34 708.93,-28.61 711.42,-27.82"/>
<polygon fill="#63b8ff" stroke="#63b8ff" points="712.56,-31.13 720.92,-24.63 710.33,-24.5 712.56,-31.13"/>
</a>
</g>
</g>
<!-- Node14 -->
<g id="Node000014" class="node">
<title>Node14</title>
<g id="a_Node000014"><a xlink:title=" ">
<polygon fill="#e0e0e0" stroke="#999999" points="863.5,-24.5 790.5,-24.5 790.5,-5.5 863.5,-5.5 863.5,-24.5"/>
<text text-anchor="middle" x="827" y="-12.5" font-family="Helvetica,sans-Serif" font-size="10.00">string_view</text>
</a>
</g>
</g>
<!-- Node2&#45;&gt;Node14 -->
<g id="edge13_Node000002_Node000014" class="edge">
<title>Node2&#45;&gt;Node14</title>
<g id="a_edge13_Node000002_Node000014"><a xlink:title=" ">
<path fill="none" stroke="#63b8ff" d="M488.72,-72.2C543.84,-67.15 673.97,-53.6 781,-30 784.45,-29.24 788.01,-28.35 791.56,-27.39"/>
<polygon fill="#63b8ff" stroke="#63b8ff" points="792.75,-30.69 801.4,-24.57 790.82,-23.96 792.75,-30.69"/>
</a>
</g>
</g>
<!-- Node15 -->
<g id="Node000015" class="node">
<title>Node15</title>
<g id="a_Node000015"><a xlink:title=" ">
<polygon fill="#e0e0e0" stroke="#999999" points="950.5,-24.5 881.5,-24.5 881.5,-5.5 950.5,-5.5 950.5,-24.5"/>
<text text-anchor="middle" x="916" y="-12.5" font-family="Helvetica,sans-Serif" font-size="10.00">type_traits</text>
</a>
</g>
</g>
<!-- Node2&#45;&gt;Node15 -->
<g id="edge14_Node000002_Node000015" class="edge">
<title>Node2&#45;&gt;Node15</title>
<g id="a_edge14_Node000002_Node000015"><a xlink:title=" ">
<path fill="none" stroke="#63b8ff" d="M488.67,-73.45C554.45,-70.47 729.44,-60.1 872,-30 875.4,-29.28 878.9,-28.41 882.39,-27.45"/>
<polygon fill="#63b8ff" stroke="#63b8ff" points="883.44,-30.79 892.03,-24.58 881.44,-24.08 883.44,-30.79"/>
</a>
</g>
</g>
<!-- Node17 -->
<g id="Node000017" class="node">
<title>Node17</title>
<g id="a_Node000017"><a xlink:title=" ">
<polygon fill="#e0e0e0" stroke="#999999" points="1037.5,-24.5 968.5,-24.5 968.5,-5.5 1037.5,-5.5 1037.5,-24.5"/>
<text text-anchor="middle" x="1003" y="-12.5" font-family="Helvetica,sans-Serif" font-size="10.00">x86intrin.h</text>
</a>
</g>
</g>
<!-- Node16&#45;&gt;Node17 -->
<g id="edge16_Node000016_Node000017" class="edge">
<title>Node16&#45;&gt;Node17</title>
<g id="a_edge16_Node000016_Node000017"><a xlink:title=" ">
<path fill="none" stroke="#63b8ff" d="M1079.72,-65.87C1065.36,-56.54 1042.24,-41.51 1025.13,-30.38"/>
<polygon fill="#63b8ff" stroke="#63b8ff" points="1026.63,-27.18 1016.33,-24.67 1022.81,-33.05 1026.63,-27.18"/>
</a>
</g>
</g>
<!-- Node18 -->
<g id="Node000018" class="node">
<title>Node18</title>
<g id="a_Node000018"><a xlink:title=" ">
<polygon fill="#e0e0e0" stroke="#999999" points="1130,-24.5 1056,-24.5 1056,-5.5 1130,-5.5 1130,-24.5"/>
<text text-anchor="middle" x="1093" y="-12.5" font-family="Helvetica,sans-Serif" font-size="10.00">immintrin.h</text>
</a>
</g>
</g>
<!-- Node16&#45;&gt;Node18 -->
<g id="edge17_Node000016_Node000018" class="edge">
<title>Node16&#45;&gt;Node18</title>
<g id="a_edge17_Node000016_Node000018"><a xlink:title=" ">
<path fill="none" stroke="#63b8ff" d="M1093,-65.87C1093,-57.75 1093,-45.31 1093,-34.89"/>
<polygon fill="#63b8ff" stroke="#63b8ff" points="1096.5,-34.67 1093,-24.67 1089.5,-34.67 1096.5,-34.67"/>
</a>
</g>
</g>
<!-- Node20 -->
<g id="Node000020" class="node">
<title>Node20</title>
<g id="a_Node000020"><a xlink:title=" ">
<polygon fill="#e0e0e0" stroke="#999999" points="1258,-24.5 1148,-24.5 1148,-5.5 1258,-5.5 1258,-24.5"/>
<text text-anchor="middle" x="1203" y="-12.5" font-family="Helvetica,sans-Serif" font-size="10.00">nlohmann/json.hpp</text>
</a>
</g>
</g>
<!-- Node19&#45;&gt;Node20 -->
<g id="edge19_Node000019_Node000020" class="edge">
<title>Node19&#45;&gt;Node20</title>
<g id="a_edge19_Node000019_Node000020"><a xlink:title=" ">
<path fill="none" stroke="#63b8ff" d="M1525.94,-69.01C1466.82,-61.41 1358.66,-46.74 1267,-30 1261.48,-28.99 1255.7,-27.85 1249.98,-26.67"/>
<polygon fill="#63b8ff" stroke="#63b8ff" points="1250.31,-23.16 1239.8,-24.51 1248.86,-30.01 1250.31,-23.16"/>
</a>
</g>
</g>
<!-- Node21 -->
<g id="Node000021" class="node">
<title>Node21</title>
<g id="a_Node000021"><a xlink:title=" ">
<polygon fill="#e0e0e0" stroke="#999999" points="1369.5,-24.5 1276.5,-24.5 1276.5,-5.5 1369.5,-5.5 1369.5,-24.5"/>
<text text-anchor="middle" x="1323" y="-12.5" font-family="Helvetica,sans-Serif" font-size="10.00">spdlog/spdlog.h</text>
</a>
</g>
</g>
<!-- Node19&#45;&gt;Node21 -->
<g id="edge20_Node000019_Node000021" class="edge">
<title>Node19&#45;&gt;Node21</title>
<g id="a_edge20_Node000019_Node000021"><a xlink:title=" ">
<path fill="none" stroke="#63b8ff" d="M1532.63,-65.98C1494.09,-57.15 1432.29,-42.87 1379,-30 1374.95,-29.02 1370.73,-27.99 1366.51,-26.95"/>
<polygon fill="#63b8ff" stroke="#63b8ff" points="1367.29,-23.54 1356.74,-24.53 1365.6,-30.33 1367.29,-23.54"/>
</a>
</g>
</g>
<!-- Node22 -->
<g id="Node000022" class="node">
<title>Node22</title>
<g id="a_Node000022"><a xlink:title=" ">
<polygon fill="#e0e0e0" stroke="#999999" points="1502,-24.5 1388,-24.5 1388,-5.5 1502,-5.5 1502,-24.5"/>
<text text-anchor="middle" x="1445" y="-12.5" font-family="Helvetica,sans-Serif" font-size="10.00">spdlog/fmt/ranges.h</text>
</a>
</g>
</g>
<!-- Node19&#45;&gt;Node22 -->
<g id="edge21_Node000019_Node000022" class="edge">
<title>Node19&#45;&gt;Node22</title>
<g id="a_edge21_Node000019_Node000022"><a xlink:title=" ">
<path fill="none" stroke="#63b8ff" d="M1551.82,-65.99C1530.99,-56.25 1496.63,-40.16 1472.52,-28.88"/>
<polygon fill="#63b8ff" stroke="#63b8ff" points="1473.74,-25.59 1463.2,-24.52 1470.77,-31.93 1473.74,-25.59"/>
</a>
</g>
</g>
<!-- Node23 -->
<g id="Node000023" class="node">
<title>Node23</title>
<g id="a_Node000023"><a xlink:title=" ">
<polygon fill="#e0e0e0" stroke="#999999" points="1619.5,-24.5 1520.5,-24.5 1520.5,-5.5 1619.5,-5.5 1619.5,-24.5"/>
<text text-anchor="middle" x="1570" y="-12.5" font-family="Helvetica,sans-Serif" font-size="10.00">spdlog/fmt/ostr.h</text>
</a>
</g>
</g>
<!-- Node19&#45;&gt;Node23 -->
<g id="edge22_Node000019_Node000023" class="edge">
<title>Node19&#45;&gt;Node23</title>
<g id="a_edge22_Node000019_Node000023"><a xlink:title=" ">
<path fill="none" stroke="#63b8ff" d="M1570,-65.87C1570,-57.75 1570,-45.31 1570,-34.89"/>
<polygon fill="#63b8ff" stroke="#63b8ff" points="1573.5,-34.67 1570,-24.67 1566.5,-34.67 1573.5,-34.67"/>
</a>
</g>
</g>
<!-- Node24 -->
<g id="Node000024" class="node">
<title>Node24</title>
<g id="a_Node000024"><a xlink:title=" ">
<polygon fill="#e0e0e0" stroke="#999999" points="1748.5,-30 1637.5,-30 1637.5,0 1748.5,0 1748.5,-30"/>
<text text-anchor="start" x="1645.5" y="-18" font-family="Helvetica,sans-Serif" font-size="10.00">spdlog/fmt/bundled</text>
<text text-anchor="middle" x="1693" y="-7" font-family="Helvetica,sans-Serif" font-size="10.00">/color.h</text>
</a>
</g>
</g>
<!-- Node19&#45;&gt;Node24 -->
<g id="edge23_Node000019_Node000024" class="edge">
<title>Node19&#45;&gt;Node24</title>
<g id="a_edge23_Node000019_Node000024"><a xlink:title=" ">
<path fill="none" stroke="#63b8ff" d="M1587.89,-65.99C1605.14,-57.79 1631.84,-45.09 1654.01,-34.55"/>
<polygon fill="#63b8ff" stroke="#63b8ff" points="1655.66,-37.63 1663.19,-30.18 1652.66,-31.31 1655.66,-37.63"/>
</a>
</g>
</g>
<!-- Node25 -->
<g id="Node000025" class="node">
<title>Node25</title>
<g id="a_Node000025"><a xlink:title=" ">
<polygon fill="#e0e0e0" stroke="#999999" points="1877.5,-30 1766.5,-30 1766.5,0 1877.5,0 1877.5,-30"/>
<text text-anchor="start" x="1774.5" y="-18" font-family="Helvetica,sans-Serif" font-size="10.00">spdlog/fmt/bundled</text>
<text text-anchor="middle" x="1822" y="-7" font-family="Helvetica,sans-Serif" font-size="10.00">/format.h</text>
</a>
</g>
</g>
<!-- Node19&#45;&gt;Node25 -->
<g id="edge24_Node000019_Node000025" class="edge">
<title>Node19&#45;&gt;Node25</title>
<g id="a_edge24_Node000019_Node000025"><a xlink:title=" ">
<path fill="none" stroke="#63b8ff" d="M1606.64,-65.99C1645.77,-56.91 1708.57,-42.33 1756.29,-31.25"/>
<polygon fill="#63b8ff" stroke="#63b8ff" points="1757.28,-34.62 1766.23,-28.95 1755.7,-27.8 1757.28,-34.62"/>
</a>
</g>
</g>
<!-- Node26 -->
<g id="Node000026" class="node">
<title>Node26</title>
<g id="a_Node000026"><a xlink:title=" ">
<polygon fill="#e0e0e0" stroke="#999999" points="1992,-24.5 1896,-24.5 1896,-5.5 1992,-5.5 1992,-24.5"/>
<text text-anchor="middle" x="1944" y="-12.5" font-family="Helvetica,sans-Serif" font-size="10.00">spdlog/cfg/env.h</text>
</a>
</g>
</g>
<!-- Node19&#45;&gt;Node26 -->
<g id="edge25_Node000019_Node000026" class="edge">
<title>Node19&#45;&gt;Node26</title>
<g id="a_edge25_Node000019_Node000026"><a xlink:title=" ">
<path fill="none" stroke="#63b8ff" d="M1614.23,-67.33C1617.2,-66.87 1620.14,-66.42 1623,-66 1740.14,-48.62 1770.67,-52.15 1887,-30 1891.81,-29.08 1896.83,-28.02 1901.81,-26.89"/>
<polygon fill="#63b8ff" stroke="#63b8ff" points="1902.94,-30.22 1911.88,-24.52 1901.34,-23.4 1902.94,-30.22"/>
</a>
</g>
</g>
<!-- Node27 -->
<g id="Node000027" class="node">
<title>Node27</title>
<g id="a_Node000027"><a xlink:title=" ">
<polygon fill="#e0e0e0" stroke="#999999" points="2121.5,-30 2010.5,-30 2010.5,0 2121.5,0 2121.5,-30"/>
<text text-anchor="start" x="2018.5" y="-18" font-family="Helvetica,sans-Serif" font-size="10.00">spdlog/sinks/stdout</text>
<text text-anchor="middle" x="2066" y="-7" font-family="Helvetica,sans-Serif" font-size="10.00">_color_sinks.h</text>
</a>
</g>
</g>
<!-- Node19&#45;&gt;Node27 -->
<g id="edge26_Node000019_Node000027" class="edge">
<title>Node19&#45;&gt;Node27</title>
<g id="a_edge26_Node000019_Node000027"><a xlink:title=" ">
<path fill="none" stroke="#63b8ff" d="M1614.22,-67.19C1617.19,-66.77 1620.13,-66.37 1623,-66 1787.21,-45.03 1832.51,-55.4 2000.49,-29.94"/>
<polygon fill="#63b8ff" stroke="#63b8ff" points="2001.06,-33.4 2010.41,-28.42 2000,-26.48 2001.06,-33.4"/>
</a>
</g>
</g>
<!-- Node31 -->
<g id="Node000031" class="node">
<title>Node31</title>
<g id="a_Node000031"><a xlink:title=" ">
<polygon fill="#e0e0e0" stroke="#999999" points="2196,-24.5 2140,-24.5 2140,-5.5 2196,-5.5 2196,-24.5"/>
<text text-anchor="middle" x="2168" y="-12.5" font-family="Helvetica,sans-Serif" font-size="10.00">unistd.h</text>
</a>
</g>
</g>
<!-- Node30&#45;&gt;Node31 -->
<g id="edge30_Node000030_Node000031" class="edge">
<title>Node30&#45;&gt;Node31</title>
<g id="a_edge30_Node000030_Node000031"><a xlink:title=" ">
<path fill="none" stroke="#63b8ff" d="M2034.47,-65.85C2058.67,-56.91 2097.5,-42.55 2131,-30 2132.59,-29.4 2134.22,-28.79 2135.87,-28.17"/>
<polygon fill="#63b8ff" stroke="#63b8ff" points="2137.19,-31.42 2145.31,-24.61 2134.72,-24.87 2137.19,-31.42"/>
</a>
</g>
</g>
</g>
</svg>

<g id="navigator" transform="translate(0 0)" fill="#404254">
  <rect fill="#f2f5e9" fill-opacity="0.5" stroke="#606060" stroke-width=".5" x="0" y="0" width="60" height="60"/>
  <use id="zoomplus" xlink:href="#zoomPlus" x="17" y="9" onmousedown="handleZoom(evt,'in')"/>
  <use id="zoomminus" xlink:href="#zoomMin" x="42" y="9" onmousedown="handleZoom(evt,'out')"/>
  <use id="reset" xlink:href="#resetDef" x="30" y="36" onmousedown="handleReset()"/>
   <use id="arrowup" xlink:href="#arrowUp" x="0" y="0" onmousedown="handlePan(0,-1)"/>
  <use id="arrowright" xlink:href="#arrowRight" x="0" y="0" onmousedown="handlePan(1,0)"/>
  <use id="arrowdown" xlink:href="#arrowDown" x="0" y="0" onmousedown="handlePan(0,1)"/>
  <use id="arrowleft" xlink:href="#arrowLeft" x="0" y="0" onmousedown="handlePan(-1,0)"/>
</g>
<svg viewBox="0 0 15 15" width="100%" height="30px" preserveAspectRatio="xMaxYMin meet">
 <g id="arrow_out" transform="scale(0.3 0.3)">
  <a xlink:href="prelude_8hpp__incl_org.svg" target="_base">
   <rect id="button" ry="5" rx="5" y="6" x="6" height="38" width="38"
        fill="#f2f5e9" fill-opacity="0.5" stroke="#606060" stroke-width="1.0"/>
   <path id="arrow"
     d="M 11.500037,31.436501 C 11.940474,20.09759 22.043105,11.32322 32.158766,21.979434 L 37.068811,17.246167 C 37.068811,17.246167 37.088388,32 37.088388,32 L 22.160133,31.978069 C 22.160133,31.978069 26.997745,27.140456 26.997745,27.140456 C 18.528582,18.264221 13.291696,25.230495 11.500037,31.436501 z"
     style="fill:#404040;"/>
  </a>
 </g>
</svg>

<style type='text/css'>
<![CDATA[
[data-mouse-over-selected='false'] { opacity: 0.7; }
[data-mouse-over-selected='true']  { opacity: 1.0; }
]]>
</style>
<script type="application/ecmascript"><![CDATA[
document.addEventListener('DOMContentLoaded', (event) => {
  highlightEdges();
  highlightAdjacentNodes();
});
]]></script>
</svg>
