<?xml version="1.0" encoding="UTF-8" standalone="no"?>
<!DOCTYPE svg PUBLIC "-//W3C//DTD SVG 1.1//EN"
 "http://www.w3.org/Graphics/SVG/1.1/DTD/svg11.dtd">
<!-- Generated by graphviz version 2.42.4 (0)
 -->
<!-- Title: profiling.cppm Pages: 1 -->
<svg width="594pt" height="192pt"
 viewBox="0.00 0.00 593.50 192.00" xmlns="http://www.w3.org/2000/svg" xmlns:xlink="http://www.w3.org/1999/xlink">
<g id="graph0" class="graph" transform="scale(1 1) rotate(0) translate(4 188)">
<title>profiling.cppm</title>
<!-- Node1 -->
<g id="Node000001" class="node">
<title>Node1</title>
<g id="a_Node000001"><a xlink:title=" ">
<polygon fill="#999999" stroke="#666666" points="314,-184 228,-184 228,-165 314,-165 314,-184"/>
<text text-anchor="middle" x="271" y="-172" font-family="Helvetica,sans-Serif" font-size="10.00">profiling.cppm</text>
</a>
</g>
</g>
<!-- Node2 -->
<g id="Node000002" class="node">
<title>Node2</title>
<g id="a_Node000002"><a xlink:title=" ">
<polygon fill="#e0e0e0" stroke="#999999" points="56,-129 0,-129 0,-110 56,-110 56,-129"/>
<text text-anchor="middle" x="28" y="-117" font-family="Helvetica,sans-Serif" font-size="10.00">unistd.h</text>
</a>
</g>
</g>
<!-- Node1&#45;&gt;Node2 -->
<g id="edge1_Node000001_Node000002" class="edge">
<title>Node1&#45;&gt;Node2</title>
<g id="a_edge1_Node000001_Node000002"><a xlink:title=" ">
<path fill="none" stroke="#63b8ff" d="M230.7,-164.96C191.26,-156.56 129.2,-143.25 66.36,-129.28"/>
<polygon fill="#63b8ff" stroke="#63b8ff" points="66.79,-125.79 56.27,-127.04 65.27,-132.63 66.79,-125.79"/>
</a>
</g>
</g>
<!-- Node3 -->
<g id="Node000003" class="node">
<title>Node3</title>
<g id="a_Node000003"><a xlink:title=" ">
<polygon fill="#e0e0e0" stroke="#999999" points="146,-129 74,-129 74,-110 146,-110 146,-129"/>
<text text-anchor="middle" x="110" y="-117" font-family="Helvetica,sans-Serif" font-size="10.00">sys/types.h</text>
</a>
</g>
</g>
<!-- Node1&#45;&gt;Node3 -->
<g id="edge2_Node000001_Node000003" class="edge">
<title>Node1&#45;&gt;Node3</title>
<g id="a_edge2_Node000001_Node000003"><a xlink:title=" ">
<path fill="none" stroke="#63b8ff" d="M245.13,-164.98C218.22,-156.13 175.88,-142.19 145.77,-132.28"/>
<polygon fill="#63b8ff" stroke="#63b8ff" points="146.66,-128.88 136.07,-129.08 144.47,-135.53 146.66,-128.88"/>
</a>
</g>
</g>
<!-- Node4 -->
<g id="Node000004" class="node">
<title>Node4</title>
<g id="a_Node000004"><a xlink:title=" ">
<polygon fill="#e0e0e0" stroke="#999999" points="257.5,-129 164.5,-129 164.5,-110 257.5,-110 257.5,-129"/>
<text text-anchor="middle" x="211" y="-117" font-family="Helvetica,sans-Serif" font-size="10.00">spdlog/spdlog.h</text>
</a>
</g>
</g>
<!-- Node1&#45;&gt;Node4 -->
<g id="edge3_Node000001_Node000004" class="edge">
<title>Node1&#45;&gt;Node4</title>
<g id="a_edge3_Node000001_Node000004"><a xlink:title=" ">
<path fill="none" stroke="#63b8ff" d="M261.36,-164.98C252.49,-157.15 239.13,-145.34 228.39,-135.86"/>
<polygon fill="#63b8ff" stroke="#63b8ff" points="230.63,-133.17 220.82,-129.17 225.99,-138.41 230.63,-133.17"/>
</a>
</g>
</g>
<!-- Node5 -->
<g id="Node000005" class="node">
<title>Node5</title>
<g id="a_Node000005"><a xlink:title=" ">
<polygon fill="#e0e0e0" stroke="#999999" points="386,-129 276,-129 276,-110 386,-110 386,-129"/>
<text text-anchor="middle" x="331" y="-117" font-family="Helvetica,sans-Serif" font-size="10.00">nlohmann/json.hpp</text>
</a>
</g>
</g>
<!-- Node1&#45;&gt;Node5 -->
<g id="edge4_Node000001_Node000005" class="edge">
<title>Node1&#45;&gt;Node5</title>
<g id="a_edge4_Node000001_Node000005"><a xlink:title=" ">
<path fill="none" stroke="#63b8ff" d="M280.64,-164.98C289.51,-157.15 302.87,-145.34 313.61,-135.86"/>
<polygon fill="#63b8ff" stroke="#63b8ff" points="316.01,-138.41 321.18,-129.17 311.37,-133.17 316.01,-138.41"/>
</a>
</g>
</g>
<!-- Node6 -->
<g id="Node000006" class="node">
<title>Node6</title>
<g id="a_Node000006"><a xlink:href="attributes_8hpp.html" target="_top" xlink:title="an opinionated subset of clang/gcc attributes">
<polygon fill="white" stroke="#666666" points="585.5,-19 500.5,-19 500.5,0 585.5,0 585.5,-19"/>
<text text-anchor="middle" x="543" y="-7" font-family="Helvetica,sans-Serif" font-size="10.00">attributes.hpp</text>
</a>
</g>
</g>
<!-- Node1&#45;&gt;Node6 -->
<g id="edge5_Node000001_Node000006" class="edge">
<title>Node1&#45;&gt;Node6</title>
<g id="a_edge5_Node000001_Node000006"><a xlink:title=" ">
<path fill="none" stroke="#63b8ff" d="M314.22,-169.62C373.97,-163.55 477.97,-150.27 509,-129 532.7,-112.75 535.15,-101.64 543,-74 547.15,-59.4 546.83,-42.14 545.66,-29.3"/>
<polygon fill="#63b8ff" stroke="#63b8ff" points="549.13,-28.86 544.49,-19.34 542.18,-29.67 549.13,-28.86"/>
</a>
</g>
</g>
<!-- Node7 -->
<g id="Node000007" class="node">
<title>Node7</title>
<g id="a_Node000007"><a xlink:href="static__string_8cppm.html" target="_top" xlink:title=" ">
<polygon fill="white" stroke="#666666" points="499.5,-129 404.5,-129 404.5,-110 499.5,-110 499.5,-129"/>
<text text-anchor="middle" x="452" y="-117" font-family="Helvetica,sans-Serif" font-size="10.00">ein.static_string</text>
</a>
</g>
</g>
<!-- Node1&#45;&gt;Node7 -->
<g id="edge6_Node000001_Node000007" class="edge">
<title>Node1&#45;&gt;Node7</title>
<g id="a_edge6_Node000001_Node000007"><a xlink:title=" ">
<path fill="none" stroke="#63b8ff" d="M300.08,-164.98C330.6,-156.05 378.76,-141.94 412.66,-132.02"/>
<polygon fill="#63b8ff" stroke="#63b8ff" points="414.08,-135.25 422.69,-129.08 412.11,-128.53 414.08,-135.25"/>
</a>
</g>
</g>
<!-- Node7&#45;&gt;Node6 -->
<g id="edge10_Node000007_Node000006" class="edge">
<title>Node7&#45;&gt;Node6</title>
<g id="a_edge10_Node000007_Node000006"><a xlink:title=" ">
<path fill="none" stroke="#63b8ff" d="M474.23,-109.89C490.25,-102.61 511.22,-90.68 524,-74 533.95,-61.01 538.71,-42.86 540.98,-29.29"/>
<polygon fill="#63b8ff" stroke="#63b8ff" points="544.47,-29.56 542.35,-19.18 537.53,-28.62 544.47,-29.56"/>
</a>
</g>
</g>
<!-- Node8 -->
<g id="Node000008" class="node">
<title>Node8</title>
<g id="a_Node000008"><a xlink:title=" ">
<polygon fill="#e0e0e0" stroke="#999999" points="319.5,-19 246.5,-19 246.5,0 319.5,0 319.5,-19"/>
<text text-anchor="middle" x="283" y="-7" font-family="Helvetica,sans-Serif" font-size="10.00">string_view</text>
</a>
</g>
</g>
<!-- Node7&#45;&gt;Node8 -->
<g id="edge7_Node000007_Node000008" class="edge">
<title>Node7&#45;&gt;Node8</title>
<g id="a_edge7_Node000007_Node000008"><a xlink:title=" ">
<path fill="none" stroke="#63b8ff" d="M406.59,-109.97C368.08,-101.88 316.81,-88.77 302,-74 290.17,-62.2 285.65,-43.36 283.95,-29.26"/>
<polygon fill="#63b8ff" stroke="#63b8ff" points="287.43,-28.87 283.11,-19.19 280.45,-29.45 287.43,-28.87"/>
</a>
</g>
</g>
<!-- Node9 -->
<g id="Node000009" class="node">
<title>Node9</title>
<g id="a_Node000009"><a xlink:title=" ">
<polygon fill="#e0e0e0" stroke="#999999" points="441,-74 391,-74 391,-55 441,-55 441,-74"/>
<text text-anchor="middle" x="416" y="-62" font-family="Helvetica,sans-Serif" font-size="10.00">cstring</text>
</a>
</g>
</g>
<!-- Node7&#45;&gt;Node9 -->
<g id="edge8_Node000007_Node000009" class="edge">
<title>Node7&#45;&gt;Node9</title>
<g id="a_edge8_Node000007_Node000009"><a xlink:title=" ">
<path fill="none" stroke="#63b8ff" d="M446.06,-109.75C441.02,-102.34 433.66,-91.5 427.49,-82.41"/>
<polygon fill="#63b8ff" stroke="#63b8ff" points="430.35,-80.39 421.83,-74.09 424.56,-84.33 430.35,-80.39"/>
</a>
</g>
</g>
<!-- Node10 -->
<g id="Node000010" class="node">
<title>Node10</title>
<g id="a_Node000010"><a xlink:title=" ">
<polygon fill="#e0e0e0" stroke="#999999" points="514.5,-74 459.5,-74 459.5,-55 514.5,-55 514.5,-74"/>
<text text-anchor="middle" x="487" y="-62" font-family="Helvetica,sans-Serif" font-size="10.00">fstream</text>
</a>
</g>
</g>
<!-- Node7&#45;&gt;Node10 -->
<g id="edge9_Node000007_Node000010" class="edge">
<title>Node7&#45;&gt;Node10</title>
<g id="a_edge9_Node000007_Node000010"><a xlink:title=" ">
<path fill="none" stroke="#63b8ff" d="M457.78,-109.75C462.62,-102.42 469.68,-91.73 475.64,-82.7"/>
<polygon fill="#63b8ff" stroke="#63b8ff" points="478.74,-84.36 481.33,-74.09 472.9,-80.5 478.74,-84.36"/>
</a>
</g>
</g>
<!-- Node11 -->
<g id="Node000011" class="node">
<title>Node11</title>
<g id="a_Node000011"><a xlink:href="types_8cppm.html" target="_top" xlink:title=" ">
<polygon fill="white" stroke="#666666" points="373,-74 311,-74 311,-55 373,-55 373,-74"/>
<text text-anchor="middle" x="342" y="-62" font-family="Helvetica,sans-Serif" font-size="10.00">ein.types</text>
</a>
</g>
</g>
<!-- Node7&#45;&gt;Node11 -->
<g id="edge11_Node000007_Node000011" class="edge">
<title>Node7&#45;&gt;Node11</title>
<g id="a_edge11_Node000007_Node000011"><a xlink:title=" ">
<path fill="none" stroke="#63b8ff" d="M434.33,-109.98C416.71,-101.5 389.42,-88.35 369.07,-78.54"/>
<polygon fill="#63b8ff" stroke="#63b8ff" points="370.52,-75.36 359.99,-74.17 367.48,-81.66 370.52,-75.36"/>
</a>
</g>
</g>
<!-- Node11&#45;&gt;Node6 -->
<g id="edge13_Node000011_Node000006" class="edge">
<title>Node11&#45;&gt;Node6</title>
<g id="a_edge13_Node000011_Node000006"><a xlink:title=" ">
<path fill="none" stroke="#63b8ff" d="M373.41,-55.22C407.66,-46.19 462.68,-31.68 500.72,-21.65"/>
<polygon fill="#63b8ff" stroke="#63b8ff" points="501.71,-25.01 510.48,-19.07 499.92,-18.24 501.71,-25.01"/>
</a>
</g>
</g>
<!-- Node11&#45;&gt;Node8 -->
<g id="edge12_Node000011_Node000008" class="edge">
<title>Node11&#45;&gt;Node8</title>
<g id="a_edge12_Node000011_Node000008"><a xlink:title=" ">
<path fill="none" stroke="#63b8ff" d="M332.52,-54.98C323.8,-47.15 310.66,-35.34 300.1,-25.86"/>
<polygon fill="#63b8ff" stroke="#63b8ff" points="302.43,-23.25 292.65,-19.17 297.75,-28.46 302.43,-23.25"/>
</a>
</g>
</g>
<!-- Node12 -->
<g id="Node000012" class="node">
<title>Node12</title>
<g id="a_Node000012"><a xlink:title=" ">
<polygon fill="#e0e0e0" stroke="#999999" points="396,-19 338,-19 338,0 396,0 396,-19"/>
<text text-anchor="middle" x="367" y="-7" font-family="Helvetica,sans-Serif" font-size="10.00">cxxabi.h</text>
</a>
</g>
</g>
<!-- Node11&#45;&gt;Node12 -->
<g id="edge14_Node000011_Node000012" class="edge">
<title>Node11&#45;&gt;Node12</title>
<g id="a_edge14_Node000011_Node000012"><a xlink:title=" ">
<path fill="none" stroke="#63b8ff" d="M346.13,-54.75C349.51,-47.57 354.42,-37.18 358.62,-28.27"/>
<polygon fill="#63b8ff" stroke="#63b8ff" points="361.85,-29.63 362.95,-19.09 355.52,-26.64 361.85,-29.63"/>
</a>
</g>
</g>
</g>
</svg>
