<?xml version="1.0" encoding="UTF-8" standalone="no"?>
<!DOCTYPE svg PUBLIC "-//W3C//DTD SVG 1.1//EN"
 "http://www.w3.org/Graphics/SVG/1.1/DTD/svg11.dtd">
<!-- Generated by graphviz version 2.42.4 (0)
 -->
<!-- Title: simd_data.cppm Pages: 1 -->
<svg width="505pt" height="192pt"
 viewBox="0.00 0.00 504.50 192.00" xmlns="http://www.w3.org/2000/svg" xmlns:xlink="http://www.w3.org/1999/xlink">
<g id="graph0" class="graph" transform="scale(1 1) rotate(0) translate(4 188)">
<title>simd_data.cppm</title>
<!-- Node1 -->
<g id="Node000001" class="node">
<title>Node1</title>
<g id="a_Node000001"><a xlink:title=" ">
<polygon fill="#999999" stroke="#666666" points="323,-184 225,-184 225,-165 323,-165 323,-184"/>
<text text-anchor="middle" x="274" y="-172" font-family="Helvetica,sans-Serif" font-size="10.00">simd_data.cppm</text>
</a>
</g>
</g>
<!-- Node2 -->
<g id="Node000002" class="node">
<title>Node2</title>
<g id="a_Node000002"><a xlink:title=" ">
<polygon fill="#e0e0e0" stroke="#999999" points="50,-74 0,-74 0,-55 50,-55 50,-74"/>
<text text-anchor="middle" x="25" y="-62" font-family="Helvetica,sans-Serif" font-size="10.00">cstdint</text>
</a>
</g>
</g>
<!-- Node1&#45;&gt;Node2 -->
<g id="edge1_Node000001_Node000002" class="edge">
<title>Node1&#45;&gt;Node2</title>
<g id="a_edge1_Node000001_Node000002"><a xlink:title=" ">
<path fill="none" stroke="#63b8ff" d="M248.19,-164.92C223.47,-156.48 185.28,-142.89 153,-129 116.43,-113.26 75.4,-92.3 49.88,-78.85"/>
<polygon fill="#63b8ff" stroke="#63b8ff" points="51.38,-75.68 40.9,-74.09 48.1,-81.86 51.38,-75.68"/>
</a>
</g>
</g>
<!-- Node3 -->
<g id="Node000003" class="node">
<title>Node3</title>
<g id="a_Node000003"><a xlink:title=" ">
<polygon fill="#e0e0e0" stroke="#999999" points="137.5,-74 68.5,-74 68.5,-55 137.5,-55 137.5,-74"/>
<text text-anchor="middle" x="103" y="-62" font-family="Helvetica,sans-Serif" font-size="10.00">type_traits</text>
</a>
</g>
</g>
<!-- Node1&#45;&gt;Node3 -->
<g id="edge2_Node000001_Node000003" class="edge">
<title>Node1&#45;&gt;Node3</title>
<g id="a_edge2_Node000001_Node000003"><a xlink:title=" ">
<path fill="none" stroke="#63b8ff" d="M252.82,-164.89C233.7,-156.74 205.09,-143.6 182,-129 159.16,-114.56 135.3,-94.59 119.85,-80.93"/>
<polygon fill="#63b8ff" stroke="#63b8ff" points="121.98,-78.14 112.2,-74.06 117.3,-83.34 121.98,-78.14"/>
</a>
</g>
</g>
<!-- Node4 -->
<g id="Node000004" class="node">
<title>Node4</title>
<g id="a_Node000004"><a xlink:title=" ">
<polygon fill="#e0e0e0" stroke="#999999" points="457,-129 383,-129 383,-110 457,-110 457,-129"/>
<text text-anchor="middle" x="420" y="-117" font-family="Helvetica,sans-Serif" font-size="10.00">immintrin.h</text>
</a>
</g>
</g>
<!-- Node1&#45;&gt;Node4 -->
<g id="edge3_Node000001_Node000004" class="edge">
<title>Node1&#45;&gt;Node4</title>
<g id="a_edge3_Node000001_Node000004"><a xlink:title=" ">
<path fill="none" stroke="#63b8ff" d="M297.46,-164.98C321.58,-156.23 359.37,-142.51 386.6,-132.62"/>
<polygon fill="#63b8ff" stroke="#63b8ff" points="387.91,-135.87 396.12,-129.17 385.52,-129.29 387.91,-135.87"/>
</a>
</g>
</g>
<!-- Node5 -->
<g id="Node000005" class="node">
<title>Node5</title>
<g id="a_Node000005"><a xlink:href="attributes_8hpp.html" target="_top" xlink:title="an opinionated subset of clang/gcc attributes">
<polygon fill="white" stroke="#666666" points="328.5,-19 243.5,-19 243.5,0 328.5,0 328.5,-19"/>
<text text-anchor="middle" x="286" y="-7" font-family="Helvetica,sans-Serif" font-size="10.00">attributes.hpp</text>
</a>
</g>
</g>
<!-- Node1&#45;&gt;Node5 -->
<g id="edge4_Node000001_Node000005" class="edge">
<title>Node1&#45;&gt;Node5</title>
<g id="a_edge4_Node000001_Node000005"><a xlink:title=" ">
<path fill="none" stroke="#63b8ff" d="M277.55,-164.94C285.18,-145.53 302.07,-96.61 297,-55 295.94,-46.31 293.76,-36.87 291.62,-28.93"/>
<polygon fill="#63b8ff" stroke="#63b8ff" points="294.96,-27.89 288.83,-19.25 288.23,-29.83 294.96,-27.89"/>
</a>
</g>
</g>
<!-- Node6 -->
<g id="Node000006" class="node">
<title>Node6</title>
<g id="a_Node000006"><a xlink:href="types_8cppm.html" target="_top" xlink:title=" ">
<polygon fill="white" stroke="#666666" points="407,-74 345,-74 345,-55 407,-55 407,-74"/>
<text text-anchor="middle" x="376" y="-62" font-family="Helvetica,sans-Serif" font-size="10.00">ein.types</text>
</a>
</g>
</g>
<!-- Node1&#45;&gt;Node6 -->
<g id="edge5_Node000001_Node000006" class="edge">
<title>Node1&#45;&gt;Node6</title>
<g id="a_edge5_Node000001_Node000006"><a xlink:title=" ">
<path fill="none" stroke="#63b8ff" d="M287.11,-164.92C299.27,-156.59 317.48,-143.17 331,-129 344.51,-114.84 357.14,-96.38 365.56,-83.01"/>
<polygon fill="#63b8ff" stroke="#63b8ff" points="368.65,-84.67 370.9,-74.32 362.68,-81.01 368.65,-84.67"/>
</a>
</g>
</g>
<!-- Node9 -->
<g id="Node000009" class="node">
<title>Node9</title>
<g id="a_Node000009"><a xlink:href="numerics_8cppm.html" target="_top" xlink:title=" ">
<polygon fill="white" stroke="#666666" points="271,-129 191,-129 191,-110 271,-110 271,-129"/>
<text text-anchor="middle" x="231" y="-117" font-family="Helvetica,sans-Serif" font-size="10.00">ein.numerics</text>
</a>
</g>
</g>
<!-- Node1&#45;&gt;Node9 -->
<g id="edge9_Node000001_Node000009" class="edge">
<title>Node1&#45;&gt;Node9</title>
<g id="a_edge9_Node000001_Node000009"><a xlink:title=" ">
<path fill="none" stroke="#63b8ff" d="M266.9,-164.75C260.83,-157.26 251.91,-146.28 244.49,-137.13"/>
<polygon fill="#63b8ff" stroke="#63b8ff" points="246.99,-134.65 237.97,-129.09 241.55,-139.06 246.99,-134.65"/>
</a>
</g>
</g>
<!-- Node6&#45;&gt;Node5 -->
<g id="edge7_Node000006_Node000005" class="edge">
<title>Node6&#45;&gt;Node5</title>
<g id="a_edge7_Node000006_Node000005"><a xlink:title=" ">
<path fill="none" stroke="#63b8ff" d="M361.54,-54.98C347.58,-46.77 326.21,-34.18 309.75,-24.49"/>
<polygon fill="#63b8ff" stroke="#63b8ff" points="311.12,-21.23 300.72,-19.17 307.56,-27.26 311.12,-21.23"/>
</a>
</g>
</g>
<!-- Node7 -->
<g id="Node000007" class="node">
<title>Node7</title>
<g id="a_Node000007"><a xlink:title=" ">
<polygon fill="#e0e0e0" stroke="#999999" points="496.5,-19 423.5,-19 423.5,0 496.5,0 496.5,-19"/>
<text text-anchor="middle" x="460" y="-7" font-family="Helvetica,sans-Serif" font-size="10.00">string_view</text>
</a>
</g>
</g>
<!-- Node6&#45;&gt;Node7 -->
<g id="edge6_Node000006_Node000007" class="edge">
<title>Node6&#45;&gt;Node7</title>
<g id="a_edge6_Node000006_Node000007"><a xlink:title=" ">
<path fill="none" stroke="#63b8ff" d="M389.5,-54.98C402.4,-46.84 422.1,-34.41 437.4,-24.76"/>
<polygon fill="#63b8ff" stroke="#63b8ff" points="439.67,-27.47 446.26,-19.17 435.93,-21.55 439.67,-27.47"/>
</a>
</g>
</g>
<!-- Node8 -->
<g id="Node000008" class="node">
<title>Node8</title>
<g id="a_Node000008"><a xlink:title=" ">
<polygon fill="#e0e0e0" stroke="#999999" points="405,-19 347,-19 347,0 405,0 405,-19"/>
<text text-anchor="middle" x="376" y="-7" font-family="Helvetica,sans-Serif" font-size="10.00">cxxabi.h</text>
</a>
</g>
</g>
<!-- Node6&#45;&gt;Node8 -->
<g id="edge8_Node000006_Node000008" class="edge">
<title>Node6&#45;&gt;Node8</title>
<g id="a_edge8_Node000006_Node000008"><a xlink:title=" ">
<path fill="none" stroke="#63b8ff" d="M376,-54.75C376,-47.8 376,-37.85 376,-29.13"/>
<polygon fill="#63b8ff" stroke="#63b8ff" points="379.5,-29.09 376,-19.09 372.5,-29.09 379.5,-29.09"/>
</a>
</g>
</g>
<!-- Node9&#45;&gt;Node2 -->
<g id="edge12_Node000009_Node000002" class="edge">
<title>Node9&#45;&gt;Node2</title>
<g id="a_edge12_Node000009_Node000002"><a xlink:title=" ">
<path fill="none" stroke="#63b8ff" d="M197.9,-109.98C160.11,-100.26 98.54,-84.42 59.98,-74.5"/>
<polygon fill="#63b8ff" stroke="#63b8ff" points="60.78,-71.09 50.22,-71.99 59.04,-77.87 60.78,-71.09"/>
</a>
</g>
</g>
<!-- Node9&#45;&gt;Node3 -->
<g id="edge13_Node000009_Node000003" class="edge">
<title>Node9&#45;&gt;Node3</title>
<g id="a_edge13_Node000009_Node000003"><a xlink:title=" ">
<path fill="none" stroke="#63b8ff" d="M210.43,-109.98C189.57,-101.34 157.03,-87.87 133.23,-78.02"/>
<polygon fill="#63b8ff" stroke="#63b8ff" points="134.52,-74.76 123.94,-74.17 131.84,-81.23 134.52,-74.76"/>
</a>
</g>
</g>
<!-- Node9&#45;&gt;Node5 -->
<g id="edge14_Node000009_Node000005" class="edge">
<title>Node9&#45;&gt;Node5</title>
<g id="a_edge14_Node000009_Node000005"><a xlink:title=" ">
<path fill="none" stroke="#63b8ff" d="M232.47,-109.88C234.87,-97.27 240.33,-73.32 250,-55 255.37,-44.82 263.24,-34.75 270.26,-26.77"/>
<polygon fill="#63b8ff" stroke="#63b8ff" points="272.94,-29.02 277.12,-19.29 267.78,-24.29 272.94,-29.02"/>
</a>
</g>
</g>
<!-- Node9&#45;&gt;Node6 -->
<g id="edge15_Node000009_Node000006" class="edge">
<title>Node9&#45;&gt;Node6</title>
<g id="a_edge15_Node000009_Node000006"><a xlink:title=" ">
<path fill="none" stroke="#63b8ff" d="M254.3,-109.98C278.25,-101.23 315.78,-87.51 342.83,-77.62"/>
<polygon fill="#63b8ff" stroke="#63b8ff" points="344.09,-80.89 352.28,-74.17 341.69,-74.32 344.09,-80.89"/>
</a>
</g>
</g>
<!-- Node10 -->
<g id="Node000010" class="node">
<title>Node10</title>
<g id="a_Node000010"><a xlink:title=" ">
<polygon fill="#e0e0e0" stroke="#999999" points="288.5,-74 259.5,-74 259.5,-55 288.5,-55 288.5,-74"/>
<text text-anchor="middle" x="274" y="-62" font-family="Helvetica,sans-Serif" font-size="10.00">bit</text>
</a>
</g>
</g>
<!-- Node9&#45;&gt;Node10 -->
<g id="edge10_Node000009_Node000010" class="edge">
<title>Node9&#45;&gt;Node10</title>
<g id="a_edge10_Node000009_Node000010"><a xlink:title=" ">
<path fill="none" stroke="#63b8ff" d="M238.1,-109.75C244.17,-102.26 253.09,-91.28 260.51,-82.13"/>
<polygon fill="#63b8ff" stroke="#63b8ff" points="263.45,-84.06 267.03,-74.09 258.01,-79.65 263.45,-84.06"/>
</a>
</g>
</g>
<!-- Node11 -->
<g id="Node000011" class="node">
<title>Node11</title>
<g id="a_Node000011"><a xlink:title=" ">
<polygon fill="#e0e0e0" stroke="#999999" points="202.5,-74 155.5,-74 155.5,-55 202.5,-55 202.5,-74"/>
<text text-anchor="middle" x="179" y="-62" font-family="Helvetica,sans-Serif" font-size="10.00">cmath</text>
</a>
</g>
</g>
<!-- Node9&#45;&gt;Node11 -->
<g id="edge11_Node000009_Node000011" class="edge">
<title>Node9&#45;&gt;Node11</title>
<g id="a_edge11_Node000009_Node000011"><a xlink:title=" ">
<path fill="none" stroke="#63b8ff" d="M222.41,-109.75C214.84,-102.03 203.62,-90.6 194.49,-81.28"/>
<polygon fill="#63b8ff" stroke="#63b8ff" points="196.93,-78.78 187.43,-74.09 191.93,-83.68 196.93,-78.78"/>
</a>
</g>
</g>
</g>
</svg>
