<?xml version="1.0" encoding="UTF-8" standalone="no"?>
<!DOCTYPE svg PUBLIC "-//W3C//DTD SVG 1.1//EN"
 "http://www.w3.org/Graphics/SVG/1.1/DTD/svg11.dtd">
<!-- Generated by graphviz version 2.42.4 (0)
 -->
<!-- Title: simd.cppm Pages: 1 -->
<svg width="695pt" height="247pt"
 viewBox="0.00 0.00 695.42 247.00" xmlns="http://www.w3.org/2000/svg" xmlns:xlink="http://www.w3.org/1999/xlink">
<g id="graph0" class="graph" transform="scale(1 1) rotate(0) translate(4 243)">
<title>simd.cppm</title>
<!-- Node1 -->
<g id="Node000001" class="node">
<title>Node1</title>
<g id="a_Node000001"><a xlink:title=" ">
<polygon fill="#999999" stroke="#666666" points="445,-239 374,-239 374,-220 445,-220 445,-239"/>
<text text-anchor="middle" x="409.5" y="-227" font-family="Helvetica,sans-Serif" font-size="10.00">simd.cppm</text>
</a>
</g>
</g>
<!-- Node2 -->
<g id="Node000002" class="node">
<title>Node2</title>
<g id="a_Node000002"><a xlink:title=" ">
<polygon fill="#e0e0e0" stroke="#999999" points="151.5,-184 91.5,-184 91.5,-165 151.5,-165 151.5,-184"/>
<text text-anchor="middle" x="121.5" y="-172" font-family="Helvetica,sans-Serif" font-size="10.00">concepts</text>
</a>
</g>
</g>
<!-- Node1&#45;&gt;Node2 -->
<g id="edge1_Node000001_Node000002" class="edge">
<title>Node1&#45;&gt;Node2</title>
<g id="a_edge1_Node000001_Node000002"><a xlink:title=" ">
<path fill="none" stroke="#63b8ff" d="M373.92,-222.13C326.39,-213.6 239.56,-197.91 165.5,-184 164.25,-183.77 162.99,-183.53 161.71,-183.28"/>
<polygon fill="#63b8ff" stroke="#63b8ff" points="162.27,-179.83 151.79,-181.39 160.96,-186.71 162.27,-179.83"/>
</a>
</g>
</g>
<!-- Node3 -->
<g id="Node000003" class="node">
<title>Node3</title>
<g id="a_Node000003"><a xlink:title=" ">
<polygon fill="#e0e0e0" stroke="#999999" points="572.5,-74 522.5,-74 522.5,-55 572.5,-55 572.5,-74"/>
<text text-anchor="middle" x="547.5" y="-62" font-family="Helvetica,sans-Serif" font-size="10.00">cstdint</text>
</a>
</g>
</g>
<!-- Node1&#45;&gt;Node3 -->
<g id="edge2_Node000001_Node000003" class="edge">
<title>Node1&#45;&gt;Node3</title>
<g id="a_edge2_Node000001_Node000003"><a xlink:title=" ">
<path fill="none" stroke="#63b8ff" d="M445.28,-223.11C485.92,-216.18 548.43,-202.75 562.5,-184 584.71,-154.41 568.68,-108.51 556.92,-83.4"/>
<polygon fill="#63b8ff" stroke="#63b8ff" points="559.99,-81.71 552.41,-74.31 553.71,-84.82 559.99,-81.71"/>
</a>
</g>
</g>
<!-- Node4 -->
<g id="Node000004" class="node">
<title>Node4</title>
<g id="a_Node000004"><a xlink:title=" ">
<polygon fill="#e0e0e0" stroke="#999999" points="291,-184 208,-184 208,-165 291,-165 291,-184"/>
<text text-anchor="middle" x="249.5" y="-172" font-family="Helvetica,sans-Serif" font-size="10.00">initializer_list</text>
</a>
</g>
</g>
<!-- Node1&#45;&gt;Node4 -->
<g id="edge3_Node000001_Node000004" class="edge">
<title>Node1&#45;&gt;Node4</title>
<g id="a_edge3_Node000001_Node000004"><a xlink:title=" ">
<path fill="none" stroke="#63b8ff" d="M383.79,-219.98C357.05,-211.13 314.97,-197.19 285.05,-187.28"/>
<polygon fill="#63b8ff" stroke="#63b8ff" points="286,-183.9 275.41,-184.08 283.8,-190.55 286,-183.9"/>
</a>
</g>
</g>
<!-- Node5 -->
<g id="Node000005" class="node">
<title>Node5</title>
<g id="a_Node000005"><a xlink:title=" ">
<polygon fill="#e0e0e0" stroke="#999999" points="660,-74 591,-74 591,-55 660,-55 660,-74"/>
<text text-anchor="middle" x="625.5" y="-62" font-family="Helvetica,sans-Serif" font-size="10.00">type_traits</text>
</a>
</g>
</g>
<!-- Node1&#45;&gt;Node5 -->
<g id="edge4_Node000001_Node000005" class="edge">
<title>Node1&#45;&gt;Node5</title>
<g id="a_edge4_Node000001_Node000005"><a xlink:title=" ">
<path fill="none" stroke="#63b8ff" d="M445.02,-228.42C483.04,-226.46 542.94,-217.7 580.5,-184 609.75,-157.76 620.09,-110.47 623.67,-84.26"/>
<polygon fill="#63b8ff" stroke="#63b8ff" points="627.17,-84.49 624.85,-74.15 620.21,-83.67 627.17,-84.49"/>
</a>
</g>
</g>
<!-- Node6 -->
<g id="Node000006" class="node">
<title>Node6</title>
<g id="a_Node000006"><a xlink:title=" ">
<polygon fill="#e0e0e0" stroke="#999999" points="411.5,-184 347.5,-184 347.5,-165 411.5,-165 411.5,-184"/>
<text text-anchor="middle" x="379.5" y="-172" font-family="Helvetica,sans-Serif" font-size="10.00">algorithm</text>
</a>
</g>
</g>
<!-- Node1&#45;&gt;Node6 -->
<g id="edge5_Node000001_Node000006" class="edge">
<title>Node1&#45;&gt;Node6</title>
<g id="a_edge5_Node000001_Node000006"><a xlink:title=" ">
<path fill="none" stroke="#63b8ff" d="M404.55,-219.75C400.44,-212.49 394.47,-201.95 389.4,-192.98"/>
<polygon fill="#63b8ff" stroke="#63b8ff" points="392.33,-191.07 384.36,-184.09 386.24,-194.52 392.33,-191.07"/>
</a>
</g>
</g>
<!-- Node7 -->
<g id="Node000007" class="node">
<title>Node7</title>
<g id="a_Node000007"><a xlink:title=" ">
<polygon fill="#e0e0e0" stroke="#999999" points="344.5,-129 270.5,-129 270.5,-110 344.5,-110 344.5,-129"/>
<text text-anchor="middle" x="307.5" y="-117" font-family="Helvetica,sans-Serif" font-size="10.00">immintrin.h</text>
</a>
</g>
</g>
<!-- Node1&#45;&gt;Node7 -->
<g id="edge6_Node000001_Node000007" class="edge">
<title>Node1&#45;&gt;Node7</title>
<g id="a_edge6_Node000001_Node000007"><a xlink:title=" ">
<path fill="none" stroke="#63b8ff" d="M389.94,-219.97C374.38,-212.38 352.9,-200.01 338.5,-184 326.72,-170.9 318.4,-152.52 313.37,-138.9"/>
<polygon fill="#63b8ff" stroke="#63b8ff" points="316.59,-137.51 310.03,-129.19 309.97,-139.78 316.59,-137.51"/>
</a>
</g>
</g>
<!-- Node8 -->
<g id="Node000008" class="node">
<title>Node8</title>
<g id="a_Node000008"><a xlink:href="attributes_8hpp.html" target="_top" xlink:title="an opinionated subset of clang/gcc attributes">
<polygon fill="white" stroke="#666666" points="634,-19 549,-19 549,0 634,0 634,-19"/>
<text text-anchor="middle" x="591.5" y="-7" font-family="Helvetica,sans-Serif" font-size="10.00">attributes.hpp</text>
</a>
</g>
</g>
<!-- Node1&#45;&gt;Node8 -->
<g id="edge7_Node000001_Node000008" class="edge">
<title>Node1&#45;&gt;Node8</title>
<g id="a_edge7_Node000001_Node000008"><a xlink:title=" ">
<path fill="none" stroke="#63b8ff" d="M445.24,-227.42C486.07,-224.64 553.44,-215.22 601.5,-184 652.86,-150.64 665.05,-132.07 684.5,-74 687.18,-65.99 689,-62.14 684.5,-55 674.77,-39.56 658.03,-29.35 641.41,-22.67"/>
<polygon fill="#63b8ff" stroke="#63b8ff" points="642.29,-19.26 631.7,-19.13 639.89,-25.84 642.29,-19.26"/>
</a>
</g>
</g>
<!-- Node9 -->
<g id="Node000009" class="node">
<title>Node9</title>
<g id="a_Node000009"><a xlink:href="simd__data_8cppm.html" target="_top" xlink:title=" ">
<polygon fill="white" stroke="#666666" points="553.5,-184 467.5,-184 467.5,-165 553.5,-165 553.5,-184"/>
<text text-anchor="middle" x="510.5" y="-172" font-family="Helvetica,sans-Serif" font-size="10.00">ein.simd_data</text>
</a>
</g>
</g>
<!-- Node1&#45;&gt;Node9 -->
<g id="edge8_Node000001_Node000009" class="edge">
<title>Node1&#45;&gt;Node9</title>
<g id="a_edge8_Node000001_Node000009"><a xlink:title=" ">
<path fill="none" stroke="#63b8ff" d="M425.73,-219.98C441.68,-211.61 466.28,-198.7 484.88,-188.95"/>
<polygon fill="#63b8ff" stroke="#63b8ff" points="486.75,-191.92 493.98,-184.17 483.5,-185.72 486.75,-191.92"/>
</a>
</g>
</g>
<!-- Node10 -->
<g id="Node000010" class="node">
<title>Node10</title>
<g id="a_Node000010"><a xlink:href="types_8cppm.html" target="_top" xlink:title=" ">
<polygon fill="white" stroke="#666666" points="109.5,-74 47.5,-74 47.5,-55 109.5,-55 109.5,-74"/>
<text text-anchor="middle" x="78.5" y="-62" font-family="Helvetica,sans-Serif" font-size="10.00">ein.types</text>
</a>
</g>
</g>
<!-- Node1&#45;&gt;Node10 -->
<g id="edge26_Node000001_Node000010" class="edge">
<title>Node1&#45;&gt;Node10</title>
<g id="a_edge26_Node000001_Node000010"><a xlink:title=" ">
<path fill="none" stroke="#63b8ff" d="M373.81,-227.07C330.08,-223.99 254.88,-214.33 198.5,-184 150.98,-158.44 109.7,-108.28 90.29,-82.18"/>
<polygon fill="#63b8ff" stroke="#63b8ff" points="93.08,-80.06 84.37,-74.03 87.42,-84.17 93.08,-80.06"/>
</a>
</g>
</g>
<!-- Node13 -->
<g id="Node000013" class="node">
<title>Node13</title>
<g id="a_Node000013"><a xlink:href="numerics_8cppm.html" target="_top" xlink:title=" ">
<polygon fill="white" stroke="#666666" points="480.5,-129 400.5,-129 400.5,-110 480.5,-110 480.5,-129"/>
<text text-anchor="middle" x="440.5" y="-117" font-family="Helvetica,sans-Serif" font-size="10.00">ein.numerics</text>
</a>
</g>
</g>
<!-- Node1&#45;&gt;Node13 -->
<g id="edge27_Node000001_Node000013" class="edge">
<title>Node1&#45;&gt;Node13</title>
<g id="a_edge27_Node000001_Node000013"><a xlink:title=" ">
<path fill="none" stroke="#63b8ff" d="M412.04,-219.66C417.08,-202.09 428.46,-162.45 435.2,-138.95"/>
<polygon fill="#63b8ff" stroke="#63b8ff" points="438.62,-139.74 438.01,-129.16 431.89,-137.8 438.62,-139.74"/>
</a>
</g>
</g>
<!-- Node9&#45;&gt;Node3 -->
<g id="edge9_Node000009_Node000003" class="edge">
<title>Node9&#45;&gt;Node3</title>
<g id="a_edge9_Node000009_Node000003"><a xlink:title=" ">
<path fill="none" stroke="#63b8ff" d="M513.53,-164.66C519.57,-147.01 533.25,-107.09 541.29,-83.64"/>
<polygon fill="#63b8ff" stroke="#63b8ff" points="544.6,-84.75 544.53,-74.16 537.98,-82.48 544.6,-84.75"/>
</a>
</g>
</g>
<!-- Node9&#45;&gt;Node5 -->
<g id="edge10_Node000009_Node000005" class="edge">
<title>Node9&#45;&gt;Node5</title>
<g id="a_edge10_Node000009_Node000005"><a xlink:title=" ">
<path fill="none" stroke="#63b8ff" d="M519.91,-164.66C539.38,-146.38 584.31,-104.18 608.82,-81.17"/>
<polygon fill="#63b8ff" stroke="#63b8ff" points="611.39,-83.56 616.28,-74.16 606.59,-78.45 611.39,-83.56"/>
</a>
</g>
</g>
<!-- Node9&#45;&gt;Node7 -->
<g id="edge11_Node000009_Node000007" class="edge">
<title>Node9&#45;&gt;Node7</title>
<g id="a_edge11_Node000009_Node000007"><a xlink:title=" ">
<path fill="none" stroke="#63b8ff" d="M477.88,-164.98C443.21,-155.93 388.24,-141.58 350.15,-131.64"/>
<polygon fill="#63b8ff" stroke="#63b8ff" points="350.93,-128.22 340.37,-129.08 349.16,-134.99 350.93,-128.22"/>
</a>
</g>
</g>
<!-- Node9&#45;&gt;Node8 -->
<g id="edge12_Node000009_Node000008" class="edge">
<title>Node9&#45;&gt;Node8</title>
<g id="a_edge12_Node000009_Node000008"><a xlink:title=" ">
<path fill="none" stroke="#63b8ff" d="M539.89,-164.89C577.73,-152.04 641.89,-123.85 669.5,-74 682.05,-51.35 653.89,-33.63 627.97,-22.73"/>
<polygon fill="#63b8ff" stroke="#63b8ff" points="629.19,-19.45 618.6,-19.03 626.61,-25.96 629.19,-19.45"/>
</a>
</g>
</g>
<!-- Node9&#45;&gt;Node10 -->
<g id="edge13_Node000009_Node000010" class="edge">
<title>Node9&#45;&gt;Node10</title>
<g id="a_edge13_Node000009_Node000010"><a xlink:title=" ">
<path fill="none" stroke="#63b8ff" d="M485.12,-164.89C460.81,-156.43 423.25,-142.83 391.5,-129 374.19,-121.46 371.49,-115.72 353.5,-110 255.85,-78.95 224.35,-92.12 119.91,-74.13"/>
<polygon fill="#63b8ff" stroke="#63b8ff" points="120.37,-70.66 109.91,-72.35 119.14,-77.55 120.37,-70.66"/>
</a>
</g>
</g>
<!-- Node9&#45;&gt;Node13 -->
<g id="edge17_Node000009_Node000013" class="edge">
<title>Node9&#45;&gt;Node13</title>
<g id="a_edge17_Node000009_Node000013"><a xlink:title=" ">
<path fill="none" stroke="#63b8ff" d="M499.25,-164.98C488.7,-157 472.7,-144.88 460.06,-135.31"/>
<polygon fill="#63b8ff" stroke="#63b8ff" points="462.04,-132.42 451.95,-129.17 457.81,-138 462.04,-132.42"/>
</a>
</g>
</g>
<!-- Node10&#45;&gt;Node8 -->
<g id="edge15_Node000010_Node000008" class="edge">
<title>Node10&#45;&gt;Node8</title>
<g id="a_edge15_Node000010_Node000008"><a xlink:title=" ">
<path fill="none" stroke="#63b8ff" d="M109.88,-56.47C112.79,-55.93 115.69,-55.43 118.5,-55 270.11,-31.84 451.02,-18.85 538.68,-13.47"/>
<polygon fill="#63b8ff" stroke="#63b8ff" points="539.13,-16.95 548.9,-12.85 538.71,-9.96 539.13,-16.95"/>
</a>
</g>
</g>
<!-- Node11 -->
<g id="Node000011" class="node">
<title>Node11</title>
<g id="a_Node000011"><a xlink:title=" ">
<polygon fill="#e0e0e0" stroke="#999999" points="73,-19 0,-19 0,0 73,0 73,-19"/>
<text text-anchor="middle" x="36.5" y="-7" font-family="Helvetica,sans-Serif" font-size="10.00">string_view</text>
</a>
</g>
</g>
<!-- Node10&#45;&gt;Node11 -->
<g id="edge14_Node000010_Node000011" class="edge">
<title>Node10&#45;&gt;Node11</title>
<g id="a_edge14_Node000010_Node000011"><a xlink:title=" ">
<path fill="none" stroke="#63b8ff" d="M71.56,-54.75C65.63,-47.26 56.93,-36.28 49.68,-27.13"/>
<polygon fill="#63b8ff" stroke="#63b8ff" points="52.26,-24.75 43.31,-19.09 46.77,-29.1 52.26,-24.75"/>
</a>
</g>
</g>
<!-- Node12 -->
<g id="Node000012" class="node">
<title>Node12</title>
<g id="a_Node000012"><a xlink:title=" ">
<polygon fill="#e0e0e0" stroke="#999999" points="149.5,-19 91.5,-19 91.5,0 149.5,0 149.5,-19"/>
<text text-anchor="middle" x="120.5" y="-7" font-family="Helvetica,sans-Serif" font-size="10.00">cxxabi.h</text>
</a>
</g>
</g>
<!-- Node10&#45;&gt;Node12 -->
<g id="edge16_Node000010_Node000012" class="edge">
<title>Node10&#45;&gt;Node12</title>
<g id="a_edge16_Node000010_Node000012"><a xlink:title=" ">
<path fill="none" stroke="#63b8ff" d="M85.44,-54.75C91.37,-47.26 100.07,-36.28 107.32,-27.13"/>
<polygon fill="#63b8ff" stroke="#63b8ff" points="110.23,-29.1 113.69,-19.09 104.74,-24.75 110.23,-29.1"/>
</a>
</g>
</g>
<!-- Node13&#45;&gt;Node3 -->
<g id="edge20_Node000013_Node000003" class="edge">
<title>Node13&#45;&gt;Node3</title>
<g id="a_edge20_Node000013_Node000003"><a xlink:title=" ">
<path fill="none" stroke="#63b8ff" d="M457.69,-109.98C474.75,-101.54 501.13,-88.47 520.9,-78.68"/>
<polygon fill="#63b8ff" stroke="#63b8ff" points="522.59,-81.75 530,-74.17 519.48,-75.47 522.59,-81.75"/>
</a>
</g>
</g>
<!-- Node13&#45;&gt;Node5 -->
<g id="edge21_Node000013_Node000005" class="edge">
<title>Node13&#45;&gt;Node5</title>
<g id="a_edge21_Node000013_Node000005"><a xlink:title=" ">
<path fill="none" stroke="#63b8ff" d="M470.22,-109.98C501.55,-101.01 551.07,-86.82 585.74,-76.89"/>
<polygon fill="#63b8ff" stroke="#63b8ff" points="586.89,-80.2 595.54,-74.08 584.97,-73.47 586.89,-80.2"/>
</a>
</g>
</g>
<!-- Node13&#45;&gt;Node8 -->
<g id="edge22_Node000013_Node000008" class="edge">
<title>Node13&#45;&gt;Node8</title>
<g id="a_edge22_Node000013_Node000008"><a xlink:title=" ">
<path fill="none" stroke="#63b8ff" d="M449.46,-109.66C462.77,-96.78 488.84,-72.5 513.5,-55 529.93,-43.34 549.64,-32.12 565.13,-23.86"/>
<polygon fill="#63b8ff" stroke="#63b8ff" points="566.94,-26.86 574.17,-19.12 563.69,-20.66 566.94,-26.86"/>
</a>
</g>
</g>
<!-- Node13&#45;&gt;Node10 -->
<g id="edge25_Node000013_Node000010" class="edge">
<title>Node13&#45;&gt;Node10</title>
<g id="a_edge25_Node000013_Node000010"><a xlink:title=" ">
<path fill="none" stroke="#63b8ff" d="M400.41,-112.09C395.72,-111.37 391.01,-110.66 386.5,-110 270.83,-93.13 238.66,-94.42 120.11,-74.17"/>
<polygon fill="#63b8ff" stroke="#63b8ff" points="120.35,-70.66 109.9,-72.41 119.16,-77.56 120.35,-70.66"/>
</a>
</g>
</g>
<!-- Node14 -->
<g id="Node000014" class="node">
<title>Node14</title>
<g id="a_Node000014"><a xlink:title=" ">
<polygon fill="#e0e0e0" stroke="#999999" points="279,-74 250,-74 250,-55 279,-55 279,-74"/>
<text text-anchor="middle" x="264.5" y="-62" font-family="Helvetica,sans-Serif" font-size="10.00">bit</text>
</a>
</g>
</g>
<!-- Node13&#45;&gt;Node14 -->
<g id="edge18_Node000013_Node000014" class="edge">
<title>Node13&#45;&gt;Node14</title>
<g id="a_edge18_Node000013_Node000014"><a xlink:title=" ">
<path fill="none" stroke="#63b8ff" d="M408.65,-109.95C379.57,-101.98 335.2,-89.44 288.68,-74.23"/>
<polygon fill="#63b8ff" stroke="#63b8ff" points="289.64,-70.86 279.05,-71.05 287.45,-77.51 289.64,-70.86"/>
</a>
</g>
</g>
<!-- Node15 -->
<g id="Node000015" class="node">
<title>Node15</title>
<g id="a_Node000015"><a xlink:title=" ">
<polygon fill="#e0e0e0" stroke="#999999" points="344,-74 297,-74 297,-55 344,-55 344,-74"/>
<text text-anchor="middle" x="320.5" y="-62" font-family="Helvetica,sans-Serif" font-size="10.00">cmath</text>
</a>
</g>
</g>
<!-- Node13&#45;&gt;Node15 -->
<g id="edge19_Node000013_Node000015" class="edge">
<title>Node13&#45;&gt;Node15</title>
<g id="a_edge19_Node000013_Node000015"><a xlink:title=" ">
<path fill="none" stroke="#63b8ff" d="M421.22,-109.98C401.83,-101.42 371.69,-88.11 349.43,-78.28"/>
<polygon fill="#63b8ff" stroke="#63b8ff" points="350.69,-75.01 340.13,-74.17 347.86,-81.41 350.69,-75.01"/>
</a>
</g>
</g>
<!-- Node16 -->
<g id="Node000016" class="node">
<title>Node16</title>
<g id="a_Node000016"><a xlink:title=" ">
<polygon fill="#e0e0e0" stroke="#999999" points="466.5,-74 362.5,-74 362.5,-55 466.5,-55 466.5,-74"/>
<text text-anchor="middle" x="414.5" y="-62" font-family="Helvetica,sans-Serif" font-size="10.00">ein.numerics.fp16</text>
</a>
</g>
</g>
<!-- Node13&#45;&gt;Node16 -->
<g id="edge23_Node000013_Node000016" class="edge">
<title>Node13&#45;&gt;Node16</title>
<g id="a_edge23_Node000013_Node000016"><a xlink:title=" ">
<path fill="none" stroke="#63b8ff" d="M436.21,-109.75C432.69,-102.57 427.59,-92.18 423.22,-83.27"/>
<polygon fill="#63b8ff" stroke="#63b8ff" points="426.26,-81.53 418.71,-74.09 419.98,-84.61 426.26,-81.53"/>
</a>
</g>
</g>
<!-- Node17 -->
<g id="Node000017" class="node">
<title>Node17</title>
<g id="a_Node000017"><a xlink:title=" ">
<polygon fill="#e0e0e0" stroke="#999999" points="231.5,-74 127.5,-74 127.5,-55 231.5,-55 231.5,-74"/>
<text text-anchor="middle" x="179.5" y="-62" font-family="Helvetica,sans-Serif" font-size="10.00">ein.numerics.bf16</text>
</a>
</g>
</g>
<!-- Node13&#45;&gt;Node17 -->
<g id="edge24_Node000013_Node000017" class="edge">
<title>Node13&#45;&gt;Node17</title>
<g id="a_edge24_Node000013_Node000017"><a xlink:title=" ">
<path fill="none" stroke="#63b8ff" d="M400.29,-110.33C354.94,-101.13 281.06,-86.12 231.39,-76.04"/>
<polygon fill="#63b8ff" stroke="#63b8ff" points="231.98,-72.59 221.49,-74.03 230.59,-79.45 231.98,-72.59"/>
</a>
</g>
</g>
</g>
</svg>
