<?xml version="1.0" encoding="UTF-8" standalone="no"?>
<!DOCTYPE svg PUBLIC "-//W3C//DTD SVG 1.1//EN"
 "http://www.w3.org/Graphics/SVG/1.1/DTD/svg11.dtd">
<!-- Generated by graphviz version 2.42.4 (0)
 -->
<!-- Title: simd_data.cppm Pages: 1 -->
<svg width="680pt" height="192pt"
 viewBox="0.00 0.00 680.21 192.00" xmlns="http://www.w3.org/2000/svg" xmlns:xlink="http://www.w3.org/1999/xlink">
<g id="graph0" class="graph" transform="scale(1 1) rotate(0) translate(4 188)">
<title>simd_data.cppm</title>
<!-- Node1 -->
<g id="Node000001" class="node">
<title>Node1</title>
<g id="a_Node000001"><a xlink:title=" ">
<polygon fill="#999999" stroke="#666666" points="226.21,-184 128.21,-184 128.21,-165 226.21,-165 226.21,-184"/>
<text text-anchor="middle" x="177.21" y="-172" font-family="Helvetica,sans-Serif" font-size="10.00">simd_data.cppm</text>
</a>
</g>
</g>
<!-- Node2 -->
<g id="Node000002" class="node">
<title>Node2</title>
<g id="a_Node000002"><a xlink:title=" ">
<polygon fill="#e0e0e0" stroke="#999999" points="69.21,-74 19.21,-74 19.21,-55 69.21,-55 69.21,-74"/>
<text text-anchor="middle" x="44.21" y="-62" font-family="Helvetica,sans-Serif" font-size="10.00">cstdint</text>
</a>
</g>
</g>
<!-- Node1&#45;&gt;Node2 -->
<g id="edge1_Node000001_Node000002" class="edge">
<title>Node1&#45;&gt;Node2</title>
<g id="a_edge1_Node000001_Node000002"><a xlink:title=" ">
<path fill="none" stroke="#63b8ff" d="M166.32,-164.66C143.61,-146.22 90.93,-103.45 62.76,-80.57"/>
<polygon fill="#63b8ff" stroke="#63b8ff" points="64.84,-77.75 54.87,-74.16 60.42,-83.18 64.84,-77.75"/>
</a>
</g>
</g>
<!-- Node3 -->
<g id="Node000003" class="node">
<title>Node3</title>
<g id="a_Node000003"><a xlink:title=" ">
<polygon fill="#e0e0e0" stroke="#999999" points="156.71,-74 87.71,-74 87.71,-55 156.71,-55 156.71,-74"/>
<text text-anchor="middle" x="122.21" y="-62" font-family="Helvetica,sans-Serif" font-size="10.00">type_traits</text>
</a>
</g>
</g>
<!-- Node1&#45;&gt;Node3 -->
<g id="edge2_Node000001_Node000003" class="edge">
<title>Node1&#45;&gt;Node3</title>
<g id="a_edge2_Node000001_Node000003"><a xlink:title=" ">
<path fill="none" stroke="#63b8ff" d="M172.7,-164.66C163.68,-146.93 143.2,-106.73 131.28,-83.32"/>
<polygon fill="#63b8ff" stroke="#63b8ff" points="134.27,-81.48 126.61,-74.16 128.03,-84.66 134.27,-81.48"/>
</a>
</g>
</g>
<!-- Node4 -->
<g id="Node000004" class="node">
<title>Node4</title>
<g id="a_Node000004"><a xlink:title=" ">
<polygon fill="#e0e0e0" stroke="#999999" points="394.21,-129 320.21,-129 320.21,-110 394.21,-110 394.21,-129"/>
<text text-anchor="middle" x="357.21" y="-117" font-family="Helvetica,sans-Serif" font-size="10.00">immintrin.h</text>
</a>
</g>
</g>
<!-- Node1&#45;&gt;Node4 -->
<g id="edge3_Node000001_Node000004" class="edge">
<title>Node1&#45;&gt;Node4</title>
<g id="a_edge3_Node000001_Node000004"><a xlink:title=" ">
<path fill="none" stroke="#63b8ff" d="M206.13,-164.98C236.48,-156.05 284.37,-141.94 318.09,-132.02"/>
<polygon fill="#63b8ff" stroke="#63b8ff" points="319.45,-135.26 328.06,-129.08 317.48,-128.55 319.45,-135.26"/>
</a>
</g>
</g>
<!-- Node5 -->
<g id="Node000005" class="node">
<title>Node5</title>
<g id="a_Node000005"><a xlink:href="attributes_8hpp.html" target="_top" xlink:title="an opinionated subset of clang/gcc attributes">
<polygon fill="white" stroke="#666666" points="292.71,-19 207.71,-19 207.71,0 292.71,0 292.71,-19"/>
<text text-anchor="middle" x="250.21" y="-7" font-family="Helvetica,sans-Serif" font-size="10.00">attributes.hpp</text>
</a>
</g>
</g>
<!-- Node1&#45;&gt;Node5 -->
<g id="edge4_Node000001_Node000005" class="edge">
<title>Node1&#45;&gt;Node5</title>
<g id="a_edge4_Node000001_Node000005"><a xlink:title=" ">
<path fill="none" stroke="#63b8ff" d="M143.4,-164.96C82.92,-148.11 -33.55,-107.62 10.21,-55 33.53,-26.95 134.03,-16.5 197.35,-12.67"/>
<polygon fill="#63b8ff" stroke="#63b8ff" points="197.78,-16.15 207.56,-12.09 197.38,-9.16 197.78,-16.15"/>
</a>
</g>
</g>
<!-- Node6 -->
<g id="Node000006" class="node">
<title>Node6</title>
<g id="a_Node000006"><a xlink:href="types_8cppm.html" target="_top" xlink:title=" ">
<polygon fill="white" stroke="#666666" points="632.21,-74 570.21,-74 570.21,-55 632.21,-55 632.21,-74"/>
<text text-anchor="middle" x="601.21" y="-62" font-family="Helvetica,sans-Serif" font-size="10.00">ein.types</text>
</a>
</g>
</g>
<!-- Node1&#45;&gt;Node6 -->
<g id="edge5_Node000001_Node000006" class="edge">
<title>Node1&#45;&gt;Node6</title>
<g id="a_edge5_Node000001_Node000006"><a xlink:title=" ">
<path fill="none" stroke="#63b8ff" d="M196.05,-164.97C215.46,-156.13 246.56,-141.83 273.21,-129 290.22,-120.81 293.18,-115.64 311.21,-110 415.3,-77.42 448.79,-92.74 559.89,-74.1"/>
<polygon fill="#63b8ff" stroke="#63b8ff" points="560.55,-77.54 569.8,-72.38 559.35,-70.64 560.55,-77.54"/>
</a>
</g>
</g>
<!-- Node9 -->
<g id="Node000009" class="node">
<title>Node9</title>
<g id="a_Node000009"><a xlink:href="numerics_8cppm.html" target="_top" xlink:title=" ">
<polygon fill="white" stroke="#666666" points="264.21,-129 184.21,-129 184.21,-110 264.21,-110 264.21,-129"/>
<text text-anchor="middle" x="224.21" y="-117" font-family="Helvetica,sans-Serif" font-size="10.00">ein.numerics</text>
</a>
</g>
</g>
<!-- Node1&#45;&gt;Node9 -->
<g id="edge9_Node000001_Node000009" class="edge">
<title>Node1&#45;&gt;Node9</title>
<g id="a_edge9_Node000001_Node000009"><a xlink:title=" ">
<path fill="none" stroke="#63b8ff" d="M184.97,-164.75C191.67,-157.18 201.55,-146.05 209.71,-136.84"/>
<polygon fill="#63b8ff" stroke="#63b8ff" points="212.57,-138.89 216.59,-129.09 207.34,-134.25 212.57,-138.89"/>
</a>
</g>
</g>
<!-- Node6&#45;&gt;Node5 -->
<g id="edge7_Node000006_Node000005" class="edge">
<title>Node6&#45;&gt;Node5</title>
<g id="a_edge7_Node000006_Node000005"><a xlink:title=" ">
<path fill="none" stroke="#63b8ff" d="M569.8,-56.62C566.9,-56.05 564,-55.5 561.21,-55 470.78,-38.94 364.77,-24.76 302.79,-16.93"/>
<polygon fill="#63b8ff" stroke="#63b8ff" points="303.22,-13.45 292.86,-15.68 302.34,-20.4 303.22,-13.45"/>
</a>
</g>
</g>
<!-- Node7 -->
<g id="Node000007" class="node">
<title>Node7</title>
<g id="a_Node000007"><a xlink:title=" ">
<polygon fill="#e0e0e0" stroke="#999999" points="595.71,-19 522.71,-19 522.71,0 595.71,0 595.71,-19"/>
<text text-anchor="middle" x="559.21" y="-7" font-family="Helvetica,sans-Serif" font-size="10.00">string_view</text>
</a>
</g>
</g>
<!-- Node6&#45;&gt;Node7 -->
<g id="edge6_Node000006_Node000007" class="edge">
<title>Node6&#45;&gt;Node7</title>
<g id="a_edge6_Node000006_Node000007"><a xlink:title=" ">
<path fill="none" stroke="#63b8ff" d="M594.27,-54.75C588.34,-47.26 579.63,-36.28 572.38,-27.13"/>
<polygon fill="#63b8ff" stroke="#63b8ff" points="574.97,-24.75 566.01,-19.09 569.48,-29.1 574.97,-24.75"/>
</a>
</g>
</g>
<!-- Node8 -->
<g id="Node000008" class="node">
<title>Node8</title>
<g id="a_Node000008"><a xlink:title=" ">
<polygon fill="#e0e0e0" stroke="#999999" points="672.21,-19 614.21,-19 614.21,0 672.21,0 672.21,-19"/>
<text text-anchor="middle" x="643.21" y="-7" font-family="Helvetica,sans-Serif" font-size="10.00">cxxabi.h</text>
</a>
</g>
</g>
<!-- Node6&#45;&gt;Node8 -->
<g id="edge8_Node000006_Node000008" class="edge">
<title>Node6&#45;&gt;Node8</title>
<g id="a_edge8_Node000006_Node000008"><a xlink:title=" ">
<path fill="none" stroke="#63b8ff" d="M608.14,-54.75C614.07,-47.26 622.78,-36.28 630.03,-27.13"/>
<polygon fill="#63b8ff" stroke="#63b8ff" points="632.93,-29.1 636.4,-19.09 627.44,-24.75 632.93,-29.1"/>
</a>
</g>
</g>
<!-- Node9&#45;&gt;Node2 -->
<g id="edge12_Node000009_Node000002" class="edge">
<title>Node9&#45;&gt;Node2</title>
<g id="a_edge12_Node000009_Node000002"><a xlink:title=" ">
<path fill="none" stroke="#63b8ff" d="M195.29,-109.98C163.67,-100.68 113.03,-85.76 79.2,-75.8"/>
<polygon fill="#63b8ff" stroke="#63b8ff" points="79.86,-72.35 69.28,-72.88 77.88,-79.07 79.86,-72.35"/>
</a>
</g>
</g>
<!-- Node9&#45;&gt;Node3 -->
<g id="edge13_Node000009_Node000003" class="edge">
<title>Node9&#45;&gt;Node3</title>
<g id="a_edge13_Node000009_Node000003"><a xlink:title=" ">
<path fill="none" stroke="#63b8ff" d="M207.82,-109.98C191.63,-101.57 166.64,-88.59 147.82,-78.81"/>
<polygon fill="#63b8ff" stroke="#63b8ff" points="149.38,-75.68 138.89,-74.17 146.15,-81.89 149.38,-75.68"/>
</a>
</g>
</g>
<!-- Node9&#45;&gt;Node5 -->
<g id="edge14_Node000009_Node000005" class="edge">
<title>Node9&#45;&gt;Node5</title>
<g id="a_edge14_Node000009_Node000005"><a xlink:title=" ">
<path fill="none" stroke="#63b8ff" d="M226.33,-109.66C230.56,-92.09 240.11,-52.45 245.76,-28.95"/>
<polygon fill="#63b8ff" stroke="#63b8ff" points="249.18,-29.7 248.12,-19.16 242.38,-28.06 249.18,-29.7"/>
</a>
</g>
</g>
<!-- Node9&#45;&gt;Node6 -->
<g id="edge17_Node000009_Node000006" class="edge">
<title>Node9&#45;&gt;Node6</title>
<g id="a_edge17_Node000009_Node000006"><a xlink:title=" ">
<path fill="none" stroke="#63b8ff" d="M264.29,-112.06C268.98,-111.34 273.7,-110.64 278.21,-110 400.55,-92.59 434.49,-95.05 559.82,-74.11"/>
<polygon fill="#63b8ff" stroke="#63b8ff" points="560.53,-77.54 569.81,-72.43 559.37,-70.64 560.53,-77.54"/>
</a>
</g>
</g>
<!-- Node10 -->
<g id="Node000010" class="node">
<title>Node10</title>
<g id="a_Node000010"><a xlink:title=" ">
<polygon fill="#e0e0e0" stroke="#999999" points="551.71,-74 522.71,-74 522.71,-55 551.71,-55 551.71,-74"/>
<text text-anchor="middle" x="537.21" y="-62" font-family="Helvetica,sans-Serif" font-size="10.00">bit</text>
</a>
</g>
</g>
<!-- Node9&#45;&gt;Node10 -->
<g id="edge10_Node000009_Node000010" class="edge">
<title>Node9&#45;&gt;Node10</title>
<g id="a_edge10_Node000009_Node000010"><a xlink:title=" ">
<path fill="none" stroke="#63b8ff" d="M264.31,-112.17C268.99,-111.43 273.7,-110.7 278.21,-110 379.46,-94.28 408.96,-99.41 512.68,-73.66"/>
<polygon fill="#63b8ff" stroke="#63b8ff" points="513.77,-77 522.62,-71.16 512.06,-70.21 513.77,-77"/>
</a>
</g>
</g>
<!-- Node11 -->
<g id="Node000011" class="node">
<title>Node11</title>
<g id="a_Node000011"><a xlink:title=" ">
<polygon fill="#e0e0e0" stroke="#999999" points="221.71,-74 174.71,-74 174.71,-55 221.71,-55 221.71,-74"/>
<text text-anchor="middle" x="198.21" y="-62" font-family="Helvetica,sans-Serif" font-size="10.00">cmath</text>
</a>
</g>
</g>
<!-- Node9&#45;&gt;Node11 -->
<g id="edge11_Node000009_Node000011" class="edge">
<title>Node9&#45;&gt;Node11</title>
<g id="a_edge11_Node000009_Node000011"><a xlink:title=" ">
<path fill="none" stroke="#63b8ff" d="M219.91,-109.75C216.39,-102.57 211.29,-92.18 206.92,-83.27"/>
<polygon fill="#63b8ff" stroke="#63b8ff" points="209.97,-81.53 202.42,-74.09 203.68,-84.61 209.97,-81.53"/>
</a>
</g>
</g>
<!-- Node12 -->
<g id="Node000012" class="node">
<title>Node12</title>
<g id="a_Node000012"><a xlink:title=" ">
<polygon fill="#e0e0e0" stroke="#999999" points="382.21,-74 278.21,-74 278.21,-55 382.21,-55 382.21,-74"/>
<text text-anchor="middle" x="330.21" y="-62" font-family="Helvetica,sans-Serif" font-size="10.00">ein.numerics.fp16</text>
</a>
</g>
</g>
<!-- Node9&#45;&gt;Node12 -->
<g id="edge15_Node000009_Node000012" class="edge">
<title>Node9&#45;&gt;Node12</title>
<g id="a_edge15_Node000009_Node000012"><a xlink:title=" ">
<path fill="none" stroke="#63b8ff" d="M241.24,-109.98C258.13,-101.54 284.27,-88.47 303.85,-78.68"/>
<polygon fill="#63b8ff" stroke="#63b8ff" points="305.49,-81.77 312.86,-74.17 302.36,-75.51 305.49,-81.77"/>
</a>
</g>
</g>
<!-- Node13 -->
<g id="Node000013" class="node">
<title>Node13</title>
<g id="a_Node000013"><a xlink:title=" ">
<polygon fill="#e0e0e0" stroke="#999999" points="504.21,-74 400.21,-74 400.21,-55 504.21,-55 504.21,-74"/>
<text text-anchor="middle" x="452.21" y="-62" font-family="Helvetica,sans-Serif" font-size="10.00">ein.numerics.bf16</text>
</a>
</g>
</g>
<!-- Node9&#45;&gt;Node13 -->
<g id="edge16_Node000009_Node000013" class="edge">
<title>Node9&#45;&gt;Node13</title>
<g id="a_edge16_Node000009_Node000013"><a xlink:title=" ">
<path fill="none" stroke="#63b8ff" d="M260.84,-109.98C300.11,-100.86 362.58,-86.33 405.39,-76.38"/>
<polygon fill="#63b8ff" stroke="#63b8ff" points="406.34,-79.76 415.29,-74.08 404.75,-72.94 406.34,-79.76"/>
</a>
</g>
</g>
</g>
</svg>
