<?xml version="1.0" encoding="UTF-8" standalone="no"?>
<!DOCTYPE svg PUBLIC "-//W3C//DTD SVG 1.1//EN"
 "http://www.w3.org/Graphics/SVG/1.1/DTD/svg11.dtd">
<!-- Generated by graphviz version 2.42.4 (0)
 -->
<!-- Title: simd_data.hpp Pages: 1 -->
<!--zoomable 192 -->

<svg id="main" version="1.1" xmlns="http://www.w3.org/2000/svg" xmlns:xlink="http://www.w3.org/1999/xlink" xml:space="preserve" onload="init(evt)">

<style type="text/css"><![CDATA[
.node, .edge {opacity: 0.7;}
.node.selected, .edge.selected {opacity: 1;}
.edge:hover path { stroke: red; }
.edge:hover polygon { stroke: red; fill: red; }
]]></style>

<defs>
  <circle id="rim" cx="0" cy="0" r="7"/>
  <circle id="rim2" cx="0" cy="0" r="3.5"/>
  <g id="zoomPlus">
    <use xlink:href="#rim" fill="#404040"><set attributeName="fill" to="#808080" begin="zoomplus.mouseover" end="zoomplus.mouseout"/></use>
    <path d="M-4,0h8M0,-4v8" fill="none" stroke="white" stroke-width="1.5" pointer-events="none"/>
  </g>
  <g id="zoomMin">
    <use xlink:href="#rim" fill="#404040"><set attributeName="fill" to="#808080" begin="zoomminus.mouseover" end="zoomminus.mouseout"/></use>
    <path d="M-4,0h8" fill="none" stroke="white" stroke-width="1.5" pointer-events="none"/>
  </g>
  <g id="arrowUp" transform="translate(30 24)">
    <use xlink:href="#rim"/>
    <path pointer-events="none" fill="none" stroke="white" stroke-width="1.5" d="M0,-3.0v7 M-2.5,-0.5L0,-3.0L2.5,-0.5"/>
  </g>
  <g id="arrowRight" transform="rotate(90) translate(36 -43)">
    <use xlink:href="#rim"/>
    <path pointer-events="none" fill="none" stroke="white" stroke-width="1.5" d="M0,-3.0v7 M-2.5,-0.5L0,-3.0L2.5,-0.5"/>
  </g>
  <g id="arrowDown" transform="rotate(180) translate(-30 -48)">
    <use xlink:href="#rim"/>
    <path pointer-events="none" fill="none" stroke="white" stroke-width="1.5" d="M0,-3.0v7 M-2.5,-0.5L0,-3.0L2.5,-0.5"/>
  </g>
  <g id="arrowLeft" transform="rotate(270) translate(-36 17)">
    <use xlink:href="#rim"/>
    <path pointer-events="none" fill="none" stroke="white" stroke-width="1.5" d="M0,-3.0v7 M-2.5,-0.5L0,-3.0L2.5,-0.5"/>
  </g>
  <g id="resetDef">
    <use xlink:href="#rim2" fill="#404040"><set attributeName="fill" to="#808080" begin="reset.mouseover" end="reset.mouseout"/></use>
  </g>
</defs>
<script type="application/ecmascript">
var viewWidth = 797;
var viewHeight = 192;
var sectionId = 'dynsection-0';
</script>
<script type="application/ecmascript" xlink:href="svg.min.js"/>
<svg id="graph" class="graph">
<g id="viewport">
<title>simd_data.hpp</title>
<!-- Node1 -->
<g id="Node000001" class="node">
<title>Node1</title>
<g id="a_Node000001"><a xlink:title=" ">
<polygon fill="#999999" stroke="#666666" points="274.11,-184 185.11,-184 185.11,-165 274.11,-165 274.11,-184"/>
<text text-anchor="middle" x="229.61" y="-172" font-family="Helvetica,sans-Serif" font-size="10.00">simd_data.hpp</text>
</a>
</g>
</g>
<!-- Node2 -->
<g id="Node000002" class="node">
<title>Node2</title>
<g id="a_Node000002"><a xlink:title=" ">
<polygon fill="#e0e0e0" stroke="#999999" points="167.61,-19 117.61,-19 117.61,0 167.61,0 167.61,-19"/>
<text text-anchor="middle" x="142.61" y="-7" font-family="Helvetica,sans-Serif" font-size="10.00">cstdint</text>
</a>
</g>
</g>
<!-- Node1&#45;&gt;Node2 -->
<g id="edge1_Node000001_Node000002" class="edge">
<title>Node1&#45;&gt;Node2</title>
<g id="a_edge1_Node000001_Node000002"><a xlink:title=" ">
<path fill="none" stroke="#63b8ff" d="M184.91,-168.82C130.71,-160.42 42,-137.24 4.61,-74 -19.59,-33.08 58.72,-18.3 107.17,-13.14"/>
<polygon fill="#63b8ff" stroke="#63b8ff" points="107.69,-16.61 117.3,-12.15 107.01,-9.64 107.69,-16.61"/>
</a>
</g>
</g>
<!-- Node3 -->
<g id="Node000003" class="node">
<title>Node3</title>
<g id="a_Node000003"><a xlink:title=" ">
<polygon fill="#e0e0e0" stroke="#999999" points="83.11,-74 14.11,-74 14.11,-55 83.11,-55 83.11,-74"/>
<text text-anchor="middle" x="48.61" y="-62" font-family="Helvetica,sans-Serif" font-size="10.00">type_traits</text>
</a>
</g>
</g>
<!-- Node1&#45;&gt;Node3 -->
<g id="edge2_Node000001_Node000003" class="edge">
<title>Node1&#45;&gt;Node3</title>
<g id="a_edge2_Node000001_Node000003"><a xlink:title=" ">
<path fill="none" stroke="#63b8ff" d="M208.49,-164.86C189.05,-156.6 159.66,-143.3 135.61,-129 110.83,-114.27 84.35,-94.26 67.2,-80.67"/>
<polygon fill="#63b8ff" stroke="#63b8ff" points="69.13,-77.73 59.14,-74.2 64.75,-83.19 69.13,-77.73"/>
</a>
</g>
</g>
<!-- Node4 -->
<g id="Node000004" class="node">
<title>Node4</title>
<g id="a_Node000004"><a xlink:title=" ">
<polygon fill="#e0e0e0" stroke="#999999" points="218.61,-129 144.61,-129 144.61,-110 218.61,-110 218.61,-129"/>
<text text-anchor="middle" x="181.61" y="-117" font-family="Helvetica,sans-Serif" font-size="10.00">immintrin.h</text>
</a>
</g>
</g>
<!-- Node1&#45;&gt;Node4 -->
<g id="edge3_Node000001_Node000004" class="edge">
<title>Node1&#45;&gt;Node4</title>
<g id="a_edge3_Node000001_Node000004"><a xlink:title=" ">
<path fill="none" stroke="#63b8ff" d="M221.68,-164.75C214.76,-157.11 204.54,-145.82 196.16,-136.56"/>
<polygon fill="#63b8ff" stroke="#63b8ff" points="198.69,-134.15 189.39,-129.09 193.5,-138.85 198.69,-134.15"/>
</a>
</g>
</g>
<!-- Node5 -->
<g id="Node000005" class="node">
<title>Node5</title>
<g id="a_Node000005"><a xlink:href="common_8hpp.html" target="_top" xlink:title=" ">
<polygon fill="white" stroke="#666666" points="558.11,-19 427.11,-19 427.11,0 558.11,0 558.11,-19"/>
<text text-anchor="middle" x="492.61" y="-7" font-family="Helvetica,sans-Serif" font-size="10.00">attributes/common.hpp</text>
</a>
</g>
</g>
<!-- Node1&#45;&gt;Node5 -->
<g id="edge4_Node000001_Node000005" class="edge">
<title>Node1&#45;&gt;Node5</title>
<g id="a_edge4_Node000001_Node000005"><a xlink:title=" ">
<path fill="none" stroke="#63b8ff" d="M274.26,-172.03C337.36,-167.26 450.69,-148.19 502.61,-74 511.89,-60.74 507.44,-42.12 501.85,-28.48"/>
<polygon fill="#63b8ff" stroke="#63b8ff" points="504.92,-26.79 497.55,-19.18 498.57,-29.72 504.92,-26.79"/>
</a>
</g>
</g>
<!-- Node6 -->
<g id="Node000006" class="node">
<title>Node6</title>
<g id="a_Node000006"><a xlink:href="numerics_8hpp.html" target="_top" xlink:title=" ">
<polygon fill="white" stroke="#666666" points="320.11,-129 237.11,-129 237.11,-110 320.11,-110 320.11,-129"/>
<text text-anchor="middle" x="278.61" y="-117" font-family="Helvetica,sans-Serif" font-size="10.00">numerics.hpp</text>
</a>
</g>
</g>
<!-- Node1&#45;&gt;Node6 -->
<g id="edge5_Node000001_Node000006" class="edge">
<title>Node1&#45;&gt;Node6</title>
<g id="a_edge5_Node000001_Node000006"><a xlink:title=" ">
<path fill="none" stroke="#63b8ff" d="M237.7,-164.75C244.76,-157.11 255.19,-145.82 263.76,-136.56"/>
<polygon fill="#63b8ff" stroke="#63b8ff" points="266.45,-138.81 270.67,-129.09 261.31,-134.06 266.45,-138.81"/>
</a>
</g>
</g>
<!-- Node9 -->
<g id="Node000009" class="node">
<title>Node9</title>
<g id="a_Node000009"><a xlink:href="types_8hpp.html" target="_top" xlink:title=" ">
<polygon fill="white" stroke="#666666" points="635.11,-74 570.11,-74 570.11,-55 635.11,-55 635.11,-74"/>
<text text-anchor="middle" x="602.61" y="-62" font-family="Helvetica,sans-Serif" font-size="10.00">types.hpp</text>
</a>
</g>
</g>
<!-- Node1&#45;&gt;Node9 -->
<g id="edge28_Node000001_Node000009" class="edge">
<title>Node1&#45;&gt;Node9</title>
<g id="a_edge28_Node000001_Node000009"><a xlink:title=" ">
<path fill="none" stroke="#63b8ff" d="M274.13,-171.67C351.96,-167.77 508.91,-156.65 555.61,-129 573.44,-118.44 586.6,-98.22 594.39,-83.42"/>
<polygon fill="#63b8ff" stroke="#63b8ff" points="597.63,-84.75 598.91,-74.23 591.35,-81.66 597.63,-84.75"/>
</a>
</g>
</g>
<!-- Node6&#45;&gt;Node2 -->
<g id="edge8_Node000006_Node000002" class="edge">
<title>Node6&#45;&gt;Node2</title>
<g id="a_edge8_Node000006_Node000002"><a xlink:title=" ">
<path fill="none" stroke="#63b8ff" d="M236.88,-112.15C211.87,-106.27 181.21,-95.09 161.61,-74 150.34,-61.89 145.74,-43.35 143.87,-29.43"/>
<polygon fill="#63b8ff" stroke="#63b8ff" points="147.31,-28.67 142.85,-19.06 140.34,-29.36 147.31,-28.67"/>
</a>
</g>
</g>
<!-- Node6&#45;&gt;Node3 -->
<g id="edge9_Node000006_Node000003" class="edge">
<title>Node6&#45;&gt;Node3</title>
<g id="a_edge9_Node000006_Node000003"><a xlink:title=" ">
<path fill="none" stroke="#63b8ff" d="M241.65,-109.98C201.21,-100.67 136.39,-85.73 93.17,-75.77"/>
<polygon fill="#63b8ff" stroke="#63b8ff" points="93.74,-72.31 83.21,-73.47 92.17,-79.13 93.74,-72.31"/>
</a>
</g>
</g>
<!-- Node6&#45;&gt;Node5 -->
<g id="edge10_Node000006_Node000005" class="edge">
<title>Node6&#45;&gt;Node5</title>
<g id="a_edge10_Node000006_Node000005"><a xlink:title=" ">
<path fill="none" stroke="#63b8ff" d="M320.47,-115.09C374.15,-109.8 462.92,-97.67 484.61,-74 495.51,-62.11 496.62,-43.28 495.53,-29.21"/>
<polygon fill="#63b8ff" stroke="#63b8ff" points="499,-28.68 494.34,-19.17 492.05,-29.51 499,-28.68"/>
</a>
</g>
</g>
<!-- Node7 -->
<g id="Node000007" class="node">
<title>Node7</title>
<g id="a_Node000007"><a xlink:title=" ">
<polygon fill="#e0e0e0" stroke="#999999" points="246.11,-19 217.11,-19 217.11,0 246.11,0 246.11,-19"/>
<text text-anchor="middle" x="231.61" y="-7" font-family="Helvetica,sans-Serif" font-size="10.00">bit</text>
</a>
</g>
</g>
<!-- Node6&#45;&gt;Node7 -->
<g id="edge6_Node000006_Node000007" class="edge">
<title>Node6&#45;&gt;Node7</title>
<g id="a_edge6_Node000006_Node000007"><a xlink:title=" ">
<path fill="none" stroke="#63b8ff" d="M246.86,-109.94C217.73,-101.37 177.73,-87.54 168.61,-74 154.34,-52.84 184.36,-32.67 207.68,-20.95"/>
<polygon fill="#63b8ff" stroke="#63b8ff" points="209.28,-24.06 216.81,-16.6 206.27,-17.74 209.28,-24.06"/>
</a>
</g>
</g>
<!-- Node8 -->
<g id="Node000008" class="node">
<title>Node8</title>
<g id="a_Node000008"><a xlink:title=" ">
<polygon fill="#e0e0e0" stroke="#999999" points="350.11,-74 303.11,-74 303.11,-55 350.11,-55 350.11,-74"/>
<text text-anchor="middle" x="326.61" y="-62" font-family="Helvetica,sans-Serif" font-size="10.00">cmath</text>
</a>
</g>
</g>
<!-- Node6&#45;&gt;Node8 -->
<g id="edge7_Node000006_Node000008" class="edge">
<title>Node6&#45;&gt;Node8</title>
<g id="a_edge7_Node000006_Node000008"><a xlink:title=" ">
<path fill="none" stroke="#63b8ff" d="M286.53,-109.75C293.45,-102.11 303.67,-90.82 312.06,-81.56"/>
<polygon fill="#63b8ff" stroke="#63b8ff" points="314.71,-83.85 318.83,-74.09 309.52,-79.15 314.71,-83.85"/>
</a>
</g>
</g>
<!-- Node6&#45;&gt;Node9 -->
<g id="edge11_Node000006_Node000009" class="edge">
<title>Node6&#45;&gt;Node9</title>
<g id="a_edge11_Node000006_Node000009"><a xlink:title=" ">
<path fill="none" stroke="#63b8ff" d="M320.3,-111.68C382.15,-101.56 497.58,-82.68 559.97,-72.47"/>
<polygon fill="#63b8ff" stroke="#63b8ff" points="560.57,-75.92 569.88,-70.85 559.44,-69.01 560.57,-75.92"/>
</a>
</g>
</g>
<!-- Node13 -->
<g id="Node000013" class="node">
<title>Node13</title>
<g id="a_Node000013"><a xlink:href="bf16_8hpp.html" target="_top" xlink:title=" ">
<polygon fill="white" stroke="#666666" points="475.11,-74 368.11,-74 368.11,-55 475.11,-55 475.11,-74"/>
<text text-anchor="middle" x="421.61" y="-62" font-family="Helvetica,sans-Serif" font-size="10.00">numerics/bf16.hpp</text>
</a>
</g>
</g>
<!-- Node6&#45;&gt;Node13 -->
<g id="edge16_Node000006_Node000013" class="edge">
<title>Node6&#45;&gt;Node13</title>
<g id="a_edge16_Node000006_Node000013"><a xlink:title=" ">
<path fill="none" stroke="#63b8ff" d="M301.58,-109.98C325.11,-101.27 361.89,-87.63 388.54,-77.75"/>
<polygon fill="#63b8ff" stroke="#63b8ff" points="390.05,-80.93 398.21,-74.17 387.62,-74.36 390.05,-80.93"/>
</a>
</g>
</g>
<!-- Node16 -->
<g id="Node000016" class="node">
<title>Node16</title>
<g id="a_Node000016"><a xlink:href="fp16_8hpp.html" target="_top" xlink:title=" ">
<polygon fill="white" stroke="#666666" points="285.11,-74 178.11,-74 178.11,-55 285.11,-55 285.11,-74"/>
<text text-anchor="middle" x="231.61" y="-62" font-family="Helvetica,sans-Serif" font-size="10.00">numerics/fp16.hpp</text>
</a>
</g>
</g>
<!-- Node6&#45;&gt;Node16 -->
<g id="edge22_Node000006_Node000016" class="edge">
<title>Node6&#45;&gt;Node16</title>
<g id="a_edge22_Node000006_Node000016"><a xlink:title=" ">
<path fill="none" stroke="#63b8ff" d="M270.85,-109.75C264.14,-102.18 254.27,-91.05 246.1,-81.84"/>
<polygon fill="#63b8ff" stroke="#63b8ff" points="248.48,-79.25 239.22,-74.09 243.24,-83.89 248.48,-79.25"/>
</a>
</g>
</g>
<!-- Node9&#45;&gt;Node5 -->
<g id="edge15_Node000009_Node000005" class="edge">
<title>Node9&#45;&gt;Node5</title>
<g id="a_edge15_Node000009_Node000005"><a xlink:title=" ">
<path fill="none" stroke="#63b8ff" d="M584.93,-54.98C567.32,-46.5 540.03,-33.35 519.68,-23.54"/>
<polygon fill="#63b8ff" stroke="#63b8ff" points="521.13,-20.36 510.6,-19.17 518.09,-26.66 521.13,-20.36"/>
</a>
</g>
</g>
<!-- Node10 -->
<g id="Node000010" class="node">
<title>Node10</title>
<g id="a_Node000010"><a xlink:title=" ">
<polygon fill="#e0e0e0" stroke="#999999" points="620.61,-19 576.61,-19 576.61,0 620.61,0 620.61,-19"/>
<text text-anchor="middle" x="598.61" y="-7" font-family="Helvetica,sans-Serif" font-size="10.00">string</text>
</a>
</g>
</g>
<!-- Node9&#45;&gt;Node10 -->
<g id="edge12_Node000009_Node000010" class="edge">
<title>Node9&#45;&gt;Node10</title>
<g id="a_edge12_Node000009_Node000010"><a xlink:title=" ">
<path fill="none" stroke="#63b8ff" d="M601.95,-54.75C601.42,-47.8 600.67,-37.85 600.01,-29.13"/>
<polygon fill="#63b8ff" stroke="#63b8ff" points="603.5,-28.8 599.26,-19.09 596.52,-29.32 603.5,-28.8"/>
</a>
</g>
</g>
<!-- Node11 -->
<g id="Node000011" class="node">
<title>Node11</title>
<g id="a_Node000011"><a xlink:title=" ">
<polygon fill="#e0e0e0" stroke="#999999" points="712.11,-19 639.11,-19 639.11,0 712.11,0 712.11,-19"/>
<text text-anchor="middle" x="675.61" y="-7" font-family="Helvetica,sans-Serif" font-size="10.00">string_view</text>
</a>
</g>
</g>
<!-- Node9&#45;&gt;Node11 -->
<g id="edge13_Node000009_Node000011" class="edge">
<title>Node9&#45;&gt;Node11</title>
<g id="a_edge13_Node000009_Node000011"><a xlink:title=" ">
<path fill="none" stroke="#63b8ff" d="M614.34,-54.98C625.34,-47 642.03,-34.88 655.21,-25.31"/>
<polygon fill="#63b8ff" stroke="#63b8ff" points="657.63,-27.88 663.67,-19.17 653.52,-22.21 657.63,-27.88"/>
</a>
</g>
</g>
<!-- Node12 -->
<g id="Node000012" class="node">
<title>Node12</title>
<g id="a_Node000012"><a xlink:title=" ">
<polygon fill="#e0e0e0" stroke="#999999" points="788.61,-19 730.61,-19 730.61,0 788.61,0 788.61,-19"/>
<text text-anchor="middle" x="759.61" y="-7" font-family="Helvetica,sans-Serif" font-size="10.00">cxxabi.h</text>
</a>
</g>
</g>
<!-- Node9&#45;&gt;Node12 -->
<g id="edge14_Node000009_Node000012" class="edge">
<title>Node9&#45;&gt;Node12</title>
<g id="a_edge14_Node000009_Node000012"><a xlink:title=" ">
<path fill="none" stroke="#63b8ff" d="M627.83,-54.98C653.96,-46.16 695,-32.31 724.34,-22.41"/>
<polygon fill="#63b8ff" stroke="#63b8ff" points="725.83,-25.6 734.18,-19.08 723.59,-18.96 725.83,-25.6"/>
</a>
</g>
</g>
<!-- Node13&#45;&gt;Node2 -->
<g id="edge19_Node000013_Node000002" class="edge">
<title>Node13&#45;&gt;Node2</title>
<g id="a_edge19_Node000013_Node000002"><a xlink:title=" ">
<path fill="none" stroke="#63b8ff" d="M376.78,-54.98C321.42,-44.47 228.38,-26.79 177.85,-17.19"/>
<polygon fill="#63b8ff" stroke="#63b8ff" points="178.21,-13.7 167.74,-15.27 176.91,-20.58 178.21,-13.7"/>
</a>
</g>
</g>
<!-- Node13&#45;&gt;Node5 -->
<g id="edge21_Node000013_Node000005" class="edge">
<title>Node13&#45;&gt;Node5</title>
<g id="a_edge21_Node000013_Node000005"><a xlink:title=" ">
<path fill="none" stroke="#63b8ff" d="M433.01,-54.98C443.72,-47 459.95,-34.88 472.77,-25.31"/>
<polygon fill="#63b8ff" stroke="#63b8ff" points="475.07,-27.96 480.99,-19.17 470.89,-22.35 475.07,-27.96"/>
</a>
</g>
</g>
<!-- Node13&#45;&gt;Node7 -->
<g id="edge17_Node000013_Node000007" class="edge">
<title>Node13&#45;&gt;Node7</title>
<g id="a_edge17_Node000013_Node000007"><a xlink:title=" ">
<path fill="none" stroke="#63b8ff" d="M391.08,-54.98C353.62,-44.54 290.85,-27.03 256.29,-17.39"/>
<polygon fill="#63b8ff" stroke="#63b8ff" points="257.1,-13.98 246.53,-14.66 255.22,-20.72 257.1,-13.98"/>
</a>
</g>
</g>
<!-- Node14 -->
<g id="Node000014" class="node">
<title>Node14</title>
<g id="a_Node000014"><a xlink:title=" ">
<polygon fill="#e0e0e0" stroke="#999999" points="406.11,-19 347.11,-19 347.11,0 406.11,0 406.11,-19"/>
<text text-anchor="middle" x="376.61" y="-7" font-family="Helvetica,sans-Serif" font-size="10.00">compare</text>
</a>
</g>
</g>
<!-- Node13&#45;&gt;Node14 -->
<g id="edge18_Node000013_Node000014" class="edge">
<title>Node13&#45;&gt;Node14</title>
<g id="a_edge18_Node000013_Node000014"><a xlink:title=" ">
<path fill="none" stroke="#63b8ff" d="M414.18,-54.75C407.75,-47.18 398.3,-36.05 390.48,-26.84"/>
<polygon fill="#63b8ff" stroke="#63b8ff" points="393.04,-24.45 383.9,-19.09 387.7,-28.98 393.04,-24.45"/>
</a>
</g>
</g>
<!-- Node15 -->
<g id="Node000015" class="node">
<title>Node15</title>
<g id="a_Node000015"><a xlink:title=" ">
<polygon fill="#e0e0e0" stroke="#999999" points="321.61,-19 277.61,-19 277.61,0 321.61,0 321.61,-19"/>
<text text-anchor="middle" x="299.61" y="-7" font-family="Helvetica,sans-Serif" font-size="10.00">limits</text>
</a>
</g>
</g>
<!-- Node13&#45;&gt;Node15 -->
<g id="edge20_Node000013_Node000015" class="edge">
<title>Node13&#45;&gt;Node15</title>
<g id="a_edge20_Node000013_Node000015"><a xlink:title=" ">
<path fill="none" stroke="#63b8ff" d="M402.01,-54.98C382.29,-46.42 351.65,-33.11 329.02,-23.28"/>
<polygon fill="#63b8ff" stroke="#63b8ff" points="330.13,-19.94 319.57,-19.17 327.34,-26.37 330.13,-19.94"/>
</a>
</g>
</g>
<!-- Node16&#45;&gt;Node2 -->
<g id="edge25_Node000016_Node000002" class="edge">
<title>Node16&#45;&gt;Node2</title>
<g id="a_edge25_Node000016_Node000002"><a xlink:title=" ">
<path fill="none" stroke="#63b8ff" d="M217.31,-54.98C203.51,-46.77 182.37,-34.18 166.09,-24.49"/>
<polygon fill="#63b8ff" stroke="#63b8ff" points="167.55,-21.28 157.17,-19.17 163.97,-27.29 167.55,-21.28"/>
</a>
</g>
</g>
<!-- Node16&#45;&gt;Node5 -->
<g id="edge27_Node000016_Node000005" class="edge">
<title>Node16&#45;&gt;Node5</title>
<g id="a_edge27_Node000016_Node000005"><a xlink:title=" ">
<path fill="none" stroke="#63b8ff" d="M273.54,-54.98C318.88,-45.78 391.22,-31.09 440.25,-21.13"/>
<polygon fill="#63b8ff" stroke="#63b8ff" points="441.24,-24.5 450.34,-19.08 439.85,-17.64 441.24,-24.5"/>
</a>
</g>
</g>
<!-- Node16&#45;&gt;Node7 -->
<g id="edge23_Node000016_Node000007" class="edge">
<title>Node16&#45;&gt;Node7</title>
<g id="a_edge23_Node000016_Node000007"><a xlink:title=" ">
<path fill="none" stroke="#63b8ff" d="M231.61,-54.75C231.61,-47.8 231.61,-37.85 231.61,-29.13"/>
<polygon fill="#63b8ff" stroke="#63b8ff" points="235.11,-29.09 231.61,-19.09 228.11,-29.09 235.11,-29.09"/>
</a>
</g>
</g>
<!-- Node16&#45;&gt;Node14 -->
<g id="edge24_Node000016_Node000014" class="edge">
<title>Node16&#45;&gt;Node14</title>
<g id="a_edge24_Node000016_Node000014"><a xlink:title=" ">
<path fill="none" stroke="#63b8ff" d="M254.9,-54.98C278.86,-46.23 316.39,-32.51 343.44,-22.62"/>
<polygon fill="#63b8ff" stroke="#63b8ff" points="344.7,-25.89 352.89,-19.17 342.29,-19.32 344.7,-25.89"/>
</a>
</g>
</g>
<!-- Node16&#45;&gt;Node15 -->
<g id="edge26_Node000016_Node000015" class="edge">
<title>Node16&#45;&gt;Node15</title>
<g id="a_edge26_Node000016_Node000015"><a xlink:title=" ">
<path fill="none" stroke="#63b8ff" d="M242.53,-54.98C252.68,-47.07 268.03,-35.11 280.25,-25.58"/>
<polygon fill="#63b8ff" stroke="#63b8ff" points="282.75,-28.08 288.48,-19.17 278.44,-22.56 282.75,-28.08"/>
</a>
</g>
</g>
</g>
</svg>

<g id="navigator" transform="translate(0 0)" fill="#404254">
  <rect fill="#f2f5e9" fill-opacity="0.5" stroke="#606060" stroke-width=".5" x="0" y="0" width="60" height="60"/>
  <use id="zoomplus" xlink:href="#zoomPlus" x="17" y="9" onmousedown="handleZoom(evt,'in')"/>
  <use id="zoomminus" xlink:href="#zoomMin" x="42" y="9" onmousedown="handleZoom(evt,'out')"/>
  <use id="reset" xlink:href="#resetDef" x="30" y="36" onmousedown="handleReset()"/>
   <use id="arrowup" xlink:href="#arrowUp" x="0" y="0" onmousedown="handlePan(0,-1)"/>
  <use id="arrowright" xlink:href="#arrowRight" x="0" y="0" onmousedown="handlePan(1,0)"/>
  <use id="arrowdown" xlink:href="#arrowDown" x="0" y="0" onmousedown="handlePan(0,1)"/>
  <use id="arrowleft" xlink:href="#arrowLeft" x="0" y="0" onmousedown="handlePan(-1,0)"/>
</g>
<svg viewBox="0 0 15 15" width="100%" height="30px" preserveAspectRatio="xMaxYMin meet">
 <g id="arrow_out" transform="scale(0.3 0.3)">
  <a xlink:href="simd__data_8hpp__incl_org.svg" target="_base">
   <rect id="button" ry="5" rx="5" y="6" x="6" height="38" width="38"
        fill="#f2f5e9" fill-opacity="0.5" stroke="#606060" stroke-width="1.0"/>
   <path id="arrow"
     d="M 11.500037,31.436501 C 11.940474,20.09759 22.043105,11.32322 32.158766,21.979434 L 37.068811,17.246167 C 37.068811,17.246167 37.088388,32 37.088388,32 L 22.160133,31.978069 C 22.160133,31.978069 26.997745,27.140456 26.997745,27.140456 C 18.528582,18.264221 13.291696,25.230495 11.500037,31.436501 z"
     style="fill:#404040;"/>
  </a>
 </g>
</svg>

<style type='text/css'>
<![CDATA[
[data-mouse-over-selected='false'] { opacity: 0.7; }
[data-mouse-over-selected='true']  { opacity: 1.0; }
]]>
</style>
<script type="application/ecmascript"><![CDATA[
document.addEventListener('DOMContentLoaded', (event) => {
  highlightEdges();
  highlightAdjacentNodes();
});
]]></script>
</svg>
