<?xml version="1.0" encoding="UTF-8" standalone="no"?>
<!DOCTYPE svg PUBLIC "-//W3C//DTD SVG 1.1//EN"
 "http://www.w3.org/Graphics/SVG/1.1/DTD/svg11.dtd">
<!-- Generated by graphviz version 2.42.4 (0)
 -->
<!-- Title: simd.cppm Pages: 1 -->
<svg width="776pt" height="247pt"
 viewBox="0.00 0.00 775.50 247.00" xmlns="http://www.w3.org/2000/svg" xmlns:xlink="http://www.w3.org/1999/xlink">
<g id="graph0" class="graph" transform="scale(1 1) rotate(0) translate(4 243)">
<title>simd.cppm</title>
<!-- Node1 -->
<g id="Node000001" class="node">
<title>Node1</title>
<g id="a_Node000001"><a xlink:title=" ">
<polygon fill="#999999" stroke="#666666" points="353.5,-239 282.5,-239 282.5,-220 353.5,-220 353.5,-239"/>
<text text-anchor="middle" x="318" y="-227" font-family="Helvetica,sans-Serif" font-size="10.00">simd.cppm</text>
</a>
</g>
</g>
<!-- Node2 -->
<g id="Node000002" class="node">
<title>Node2</title>
<g id="a_Node000002"><a xlink:title=" ">
<polygon fill="#e0e0e0" stroke="#999999" points="60,-184 0,-184 0,-165 60,-165 60,-184"/>
<text text-anchor="middle" x="30" y="-172" font-family="Helvetica,sans-Serif" font-size="10.00">concepts</text>
</a>
</g>
</g>
<!-- Node1&#45;&gt;Node2 -->
<g id="edge1_Node000001_Node000002" class="edge">
<title>Node1&#45;&gt;Node2</title>
<g id="a_edge1_Node000001_Node000002"><a xlink:title=" ">
<path fill="none" stroke="#63b8ff" d="M282.42,-222.13C234.89,-213.6 148.06,-197.91 74,-184 72.75,-183.77 71.49,-183.53 70.21,-183.28"/>
<polygon fill="#63b8ff" stroke="#63b8ff" points="70.77,-179.83 60.29,-181.39 69.46,-186.71 70.77,-179.83"/>
</a>
</g>
</g>
<!-- Node3 -->
<g id="Node000003" class="node">
<title>Node3</title>
<g id="a_Node000003"><a xlink:title=" ">
<polygon fill="#e0e0e0" stroke="#999999" points="395,-74 345,-74 345,-55 395,-55 395,-74"/>
<text text-anchor="middle" x="370" y="-62" font-family="Helvetica,sans-Serif" font-size="10.00">cstdint</text>
</a>
</g>
</g>
<!-- Node1&#45;&gt;Node3 -->
<g id="edge2_Node000001_Node000003" class="edge">
<title>Node1&#45;&gt;Node3</title>
<g id="a_edge2_Node000001_Node000003"><a xlink:title=" ">
<path fill="none" stroke="#63b8ff" d="M292.49,-219.9C276.31,-212.96 256.65,-201.44 247,-184 242.91,-176.61 244.2,-172.97 247,-165 261.91,-122.49 308.21,-93.6 339.56,-78.34"/>
<polygon fill="#63b8ff" stroke="#63b8ff" points="341.18,-81.44 348.75,-74.04 338.21,-75.1 341.18,-81.44"/>
</a>
</g>
</g>
<!-- Node4 -->
<g id="Node000004" class="node">
<title>Node4</title>
<g id="a_Node000004"><a xlink:title=" ">
<polygon fill="#e0e0e0" stroke="#999999" points="199.5,-184 116.5,-184 116.5,-165 199.5,-165 199.5,-184"/>
<text text-anchor="middle" x="158" y="-172" font-family="Helvetica,sans-Serif" font-size="10.00">initializer_list</text>
</a>
</g>
</g>
<!-- Node1&#45;&gt;Node4 -->
<g id="edge3_Node000001_Node000004" class="edge">
<title>Node1&#45;&gt;Node4</title>
<g id="a_edge3_Node000001_Node000004"><a xlink:title=" ">
<path fill="none" stroke="#63b8ff" d="M292.29,-219.98C265.55,-211.13 223.47,-197.19 193.55,-187.28"/>
<polygon fill="#63b8ff" stroke="#63b8ff" points="194.5,-183.9 183.91,-184.08 192.3,-190.55 194.5,-183.9"/>
</a>
</g>
</g>
<!-- Node5 -->
<g id="Node000005" class="node">
<title>Node5</title>
<g id="a_Node000005"><a xlink:title=" ">
<polygon fill="#e0e0e0" stroke="#999999" points="482.5,-74 413.5,-74 413.5,-55 482.5,-55 482.5,-74"/>
<text text-anchor="middle" x="448" y="-62" font-family="Helvetica,sans-Serif" font-size="10.00">type_traits</text>
</a>
</g>
</g>
<!-- Node1&#45;&gt;Node5 -->
<g id="edge4_Node000001_Node000005" class="edge">
<title>Node1&#45;&gt;Node5</title>
<g id="a_edge4_Node000001_Node000005"><a xlink:title=" ">
<path fill="none" stroke="#63b8ff" d="M320.83,-219.75C323.55,-210.86 327.46,-196.64 329,-184 331.97,-159.63 325.69,-153.49 324,-129 323.42,-120.58 319.14,-116.91 324,-110 333.5,-96.5 371.72,-84.07 403.25,-75.8"/>
<polygon fill="#63b8ff" stroke="#63b8ff" points="404.38,-79.13 413.21,-73.27 402.65,-72.34 404.38,-79.13"/>
</a>
</g>
</g>
<!-- Node6 -->
<g id="Node000006" class="node">
<title>Node6</title>
<g id="a_Node000006"><a xlink:title=" ">
<polygon fill="#e0e0e0" stroke="#999999" points="320,-184 256,-184 256,-165 320,-165 320,-184"/>
<text text-anchor="middle" x="288" y="-172" font-family="Helvetica,sans-Serif" font-size="10.00">algorithm</text>
</a>
</g>
</g>
<!-- Node1&#45;&gt;Node6 -->
<g id="edge5_Node000001_Node000006" class="edge">
<title>Node1&#45;&gt;Node6</title>
<g id="a_edge5_Node000001_Node000006"><a xlink:title=" ">
<path fill="none" stroke="#63b8ff" d="M313.05,-219.75C308.94,-212.49 302.97,-201.95 297.9,-192.98"/>
<polygon fill="#63b8ff" stroke="#63b8ff" points="300.83,-191.07 292.86,-184.09 294.74,-194.52 300.83,-191.07"/>
</a>
</g>
</g>
<!-- Node7 -->
<g id="Node000007" class="node">
<title>Node7</title>
<g id="a_Node000007"><a xlink:title=" ">
<polygon fill="#e0e0e0" stroke="#999999" points="407,-129 333,-129 333,-110 407,-110 407,-129"/>
<text text-anchor="middle" x="370" y="-117" font-family="Helvetica,sans-Serif" font-size="10.00">immintrin.h</text>
</a>
</g>
</g>
<!-- Node1&#45;&gt;Node7 -->
<g id="edge6_Node000001_Node000007" class="edge">
<title>Node1&#45;&gt;Node7</title>
<g id="a_edge6_Node000001_Node000007"><a xlink:title=" ">
<path fill="none" stroke="#63b8ff" d="M330.31,-219.79C340.62,-211.76 354.78,-198.85 362,-184 368.76,-170.09 370.54,-152.53 370.75,-139.4"/>
<polygon fill="#63b8ff" stroke="#63b8ff" points="374.24,-139.16 370.62,-129.21 367.25,-139.26 374.24,-139.16"/>
</a>
</g>
</g>
<!-- Node8 -->
<g id="Node000008" class="node">
<title>Node8</title>
<g id="a_Node000008"><a xlink:href="attributes_8hpp.html" target="_top" xlink:title="an opinionated subset of clang/gcc attributes">
<polygon fill="white" stroke="#666666" points="581.5,-19 496.5,-19 496.5,0 581.5,0 581.5,-19"/>
<text text-anchor="middle" x="539" y="-7" font-family="Helvetica,sans-Serif" font-size="10.00">attributes.hpp</text>
</a>
</g>
</g>
<!-- Node1&#45;&gt;Node8 -->
<g id="edge7_Node000001_Node000008" class="edge">
<title>Node1&#45;&gt;Node8</title>
<g id="a_edge7_Node000001_Node000008"><a xlink:title=" ">
<path fill="none" stroke="#63b8ff" d="M282.47,-226.27C228.21,-222.04 128.7,-210.75 107,-184 101.68,-177.44 102.5,-172.15 107,-165 188.33,-35.71 390.21,-13.42 486.41,-10.38"/>
<polygon fill="#63b8ff" stroke="#63b8ff" points="486.59,-13.88 496.49,-10.12 486.41,-6.88 486.59,-13.88"/>
</a>
</g>
</g>
<!-- Node9 -->
<g id="Node000009" class="node">
<title>Node9</title>
<g id="a_Node000009"><a xlink:href="simd__data_8cppm.html" target="_top" xlink:title=" ">
<polygon fill="white" stroke="#666666" points="516,-184 430,-184 430,-165 516,-165 516,-184"/>
<text text-anchor="middle" x="473" y="-172" font-family="Helvetica,sans-Serif" font-size="10.00">ein.simd_data</text>
</a>
</g>
</g>
<!-- Node1&#45;&gt;Node9 -->
<g id="edge8_Node000001_Node000009" class="edge">
<title>Node1&#45;&gt;Node9</title>
<g id="a_edge8_Node000001_Node000009"><a xlink:title=" ">
<path fill="none" stroke="#63b8ff" d="M342.9,-219.98C368.7,-211.16 409.22,-197.31 438.18,-187.41"/>
<polygon fill="#63b8ff" stroke="#63b8ff" points="439.57,-190.63 447.9,-184.08 437.31,-184.01 439.57,-190.63"/>
</a>
</g>
</g>
<!-- Node10 -->
<g id="Node000010" class="node">
<title>Node10</title>
<g id="a_Node000010"><a xlink:href="types_8cppm.html" target="_top" xlink:title=" ">
<polygon fill="white" stroke="#666666" points="752,-74 690,-74 690,-55 752,-55 752,-74"/>
<text text-anchor="middle" x="721" y="-62" font-family="Helvetica,sans-Serif" font-size="10.00">ein.types</text>
</a>
</g>
</g>
<!-- Node1&#45;&gt;Node10 -->
<g id="edge24_Node000001_Node000010" class="edge">
<title>Node1&#45;&gt;Node10</title>
<g id="a_edge24_Node000001_Node000010"><a xlink:title=" ">
<path fill="none" stroke="#63b8ff" d="M353.55,-224.91C399.96,-219.51 483.25,-207.34 551,-184 601.55,-166.58 614.86,-160.59 658,-129 676.88,-115.17 695.37,-95.62 707.38,-81.87"/>
<polygon fill="#63b8ff" stroke="#63b8ff" points="710.13,-84.04 713.97,-74.16 704.81,-79.49 710.13,-84.04"/>
</a>
</g>
</g>
<!-- Node13 -->
<g id="Node000013" class="node">
<title>Node13</title>
<g id="a_Node000013"><a xlink:href="numerics_8cppm.html" target="_top" xlink:title=" ">
<polygon fill="white" stroke="#666666" points="619,-129 539,-129 539,-110 619,-110 619,-129"/>
<text text-anchor="middle" x="579" y="-117" font-family="Helvetica,sans-Serif" font-size="10.00">ein.numerics</text>
</a>
</g>
</g>
<!-- Node1&#45;&gt;Node13 -->
<g id="edge25_Node000001_Node000013" class="edge">
<title>Node1&#45;&gt;Node13</title>
<g id="a_edge25_Node000001_Node000013"><a xlink:title=" ">
<path fill="none" stroke="#63b8ff" d="M353.85,-227.69C397.25,-225.22 471.21,-216.16 525,-184 543.95,-172.67 559.49,-152.29 568.96,-137.67"/>
<polygon fill="#63b8ff" stroke="#63b8ff" points="572.01,-139.4 574.28,-129.05 566.05,-135.72 572.01,-139.4"/>
</a>
</g>
</g>
<!-- Node9&#45;&gt;Node3 -->
<g id="edge9_Node000009_Node000003" class="edge">
<title>Node9&#45;&gt;Node3</title>
<g id="a_edge9_Node000009_Node000003"><a xlink:title=" ">
<path fill="none" stroke="#63b8ff" d="M465.45,-164.7C454.71,-152.27 434.29,-128.99 416,-110 406.56,-100.2 395.62,-89.59 386.78,-81.19"/>
<polygon fill="#63b8ff" stroke="#63b8ff" points="389.03,-78.5 379.35,-74.18 384.22,-83.59 389.03,-78.5"/>
</a>
</g>
</g>
<!-- Node9&#45;&gt;Node5 -->
<g id="edge10_Node000009_Node000005" class="edge">
<title>Node9&#45;&gt;Node5</title>
<g id="a_edge10_Node000009_Node000005"><a xlink:title=" ">
<path fill="none" stroke="#63b8ff" d="M470.95,-164.66C466.89,-147.09 457.71,-107.45 452.27,-83.95"/>
<polygon fill="#63b8ff" stroke="#63b8ff" points="455.67,-83.11 450,-74.16 448.85,-84.69 455.67,-83.11"/>
</a>
</g>
</g>
<!-- Node9&#45;&gt;Node7 -->
<g id="edge11_Node000009_Node000007" class="edge">
<title>Node9&#45;&gt;Node7</title>
<g id="a_edge11_Node000009_Node000007"><a xlink:title=" ">
<path fill="none" stroke="#63b8ff" d="M456.45,-164.98C440.11,-156.57 414.87,-143.59 395.87,-133.81"/>
<polygon fill="#63b8ff" stroke="#63b8ff" points="397.34,-130.63 386.85,-129.17 394.14,-136.86 397.34,-130.63"/>
</a>
</g>
</g>
<!-- Node9&#45;&gt;Node8 -->
<g id="edge12_Node000009_Node000008" class="edge">
<title>Node9&#45;&gt;Node8</title>
<g id="a_edge12_Node000009_Node000008"><a xlink:title=" ">
<path fill="none" stroke="#63b8ff" d="M476.55,-164.74C486.93,-139.09 517.43,-63.78 531.6,-28.78"/>
<polygon fill="#63b8ff" stroke="#63b8ff" points="534.93,-29.89 535.43,-19.31 528.44,-27.26 534.93,-29.89"/>
</a>
</g>
</g>
<!-- Node9&#45;&gt;Node10 -->
<g id="edge13_Node000009_Node000010" class="edge">
<title>Node9&#45;&gt;Node10</title>
<g id="a_edge13_Node000009_Node000010"><a xlink:title=" ">
<path fill="none" stroke="#63b8ff" d="M516.1,-165.02C547.96,-157.83 591.89,-145.97 628,-129 655.98,-115.85 684.88,-94.72 702.88,-80.48"/>
<polygon fill="#63b8ff" stroke="#63b8ff" points="705.2,-83.11 710.79,-74.11 700.81,-77.66 705.2,-83.11"/>
</a>
</g>
</g>
<!-- Node9&#45;&gt;Node13 -->
<g id="edge17_Node000009_Node000013" class="edge">
<title>Node9&#45;&gt;Node13</title>
<g id="a_edge17_Node000009_Node000013"><a xlink:title=" ">
<path fill="none" stroke="#63b8ff" d="M490.03,-164.98C506.93,-156.54 533.06,-143.47 552.64,-133.68"/>
<polygon fill="#63b8ff" stroke="#63b8ff" points="554.28,-136.77 561.66,-129.17 551.15,-130.51 554.28,-136.77"/>
</a>
</g>
</g>
<!-- Node10&#45;&gt;Node8 -->
<g id="edge15_Node000010_Node000008" class="edge">
<title>Node10&#45;&gt;Node8</title>
<g id="a_edge15_Node000010_Node000008"><a xlink:title=" ">
<path fill="none" stroke="#63b8ff" d="M691.76,-54.98C660.94,-46.01 612.22,-31.82 578.11,-21.89"/>
<polygon fill="#63b8ff" stroke="#63b8ff" points="579.05,-18.52 568.47,-19.08 577.09,-25.24 579.05,-18.52"/>
</a>
</g>
</g>
<!-- Node11 -->
<g id="Node000011" class="node">
<title>Node11</title>
<g id="a_Node000011"><a xlink:title=" ">
<polygon fill="#e0e0e0" stroke="#999999" points="767.5,-19 694.5,-19 694.5,0 767.5,0 767.5,-19"/>
<text text-anchor="middle" x="731" y="-7" font-family="Helvetica,sans-Serif" font-size="10.00">string_view</text>
</a>
</g>
</g>
<!-- Node10&#45;&gt;Node11 -->
<g id="edge14_Node000010_Node000011" class="edge">
<title>Node10&#45;&gt;Node11</title>
<g id="a_edge14_Node000010_Node000011"><a xlink:title=" ">
<path fill="none" stroke="#63b8ff" d="M722.65,-54.75C723.96,-47.8 725.84,-37.85 727.48,-29.13"/>
<polygon fill="#63b8ff" stroke="#63b8ff" points="730.96,-29.56 729.38,-19.09 724.09,-28.27 730.96,-29.56"/>
</a>
</g>
</g>
<!-- Node12 -->
<g id="Node000012" class="node">
<title>Node12</title>
<g id="a_Node000012"><a xlink:title=" ">
<polygon fill="#e0e0e0" stroke="#999999" points="676,-19 618,-19 618,0 676,0 676,-19"/>
<text text-anchor="middle" x="647" y="-7" font-family="Helvetica,sans-Serif" font-size="10.00">cxxabi.h</text>
</a>
</g>
</g>
<!-- Node10&#45;&gt;Node12 -->
<g id="edge16_Node000010_Node000012" class="edge">
<title>Node10&#45;&gt;Node12</title>
<g id="a_edge16_Node000010_Node000012"><a xlink:title=" ">
<path fill="none" stroke="#63b8ff" d="M709.11,-54.98C697.85,-46.92 680.71,-34.65 667.29,-25.03"/>
<polygon fill="#63b8ff" stroke="#63b8ff" points="669.27,-22.15 659.11,-19.17 665.2,-27.84 669.27,-22.15"/>
</a>
</g>
</g>
<!-- Node13&#45;&gt;Node3 -->
<g id="edge20_Node000013_Node000003" class="edge">
<title>Node13&#45;&gt;Node3</title>
<g id="a_edge20_Node000013_Node000003"><a xlink:title=" ">
<path fill="none" stroke="#63b8ff" d="M545.42,-109.98C506.97,-100.23 444.27,-84.33 405.16,-74.42"/>
<polygon fill="#63b8ff" stroke="#63b8ff" points="405.83,-70.98 395.28,-71.91 404.11,-77.76 405.83,-70.98"/>
</a>
</g>
</g>
<!-- Node13&#45;&gt;Node5 -->
<g id="edge21_Node000013_Node000005" class="edge">
<title>Node13&#45;&gt;Node5</title>
<g id="a_edge21_Node000013_Node000005"><a xlink:title=" ">
<path fill="none" stroke="#63b8ff" d="M557.95,-109.98C536.59,-101.34 503.3,-87.87 478.94,-78.02"/>
<polygon fill="#63b8ff" stroke="#63b8ff" points="480.01,-74.68 469.43,-74.17 477.39,-81.17 480.01,-74.68"/>
</a>
</g>
</g>
<!-- Node13&#45;&gt;Node8 -->
<g id="edge22_Node000013_Node000008" class="edge">
<title>Node13&#45;&gt;Node8</title>
<g id="a_edge22_Node000013_Node000008"><a xlink:title=" ">
<path fill="none" stroke="#63b8ff" d="M575.73,-109.66C569.19,-92.01 554.4,-52.09 545.72,-28.64"/>
<polygon fill="#63b8ff" stroke="#63b8ff" points="548.96,-27.32 542.21,-19.16 542.4,-29.75 548.96,-27.32"/>
</a>
</g>
</g>
<!-- Node13&#45;&gt;Node10 -->
<g id="edge23_Node000013_Node000010" class="edge">
<title>Node13&#45;&gt;Node10</title>
<g id="a_edge23_Node000013_Node000010"><a xlink:title=" ">
<path fill="none" stroke="#63b8ff" d="M601.81,-109.98C625.17,-101.27 661.7,-87.63 688.17,-77.75"/>
<polygon fill="#63b8ff" stroke="#63b8ff" points="689.63,-80.95 697.77,-74.17 687.18,-74.39 689.63,-80.95"/>
</a>
</g>
</g>
<!-- Node14 -->
<g id="Node000014" class="node">
<title>Node14</title>
<g id="a_Node000014"><a xlink:title=" ">
<polygon fill="#e0e0e0" stroke="#999999" points="606.5,-74 577.5,-74 577.5,-55 606.5,-55 606.5,-74"/>
<text text-anchor="middle" x="592" y="-62" font-family="Helvetica,sans-Serif" font-size="10.00">bit</text>
</a>
</g>
</g>
<!-- Node13&#45;&gt;Node14 -->
<g id="edge18_Node000013_Node000014" class="edge">
<title>Node13&#45;&gt;Node14</title>
<g id="a_edge18_Node000013_Node000014"><a xlink:title=" ">
<path fill="none" stroke="#63b8ff" d="M581.15,-109.75C582.87,-102.72 585.35,-92.62 587.5,-83.84"/>
<polygon fill="#63b8ff" stroke="#63b8ff" points="590.91,-84.63 589.89,-74.09 584.11,-82.97 590.91,-84.63"/>
</a>
</g>
</g>
<!-- Node15 -->
<g id="Node000015" class="node">
<title>Node15</title>
<g id="a_Node000015"><a xlink:title=" ">
<polygon fill="#e0e0e0" stroke="#999999" points="671.5,-74 624.5,-74 624.5,-55 671.5,-55 671.5,-74"/>
<text text-anchor="middle" x="648" y="-62" font-family="Helvetica,sans-Serif" font-size="10.00">cmath</text>
</a>
</g>
</g>
<!-- Node13&#45;&gt;Node15 -->
<g id="edge19_Node000013_Node000015" class="edge">
<title>Node13&#45;&gt;Node15</title>
<g id="a_edge19_Node000013_Node000015"><a xlink:title=" ">
<path fill="none" stroke="#63b8ff" d="M590.09,-109.98C600.49,-102 616.26,-89.88 628.72,-80.31"/>
<polygon fill="#63b8ff" stroke="#63b8ff" points="630.91,-83.04 636.71,-74.17 626.65,-77.49 630.91,-83.04"/>
</a>
</g>
</g>
</g>
</svg>
