<?xml version="1.0" encoding="UTF-8" standalone="no"?>
<!DOCTYPE svg PUBLIC "-//W3C//DTD SVG 1.1//EN"
 "http://www.w3.org/Graphics/SVG/1.1/DTD/svg11.dtd">
<!-- Generated by graphviz version 2.42.4 (0)
 -->
<!-- Title: static_string.hpp Pages: 1 -->
<svg width="498pt" height="137pt"
 viewBox="0.00 0.00 497.50 137.00" xmlns="http://www.w3.org/2000/svg" xmlns:xlink="http://www.w3.org/1999/xlink">
<g id="graph0" class="graph" transform="scale(1 1) rotate(0) translate(4 133)">
<title>static_string.hpp</title>
<!-- Node1 -->
<g id="Node000001" class="node">
<title>Node1</title>
<g id="a_Node000001"><a xlink:title=" ">
<polygon fill="#999999" stroke="#666666" points="273.5,-129 175.5,-129 175.5,-110 273.5,-110 273.5,-129"/>
<text text-anchor="middle" x="224.5" y="-117" font-family="Helvetica,sans-Serif" font-size="10.00">static_string.hpp</text>
</a>
</g>
</g>
<!-- Node2 -->
<g id="Node000002" class="node">
<title>Node2</title>
<g id="a_Node000002"><a xlink:title=" ">
<polygon fill="#e0e0e0" stroke="#999999" points="73,-19 0,-19 0,0 73,0 73,-19"/>
<text text-anchor="middle" x="36.5" y="-7" font-family="Helvetica,sans-Serif" font-size="10.00">string_view</text>
</a>
</g>
</g>
<!-- Node1&#45;&gt;Node2 -->
<g id="edge1_Node000001_Node000002" class="edge">
<title>Node1&#45;&gt;Node2</title>
<g id="a_edge1_Node000001_Node000002"><a xlink:title=" ">
<path fill="none" stroke="#63b8ff" d="M206.36,-109.97C188.38,-101.36 160.16,-87.45 136.5,-74 108.59,-58.13 77.54,-38.01 57.55,-24.72"/>
<polygon fill="#63b8ff" stroke="#63b8ff" points="59.46,-21.78 49.2,-19.13 55.57,-27.6 59.46,-21.78"/>
</a>
</g>
</g>
<!-- Node3 -->
<g id="Node000003" class="node">
<title>Node3</title>
<g id="a_Node000003"><a xlink:title=" ">
<polygon fill="#e0e0e0" stroke="#999999" points="287.5,-74 237.5,-74 237.5,-55 287.5,-55 287.5,-74"/>
<text text-anchor="middle" x="262.5" y="-62" font-family="Helvetica,sans-Serif" font-size="10.00">cstring</text>
</a>
</g>
</g>
<!-- Node1&#45;&gt;Node3 -->
<g id="edge2_Node000001_Node000003" class="edge">
<title>Node1&#45;&gt;Node3</title>
<g id="a_edge2_Node000001_Node000003"><a xlink:title=" ">
<path fill="none" stroke="#63b8ff" d="M230.77,-109.75C236.09,-102.34 243.86,-91.5 250.38,-82.41"/>
<polygon fill="#63b8ff" stroke="#63b8ff" points="253.36,-84.26 256.34,-74.09 247.67,-80.18 253.36,-84.26"/>
</a>
</g>
</g>
<!-- Node4 -->
<g id="Node000004" class="node">
<title>Node4</title>
<g id="a_Node000004"><a xlink:title=" ">
<polygon fill="#e0e0e0" stroke="#999999" points="361,-74 306,-74 306,-55 361,-55 361,-74"/>
<text text-anchor="middle" x="333.5" y="-62" font-family="Helvetica,sans-Serif" font-size="10.00">fstream</text>
</a>
</g>
</g>
<!-- Node1&#45;&gt;Node4 -->
<g id="edge3_Node000001_Node000004" class="edge">
<title>Node1&#45;&gt;Node4</title>
<g id="a_edge3_Node000001_Node000004"><a xlink:title=" ">
<path fill="none" stroke="#63b8ff" d="M242.01,-109.98C259.47,-101.5 286.51,-88.35 306.67,-78.54"/>
<polygon fill="#63b8ff" stroke="#63b8ff" points="308.21,-81.69 315.67,-74.17 305.14,-75.4 308.21,-81.69"/>
</a>
</g>
</g>
<!-- Node5 -->
<g id="Node000005" class="node">
<title>Node5</title>
<g id="a_Node000005"><a xlink:title=" ">
<polygon fill="#e0e0e0" stroke="#999999" points="489.5,-74 379.5,-74 379.5,-55 489.5,-55 489.5,-74"/>
<text text-anchor="middle" x="434.5" y="-62" font-family="Helvetica,sans-Serif" font-size="10.00">nlohmann/json.hpp</text>
</a>
</g>
</g>
<!-- Node1&#45;&gt;Node5 -->
<g id="edge4_Node000001_Node000005" class="edge">
<title>Node1&#45;&gt;Node5</title>
<g id="a_edge4_Node000001_Node000005"><a xlink:title=" ">
<path fill="none" stroke="#63b8ff" d="M258.24,-109.98C294.18,-100.91 351.22,-86.52 390.63,-76.57"/>
<polygon fill="#63b8ff" stroke="#63b8ff" points="391.66,-79.92 400.5,-74.08 389.94,-73.14 391.66,-79.92"/>
</a>
</g>
</g>
<!-- Node6 -->
<g id="Node000006" class="node">
<title>Node6</title>
<g id="a_Node000006"><a xlink:href="common_8hpp.html" target="_top" xlink:title=" ">
<polygon fill="white" stroke="#666666" points="222,-19 91,-19 91,0 222,0 222,-19"/>
<text text-anchor="middle" x="156.5" y="-7" font-family="Helvetica,sans-Serif" font-size="10.00">attributes/common.hpp</text>
</a>
</g>
</g>
<!-- Node1&#45;&gt;Node6 -->
<g id="edge5_Node000001_Node000006" class="edge">
<title>Node1&#45;&gt;Node6</title>
<g id="a_edge5_Node000001_Node000006"><a xlink:title=" ">
<path fill="none" stroke="#63b8ff" d="M193.45,-109.87C175.75,-103.18 155.05,-91.95 144.5,-74 136.34,-60.13 141.09,-41.87 146.85,-28.49"/>
<polygon fill="#63b8ff" stroke="#63b8ff" points="150.06,-29.89 151.25,-19.36 143.75,-26.85 150.06,-29.89"/>
</a>
</g>
</g>
<!-- Node7 -->
<g id="Node000007" class="node">
<title>Node7</title>
<g id="a_Node000007"><a xlink:href="types_8hpp.html" target="_top" xlink:title=" ">
<polygon fill="white" stroke="#666666" points="219,-74 154,-74 154,-55 219,-55 219,-74"/>
<text text-anchor="middle" x="186.5" y="-62" font-family="Helvetica,sans-Serif" font-size="10.00">types.hpp</text>
</a>
</g>
</g>
<!-- Node1&#45;&gt;Node7 -->
<g id="edge6_Node000001_Node000007" class="edge">
<title>Node1&#45;&gt;Node7</title>
<g id="a_edge6_Node000001_Node000007"><a xlink:title=" ">
<path fill="none" stroke="#63b8ff" d="M218.23,-109.75C212.91,-102.34 205.14,-91.5 198.62,-82.41"/>
<polygon fill="#63b8ff" stroke="#63b8ff" points="201.33,-80.18 192.66,-74.09 195.64,-84.26 201.33,-80.18"/>
</a>
</g>
</g>
<!-- Node7&#45;&gt;Node2 -->
<g id="edge8_Node000007_Node000002" class="edge">
<title>Node7&#45;&gt;Node2</title>
<g id="a_edge8_Node000007_Node000002"><a xlink:title=" ">
<path fill="none" stroke="#63b8ff" d="M162.4,-54.98C137.62,-46.23 98.8,-32.51 70.81,-22.62"/>
<polygon fill="#63b8ff" stroke="#63b8ff" points="71.63,-19.2 61.04,-19.17 69.3,-25.8 71.63,-19.2"/>
</a>
</g>
</g>
<!-- Node7&#45;&gt;Node6 -->
<g id="edge10_Node000007_Node000006" class="edge">
<title>Node7&#45;&gt;Node6</title>
<g id="a_edge10_Node000007_Node000006"><a xlink:title=" ">
<path fill="none" stroke="#63b8ff" d="M181.55,-54.75C177.44,-47.49 171.47,-36.95 166.4,-27.98"/>
<polygon fill="#63b8ff" stroke="#63b8ff" points="169.33,-26.07 161.36,-19.09 163.24,-29.52 169.33,-26.07"/>
</a>
</g>
</g>
<!-- Node8 -->
<g id="Node000008" class="node">
<title>Node8</title>
<g id="a_Node000008"><a xlink:title=" ">
<polygon fill="#e0e0e0" stroke="#999999" points="284.5,-19 240.5,-19 240.5,0 284.5,0 284.5,-19"/>
<text text-anchor="middle" x="262.5" y="-7" font-family="Helvetica,sans-Serif" font-size="10.00">string</text>
</a>
</g>
</g>
<!-- Node7&#45;&gt;Node8 -->
<g id="edge7_Node000007_Node000008" class="edge">
<title>Node7&#45;&gt;Node8</title>
<g id="a_edge7_Node000007_Node000008"><a xlink:title=" ">
<path fill="none" stroke="#63b8ff" d="M198.71,-54.98C210.28,-46.92 227.88,-34.65 241.66,-25.03"/>
<polygon fill="#63b8ff" stroke="#63b8ff" points="243.87,-27.76 250.07,-19.17 239.86,-22.02 243.87,-27.76"/>
</a>
</g>
</g>
<!-- Node9 -->
<g id="Node000009" class="node">
<title>Node9</title>
<g id="a_Node000009"><a xlink:title=" ">
<polygon fill="#e0e0e0" stroke="#999999" points="360.5,-19 302.5,-19 302.5,0 360.5,0 360.5,-19"/>
<text text-anchor="middle" x="331.5" y="-7" font-family="Helvetica,sans-Serif" font-size="10.00">cxxabi.h</text>
</a>
</g>
</g>
<!-- Node7&#45;&gt;Node9 -->
<g id="edge9_Node000007_Node000009" class="edge">
<title>Node7&#45;&gt;Node9</title>
<g id="a_edge9_Node000007_Node000009"><a xlink:title=" ">
<path fill="none" stroke="#63b8ff" d="M209.8,-54.98C233.75,-46.23 271.28,-32.51 298.33,-22.62"/>
<polygon fill="#63b8ff" stroke="#63b8ff" points="299.59,-25.89 307.78,-19.17 297.19,-19.32 299.59,-25.89"/>
</a>
</g>
</g>
</g>
</svg>
