<?xml version="1.0" encoding="UTF-8" standalone="no"?>
<!DOCTYPE svg PUBLIC "-//W3C//DTD SVG 1.1//EN"
 "http://www.w3.org/Graphics/SVG/1.1/DTD/svg11.dtd">
<!-- Generated by graphviz version 2.42.4 (0)
 -->
<!-- Title: static_string.cppm Pages: 1 -->
<svg width="304pt" height="137pt"
 viewBox="0.00 0.00 304.00 137.00" xmlns="http://www.w3.org/2000/svg" xmlns:xlink="http://www.w3.org/1999/xlink">
<g id="graph0" class="graph" transform="scale(1 1) rotate(0) translate(4 133)">
<title>static_string.cppm</title>
<!-- Node1 -->
<g id="Node000001" class="node">
<title>Node1</title>
<g id="a_Node000001"><a xlink:title=" ">
<polygon fill="#999999" stroke="#666666" points="171,-129 64,-129 64,-110 171,-110 171,-129"/>
<text text-anchor="middle" x="117.5" y="-117" font-family="Helvetica,sans-Serif" font-size="10.00">static_string.cppm</text>
</a>
</g>
</g>
<!-- Node2 -->
<g id="Node000002" class="node">
<title>Node2</title>
<g id="a_Node000002"><a xlink:title=" ">
<polygon fill="#e0e0e0" stroke="#999999" points="73,-19 0,-19 0,0 73,0 73,-19"/>
<text text-anchor="middle" x="36.5" y="-7" font-family="Helvetica,sans-Serif" font-size="10.00">string_view</text>
</a>
</g>
</g>
<!-- Node1&#45;&gt;Node2 -->
<g id="edge1_Node000001_Node000002" class="edge">
<title>Node1&#45;&gt;Node2</title>
<g id="a_edge1_Node000001_Node000002"><a xlink:title=" ">
<path fill="none" stroke="#63b8ff" d="M67.92,-109.98C47.15,-103.7 24.96,-92.82 12.5,-74 2.89,-59.49 12.35,-40.59 22.08,-27.2"/>
<polygon fill="#63b8ff" stroke="#63b8ff" points="24.87,-29.31 28.31,-19.29 19.37,-24.98 24.87,-29.31"/>
</a>
</g>
</g>
<!-- Node3 -->
<g id="Node000003" class="node">
<title>Node3</title>
<g id="a_Node000003"><a xlink:title=" ">
<polygon fill="#e0e0e0" stroke="#999999" points="71.5,-74 21.5,-74 21.5,-55 71.5,-55 71.5,-74"/>
<text text-anchor="middle" x="46.5" y="-62" font-family="Helvetica,sans-Serif" font-size="10.00">cstring</text>
</a>
</g>
</g>
<!-- Node1&#45;&gt;Node3 -->
<g id="edge2_Node000001_Node000003" class="edge">
<title>Node1&#45;&gt;Node3</title>
<g id="a_edge2_Node000001_Node000003"><a xlink:title=" ">
<path fill="none" stroke="#63b8ff" d="M106.09,-109.98C95.39,-102 79.16,-89.88 66.34,-80.31"/>
<polygon fill="#63b8ff" stroke="#63b8ff" points="68.22,-77.35 58.11,-74.17 64.03,-82.96 68.22,-77.35"/>
</a>
</g>
</g>
<!-- Node4 -->
<g id="Node000004" class="node">
<title>Node4</title>
<g id="a_Node000004"><a xlink:title=" ">
<polygon fill="#e0e0e0" stroke="#999999" points="145,-74 90,-74 90,-55 145,-55 145,-74"/>
<text text-anchor="middle" x="117.5" y="-62" font-family="Helvetica,sans-Serif" font-size="10.00">fstream</text>
</a>
</g>
</g>
<!-- Node1&#45;&gt;Node4 -->
<g id="edge3_Node000001_Node000004" class="edge">
<title>Node1&#45;&gt;Node4</title>
<g id="a_edge3_Node000001_Node000004"><a xlink:title=" ">
<path fill="none" stroke="#63b8ff" d="M117.5,-109.75C117.5,-102.8 117.5,-92.85 117.5,-84.13"/>
<polygon fill="#63b8ff" stroke="#63b8ff" points="121,-84.09 117.5,-74.09 114,-84.09 121,-84.09"/>
</a>
</g>
</g>
<!-- Node5 -->
<g id="Node000005" class="node">
<title>Node5</title>
<g id="a_Node000005"><a xlink:href="attributes_8hpp.html" target="_top" xlink:title="an opinionated subset of clang/gcc attributes">
<polygon fill="white" stroke="#666666" points="296,-19 211,-19 211,0 296,0 296,-19"/>
<text text-anchor="middle" x="253.5" y="-7" font-family="Helvetica,sans-Serif" font-size="10.00">attributes.hpp</text>
</a>
</g>
</g>
<!-- Node1&#45;&gt;Node5 -->
<g id="edge4_Node000001_Node000005" class="edge">
<title>Node1&#45;&gt;Node5</title>
<g id="a_edge4_Node000001_Node000005"><a xlink:title=" ">
<path fill="none" stroke="#63b8ff" d="M167.91,-109.94C191.04,-103.61 217.11,-92.7 234.5,-74 245.76,-61.89 250.37,-43.35 252.24,-29.43"/>
<polygon fill="#63b8ff" stroke="#63b8ff" points="255.77,-29.36 253.26,-19.06 248.8,-28.67 255.77,-29.36"/>
</a>
</g>
</g>
<!-- Node6 -->
<g id="Node000006" class="node">
<title>Node6</title>
<g id="a_Node000006"><a xlink:href="types_8cppm.html" target="_top" xlink:title=" ">
<polygon fill="white" stroke="#666666" points="225.5,-74 163.5,-74 163.5,-55 225.5,-55 225.5,-74"/>
<text text-anchor="middle" x="194.5" y="-62" font-family="Helvetica,sans-Serif" font-size="10.00">ein.types</text>
</a>
</g>
</g>
<!-- Node1&#45;&gt;Node6 -->
<g id="edge5_Node000001_Node000006" class="edge">
<title>Node1&#45;&gt;Node6</title>
<g id="a_edge5_Node000001_Node000006"><a xlink:title=" ">
<path fill="none" stroke="#63b8ff" d="M129.87,-109.98C141.59,-101.92 159.42,-89.65 173.39,-80.03"/>
<polygon fill="#63b8ff" stroke="#63b8ff" points="175.65,-82.72 181.9,-74.17 171.68,-76.96 175.65,-82.72"/>
</a>
</g>
</g>
<!-- Node6&#45;&gt;Node2 -->
<g id="edge6_Node000006_Node000002" class="edge">
<title>Node6&#45;&gt;Node2</title>
<g id="a_edge6_Node000006_Node000002"><a xlink:title=" ">
<path fill="none" stroke="#63b8ff" d="M169.11,-54.98C142.7,-46.13 101.15,-32.19 71.61,-22.28"/>
<polygon fill="#63b8ff" stroke="#63b8ff" points="72.68,-18.94 62.08,-19.08 70.45,-25.58 72.68,-18.94"/>
</a>
</g>
</g>
<!-- Node6&#45;&gt;Node5 -->
<g id="edge7_Node000006_Node000005" class="edge">
<title>Node6&#45;&gt;Node5</title>
<g id="a_edge7_Node000006_Node000005"><a xlink:title=" ">
<path fill="none" stroke="#63b8ff" d="M203.98,-54.98C212.7,-47.15 225.84,-35.34 236.4,-25.86"/>
<polygon fill="#63b8ff" stroke="#63b8ff" points="238.75,-28.46 243.85,-19.17 234.07,-23.25 238.75,-28.46"/>
</a>
</g>
</g>
<!-- Node7 -->
<g id="Node000007" class="node">
<title>Node7</title>
<g id="a_Node000007"><a xlink:title=" ">
<polygon fill="#e0e0e0" stroke="#999999" points="192.5,-19 134.5,-19 134.5,0 192.5,0 192.5,-19"/>
<text text-anchor="middle" x="163.5" y="-7" font-family="Helvetica,sans-Serif" font-size="10.00">cxxabi.h</text>
</a>
</g>
</g>
<!-- Node6&#45;&gt;Node7 -->
<g id="edge8_Node000006_Node000007" class="edge">
<title>Node6&#45;&gt;Node7</title>
<g id="a_edge8_Node000006_Node000007"><a xlink:title=" ">
<path fill="none" stroke="#63b8ff" d="M189.38,-54.75C185.14,-47.49 178.97,-36.95 173.72,-27.98"/>
<polygon fill="#63b8ff" stroke="#63b8ff" points="176.59,-25.95 168.52,-19.09 170.55,-29.49 176.59,-25.95"/>
</a>
</g>
</g>
</g>
</svg>
