<?xml version="1.0" encoding="UTF-8" standalone="no"?>
<!DOCTYPE svg PUBLIC "-//W3C//DTD SVG 1.1//EN"
 "http://www.w3.org/Graphics/SVG/1.1/DTD/svg11.dtd">
<!-- Generated by graphviz version 2.42.4 (0)
 -->
<!-- Title: static_string.hpp Pages: 1 -->
<svg width="239pt" height="137pt"
 viewBox="0.00 0.00 239.00 137.00" xmlns="http://www.w3.org/2000/svg" xmlns:xlink="http://www.w3.org/1999/xlink">
<g id="graph0" class="graph" transform="scale(1 1) rotate(0) translate(4 133)">
<title>static_string.hpp</title>
<!-- Node1 -->
<g id="Node000001" class="node">
<title>Node1</title>
<g id="a_Node000001"><a xlink:title=" ">
<polygon fill="#999999" stroke="#666666" points="154.5,-129 56.5,-129 56.5,-110 154.5,-110 154.5,-129"/>
<text text-anchor="middle" x="105.5" y="-117" font-family="Helvetica,sans-Serif" font-size="10.00">static_string.hpp</text>
</a>
</g>
</g>
<!-- Node2 -->
<g id="Node000002" class="node">
<title>Node2</title>
<g id="a_Node000002"><a xlink:href="profiling_8hpp.html" target="_top" xlink:title=" ">
<polygon fill="white" stroke="#666666" points="77,-74 0,-74 0,-55 77,-55 77,-74"/>
<text text-anchor="middle" x="38.5" y="-62" font-family="Helvetica,sans-Serif" font-size="10.00">profiling.hpp</text>
</a>
</g>
</g>
<!-- Node1&#45;&gt;Node2 -->
<g id="edge1_Node000001_Node000002" class="edge">
<title>Node1&#45;&gt;Node2</title>
<g id="a_edge1_Node000001_Node000002"><a xlink:title=" ">
<path fill="none" stroke="#63b8ff" d="M86.67,-103.6C74.66,-94.11 59.53,-82.13 49.46,-74.17"/>
<polygon fill="#63b8ff" stroke="#63b8ff" points="84.72,-106.53 94.74,-109.98 89.06,-101.04 84.72,-106.53"/>
</a>
</g>
</g>
<!-- Node3 -->
<g id="Node000003" class="node">
<title>Node3</title>
<g id="a_Node000003"><a xlink:href="tests_8cpp.html" target="_top" xlink:title=" ">
<polygon fill="white" stroke="#666666" points="102,-19 41,-19 41,0 102,0 102,-19"/>
<text text-anchor="middle" x="71.5" y="-7" font-family="Helvetica,sans-Serif" font-size="10.00">tests.cpp</text>
</a>
</g>
</g>
<!-- Node1&#45;&gt;Node3 -->
<g id="edge4_Node000001_Node000003" class="edge">
<title>Node1&#45;&gt;Node3</title>
<g id="a_edge4_Node000001_Node000003"><a xlink:title=" ">
<path fill="none" stroke="#63b8ff" d="M100.15,-100.02C96.43,-87.32 91.3,-70.1 86.5,-55 82.5,-42.41 77.55,-27.94 74.46,-19"/>
<polygon fill="#63b8ff" stroke="#63b8ff" points="96.86,-101.22 103.01,-109.84 103.58,-99.26 96.86,-101.22"/>
</a>
</g>
</g>
<!-- Node4 -->
<g id="Node000004" class="node">
<title>Node4</title>
<g id="a_Node000004"><a xlink:href="static__string_8cpp.html" target="_top" xlink:title=" ">
<polygon fill="white" stroke="#666666" points="231,-74 134,-74 134,-55 231,-55 231,-74"/>
<text text-anchor="middle" x="182.5" y="-62" font-family="Helvetica,sans-Serif" font-size="10.00">static_string.cpp</text>
</a>
</g>
</g>
<!-- Node1&#45;&gt;Node4 -->
<g id="edge3_Node000001_Node000004" class="edge">
<title>Node1&#45;&gt;Node4</title>
<g id="a_edge3_Node000001_Node000004"><a xlink:title=" ">
<path fill="none" stroke="#63b8ff" d="M126.35,-104.15C140.26,-94.57 158.11,-82.29 169.9,-74.17"/>
<polygon fill="#63b8ff" stroke="#63b8ff" points="124.12,-101.43 117.87,-109.98 128.09,-107.2 124.12,-101.43"/>
</a>
</g>
</g>
<!-- Node2&#45;&gt;Node3 -->
<g id="edge2_Node000002_Node000003" class="edge">
<title>Node2&#45;&gt;Node3</title>
<g id="a_edge2_Node000002_Node000003"><a xlink:title=" ">
<path fill="none" stroke="#63b8ff" d="M49.33,-46.1C54.97,-37.04 61.62,-26.37 66.15,-19.09"/>
<polygon fill="#63b8ff" stroke="#63b8ff" points="46.26,-44.41 43.95,-54.75 52.21,-48.11 46.26,-44.41"/>
</a>
</g>
</g>
</g>
</svg>
