<?xml version="1.0" encoding="UTF-8" standalone="no"?>
<!DOCTYPE svg PUBLIC "-//W3C//DTD SVG 1.1//EN"
 "http://www.w3.org/Graphics/SVG/1.1/DTD/svg11.dtd">
<!-- Generated by graphviz version 2.42.4 (0)
 -->
<!-- Title: ein::fp16::from_bits Pages: 1 -->
<svg width="314pt" height="422pt"
 viewBox="0.00 0.00 314.00 422.00" xmlns="http://www.w3.org/2000/svg" xmlns:xlink="http://www.w3.org/1999/xlink">

<svg id="main" version="1.1" xmlns="http://www.w3.org/2000/svg" xmlns:xlink="http://www.w3.org/1999/xlink" xml:space="preserve">

<style type="text/css"><![CDATA[
.node, .edge {opacity: 0.7;}
.node.selected, .edge.selected {opacity: 1;}
.edge:hover path { stroke: red; }
.edge:hover polygon { stroke: red; fill: red; }
]]></style>
<script type="application/ecmascript" xlink:href="svg.min.js"/>
<svg id="graph" class="graph">
<g id="graph0" class="graph" transform="scale(1 1) rotate(0) translate(4 418)">
<title>ein::fp16::from_bits</title>
<!-- Node1 -->
<g id="Node000001" class="node">
<title>Node1</title>
<g id="a_Node000001"><a xlink:title=" ">
<polygon fill="#999999" stroke="#666666" points="306,-216.5 194,-216.5 194,-197.5 306,-197.5 306,-216.5"/>
<text text-anchor="middle" x="250" y="-204.5" font-family="Helvetica,sans-Serif" font-size="10.00">ein::fp16::from_bits</text>
</a>
</g>
</g>
<!-- Node2 -->
<g id="Node000002" class="node">
<title>Node2</title>
<g id="a_Node000002"><a xlink:href="classstd_1_1numeric__limits_3_01ein_1_1fp16_01_4.html#a879b612c446f2ce6d06b0f4b67fde206" target="_top" xlink:title=" ">
<polygon fill="white" stroke="#666666" points="153.5,-414 4.5,-414 4.5,-384 153.5,-384 153.5,-414"/>
<text text-anchor="start" x="12.5" y="-402" font-family="Helvetica,sans-Serif" font-size="10.00">std::numeric_limits</text>
<text text-anchor="middle" x="79" y="-391" font-family="Helvetica,sans-Serif" font-size="10.00">&lt; ein::fp16 &gt;::denorm_min</text>
</a>
</g>
</g>
<!-- Node1&#45;&gt;Node2 -->
<g id="edge1_Node000001_Node000002" class="edge">
<title>Node1&#45;&gt;Node2</title>
<g id="a_edge1_Node000001_Node000002"><a xlink:title=" ">
<path fill="none" stroke="#63b8ff" d="M243.76,-226.56C233.37,-261.56 206.85,-334.97 158,-375 153.84,-378.41 149.19,-381.34 144.29,-383.85"/>
<polygon fill="#63b8ff" stroke="#63b8ff" points="247.21,-227.21 246.57,-216.64 240.48,-225.3 247.21,-227.21"/>
</a>
</g>
</g>
<!-- Node3 -->
<g id="Node000003" class="node">
<title>Node3</title>
<g id="a_Node000003"><a xlink:href="classstd_1_1numeric__limits_3_01ein_1_1fp16_01_4.html#aae1f220f1a028dd7ea2bba2f27fbfbf5" target="_top" xlink:title=" ">
<polygon fill="white" stroke="#666666" points="140.5,-366 17.5,-366 17.5,-336 140.5,-336 140.5,-366"/>
<text text-anchor="start" x="25.5" y="-354" font-family="Helvetica,sans-Serif" font-size="10.00">std::numeric_limits</text>
<text text-anchor="middle" x="79" y="-343" font-family="Helvetica,sans-Serif" font-size="10.00">&lt; ein::fp16 &gt;::epsilon</text>
</a>
</g>
</g>
<!-- Node1&#45;&gt;Node3 -->
<g id="edge2_Node000001_Node000003" class="edge">
<title>Node1&#45;&gt;Node3</title>
<g id="a_edge2_Node000001_Node000003"><a xlink:title=" ">
<path fill="none" stroke="#63b8ff" d="M239.69,-225.71C225.6,-252.13 196.38,-300.16 158,-327 152.66,-330.73 146.72,-333.9 140.57,-336.59"/>
<polygon fill="#63b8ff" stroke="#63b8ff" points="242.85,-227.22 244.34,-216.73 236.63,-224 242.85,-227.22"/>
</a>
</g>
</g>
<!-- Node4 -->
<g id="Node000004" class="node">
<title>Node4</title>
<g id="a_Node000004"><a xlink:href="classstd_1_1numeric__limits_3_01ein_1_1fp16_01_4.html#a51020bd42067dc8c750559d1c2601c56" target="_top" xlink:title=" ">
<polygon fill="white" stroke="#666666" points="140,-318 18,-318 18,-288 140,-288 140,-318"/>
<text text-anchor="start" x="26" y="-306" font-family="Helvetica,sans-Serif" font-size="10.00">std::numeric_limits</text>
<text text-anchor="middle" x="79" y="-295" font-family="Helvetica,sans-Serif" font-size="10.00">&lt; ein::fp16 &gt;::infinity</text>
</a>
</g>
</g>
<!-- Node1&#45;&gt;Node4 -->
<g id="edge3_Node000001_Node000004" class="edge">
<title>Node1&#45;&gt;Node4</title>
<g id="a_edge3_Node000001_Node000004"><a xlink:title=" ">
<path fill="none" stroke="#63b8ff" d="M231.63,-224.03C214.28,-240.2 186.2,-264.18 158,-279 151.6,-282.36 144.66,-285.34 137.64,-287.95"/>
<polygon fill="#63b8ff" stroke="#63b8ff" points="234.41,-226.22 239.24,-216.79 229.58,-221.14 234.41,-226.22"/>
</a>
</g>
</g>
<!-- Node5 -->
<g id="Node000005" class="node">
<title>Node5</title>
<g id="a_Node000005"><a xlink:href="classstd_1_1numeric__limits_3_01ein_1_1fp16_01_4.html#a765aa7bbd651e2c72c7ab3ebe9605cae" target="_top" xlink:title=" ">
<polygon fill="white" stroke="#666666" points="139,-270 19,-270 19,-240 139,-240 139,-270"/>
<text text-anchor="start" x="27" y="-258" font-family="Helvetica,sans-Serif" font-size="10.00">std::numeric_limits</text>
<text text-anchor="middle" x="79" y="-247" font-family="Helvetica,sans-Serif" font-size="10.00">&lt; ein::fp16 &gt;::lowest</text>
</a>
</g>
</g>
<!-- Node1&#45;&gt;Node5 -->
<g id="edge4_Node000001_Node000005" class="edge">
<title>Node1&#45;&gt;Node5</title>
<g id="a_edge4_Node000001_Node000005"><a xlink:title=" ">
<path fill="none" stroke="#63b8ff" d="M205.43,-219.37C183.34,-225.65 156.33,-233.32 133.03,-239.94"/>
<polygon fill="#63b8ff" stroke="#63b8ff" points="206.54,-222.7 215.21,-216.6 204.63,-215.96 206.54,-222.7"/>
</a>
</g>
</g>
<!-- Node6 -->
<g id="Node000006" class="node">
<title>Node6</title>
<g id="a_Node000006"><a xlink:href="classstd_1_1numeric__limits_3_01ein_1_1fp16_01_4.html#abfffafea4d542638ca306d106573cd3a" target="_top" xlink:title=" ">
<polygon fill="white" stroke="#666666" points="134,-222 24,-222 24,-192 134,-192 134,-222"/>
<text text-anchor="start" x="32" y="-210" font-family="Helvetica,sans-Serif" font-size="10.00">std::numeric_limits</text>
<text text-anchor="middle" x="79" y="-199" font-family="Helvetica,sans-Serif" font-size="10.00">&lt; ein::fp16 &gt;::max</text>
</a>
</g>
</g>
<!-- Node1&#45;&gt;Node6 -->
<g id="edge5_Node000001_Node000006" class="edge">
<title>Node1&#45;&gt;Node6</title>
<g id="a_edge5_Node000001_Node000006"><a xlink:title=" ">
<path fill="none" stroke="#63b8ff" d="M183.61,-207C167.21,-207 149.8,-207 134.02,-207"/>
<polygon fill="#63b8ff" stroke="#63b8ff" points="183.66,-210.5 193.66,-207 183.66,-203.5 183.66,-210.5"/>
</a>
</g>
</g>
<!-- Node7 -->
<g id="Node000007" class="node">
<title>Node7</title>
<g id="a_Node000007"><a xlink:href="classstd_1_1numeric__limits_3_01ein_1_1fp16_01_4.html#a64ba6bbe00597579859d2308b678bb6b" target="_top" xlink:title=" ">
<polygon fill="white" stroke="#666666" points="134,-174 24,-174 24,-144 134,-144 134,-174"/>
<text text-anchor="start" x="32" y="-162" font-family="Helvetica,sans-Serif" font-size="10.00">std::numeric_limits</text>
<text text-anchor="middle" x="79" y="-151" font-family="Helvetica,sans-Serif" font-size="10.00">&lt; ein::fp16 &gt;::min</text>
</a>
</g>
</g>
<!-- Node1&#45;&gt;Node7 -->
<g id="edge6_Node000001_Node000007" class="edge">
<title>Node1&#45;&gt;Node7</title>
<g id="a_edge6_Node000001_Node000007"><a xlink:title=" ">
<path fill="none" stroke="#63b8ff" d="M205.43,-194.63C183.34,-188.35 156.33,-180.68 133.03,-174.06"/>
<polygon fill="#63b8ff" stroke="#63b8ff" points="204.63,-198.04 215.21,-197.4 206.54,-191.3 204.63,-198.04"/>
</a>
</g>
</g>
<!-- Node8 -->
<g id="Node000008" class="node">
<title>Node8</title>
<g id="a_Node000008"><a xlink:href="classstd_1_1numeric__limits_3_01ein_1_1fp16_01_4.html#a5dc18aef6d487e62994732b476dd690c" target="_top" xlink:title=" ">
<polygon fill="white" stroke="#666666" points="148.5,-126 9.5,-126 9.5,-96 148.5,-96 148.5,-126"/>
<text text-anchor="start" x="17.5" y="-114" font-family="Helvetica,sans-Serif" font-size="10.00">std::numeric_limits</text>
<text text-anchor="middle" x="79" y="-103" font-family="Helvetica,sans-Serif" font-size="10.00">&lt; ein::fp16 &gt;::quiet_NaN</text>
</a>
</g>
</g>
<!-- Node1&#45;&gt;Node8 -->
<g id="edge7_Node000001_Node000008" class="edge">
<title>Node1&#45;&gt;Node8</title>
<g id="a_edge7_Node000001_Node000008"><a xlink:title=" ">
<path fill="none" stroke="#63b8ff" d="M231.63,-189.97C214.28,-173.8 186.2,-149.82 158,-135 151.6,-131.64 144.66,-128.66 137.64,-126.05"/>
<polygon fill="#63b8ff" stroke="#63b8ff" points="229.58,-192.86 239.24,-197.21 234.41,-187.78 229.58,-192.86"/>
</a>
</g>
</g>
<!-- Node9 -->
<g id="Node000009" class="node">
<title>Node9</title>
<g id="a_Node000009"><a xlink:href="classstd_1_1numeric__limits_3_01ein_1_1fp16_01_4.html#a87140e8974f4c8bc4086e93f0df4edf0" target="_top" xlink:title=" ">
<polygon fill="white" stroke="#666666" points="151,-78 7,-78 7,-48 151,-48 151,-78"/>
<text text-anchor="start" x="15" y="-66" font-family="Helvetica,sans-Serif" font-size="10.00">std::numeric_limits</text>
<text text-anchor="middle" x="79" y="-55" font-family="Helvetica,sans-Serif" font-size="10.00">&lt; ein::fp16 &gt;::round_error</text>
</a>
</g>
</g>
<!-- Node1&#45;&gt;Node9 -->
<g id="edge8_Node000001_Node000009" class="edge">
<title>Node1&#45;&gt;Node9</title>
<g id="a_edge8_Node000001_Node000009"><a xlink:title=" ">
<path fill="none" stroke="#63b8ff" d="M239.69,-188.29C225.6,-161.87 196.38,-113.84 158,-87 153.12,-83.59 147.75,-80.65 142.17,-78.13"/>
<polygon fill="#63b8ff" stroke="#63b8ff" points="236.63,-190 244.34,-197.27 242.85,-186.78 236.63,-190"/>
</a>
</g>
</g>
<!-- Node10 -->
<g id="Node000010" class="node">
<title>Node10</title>
<g id="a_Node000010"><a xlink:href="classstd_1_1numeric__limits_3_01ein_1_1fp16_01_4.html#a7b1ed73f0c1042e09179b45c52120653" target="_top" xlink:title=" ">
<polygon fill="white" stroke="#666666" points="158,-30 0,-30 0,0 158,0 158,-30"/>
<text text-anchor="start" x="8" y="-18" font-family="Helvetica,sans-Serif" font-size="10.00">std::numeric_limits</text>
<text text-anchor="middle" x="79" y="-7" font-family="Helvetica,sans-Serif" font-size="10.00">&lt; ein::fp16 &gt;::signaling_NaN</text>
</a>
</g>
</g>
<!-- Node1&#45;&gt;Node10 -->
<g id="edge9_Node000001_Node000010" class="edge">
<title>Node1&#45;&gt;Node10</title>
<g id="a_edge9_Node000001_Node000010"><a xlink:title=" ">
<path fill="none" stroke="#63b8ff" d="M243.76,-187.44C233.37,-152.44 206.85,-79.03 158,-39 153.84,-35.59 149.19,-32.66 144.29,-30.15"/>
<polygon fill="#63b8ff" stroke="#63b8ff" points="240.48,-188.7 246.57,-197.36 247.21,-186.79 240.48,-188.7"/>
</a>
</g>
</g>
</g>
</svg>
</svg>

<style type='text/css'>
<![CDATA[
[data-mouse-over-selected='false'] { opacity: 0.7; }
[data-mouse-over-selected='true']  { opacity: 1.0; }
]]>
</style>
<script type="application/ecmascript"><![CDATA[
document.addEventListener('DOMContentLoaded', (event) => {
  highlightEdges();
  highlightAdjacentNodes();
});
]]></script>
</svg>
