<?xml version="1.0" encoding="UTF-8" standalone="no"?>
<!DOCTYPE svg PUBLIC "-//W3C//DTD SVG 1.1//EN"
 "http://www.w3.org/Graphics/SVG/1.1/DTD/svg11.dtd">
<!-- Generated by graphviz version 2.42.4 (0)
 -->
<!-- Title: ein::bf16::from_bits Pages: 1 -->
<svg width="314pt" height="374pt"
 viewBox="0.00 0.00 314.00 374.00" xmlns="http://www.w3.org/2000/svg" xmlns:xlink="http://www.w3.org/1999/xlink">

<svg id="main" version="1.1" xmlns="http://www.w3.org/2000/svg" xmlns:xlink="http://www.w3.org/1999/xlink" xml:space="preserve">

<style type="text/css"><![CDATA[
.node, .edge {opacity: 0.7;}
.node.selected, .edge.selected {opacity: 1;}
.edge:hover path { stroke: red; }
.edge:hover polygon { stroke: red; fill: red; }
]]></style>
<script type="application/ecmascript" xlink:href="svg.min.js"/>
<svg id="graph" class="graph">
<g id="graph0" class="graph" transform="scale(1 1) rotate(0) translate(4 370)">
<title>ein::bf16::from_bits</title>
<!-- Node1 -->
<g id="Node000001" class="node">
<title>Node1</title>
<g id="a_Node000001"><a xlink:title=" ">
<polygon fill="#999999" stroke="#666666" points="306,-192.5 194,-192.5 194,-173.5 306,-173.5 306,-192.5"/>
<text text-anchor="middle" x="250" y="-180.5" font-family="Helvetica,sans-Serif" font-size="10.00">ein::bf16::from_bits</text>
</a>
</g>
</g>
<!-- Node2 -->
<g id="Node000002" class="node">
<title>Node2</title>
<g id="a_Node000002"><a xlink:href="classstd_1_1numeric__limits_3_01ein_1_1bf16_01_4.html#a52a1b464f0331e8c4c40b0cd751c43df" target="_top" xlink:title=" ">
<polygon fill="white" stroke="#666666" points="140.5,-366 17.5,-366 17.5,-336 140.5,-336 140.5,-366"/>
<text text-anchor="start" x="25.5" y="-354" font-family="Helvetica,sans-Serif" font-size="10.00">std::numeric_limits</text>
<text text-anchor="middle" x="79" y="-343" font-family="Helvetica,sans-Serif" font-size="10.00">&lt; ein::bf16 &gt;::epsilon</text>
</a>
</g>
</g>
<!-- Node1&#45;&gt;Node2 -->
<g id="edge1_Node000001_Node000002" class="edge">
<title>Node1&#45;&gt;Node2</title>
<g id="a_edge1_Node000001_Node000002"><a xlink:title=" ">
<path fill="none" stroke="#63b8ff" d="M241.95,-202.33C229.68,-233.25 201.5,-293.74 158,-327 152.71,-331.05 146.73,-334.41 140.5,-337.22"/>
<polygon fill="#63b8ff" stroke="#63b8ff" points="245.32,-203.31 245.62,-192.72 238.78,-200.81 245.32,-203.31"/>
</a>
</g>
</g>
<!-- Node3 -->
<g id="Node000003" class="node">
<title>Node3</title>
<g id="a_Node000003"><a xlink:href="classstd_1_1numeric__limits_3_01ein_1_1bf16_01_4.html#a19d5ea994f4908a5e44a8727fdd4e5aa" target="_top" xlink:title=" ">
<polygon fill="white" stroke="#666666" points="140,-318 18,-318 18,-288 140,-288 140,-318"/>
<text text-anchor="start" x="26" y="-306" font-family="Helvetica,sans-Serif" font-size="10.00">std::numeric_limits</text>
<text text-anchor="middle" x="79" y="-295" font-family="Helvetica,sans-Serif" font-size="10.00">&lt; ein::bf16 &gt;::infinity</text>
</a>
</g>
</g>
<!-- Node1&#45;&gt;Node3 -->
<g id="edge2_Node000001_Node000003" class="edge">
<title>Node1&#45;&gt;Node3</title>
<g id="a_edge2_Node000001_Node000003"><a xlink:title=" ">
<path fill="none" stroke="#63b8ff" d="M236.5,-201.02C220.63,-222.58 191.3,-258.34 158,-279 152.46,-282.44 146.4,-285.41 140.17,-287.98"/>
<polygon fill="#63b8ff" stroke="#63b8ff" points="239.46,-202.9 242.44,-192.73 233.77,-198.82 239.46,-202.9"/>
</a>
</g>
</g>
<!-- Node4 -->
<g id="Node000004" class="node">
<title>Node4</title>
<g id="a_Node000004"><a xlink:href="classstd_1_1numeric__limits_3_01ein_1_1bf16_01_4.html#ad993ec310d3f4b5c983481ae376afb05" target="_top" xlink:title=" ">
<polygon fill="white" stroke="#666666" points="139,-270 19,-270 19,-240 139,-240 139,-270"/>
<text text-anchor="start" x="27" y="-258" font-family="Helvetica,sans-Serif" font-size="10.00">std::numeric_limits</text>
<text text-anchor="middle" x="79" y="-247" font-family="Helvetica,sans-Serif" font-size="10.00">&lt; ein::bf16 &gt;::lowest</text>
</a>
</g>
</g>
<!-- Node1&#45;&gt;Node4 -->
<g id="edge3_Node000001_Node000004" class="edge">
<title>Node1&#45;&gt;Node4</title>
<g id="a_edge3_Node000001_Node000004"><a xlink:title=" ">
<path fill="none" stroke="#63b8ff" d="M224.31,-197.64C206.34,-207.89 181.19,-221.41 158,-231 150.27,-234.19 141.97,-237.19 133.76,-239.91"/>
<polygon fill="#63b8ff" stroke="#63b8ff" points="226.1,-200.65 233,-192.62 222.59,-194.59 226.1,-200.65"/>
</a>
</g>
</g>
<!-- Node5 -->
<g id="Node000005" class="node">
<title>Node5</title>
<g id="a_Node000005"><a xlink:href="classstd_1_1numeric__limits_3_01ein_1_1bf16_01_4.html#af0200b86aa67f3da7805ab293fefca5b" target="_top" xlink:title=" ">
<polygon fill="white" stroke="#666666" points="134,-222 24,-222 24,-192 134,-192 134,-222"/>
<text text-anchor="start" x="32" y="-210" font-family="Helvetica,sans-Serif" font-size="10.00">std::numeric_limits</text>
<text text-anchor="middle" x="79" y="-199" font-family="Helvetica,sans-Serif" font-size="10.00">&lt; ein::bf16 &gt;::max</text>
</a>
</g>
</g>
<!-- Node1&#45;&gt;Node5 -->
<g id="edge4_Node000001_Node000005" class="edge">
<title>Node1&#45;&gt;Node5</title>
<g id="a_edge4_Node000001_Node000005"><a xlink:title=" ">
<path fill="none" stroke="#63b8ff" d="M183.61,-192.29C167.21,-194.62 149.8,-197.09 134.02,-199.33"/>
<polygon fill="#63b8ff" stroke="#63b8ff" points="184.25,-195.73 193.66,-190.86 183.27,-188.8 184.25,-195.73"/>
</a>
</g>
</g>
<!-- Node6 -->
<g id="Node000006" class="node">
<title>Node6</title>
<g id="a_Node000006"><a xlink:href="classstd_1_1numeric__limits_3_01ein_1_1bf16_01_4.html#af256e4ea02181b7176a9c091c2ec3418" target="_top" xlink:title=" ">
<polygon fill="white" stroke="#666666" points="134,-174 24,-174 24,-144 134,-144 134,-174"/>
<text text-anchor="start" x="32" y="-162" font-family="Helvetica,sans-Serif" font-size="10.00">std::numeric_limits</text>
<text text-anchor="middle" x="79" y="-151" font-family="Helvetica,sans-Serif" font-size="10.00">&lt; ein::bf16 &gt;::min</text>
</a>
</g>
</g>
<!-- Node1&#45;&gt;Node6 -->
<g id="edge5_Node000001_Node000006" class="edge">
<title>Node1&#45;&gt;Node6</title>
<g id="a_edge5_Node000001_Node000006"><a xlink:title=" ">
<path fill="none" stroke="#63b8ff" d="M183.61,-173.71C167.21,-171.38 149.8,-168.91 134.02,-166.67"/>
<polygon fill="#63b8ff" stroke="#63b8ff" points="183.27,-177.2 193.66,-175.14 184.25,-170.27 183.27,-177.2"/>
</a>
</g>
</g>
<!-- Node7 -->
<g id="Node000007" class="node">
<title>Node7</title>
<g id="a_Node000007"><a xlink:href="classstd_1_1numeric__limits_3_01ein_1_1bf16_01_4.html#a78f5c0d4f4cda7bf22c278d5e71b5e47" target="_top" xlink:title=" ">
<polygon fill="white" stroke="#666666" points="148.5,-126 9.5,-126 9.5,-96 148.5,-96 148.5,-126"/>
<text text-anchor="start" x="17.5" y="-114" font-family="Helvetica,sans-Serif" font-size="10.00">std::numeric_limits</text>
<text text-anchor="middle" x="79" y="-103" font-family="Helvetica,sans-Serif" font-size="10.00">&lt; ein::bf16 &gt;::quiet_NaN</text>
</a>
</g>
</g>
<!-- Node1&#45;&gt;Node7 -->
<g id="edge6_Node000001_Node000007" class="edge">
<title>Node1&#45;&gt;Node7</title>
<g id="a_edge6_Node000001_Node000007"><a xlink:title=" ">
<path fill="none" stroke="#63b8ff" d="M224.31,-168.36C206.34,-158.11 181.19,-144.59 158,-135 150.27,-131.81 141.97,-128.81 133.76,-126.09"/>
<polygon fill="#63b8ff" stroke="#63b8ff" points="222.59,-171.41 233,-173.38 226.1,-165.35 222.59,-171.41"/>
</a>
</g>
</g>
<!-- Node8 -->
<g id="Node000008" class="node">
<title>Node8</title>
<g id="a_Node000008"><a xlink:href="classstd_1_1numeric__limits_3_01ein_1_1bf16_01_4.html#a95708121ee9a2d4d266ecad2f02a5e67" target="_top" xlink:title=" ">
<polygon fill="white" stroke="#666666" points="151,-78 7,-78 7,-48 151,-48 151,-78"/>
<text text-anchor="start" x="15" y="-66" font-family="Helvetica,sans-Serif" font-size="10.00">std::numeric_limits</text>
<text text-anchor="middle" x="79" y="-55" font-family="Helvetica,sans-Serif" font-size="10.00">&lt; ein::bf16 &gt;::round_error</text>
</a>
</g>
</g>
<!-- Node1&#45;&gt;Node8 -->
<g id="edge7_Node000001_Node000008" class="edge">
<title>Node1&#45;&gt;Node8</title>
<g id="a_edge7_Node000001_Node000008"><a xlink:title=" ">
<path fill="none" stroke="#63b8ff" d="M236.5,-164.98C220.63,-143.42 191.3,-107.66 158,-87 152.46,-83.56 146.4,-80.59 140.17,-78.02"/>
<polygon fill="#63b8ff" stroke="#63b8ff" points="233.77,-167.18 242.44,-173.27 239.46,-163.1 233.77,-167.18"/>
</a>
</g>
</g>
<!-- Node9 -->
<g id="Node000009" class="node">
<title>Node9</title>
<g id="a_Node000009"><a xlink:href="classstd_1_1numeric__limits_3_01ein_1_1bf16_01_4.html#af31bcb7e4f5be58a753cdadbb00982c0" target="_top" xlink:title=" ">
<polygon fill="white" stroke="#666666" points="158,-30 0,-30 0,0 158,0 158,-30"/>
<text text-anchor="start" x="8" y="-18" font-family="Helvetica,sans-Serif" font-size="10.00">std::numeric_limits</text>
<text text-anchor="middle" x="79" y="-7" font-family="Helvetica,sans-Serif" font-size="10.00">&lt; ein::bf16 &gt;::signaling_NaN</text>
</a>
</g>
</g>
<!-- Node1&#45;&gt;Node9 -->
<g id="edge8_Node000001_Node000009" class="edge">
<title>Node1&#45;&gt;Node9</title>
<g id="a_edge8_Node000001_Node000009"><a xlink:title=" ">
<path fill="none" stroke="#63b8ff" d="M241.95,-163.67C229.68,-132.75 201.5,-72.26 158,-39 153.5,-35.56 148.5,-32.6 143.27,-30.07"/>
<polygon fill="#63b8ff" stroke="#63b8ff" points="238.78,-165.19 245.62,-173.28 245.32,-162.69 238.78,-165.19"/>
</a>
</g>
</g>
</g>
</svg>
</svg>

<style type='text/css'>
<![CDATA[
[data-mouse-over-selected='false'] { opacity: 0.7; }
[data-mouse-over-selected='true']  { opacity: 1.0; }
]]>
</style>
<script type="application/ecmascript"><![CDATA[
document.addEventListener('DOMContentLoaded', (event) => {
  highlightEdges();
  highlightAdjacentNodes();
});
]]></script>
</svg>
