<?xml version="1.0" encoding="UTF-8" standalone="no"?>
<!DOCTYPE svg PUBLIC "-//W3C//DTD SVG 1.1//EN"
 "http://www.w3.org/Graphics/SVG/1.1/DTD/svg11.dtd">
<!-- Generated by graphviz version 2.42.4 (0)
 -->
<!-- Title: ein::profiling::profile::log Pages: 1 -->
<svg width="304pt" height="470pt"
 viewBox="0.00 0.00 304.00 470.00" xmlns="http://www.w3.org/2000/svg" xmlns:xlink="http://www.w3.org/1999/xlink">
<g id="graph0" class="graph" transform="scale(1 1) rotate(0) translate(4 466)">
<title>ein::profiling::profile::log</title>
<!-- Node1 -->
<g id="Node000001" class="node">
<title>Node1</title>
<g id="a_Node000001"><a xlink:title=" ">
<polygon fill="#999999" stroke="#666666" points="296,-240.5 161,-240.5 161,-221.5 296,-221.5 296,-240.5"/>
<text text-anchor="middle" x="228.5" y="-228.5" font-family="Helvetica,sans-Serif" font-size="10.00">ein::profiling::profile::log</text>
</a>
</g>
</g>
<!-- Node2 -->
<g id="Node000002" class="node">
<title>Node2</title>
<g id="a_Node000002"><a xlink:href="structein_1_1profiling_1_1profile.html#ae786b3ef1e4bae7ae4223f9b97ec4122" target="_top" xlink:title=" ">
<polygon fill="white" stroke="#666666" points="119.5,-462 5.5,-462 5.5,-432 119.5,-432 119.5,-462"/>
<text text-anchor="start" x="13.5" y="-450" font-family="Helvetica,sans-Serif" font-size="10.00">ein::profiling::profile</text>
<text text-anchor="middle" x="62.5" y="-439" font-family="Helvetica,sans-Serif" font-size="10.00">::counter</text>
</a>
</g>
</g>
<!-- Node1&#45;&gt;Node2 -->
<g id="edge1_Node000001_Node000002" class="edge">
<title>Node1&#45;&gt;Node2</title>
<g id="a_edge1_Node000001_Node000002"><a xlink:title=" ">
<path fill="none" stroke="#63b8ff" d="M222,-250.85C210.37,-289.28 179.77,-374.35 125,-423 121.14,-426.43 116.74,-429.39 112.11,-431.94"/>
<polygon fill="#63b8ff" stroke="#63b8ff" points="225.45,-251.49 224.89,-240.91 218.73,-249.53 225.45,-251.49"/>
</a>
</g>
</g>
<!-- Node3 -->
<g id="Node000003" class="node">
<title>Node3</title>
<g id="a_Node000003"><a xlink:href="structein_1_1profiling_1_1profile.html#a93c4623fe10cf33ad3c27a23b3f32a5f" target="_top" xlink:title=" ">
<polygon fill="white" stroke="#666666" points="119.5,-414 5.5,-414 5.5,-384 119.5,-384 119.5,-414"/>
<text text-anchor="start" x="13.5" y="-402" font-family="Helvetica,sans-Serif" font-size="10.00">ein::profiling::profile</text>
<text text-anchor="middle" x="62.5" y="-391" font-family="Helvetica,sans-Serif" font-size="10.00">::flow_end</text>
</a>
</g>
</g>
<!-- Node1&#45;&gt;Node3 -->
<g id="edge2_Node000001_Node000003" class="edge">
<title>Node1&#45;&gt;Node3</title>
<g id="a_edge2_Node000001_Node000003"><a xlink:title=" ">
<path fill="none" stroke="#63b8ff" d="M218.79,-249.55C203.72,-279.81 170.01,-339.91 125,-375 120.66,-378.38 115.79,-381.34 110.73,-383.91"/>
<polygon fill="#63b8ff" stroke="#63b8ff" points="221.96,-251.04 223.18,-240.52 215.66,-247.98 221.96,-251.04"/>
</a>
</g>
</g>
<!-- Node4 -->
<g id="Node000004" class="node">
<title>Node4</title>
<g id="a_Node000004"><a xlink:href="structein_1_1profiling_1_1profile.html#a810f41a2fd26b2f4143da1efdc8f6617" target="_top" xlink:title=" ">
<polygon fill="white" stroke="#666666" points="119.5,-366 5.5,-366 5.5,-336 119.5,-336 119.5,-366"/>
<text text-anchor="start" x="13.5" y="-354" font-family="Helvetica,sans-Serif" font-size="10.00">ein::profiling::profile</text>
<text text-anchor="middle" x="62.5" y="-343" font-family="Helvetica,sans-Serif" font-size="10.00">::flow_start</text>
</a>
</g>
</g>
<!-- Node1&#45;&gt;Node4 -->
<g id="edge3_Node000001_Node000004" class="edge">
<title>Node1&#45;&gt;Node4</title>
<g id="a_edge3_Node000001_Node000004"><a xlink:title=" ">
<path fill="none" stroke="#63b8ff" d="M212.61,-248.55C193.96,-269.61 160.17,-304.83 125,-327 119.76,-330.3 114,-333.28 108.17,-335.92"/>
<polygon fill="#63b8ff" stroke="#63b8ff" points="215.49,-250.57 219.42,-240.73 210.21,-245.97 215.49,-250.57"/>
</a>
</g>
</g>
<!-- Node5 -->
<g id="Node000005" class="node">
<title>Node5</title>
<g id="a_Node000005"><a xlink:href="structein_1_1profiling_1_1profile.html#af184e8b3a682605c8579c34bf918a44d" target="_top" xlink:title=" ">
<polygon fill="white" stroke="#666666" points="119.5,-318 5.5,-318 5.5,-288 119.5,-288 119.5,-318"/>
<text text-anchor="start" x="13.5" y="-306" font-family="Helvetica,sans-Serif" font-size="10.00">ein::profiling::profile</text>
<text text-anchor="middle" x="62.5" y="-295" font-family="Helvetica,sans-Serif" font-size="10.00">::instant</text>
</a>
</g>
</g>
<!-- Node1&#45;&gt;Node5 -->
<g id="edge4_Node000001_Node000005" class="edge">
<title>Node1&#45;&gt;Node5</title>
<g id="a_edge4_Node000001_Node000005"><a xlink:title=" ">
<path fill="none" stroke="#63b8ff" d="M198.94,-244.99C178.51,-254.85 150.26,-268.17 125,-279 118.05,-281.98 110.59,-285.02 103.36,-287.89"/>
<polygon fill="#63b8ff" stroke="#63b8ff" points="200.55,-248.1 208.02,-240.59 197.5,-241.8 200.55,-248.1"/>
</a>
</g>
</g>
<!-- Node6 -->
<g id="Node000006" class="node">
<title>Node6</title>
<g id="a_Node000006"><a xlink:href="structein_1_1profiling_1_1scope__event.html#a96e678d9a4066375ee19c87b08f6ebd4" target="_top" xlink:title=" ">
<polygon fill="white" stroke="#666666" points="121,-270 4,-270 4,-240 121,-240 121,-270"/>
<text text-anchor="start" x="12" y="-258" font-family="Helvetica,sans-Serif" font-size="10.00">ein::profiling::scope</text>
<text text-anchor="middle" x="62.5" y="-247" font-family="Helvetica,sans-Serif" font-size="10.00">_event::scope_event</text>
</a>
</g>
</g>
<!-- Node1&#45;&gt;Node6 -->
<g id="edge5_Node000001_Node000006" class="edge">
<title>Node1&#45;&gt;Node6</title>
<g id="a_edge5_Node000001_Node000006"><a xlink:title=" ">
<path fill="none" stroke="#63b8ff" d="M152.26,-242.01C141.8,-243.54 131.2,-245.09 121.14,-246.56"/>
<polygon fill="#63b8ff" stroke="#63b8ff" points="152.82,-245.47 162.21,-240.55 151.81,-238.54 152.82,-245.47"/>
</a>
</g>
</g>
<!-- Node7 -->
<g id="Node000007" class="node">
<title>Node7</title>
<g id="a_Node000007"><a xlink:href="structein_1_1profiling_1_1profile.html#a5e11bd6b4cc050b5ec2fccae625d4aba" target="_top" xlink:title=" ">
<polygon fill="white" stroke="#666666" points="119.5,-222 5.5,-222 5.5,-192 119.5,-192 119.5,-222"/>
<text text-anchor="start" x="13.5" y="-210" font-family="Helvetica,sans-Serif" font-size="10.00">ein::profiling::profile</text>
<text text-anchor="middle" x="62.5" y="-199" font-family="Helvetica,sans-Serif" font-size="10.00">::set_process_name</text>
</a>
</g>
</g>
<!-- Node1&#45;&gt;Node7 -->
<g id="edge6_Node000001_Node000007" class="edge">
<title>Node1&#45;&gt;Node7</title>
<g id="a_edge6_Node000001_Node000007"><a xlink:title=" ">
<path fill="none" stroke="#63b8ff" d="M152.2,-219.98C141.22,-218.37 130.08,-216.74 119.57,-215.21"/>
<polygon fill="#63b8ff" stroke="#63b8ff" points="151.81,-223.46 162.21,-221.45 152.82,-216.53 151.81,-223.46"/>
</a>
</g>
</g>
<!-- Node8 -->
<g id="Node000008" class="node">
<title>Node8</title>
<g id="a_Node000008"><a xlink:href="structein_1_1profiling_1_1profile.html#a9827fdecb65fa747db45bb7eea5be407" target="_top" xlink:title=" ">
<polygon fill="white" stroke="#666666" points="119.5,-174 5.5,-174 5.5,-144 119.5,-144 119.5,-174"/>
<text text-anchor="start" x="13.5" y="-162" font-family="Helvetica,sans-Serif" font-size="10.00">ein::profiling::profile</text>
<text text-anchor="middle" x="62.5" y="-151" font-family="Helvetica,sans-Serif" font-size="10.00">::set_thread_name</text>
</a>
</g>
</g>
<!-- Node1&#45;&gt;Node8 -->
<g id="edge7_Node000001_Node000008" class="edge">
<title>Node1&#45;&gt;Node8</title>
<g id="a_edge7_Node000001_Node000008"><a xlink:title=" ">
<path fill="none" stroke="#63b8ff" d="M198.94,-217.01C178.51,-207.15 150.26,-193.83 125,-183 118.05,-180.02 110.59,-176.98 103.36,-174.11"/>
<polygon fill="#63b8ff" stroke="#63b8ff" points="197.5,-220.2 208.02,-221.41 200.55,-213.9 197.5,-220.2"/>
</a>
</g>
</g>
<!-- Node9 -->
<g id="Node000009" class="node">
<title>Node9</title>
<g id="a_Node000009"><a xlink:href="structein_1_1profiling_1_1duration__event.html#a03127e8d306e53b5bdc1924382656390" target="_top" xlink:title=" ">
<polygon fill="white" stroke="#666666" points="124.5,-126 0.5,-126 0.5,-96 124.5,-96 124.5,-126"/>
<text text-anchor="start" x="8.5" y="-114" font-family="Helvetica,sans-Serif" font-size="10.00">ein::profiling::duration</text>
<text text-anchor="middle" x="62.5" y="-103" font-family="Helvetica,sans-Serif" font-size="10.00">_event::start</text>
</a>
</g>
</g>
<!-- Node1&#45;&gt;Node9 -->
<g id="edge8_Node000001_Node000009" class="edge">
<title>Node1&#45;&gt;Node9</title>
<g id="a_edge8_Node000001_Node000009"><a xlink:title=" ">
<path fill="none" stroke="#63b8ff" d="M212.61,-213.45C193.96,-192.39 160.17,-157.17 125,-135 119.76,-131.7 114,-128.72 108.17,-126.08"/>
<polygon fill="#63b8ff" stroke="#63b8ff" points="210.21,-216.03 219.42,-221.27 215.49,-211.43 210.21,-216.03"/>
</a>
</g>
</g>
<!-- Node10 -->
<g id="Node000010" class="node">
<title>Node10</title>
<g id="a_Node000010"><a xlink:href="structein_1_1profiling_1_1duration__event.html#a5ca7a925690a5fea899d9486ad2206da" target="_top" xlink:title=" ">
<polygon fill="white" stroke="#666666" points="124.5,-78 0.5,-78 0.5,-48 124.5,-48 124.5,-78"/>
<text text-anchor="start" x="8.5" y="-66" font-family="Helvetica,sans-Serif" font-size="10.00">ein::profiling::duration</text>
<text text-anchor="middle" x="62.5" y="-55" font-family="Helvetica,sans-Serif" font-size="10.00">_event::stop</text>
</a>
</g>
</g>
<!-- Node1&#45;&gt;Node10 -->
<g id="edge9_Node000001_Node000010" class="edge">
<title>Node1&#45;&gt;Node10</title>
<g id="a_edge9_Node000001_Node000010"><a xlink:title=" ">
<path fill="none" stroke="#63b8ff" d="M218.79,-212.45C203.72,-182.19 170.01,-122.09 125,-87 120.66,-83.62 115.79,-80.66 110.73,-78.09"/>
<polygon fill="#63b8ff" stroke="#63b8ff" points="215.66,-214.02 223.18,-221.48 221.96,-210.96 215.66,-214.02"/>
</a>
</g>
</g>
<!-- Node11 -->
<g id="Node000011" class="node">
<title>Node11</title>
<g id="a_Node000011"><a xlink:href="structein_1_1profiling_1_1scope__event.html#af08c4453decda3aba55db1765e36101b" target="_top" xlink:title=" ">
<polygon fill="white" stroke="#666666" points="125,-30 0,-30 0,0 125,0 125,-30"/>
<text text-anchor="start" x="8" y="-18" font-family="Helvetica,sans-Serif" font-size="10.00">ein::profiling::scope</text>
<text text-anchor="middle" x="62.5" y="-7" font-family="Helvetica,sans-Serif" font-size="10.00">_event::~scope_event</text>
</a>
</g>
</g>
<!-- Node1&#45;&gt;Node11 -->
<g id="edge10_Node000001_Node000011" class="edge">
<title>Node1&#45;&gt;Node11</title>
<g id="a_edge10_Node000001_Node000011"><a xlink:title=" ">
<path fill="none" stroke="#63b8ff" d="M222,-211.15C210.37,-172.72 179.77,-87.65 125,-39 121.14,-35.57 116.74,-32.61 112.11,-30.06"/>
<polygon fill="#63b8ff" stroke="#63b8ff" points="218.73,-212.47 224.89,-221.09 225.45,-210.51 218.73,-212.47"/>
</a>
</g>
</g>
</g>
</svg>
