<?xml version="1.0" encoding="UTF-8" standalone="no"?>
<!DOCTYPE svg PUBLIC "-//W3C//DTD SVG 1.1//EN"
 "http://www.w3.org/Graphics/SVG/1.1/DTD/svg11.dtd">
<!-- Generated by graphviz version 2.42.4 (0)
 -->
<!-- Title: third&#45;party.hpp Pages: 1 -->
<svg width="982pt" height="93pt"
 viewBox="0.00 0.00 981.50 93.00" xmlns="http://www.w3.org/2000/svg" xmlns:xlink="http://www.w3.org/1999/xlink">
<g id="graph0" class="graph" transform="scale(1 1) rotate(0) translate(4 89)">
<title>third&#45;party.hpp</title>
<!-- Node1 -->
<g id="Node000001" class="node">
<title>Node1</title>
<g id="a_Node000001"><a xlink:title="third&#45;party libraries">
<polygon fill="#999999" stroke="#666666" points="527,-85 439,-85 439,-66 527,-66 527,-85"/>
<text text-anchor="middle" x="483" y="-73" font-family="Helvetica,sans-Serif" font-size="10.00">third&#45;party.hpp</text>
</a>
</g>
</g>
<!-- Node2 -->
<g id="Node000002" class="node">
<title>Node2</title>
<g id="a_Node000002"><a xlink:title=" ">
<polygon fill="#e0e0e0" stroke="#999999" points="110,-24.5 0,-24.5 0,-5.5 110,-5.5 110,-24.5"/>
<text text-anchor="middle" x="55" y="-12.5" font-family="Helvetica,sans-Serif" font-size="10.00">nlohmann/json.hpp</text>
</a>
</g>
</g>
<!-- Node1&#45;&gt;Node2 -->
<g id="edge1_Node000001_Node000002" class="edge">
<title>Node1&#45;&gt;Node2</title>
<g id="a_edge1_Node000001_Node000002"><a xlink:title=" ">
<path fill="none" stroke="#63b8ff" d="M438.82,-70.45C370.14,-63.84 233.7,-49.51 119,-30 113.18,-29.01 107.09,-27.85 101.08,-26.62"/>
<polygon fill="#63b8ff" stroke="#63b8ff" points="101.61,-23.15 91.1,-24.52 100.16,-30 101.61,-23.15"/>
</a>
</g>
</g>
<!-- Node3 -->
<g id="Node000003" class="node">
<title>Node3</title>
<g id="a_Node000003"><a xlink:title=" ">
<polygon fill="#e0e0e0" stroke="#999999" points="221.5,-24.5 128.5,-24.5 128.5,-5.5 221.5,-5.5 221.5,-24.5"/>
<text text-anchor="middle" x="175" y="-12.5" font-family="Helvetica,sans-Serif" font-size="10.00">spdlog/spdlog.h</text>
</a>
</g>
</g>
<!-- Node1&#45;&gt;Node3 -->
<g id="edge2_Node000001_Node000003" class="edge">
<title>Node1&#45;&gt;Node3</title>
<g id="a_edge2_Node000001_Node000003"><a xlink:title=" ">
<path fill="none" stroke="#63b8ff" d="M438.66,-67.64C388.18,-59.6 303.35,-45.41 231,-30 226.58,-29.06 221.98,-28.01 217.4,-26.93"/>
<polygon fill="#63b8ff" stroke="#63b8ff" points="218.03,-23.48 207.48,-24.53 216.38,-30.29 218.03,-23.48"/>
</a>
</g>
</g>
<!-- Node4 -->
<g id="Node000004" class="node">
<title>Node4</title>
<g id="a_Node000004"><a xlink:title=" ">
<polygon fill="#e0e0e0" stroke="#999999" points="354,-24.5 240,-24.5 240,-5.5 354,-5.5 354,-24.5"/>
<text text-anchor="middle" x="297" y="-12.5" font-family="Helvetica,sans-Serif" font-size="10.00">spdlog/fmt/ranges.h</text>
</a>
</g>
</g>
<!-- Node1&#45;&gt;Node4 -->
<g id="edge3_Node000001_Node000004" class="edge">
<title>Node1&#45;&gt;Node4</title>
<g id="a_edge3_Node000001_Node000004"><a xlink:title=" ">
<path fill="none" stroke="#63b8ff" d="M455.95,-65.99C423.72,-55.86 369.71,-38.87 333.72,-27.55"/>
<polygon fill="#63b8ff" stroke="#63b8ff" points="334.67,-24.18 324.08,-24.52 332.57,-30.86 334.67,-24.18"/>
</a>
</g>
</g>
<!-- Node5 -->
<g id="Node000005" class="node">
<title>Node5</title>
<g id="a_Node000005"><a xlink:title=" ">
<polygon fill="#e0e0e0" stroke="#999999" points="471.5,-24.5 372.5,-24.5 372.5,-5.5 471.5,-5.5 471.5,-24.5"/>
<text text-anchor="middle" x="422" y="-12.5" font-family="Helvetica,sans-Serif" font-size="10.00">spdlog/fmt/ostr.h</text>
</a>
</g>
</g>
<!-- Node1&#45;&gt;Node5 -->
<g id="edge4_Node000001_Node000005" class="edge">
<title>Node1&#45;&gt;Node5</title>
<g id="a_edge4_Node000001_Node000005"><a xlink:title=" ">
<path fill="none" stroke="#63b8ff" d="M474,-65.87C464.63,-56.88 449.75,-42.61 438.3,-31.64"/>
<polygon fill="#63b8ff" stroke="#63b8ff" points="440.68,-29.06 431.04,-24.67 435.83,-34.12 440.68,-29.06"/>
</a>
</g>
</g>
<!-- Node6 -->
<g id="Node000006" class="node">
<title>Node6</title>
<g id="a_Node000006"><a xlink:title=" ">
<polygon fill="#e0e0e0" stroke="#999999" points="600.5,-30 489.5,-30 489.5,0 600.5,0 600.5,-30"/>
<text text-anchor="start" x="497.5" y="-18" font-family="Helvetica,sans-Serif" font-size="10.00">spdlog/fmt/bundled</text>
<text text-anchor="middle" x="545" y="-7" font-family="Helvetica,sans-Serif" font-size="10.00">/color.h</text>
</a>
</g>
</g>
<!-- Node1&#45;&gt;Node6 -->
<g id="edge5_Node000001_Node000006" class="edge">
<title>Node1&#45;&gt;Node6</title>
<g id="a_edge5_Node000001_Node000006"><a xlink:title=" ">
<path fill="none" stroke="#63b8ff" d="M492.15,-65.87C500.17,-58.3 512.17,-46.98 522.7,-37.04"/>
<polygon fill="#63b8ff" stroke="#63b8ff" points="525.17,-39.52 530.04,-30.11 520.37,-34.43 525.17,-39.52"/>
</a>
</g>
</g>
<!-- Node7 -->
<g id="Node000007" class="node">
<title>Node7</title>
<g id="a_Node000007"><a xlink:title=" ">
<polygon fill="#e0e0e0" stroke="#999999" points="729.5,-30 618.5,-30 618.5,0 729.5,0 729.5,-30"/>
<text text-anchor="start" x="626.5" y="-18" font-family="Helvetica,sans-Serif" font-size="10.00">spdlog/fmt/bundled</text>
<text text-anchor="middle" x="674" y="-7" font-family="Helvetica,sans-Serif" font-size="10.00">/format.h</text>
</a>
</g>
</g>
<!-- Node1&#45;&gt;Node7 -->
<g id="edge6_Node000001_Node000007" class="edge">
<title>Node1&#45;&gt;Node7</title>
<g id="a_edge6_Node000001_Node000007"><a xlink:title=" ">
<path fill="none" stroke="#63b8ff" d="M510.77,-65.99C538.86,-57.39 583.05,-43.86 618.37,-33.04"/>
<polygon fill="#63b8ff" stroke="#63b8ff" points="619.54,-36.34 628.08,-30.06 617.49,-29.65 619.54,-36.34"/>
</a>
</g>
</g>
<!-- Node8 -->
<g id="Node000008" class="node">
<title>Node8</title>
<g id="a_Node000008"><a xlink:title=" ">
<polygon fill="#e0e0e0" stroke="#999999" points="844,-24.5 748,-24.5 748,-5.5 844,-5.5 844,-24.5"/>
<text text-anchor="middle" x="796" y="-12.5" font-family="Helvetica,sans-Serif" font-size="10.00">spdlog/cfg/env.h</text>
</a>
</g>
</g>
<!-- Node1&#45;&gt;Node8 -->
<g id="edge7_Node000001_Node000008" class="edge">
<title>Node1&#45;&gt;Node8</title>
<g id="a_edge7_Node000001_Node000008"><a xlink:title=" ">
<path fill="none" stroke="#63b8ff" d="M527.12,-67.78C578.27,-59.76 665.04,-45.49 739,-30 743.5,-29.06 748.18,-28.01 752.84,-26.93"/>
<polygon fill="#63b8ff" stroke="#63b8ff" points="754.02,-30.25 762.93,-24.53 752.39,-23.44 754.02,-30.25"/>
</a>
</g>
</g>
<!-- Node9 -->
<g id="Node000009" class="node">
<title>Node9</title>
<g id="a_Node000009"><a xlink:title=" ">
<polygon fill="#e0e0e0" stroke="#999999" points="973.5,-30 862.5,-30 862.5,0 973.5,0 973.5,-30"/>
<text text-anchor="start" x="870.5" y="-18" font-family="Helvetica,sans-Serif" font-size="10.00">spdlog/sinks/stdout</text>
<text text-anchor="middle" x="918" y="-7" font-family="Helvetica,sans-Serif" font-size="10.00">_color_sinks.h</text>
</a>
</g>
</g>
<!-- Node1&#45;&gt;Node9 -->
<g id="edge8_Node000001_Node000009" class="edge">
<title>Node1&#45;&gt;Node9</title>
<g id="a_edge8_Node000001_Node000009"><a xlink:title=" ">
<path fill="none" stroke="#63b8ff" d="M527.04,-70.53C594.74,-64.14 728.61,-50.36 852.37,-30"/>
<polygon fill="#63b8ff" stroke="#63b8ff" points="853.11,-33.42 862.4,-28.33 851.96,-26.52 853.11,-33.42"/>
</a>
</g>
</g>
</g>
</svg>
