<?xml version="1.0" encoding="UTF-8" standalone="no"?>
<!DOCTYPE svg PUBLIC "-//W3C//DTD SVG 1.1//EN"
 "http://www.w3.org/Graphics/SVG/1.1/DTD/svg11.dtd">
<!-- Generated by graphviz version 2.42.4 (0)
 -->
<!-- Title: types.hpp Pages: 1 -->
<svg width="573pt" height="192pt"
 viewBox="0.00 0.00 572.58 192.00" xmlns="http://www.w3.org/2000/svg" xmlns:xlink="http://www.w3.org/1999/xlink">
<g id="graph0" class="graph" transform="scale(1 1) rotate(0) translate(4 188)">
<title>types.hpp</title>
<!-- Node1 -->
<g id="Node000001" class="node">
<title>Node1</title>
<g id="a_Node000001"><a xlink:title=" ">
<polygon fill="#999999" stroke="#666666" points="196.58,-184 131.58,-184 131.58,-165 196.58,-165 196.58,-184"/>
<text text-anchor="middle" x="164.08" y="-172" font-family="Helvetica,sans-Serif" font-size="10.00">types.hpp</text>
</a>
</g>
</g>
<!-- Node2 -->
<g id="Node000002" class="node">
<title>Node2</title>
<g id="a_Node000002"><a xlink:href="numerics_8hpp.html" target="_top" xlink:title=" ">
<polygon fill="white" stroke="#666666" points="205.58,-129 122.58,-129 122.58,-110 205.58,-110 205.58,-129"/>
<text text-anchor="middle" x="164.08" y="-117" font-family="Helvetica,sans-Serif" font-size="10.00">numerics.hpp</text>
</a>
</g>
</g>
<!-- Node1&#45;&gt;Node2 -->
<g id="edge1_Node000001_Node000002" class="edge">
<title>Node1&#45;&gt;Node2</title>
<g id="a_edge1_Node000001_Node000002"><a xlink:title=" ">
<path fill="none" stroke="#63b8ff" d="M164.08,-154.66C164.08,-145.93 164.08,-135.99 164.08,-129.09"/>
<polygon fill="#63b8ff" stroke="#63b8ff" points="160.58,-154.75 164.08,-164.75 167.58,-154.75 160.58,-154.75"/>
</a>
</g>
</g>
<!-- Node4 -->
<g id="Node000004" class="node">
<title>Node4</title>
<g id="a_Node000004"><a xlink:href="simd_8hpp.html" target="_top" xlink:title=" ">
<polygon fill="white" stroke="#666666" points="88.08,-19 26.08,-19 26.08,0 88.08,0 88.08,-19"/>
<text text-anchor="middle" x="57.08" y="-7" font-family="Helvetica,sans-Serif" font-size="10.00">simd.hpp</text>
</a>
</g>
</g>
<!-- Node1&#45;&gt;Node4 -->
<g id="edge8_Node000001_Node000004" class="edge">
<title>Node1&#45;&gt;Node4</title>
<g id="a_edge8_Node000001_Node000004"><a xlink:title=" ">
<path fill="none" stroke="#63b8ff" d="M124.07,-161.44C85.3,-147.37 28.71,-119.97 3.08,-74 -9.18,-52.01 20.17,-30.58 40.23,-19.1"/>
<polygon fill="#63b8ff" stroke="#63b8ff" points="123.41,-164.91 134.01,-164.89 125.71,-158.3 123.41,-164.91"/>
</a>
</g>
</g>
<!-- Node5 -->
<g id="Node000005" class="node">
<title>Node5</title>
<g id="a_Node000005"><a xlink:href="simd__data_8hpp.html" target="_top" xlink:title=" ">
<polygon fill="white" stroke="#666666" points="101.58,-74 12.58,-74 12.58,-55 101.58,-55 101.58,-74"/>
<text text-anchor="middle" x="57.08" y="-62" font-family="Helvetica,sans-Serif" font-size="10.00">simd_data.hpp</text>
</a>
</g>
</g>
<!-- Node1&#45;&gt;Node5 -->
<g id="edge9_Node000001_Node000005" class="edge">
<title>Node1&#45;&gt;Node5</title>
<g id="a_edge9_Node000001_Node000005"><a xlink:title=" ">
<path fill="none" stroke="#63b8ff" d="M145.99,-158.27C136.29,-149.88 124.27,-139.15 114.08,-129 95.39,-110.39 75.14,-86.96 64.52,-74.41"/>
<polygon fill="#63b8ff" stroke="#63b8ff" points="143.94,-161.12 153.82,-164.95 148.49,-155.8 143.94,-161.12"/>
</a>
</g>
</g>
<!-- Node6 -->
<g id="Node000006" class="node">
<title>Node6</title>
<g id="a_Node000006"><a xlink:href="tests_8cpp.html" target="_top" xlink:title=" ">
<polygon fill="white" stroke="#666666" points="336.58,-19 275.58,-19 275.58,0 336.58,0 336.58,-19"/>
<text text-anchor="middle" x="306.08" y="-7" font-family="Helvetica,sans-Serif" font-size="10.00">tests.cpp</text>
</a>
</g>
</g>
<!-- Node1&#45;&gt;Node6 -->
<g id="edge15_Node000001_Node000006" class="edge">
<title>Node1&#45;&gt;Node6</title>
<g id="a_edge15_Node000001_Node000006"><a xlink:title=" ">
<path fill="none" stroke="#63b8ff" d="M184.48,-158.65C208.11,-140.67 247.11,-108.48 273.08,-74 286.53,-56.14 297.38,-32 302.64,-19.24"/>
<polygon fill="#63b8ff" stroke="#63b8ff" points="182.15,-156.03 176.24,-164.82 186.34,-161.63 182.15,-156.03"/>
</a>
</g>
</g>
<!-- Node7 -->
<g id="Node000007" class="node">
<title>Node7</title>
<g id="a_Node000007"><a xlink:href="static__string_8hpp.html" target="_top" xlink:title=" ">
<polygon fill="white" stroke="#666666" points="446.08,-129 348.08,-129 348.08,-110 446.08,-110 446.08,-129"/>
<text text-anchor="middle" x="397.08" y="-117" font-family="Helvetica,sans-Serif" font-size="10.00">static_string.hpp</text>
</a>
</g>
</g>
<!-- Node1&#45;&gt;Node7 -->
<g id="edge10_Node000001_Node000007" class="edge">
<title>Node1&#45;&gt;Node7</title>
<g id="a_edge10_Node000001_Node000007"><a xlink:title=" ">
<path fill="none" stroke="#63b8ff" d="M206.99,-163.74C250.65,-153.81 317.65,-138.57 359.34,-129.08"/>
<polygon fill="#63b8ff" stroke="#63b8ff" points="205.94,-160.39 196.97,-166.02 207.5,-167.21 205.94,-160.39"/>
</a>
</g>
</g>
<!-- Node3 -->
<g id="Node000003" class="node">
<title>Node3</title>
<g id="a_Node000003"><a xlink:href="numerics_8cpp.html" target="_top" xlink:title="numerics external template instantiations">
<polygon fill="white" stroke="#666666" points="240.08,-74 158.08,-74 158.08,-55 240.08,-55 240.08,-74"/>
<text text-anchor="middle" x="199.08" y="-62" font-family="Helvetica,sans-Serif" font-size="10.00">numerics.cpp</text>
</a>
</g>
</g>
<!-- Node2&#45;&gt;Node3 -->
<g id="edge2_Node000002_Node000003" class="edge">
<title>Node2&#45;&gt;Node3</title>
<g id="a_edge2_Node000002_Node000003"><a xlink:title=" ">
<path fill="none" stroke="#63b8ff" d="M175.38,-101.39C181.4,-92.27 188.55,-81.45 193.41,-74.09"/>
<polygon fill="#63b8ff" stroke="#63b8ff" points="172.45,-99.47 169.86,-109.75 178.29,-103.33 172.45,-99.47"/>
</a>
</g>
</g>
<!-- Node2&#45;&gt;Node4 -->
<g id="edge3_Node000002_Node000004" class="edge">
<title>Node2&#45;&gt;Node4</title>
<g id="a_edge3_Node000002_Node000004"><a xlink:title=" ">
<path fill="none" stroke="#63b8ff" d="M151.09,-101.72C140.57,-88.52 125.09,-69.92 110.08,-55 96.61,-41.62 79.58,-27.8 68.51,-19.19"/>
<polygon fill="#63b8ff" stroke="#63b8ff" points="148.58,-104.19 157.51,-109.89 154.08,-99.86 148.58,-104.19"/>
</a>
</g>
</g>
<!-- Node2&#45;&gt;Node5 -->
<g id="edge4_Node000002_Node000005" class="edge">
<title>Node2&#45;&gt;Node5</title>
<g id="a_edge4_Node000002_Node000005"><a xlink:title=" ">
<path fill="none" stroke="#63b8ff" d="M137.83,-105.5C118.15,-95.75 91.75,-82.68 74.58,-74.17"/>
<polygon fill="#63b8ff" stroke="#63b8ff" points="136.37,-108.68 146.89,-109.98 139.48,-102.41 136.37,-108.68"/>
</a>
</g>
</g>
<!-- Node2&#45;&gt;Node6 -->
<g id="edge7_Node000002_Node000006" class="edge">
<title>Node2&#45;&gt;Node6</title>
<g id="a_edge7_Node000002_Node000006"><a xlink:title=" ">
<path fill="none" stroke="#63b8ff" d="M194.66,-105.74C211.58,-97.9 232.48,-86.9 249.08,-74 270.37,-57.45 290.19,-32.34 299.88,-19.2"/>
<polygon fill="#63b8ff" stroke="#63b8ff" points="192.91,-102.68 185.23,-109.97 195.78,-109.07 192.91,-102.68"/>
</a>
</g>
</g>
<!-- Node5&#45;&gt;Node4 -->
<g id="edge5_Node000005_Node000004" class="edge">
<title>Node5&#45;&gt;Node4</title>
<g id="a_edge5_Node000005_Node000004"><a xlink:title=" ">
<path fill="none" stroke="#63b8ff" d="M57.08,-44.66C57.08,-35.93 57.08,-25.99 57.08,-19.09"/>
<polygon fill="#63b8ff" stroke="#63b8ff" points="53.58,-44.75 57.08,-54.75 60.58,-44.75 53.58,-44.75"/>
</a>
</g>
</g>
<!-- Node5&#45;&gt;Node6 -->
<g id="edge6_Node000005_Node000006" class="edge">
<title>Node5&#45;&gt;Node6</title>
<g id="a_edge6_Node000005_Node000006"><a xlink:title=" ">
<path fill="none" stroke="#63b8ff" d="M107.08,-52.86C157.32,-42.16 233.15,-26.02 275.22,-17.07"/>
<polygon fill="#63b8ff" stroke="#63b8ff" points="106.14,-49.48 97.08,-54.98 107.59,-56.33 106.14,-49.48"/>
</a>
</g>
</g>
<!-- Node7&#45;&gt;Node6 -->
<g id="edge14_Node000007_Node000006" class="edge">
<title>Node7&#45;&gt;Node6</title>
<g id="a_edge14_Node000007_Node000006"><a xlink:title=" ">
<path fill="none" stroke="#63b8ff" d="M383.17,-102C363.57,-78.73 328.52,-37.13 313.37,-19.16"/>
<polygon fill="#63b8ff" stroke="#63b8ff" points="380.51,-104.27 389.63,-109.66 385.86,-99.76 380.51,-104.27"/>
</a>
</g>
</g>
<!-- Node8 -->
<g id="Node000008" class="node">
<title>Node8</title>
<g id="a_Node000008"><a xlink:href="profiling_8hpp.html" target="_top" xlink:title=" ">
<polygon fill="white" stroke="#666666" points="449.58,-74 372.58,-74 372.58,-55 449.58,-55 449.58,-74"/>
<text text-anchor="middle" x="411.08" y="-62" font-family="Helvetica,sans-Serif" font-size="10.00">profiling.hpp</text>
</a>
</g>
</g>
<!-- Node7&#45;&gt;Node8 -->
<g id="edge11_Node000007_Node000008" class="edge">
<title>Node7&#45;&gt;Node8</title>
<g id="a_edge11_Node000007_Node000008"><a xlink:title=" ">
<path fill="none" stroke="#63b8ff" d="M401.98,-99.95C404.3,-91.15 406.97,-81.06 408.81,-74.09"/>
<polygon fill="#63b8ff" stroke="#63b8ff" points="398.56,-99.19 399.39,-109.75 405.33,-100.97 398.56,-99.19"/>
</a>
</g>
</g>
<!-- Node9 -->
<g id="Node000009" class="node">
<title>Node9</title>
<g id="a_Node000009"><a xlink:href="static__string_8cpp.html" target="_top" xlink:title=" ">
<polygon fill="white" stroke="#666666" points="564.58,-74 467.58,-74 467.58,-55 564.58,-55 564.58,-74"/>
<text text-anchor="middle" x="516.08" y="-62" font-family="Helvetica,sans-Serif" font-size="10.00">static_string.cpp</text>
</a>
</g>
</g>
<!-- Node7&#45;&gt;Node9 -->
<g id="edge13_Node000007_Node000009" class="edge">
<title>Node7&#45;&gt;Node9</title>
<g id="a_edge13_Node000007_Node000009"><a xlink:title=" ">
<path fill="none" stroke="#63b8ff" d="M425.38,-105.9C447.35,-96.11 477.25,-82.79 496.61,-74.17"/>
<polygon fill="#63b8ff" stroke="#63b8ff" points="423.91,-102.72 416.2,-109.98 426.76,-109.11 423.91,-102.72"/>
</a>
</g>
</g>
<!-- Node8&#45;&gt;Node6 -->
<g id="edge12_Node000008_Node000006" class="edge">
<title>Node8&#45;&gt;Node6</title>
<g id="a_edge12_Node000008_Node000006"><a xlink:title=" ">
<path fill="none" stroke="#63b8ff" d="M385.06,-50.37C365.77,-40.63 340.03,-27.64 323.26,-19.17"/>
<polygon fill="#63b8ff" stroke="#63b8ff" points="383.7,-53.6 394.21,-54.98 386.86,-47.35 383.7,-53.6"/>
</a>
</g>
</g>
</g>
</svg>
