<?xml version="1.0" encoding="UTF-8" standalone="no"?>
<!DOCTYPE svg PUBLIC "-//W3C//DTD SVG 1.1//EN"
 "http://www.w3.org/Graphics/SVG/1.1/DTD/svg11.dtd">
<!-- Generated by graphviz version 2.42.4 (0)
 -->
<!-- Title: types.hpp Pages: 1 -->
<svg width="490pt" height="247pt"
 viewBox="0.00 0.00 490.02 247.00" xmlns="http://www.w3.org/2000/svg" xmlns:xlink="http://www.w3.org/1999/xlink">
<g id="graph0" class="graph" transform="scale(1 1) rotate(0) translate(4 243)">
<title>types.hpp</title>
<!-- Node1 -->
<g id="Node000001" class="node">
<title>Node1</title>
<g id="a_Node000001"><a xlink:title=" ">
<polygon fill="#999999" stroke="#666666" points="266.53,-239 201.53,-239 201.53,-220 266.53,-220 266.53,-239"/>
<text text-anchor="middle" x="234.03" y="-227" font-family="Helvetica,sans-Serif" font-size="10.00">types.hpp</text>
</a>
</g>
</g>
<!-- Node2 -->
<g id="Node000002" class="node">
<title>Node2</title>
<g id="a_Node000002"><a xlink:href="numerics_8hpp.html" target="_top" xlink:title=" ">
<polygon fill="white" stroke="#666666" points="202.53,-184 119.53,-184 119.53,-165 202.53,-165 202.53,-184"/>
<text text-anchor="middle" x="161.03" y="-172" font-family="Helvetica,sans-Serif" font-size="10.00">numerics.hpp</text>
</a>
</g>
</g>
<!-- Node1&#45;&gt;Node2 -->
<g id="edge1_Node000001_Node000002" class="edge">
<title>Node1&#45;&gt;Node2</title>
<g id="a_edge1_Node000001_Node000002"><a xlink:title=" ">
<path fill="none" stroke="#63b8ff" d="M213.89,-213.88C200.75,-204.34 184.05,-192.21 172.97,-184.17"/>
<polygon fill="#63b8ff" stroke="#63b8ff" points="212.15,-216.94 222.3,-219.98 216.26,-211.28 212.15,-216.94"/>
</a>
</g>
</g>
<!-- Node4 -->
<g id="Node000004" class="node">
<title>Node4</title>
<g id="a_Node000004"><a xlink:href="simd_8hpp.html" target="_top" xlink:title=" ">
<polygon fill="white" stroke="#666666" points="133.03,-74 71.03,-74 71.03,-55 133.03,-55 133.03,-74"/>
<text text-anchor="middle" x="102.03" y="-62" font-family="Helvetica,sans-Serif" font-size="10.00">simd.hpp</text>
</a>
</g>
</g>
<!-- Node1&#45;&gt;Node4 -->
<g id="edge9_Node000001_Node000004" class="edge">
<title>Node1&#45;&gt;Node4</title>
<g id="a_edge9_Node000001_Node000004"><a xlink:title=" ">
<path fill="none" stroke="#63b8ff" d="M191.15,-224.43C136.25,-216.6 43.51,-193.97 4.03,-129 -13.98,-99.37 35.8,-80.99 70.84,-72.05"/>
<polygon fill="#63b8ff" stroke="#63b8ff" points="190.9,-227.92 201.27,-225.76 191.81,-220.98 190.9,-227.92"/>
</a>
</g>
</g>
<!-- Node5 -->
<g id="Node000005" class="node">
<title>Node5</title>
<g id="a_Node000005"><a xlink:href="tests_8cpp.html" target="_top" xlink:title=" ">
<polygon fill="white" stroke="#666666" points="262.53,-19 201.53,-19 201.53,0 262.53,0 262.53,-19"/>
<text text-anchor="middle" x="232.03" y="-7" font-family="Helvetica,sans-Serif" font-size="10.00">tests.cpp</text>
</a>
</g>
</g>
<!-- Node1&#45;&gt;Node5 -->
<g id="edge16_Node000001_Node000005" class="edge">
<title>Node1&#45;&gt;Node5</title>
<g id="a_edge16_Node000001_Node000005"><a xlink:title=" ">
<path fill="none" stroke="#63b8ff" d="M276.34,-217.14C359.63,-192.79 531.46,-131.51 468.03,-55 442.28,-23.95 320.63,-14.41 262.76,-11.61"/>
<polygon fill="#63b8ff" stroke="#63b8ff" points="275.29,-213.8 266.64,-219.93 277.22,-220.53 275.29,-213.8"/>
</a>
</g>
</g>
<!-- Node6 -->
<g id="Node000006" class="node">
<title>Node6</title>
<g id="a_Node000006"><a xlink:href="simd__data_8hpp.html" target="_top" xlink:title=" ">
<polygon fill="white" stroke="#666666" points="278.53,-129 189.53,-129 189.53,-110 278.53,-110 278.53,-129"/>
<text text-anchor="middle" x="234.03" y="-117" font-family="Helvetica,sans-Serif" font-size="10.00">simd_data.hpp</text>
</a>
</g>
</g>
<!-- Node1&#45;&gt;Node6 -->
<g id="edge10_Node000001_Node000006" class="edge">
<title>Node1&#45;&gt;Node6</title>
<g id="a_edge10_Node000001_Node000006"><a xlink:title=" ">
<path fill="none" stroke="#63b8ff" d="M234.03,-209.48C234.03,-185.84 234.03,-146.5 234.03,-129.16"/>
<polygon fill="#63b8ff" stroke="#63b8ff" points="230.53,-209.66 234.03,-219.66 237.53,-209.66 230.53,-209.66"/>
</a>
</g>
</g>
<!-- Node7 -->
<g id="Node000007" class="node">
<title>Node7</title>
<g id="a_Node000007"><a xlink:href="static__string_8hpp.html" target="_top" xlink:title=" ">
<polygon fill="white" stroke="#666666" points="394.03,-129 296.03,-129 296.03,-110 394.03,-110 394.03,-129"/>
<text text-anchor="middle" x="345.03" y="-117" font-family="Helvetica,sans-Serif" font-size="10.00">static_string.hpp</text>
</a>
</g>
</g>
<!-- Node1&#45;&gt;Node7 -->
<g id="edge11_Node000001_Node000007" class="edge">
<title>Node1&#45;&gt;Node7</title>
<g id="a_edge11_Node000001_Node000007"><a xlink:title=" ">
<path fill="none" stroke="#63b8ff" d="M250.36,-212.61C274.15,-189.47 317.5,-147.29 336.13,-129.16"/>
<polygon fill="#63b8ff" stroke="#63b8ff" points="247.84,-210.18 243.11,-219.66 252.72,-215.2 247.84,-210.18"/>
</a>
</g>
</g>
<!-- Node3 -->
<g id="Node000003" class="node">
<title>Node3</title>
<g id="a_Node000003"><a xlink:href="numerics_8cpp.html" target="_top" xlink:title="numerics external template instantiations">
<polygon fill="white" stroke="#666666" points="95.03,-129 13.03,-129 13.03,-110 95.03,-110 95.03,-129"/>
<text text-anchor="middle" x="54.03" y="-117" font-family="Helvetica,sans-Serif" font-size="10.00">numerics.cpp</text>
</a>
</g>
</g>
<!-- Node2&#45;&gt;Node3 -->
<g id="edge2_Node000002_Node000003" class="edge">
<title>Node2&#45;&gt;Node3</title>
<g id="a_edge2_Node000002_Node000003"><a xlink:title=" ">
<path fill="none" stroke="#63b8ff" d="M134.78,-160.5C115.1,-150.75 88.7,-137.68 71.53,-129.17"/>
<polygon fill="#63b8ff" stroke="#63b8ff" points="133.32,-163.68 143.84,-164.98 136.43,-157.41 133.32,-163.68"/>
</a>
</g>
</g>
<!-- Node2&#45;&gt;Node4 -->
<g id="edge3_Node000002_Node000004" class="edge">
<title>Node2&#45;&gt;Node4</title>
<g id="a_edge3_Node000002_Node000004"><a xlink:title=" ">
<path fill="none" stroke="#63b8ff" d="M151.34,-155.76C138.51,-132.28 116.4,-91.81 106.76,-74.16"/>
<polygon fill="#63b8ff" stroke="#63b8ff" points="148.34,-157.56 156.2,-164.66 154.48,-154.21 148.34,-157.56"/>
</a>
</g>
</g>
<!-- Node2&#45;&gt;Node5 -->
<g id="edge8_Node000002_Node000005" class="edge">
<title>Node2&#45;&gt;Node5</title>
<g id="a_edge8_Node000002_Node000005"><a xlink:title=" ">
<path fill="none" stroke="#63b8ff" d="M166.03,-154.78C169.66,-141.97 174.99,-124.72 181.03,-110 195.33,-75.16 217.24,-35.98 227.02,-19.05"/>
<polygon fill="#63b8ff" stroke="#63b8ff" points="162.57,-154.14 163.29,-164.71 169.32,-156 162.57,-154.14"/>
</a>
</g>
</g>
<!-- Node2&#45;&gt;Node6 -->
<g id="edge5_Node000002_Node000006" class="edge">
<title>Node2&#45;&gt;Node6</title>
<g id="a_edge5_Node000002_Node000006"><a xlink:title=" ">
<path fill="none" stroke="#63b8ff" d="M181.17,-158.88C194.31,-149.34 211.01,-137.21 222.09,-129.17"/>
<polygon fill="#63b8ff" stroke="#63b8ff" points="178.79,-156.28 172.76,-164.98 182.91,-161.94 178.79,-156.28"/>
</a>
</g>
</g>
<!-- Node4&#45;&gt;Node5 -->
<g id="edge4_Node000004_Node000005" class="edge">
<title>Node4&#45;&gt;Node5</title>
<g id="a_edge4_Node000004_Node000005"><a xlink:title=" ">
<path fill="none" stroke="#63b8ff" d="M132.3,-51.16C156.36,-41.35 189.43,-27.87 210.76,-19.17"/>
<polygon fill="#63b8ff" stroke="#63b8ff" points="130.85,-47.97 122.92,-54.98 133.5,-54.45 130.85,-47.97"/>
</a>
</g>
</g>
<!-- Node6&#45;&gt;Node4 -->
<g id="edge6_Node000006_Node000004" class="edge">
<title>Node6&#45;&gt;Node4</title>
<g id="a_edge6_Node000006_Node000004"><a xlink:title=" ">
<path fill="none" stroke="#63b8ff" d="M203.3,-106.16C178.86,-96.35 145.29,-82.87 123.62,-74.17"/>
<polygon fill="#63b8ff" stroke="#63b8ff" points="202.24,-109.51 212.82,-109.98 204.85,-103.01 202.24,-109.51"/>
</a>
</g>
</g>
<!-- Node6&#45;&gt;Node5 -->
<g id="edge7_Node000006_Node000005" class="edge">
<title>Node6&#45;&gt;Node5</title>
<g id="a_edge7_Node000006_Node000005"><a xlink:title=" ">
<path fill="none" stroke="#63b8ff" d="M226.47,-100.49C223.52,-92.53 220.5,-82.95 219.03,-74 215.79,-54.23 223.34,-31.26 228.24,-19.09"/>
<polygon fill="#63b8ff" stroke="#63b8ff" points="223.24,-101.84 230.17,-109.85 229.75,-99.26 223.24,-101.84"/>
</a>
</g>
</g>
<!-- Node7&#45;&gt;Node5 -->
<g id="edge15_Node000007_Node000005" class="edge">
<title>Node7&#45;&gt;Node5</title>
<g id="a_edge15_Node000007_Node000005"><a xlink:title=" ">
<path fill="none" stroke="#63b8ff" d="M339.4,-99.89C334.49,-86.15 326.22,-67.72 314.03,-55 298.01,-38.27 274.3,-26.35 256.49,-19.08"/>
<polygon fill="#63b8ff" stroke="#63b8ff" points="336.17,-101.29 342.63,-109.69 342.82,-99.1 336.17,-101.29"/>
</a>
</g>
</g>
<!-- Node8 -->
<g id="Node000008" class="node">
<title>Node8</title>
<g id="a_Node000008"><a xlink:href="profiling_8hpp.html" target="_top" xlink:title=" ">
<polygon fill="white" stroke="#666666" points="304.53,-74 227.53,-74 227.53,-55 304.53,-55 304.53,-74"/>
<text text-anchor="middle" x="266.03" y="-62" font-family="Helvetica,sans-Serif" font-size="10.00">profiling.hpp</text>
</a>
</g>
</g>
<!-- Node7&#45;&gt;Node8 -->
<g id="edge12_Node000007_Node000008" class="edge">
<title>Node7&#45;&gt;Node8</title>
<g id="a_edge12_Node000007_Node000008"><a xlink:title=" ">
<path fill="none" stroke="#63b8ff" d="M323.64,-104.15C309.36,-94.57 291.05,-82.29 278.95,-74.17"/>
<polygon fill="#63b8ff" stroke="#63b8ff" points="322.08,-107.32 332.34,-109.98 325.98,-101.51 322.08,-107.32"/>
</a>
</g>
</g>
<!-- Node9 -->
<g id="Node000009" class="node">
<title>Node9</title>
<g id="a_Node000009"><a xlink:href="static__string_8cpp.html" target="_top" xlink:title=" ">
<polygon fill="white" stroke="#666666" points="458.53,-74 361.53,-74 361.53,-55 458.53,-55 458.53,-74"/>
<text text-anchor="middle" x="410.03" y="-62" font-family="Helvetica,sans-Serif" font-size="10.00">static_string.cpp</text>
</a>
</g>
</g>
<!-- Node7&#45;&gt;Node9 -->
<g id="edge14_Node000007_Node000009" class="edge">
<title>Node7&#45;&gt;Node9</title>
<g id="a_edge14_Node000007_Node000009"><a xlink:title=" ">
<path fill="none" stroke="#63b8ff" d="M363.3,-103.6C374.95,-94.11 389.63,-82.13 399.4,-74.17"/>
<polygon fill="#63b8ff" stroke="#63b8ff" points="361.01,-100.95 355.47,-109.98 365.43,-106.38 361.01,-100.95"/>
</a>
</g>
</g>
<!-- Node8&#45;&gt;Node5 -->
<g id="edge13_Node000008_Node000005" class="edge">
<title>Node8&#45;&gt;Node5</title>
<g id="a_edge13_Node000008_Node000005"><a xlink:title=" ">
<path fill="none" stroke="#63b8ff" d="M254.87,-46.1C249.06,-37.04 242.21,-26.37 237.54,-19.09"/>
<polygon fill="#63b8ff" stroke="#63b8ff" points="252.07,-48.22 260.41,-54.75 257.96,-44.44 252.07,-48.22"/>
</a>
</g>
</g>
</g>
</svg>
