<?xml version="1.0" encoding="UTF-8" standalone="no"?>
<!DOCTYPE svg PUBLIC "-//W3C//DTD SVG 1.1//EN"
 "http://www.w3.org/Graphics/SVG/1.1/DTD/svg11.dtd">
<!-- Generated by graphviz version 2.42.4 (0)
 -->
<!-- Title: wait.cpp Pages: 1 -->
<svg width="360pt" height="203pt"
 viewBox="0.00 0.00 359.63 203.00" xmlns="http://www.w3.org/2000/svg" xmlns:xlink="http://www.w3.org/1999/xlink">

<svg id="main" version="1.1" xmlns="http://www.w3.org/2000/svg" xmlns:xlink="http://www.w3.org/1999/xlink" xml:space="preserve">

<style type="text/css"><![CDATA[
.node, .edge {opacity: 0.7;}
.node.selected, .edge.selected {opacity: 1;}
.edge:hover path { stroke: red; }
.edge:hover polygon { stroke: red; fill: red; }
]]></style>
<script type="application/ecmascript" xlink:href="svg.min.js"/>
<svg id="graph" class="graph">
<g id="graph0" class="graph" transform="scale(1 1) rotate(0) translate(4 199)">
<title>wait.cpp</title>
<!-- Node1 -->
<g id="Node000001" class="node">
<title>Node1</title>
<g id="a_Node000001"><a xlink:title=" ">
<polygon fill="#999999" stroke="#666666" points="163.13,-195 105.13,-195 105.13,-176 163.13,-176 163.13,-195"/>
<text text-anchor="middle" x="134.13" y="-183" font-family="Helvetica,sans-Serif" font-size="10.00">wait.cpp</text>
</a>
</g>
</g>
<!-- Node2 -->
<g id="Node000002" class="node">
<title>Node2</title>
<g id="a_Node000002"><a xlink:href="wait_8hpp.html" target="_top" xlink:title="waiting strategies">
<polygon fill="white" stroke="#666666" points="163.63,-140 104.63,-140 104.63,-121 163.63,-121 163.63,-140"/>
<text text-anchor="middle" x="134.13" y="-128" font-family="Helvetica,sans-Serif" font-size="10.00">wait.hpp</text>
</a>
</g>
</g>
<!-- Node1&#45;&gt;Node2 -->
<g id="edge1_Node000001_Node000002" class="edge">
<title>Node1&#45;&gt;Node2</title>
<g id="a_edge1_Node000001_Node000002"><a xlink:title=" ">
<path fill="none" stroke="#63b8ff" d="M134.13,-175.75C134.13,-168.8 134.13,-158.85 134.13,-150.13"/>
<polygon fill="#63b8ff" stroke="#63b8ff" points="137.63,-150.09 134.13,-140.09 130.63,-150.09 137.63,-150.09"/>
</a>
</g>
</g>
<!-- Node3 -->
<g id="Node000003" class="node">
<title>Node3</title>
<g id="a_Node000003"><a xlink:title=" ">
<polygon fill="#e0e0e0" stroke="#999999" points="61.13,-19 11.13,-19 11.13,0 61.13,0 61.13,-19"/>
<text text-anchor="middle" x="36.13" y="-7" font-family="Helvetica,sans-Serif" font-size="10.00">cstdint</text>
</a>
</g>
</g>
<!-- Node2&#45;&gt;Node3 -->
<g id="edge2_Node000002_Node000003" class="edge">
<title>Node2&#45;&gt;Node3</title>
<g id="a_edge2_Node000002_Node000003"><a xlink:title=" ">
<path fill="none" stroke="#63b8ff" d="M104.58,-128.62C74,-125.94 27.61,-116.54 5.13,-85 -7.63,-67.1 6.9,-43.15 20.06,-27.29"/>
<polygon fill="#63b8ff" stroke="#63b8ff" points="23.04,-29.21 27.05,-19.41 17.8,-24.57 23.04,-29.21"/>
</a>
</g>
</g>
<!-- Node4 -->
<g id="Node000004" class="node">
<title>Node4</title>
<g id="a_Node000004"><a xlink:title=" ">
<polygon fill="#e0e0e0" stroke="#999999" points="83.63,-79.5 14.63,-79.5 14.63,-60.5 83.63,-60.5 83.63,-79.5"/>
<text text-anchor="middle" x="49.13" y="-67.5" font-family="Helvetica,sans-Serif" font-size="10.00">x86intrin.h</text>
</a>
</g>
</g>
<!-- Node2&#45;&gt;Node4 -->
<g id="edge3_Node000002_Node000004" class="edge">
<title>Node2&#45;&gt;Node4</title>
<g id="a_edge3_Node000002_Node000004"><a xlink:title=" ">
<path fill="none" stroke="#63b8ff" d="M121.59,-120.87C108.03,-111.54 86.19,-96.51 70.03,-85.38"/>
<polygon fill="#63b8ff" stroke="#63b8ff" points="71.94,-82.45 61.72,-79.67 67.97,-88.22 71.94,-82.45"/>
</a>
</g>
</g>
<!-- Node5 -->
<g id="Node000005" class="node">
<title>Node5</title>
<g id="a_Node000005"><a xlink:href="common_8hpp.html" target="_top" xlink:title=" ">
<polygon fill="white" stroke="#666666" points="259.63,-19 128.63,-19 128.63,0 259.63,0 259.63,-19"/>
<text text-anchor="middle" x="194.13" y="-7" font-family="Helvetica,sans-Serif" font-size="10.00">attributes/common.hpp</text>
</a>
</g>
</g>
<!-- Node2&#45;&gt;Node5 -->
<g id="edge4_Node000002_Node000005" class="edge">
<title>Node2&#45;&gt;Node5</title>
<g id="a_edge4_Node000002_Node000005"><a xlink:title=" ">
<path fill="none" stroke="#63b8ff" d="M144.79,-120.71C154.14,-112.43 167.41,-99.22 175.13,-85 184.65,-67.44 189.54,-44.95 191.95,-29.29"/>
<polygon fill="#63b8ff" stroke="#63b8ff" points="195.43,-29.65 193.3,-19.27 188.49,-28.71 195.43,-29.65"/>
</a>
</g>
</g>
<!-- Node6 -->
<g id="Node000006" class="node">
<title>Node6</title>
<g id="a_Node000006"><a xlink:href="performance__constraints_8hpp.html" target="_top" xlink:title=" ">
<polygon fill="white" stroke="#666666" points="351.63,-85 222.63,-85 222.63,-55 351.63,-55 351.63,-85"/>
<text text-anchor="start" x="230.63" y="-73" font-family="Helvetica,sans-Serif" font-size="10.00">attributes/performance</text>
<text text-anchor="middle" x="287.13" y="-62" font-family="Helvetica,sans-Serif" font-size="10.00">_constraints.hpp</text>
</a>
</g>
</g>
<!-- Node2&#45;&gt;Node6 -->
<g id="edge5_Node000002_Node000006" class="edge">
<title>Node2&#45;&gt;Node6</title>
<g id="a_edge5_Node000002_Node000006"><a xlink:title=" ">
<path fill="none" stroke="#63b8ff" d="M156.38,-120.99C178.39,-112.57 212.77,-99.43 240.75,-88.73"/>
<polygon fill="#63b8ff" stroke="#63b8ff" points="242.25,-91.9 250.34,-85.06 239.75,-85.37 242.25,-91.9"/>
</a>
</g>
</g>
<!-- Node7 -->
<g id="Node000007" class="node">
<title>Node7</title>
<g id="a_Node000007"><a xlink:href="cpuid_8hpp.html" target="_top" xlink:title=" ">
<polygon fill="white" stroke="#666666" points="166.13,-79.5 102.13,-79.5 102.13,-60.5 166.13,-60.5 166.13,-79.5"/>
<text text-anchor="middle" x="134.13" y="-67.5" font-family="Helvetica,sans-Serif" font-size="10.00">cpuid.hpp</text>
</a>
</g>
</g>
<!-- Node2&#45;&gt;Node7 -->
<g id="edge7_Node000002_Node000007" class="edge">
<title>Node2&#45;&gt;Node7</title>
<g id="a_edge7_Node000002_Node000007"><a xlink:title=" ">
<path fill="none" stroke="#63b8ff" d="M134.13,-120.87C134.13,-112.75 134.13,-100.31 134.13,-89.89"/>
<polygon fill="#63b8ff" stroke="#63b8ff" points="137.63,-89.67 134.13,-79.67 130.63,-89.67 137.63,-89.67"/>
</a>
</g>
</g>
<!-- Node6&#45;&gt;Node5 -->
<g id="edge6_Node000006_Node000005" class="edge">
<title>Node6&#45;&gt;Node5</title>
<g id="a_edge6_Node000006_Node000005"><a xlink:title=" ">
<path fill="none" stroke="#63b8ff" d="M264.61,-54.84C250.06,-45.68 231.19,-33.82 216.64,-24.66"/>
<polygon fill="#63b8ff" stroke="#63b8ff" points="218.12,-21.46 207.79,-19.09 214.39,-27.38 218.12,-21.46"/>
</a>
</g>
</g>
<!-- Node7&#45;&gt;Node3 -->
<g id="edge8_Node000007_Node000003" class="edge">
<title>Node7&#45;&gt;Node3</title>
<g id="a_edge8_Node000007_Node000003"><a xlink:title=" ">
<path fill="none" stroke="#63b8ff" d="M119.67,-60.37C103.82,-50.91 78.16,-35.59 59.45,-24.42"/>
<polygon fill="#63b8ff" stroke="#63b8ff" points="61.03,-21.29 50.65,-19.17 57.44,-27.3 61.03,-21.29"/>
</a>
</g>
</g>
<!-- Node7&#45;&gt;Node5 -->
<g id="edge9_Node000007_Node000005" class="edge">
<title>Node7&#45;&gt;Node5</title>
<g id="a_edge9_Node000007_Node000005"><a xlink:title=" ">
<path fill="none" stroke="#63b8ff" d="M142.98,-60.37C152.11,-51.47 166.55,-37.39 177.77,-26.45"/>
<polygon fill="#63b8ff" stroke="#63b8ff" points="180.52,-28.65 185.24,-19.17 175.63,-23.64 180.52,-28.65"/>
</a>
</g>
</g>
</g>
</svg>
</svg>

<style type='text/css'>
<![CDATA[
[data-mouse-over-selected='false'] { opacity: 0.7; }
[data-mouse-over-selected='true']  { opacity: 1.0; }
]]>
</style>
<script type="application/ecmascript"><![CDATA[
document.addEventListener('DOMContentLoaded', (event) => {
  highlightEdges();
  highlightAdjacentNodes();
});
]]></script>
</svg>
